<svg width="16" height="16" viewBox="0 0 16 16" fill="none" xmlns="http://www.w3.org/2000/svg">
<path d="M14.6761 3.08805C14.4834 2.90953 14.2573 2.77077 14.0109 2.67969C13.7644 2.5886 13.5025 2.54699 13.2399 2.55724C12.9774 2.56748 12.7195 2.62937 12.4809 2.73937C12.2423 2.84937 12.0277 3.00532 11.8495 3.19831L6.6587 8.81004L5.09783 6.24198C4.96386 6.01268 4.78556 5.81236 4.57335 5.6527C4.36113 5.49304 4.11924 5.37724 3.86179 5.31207C3.60435 5.24689 3.3365 5.23364 3.07387 5.27309C2.81125 5.31254 2.55912 5.40389 2.33218 5.54183C2.10524 5.67976 1.90804 5.86151 1.7521 6.07647C1.59615 6.29143 1.48458 6.53529 1.42389 6.79383C1.36319 7.05238 1.3546 7.32041 1.39861 7.58231C1.44261 7.84421 1.53834 8.09472 1.68019 8.31923L4.61831 13.1532C4.89572 13.611 5.3419 13.9339 5.85292 14.0586L6.12677 14.1048C6.43474 14.1358 6.74571 14.0949 7.03519 13.9853C7.32467 13.8757 7.58476 13.7004 7.79498 13.4732L14.7854 5.91446C14.9638 5.72171 15.1025 5.49569 15.1936 5.24933C15.2847 5.00297 15.3263 4.74108 15.3162 4.47862C15.306 4.21616 15.2443 3.95827 15.1344 3.71967C15.0246 3.48108 14.8689 3.26645 14.6761 3.08805Z" fill="#00B0B2"/>
</svg>
