<svg width="28" height="28" viewBox="0 0 28 28" fill="none" xmlns="http://www.w3.org/2000/svg">
                                        <path d="M12.0106 0.188904C13.2424 0.188904 14.1663 0.188904 15.3982 0.188904H15.7061C19.7097 0.80254 22.7893 2.64345 24.9451 6.01845C26.1769 7.85936 26.7928 10.0071 27.1008 12.1548C27.1008 13.0753 27.1008 14.3025 27.1008 15.223C27.1008 15.5298 27.1008 15.5298 27.1008 15.8366C26.1769 20.4389 24.0212 23.5071 20.0176 25.6548C18.4778 26.5753 16.938 26.8821 15.3982 27.1889C14.1663 27.1889 13.2424 27.1889 12.0106 27.1889H11.7026C8.00706 26.5753 4.92742 24.7344 2.77167 21.6662C1.23185 19.8253 0.307964 17.6775 0 15.223C0 13.9957 0 13.0753 0 11.848C0 11.5412 0 11.5412 0 11.2344C0.923891 7.55254 2.77167 4.48435 6.15927 2.33663C8.00706 1.10935 9.85484 0.495722 12.0106 0.188904ZM10.1628 12.7685C10.7787 12.7685 11.3947 12.7685 12.0106 12.7685C12.3185 12.7685 12.6265 12.4616 12.6265 12.1548C12.6265 11.2344 12.6265 10.3139 12.6265 9.70027C12.6265 9.08663 12.3185 8.77981 12.0106 8.77981C10.7787 8.77981 9.85484 8.77981 8.62298 8.47299C8.31502 8.47299 8.00706 8.47299 8.00706 9.08663C7.69909 10.0071 7.69909 11.2344 7.69909 12.1548C7.69909 12.4616 7.69909 12.7685 8.31502 12.7685C8.93095 12.7685 9.54687 12.7685 10.1628 12.7685ZM16.938 12.7685C17.5539 12.7685 18.1699 12.7685 18.7858 12.7685C19.0937 12.7685 19.4017 12.7684 19.4017 12.1548C19.4017 11.2344 19.0937 10.0071 19.0937 9.08663C19.0937 8.77981 18.7858 8.47299 18.4778 8.77981C17.246 8.77981 16.0141 9.08663 15.0902 9.08663C14.7823 9.08663 14.4743 9.39345 14.4743 9.70027C14.4743 10.6207 14.4743 11.5412 14.4743 12.4616C14.4743 12.7684 14.7823 13.0753 15.0902 13.0753C15.7061 12.7684 16.3221 12.7685 16.938 12.7685ZM3.69556 12.7685C4.31149 12.7685 4.92742 12.7685 5.23538 12.7685C5.54335 12.7685 5.85131 12.7684 5.85131 12.1548C5.85131 10.9275 6.15927 9.70027 6.15927 8.77981C6.15927 8.47299 6.15927 8.16618 5.85131 8.16618C4.92742 7.85936 4.31149 7.85936 3.3876 7.55254C3.07964 7.55254 3.07964 7.55254 2.77167 7.85936C2.15575 9.08663 1.53982 10.6207 1.23185 12.1548C1.23185 12.4616 1.23185 12.7685 1.84778 12.7685C2.77167 12.7685 3.3876 12.7685 3.69556 12.7685ZM16.938 14.6094C16.3221 14.6094 15.7061 14.6094 15.0902 14.6094C14.7823 14.6094 14.4743 14.6094 14.4743 15.223C14.4743 16.1434 14.4743 17.0639 14.4743 17.9844C14.4743 18.2912 14.7823 18.598 15.0902 18.598C16.3221 18.598 17.5539 18.598 18.4778 18.9048C18.7858 18.9048 19.0937 18.9048 19.0937 18.598C19.4017 17.6775 19.4017 16.4503 19.4017 15.5298C19.4017 15.223 19.0937 14.9162 18.7858 14.9162C18.1699 14.6094 17.5539 14.6094 16.938 14.6094ZM10.1628 14.6094C9.54687 14.6094 8.93095 14.6094 8.31502 14.6094C8.00706 14.6094 7.69909 14.6094 7.69909 15.223C7.69909 16.1434 8.00706 17.3707 8.00706 18.2912C8.00706 18.598 8.31502 18.598 8.62298 18.598C9.85484 18.598 11.0867 18.2912 12.0106 18.2912C12.3185 18.2912 12.6265 18.2912 12.6265 17.6775C12.6265 16.7571 12.6265 15.8366 12.6265 14.9162C12.6265 14.6094 12.3185 14.3025 12.0106 14.3025C11.3947 14.6094 10.7787 14.6094 10.1628 14.6094ZM23.0973 14.6094C22.4813 14.6094 21.8654 14.6094 21.5575 14.6094C21.2495 14.6094 20.9415 14.6094 20.9415 15.223C20.9415 16.4503 20.6336 17.3707 20.6336 18.598C20.6336 18.9048 20.6336 19.2116 20.9415 19.2116C21.8654 19.5184 22.4813 19.5184 23.4052 19.8253C23.7132 19.8253 23.7132 19.8253 24.0212 19.5184C24.6371 18.2912 25.253 16.7571 25.253 15.223C25.253 14.9162 25.253 14.6094 24.6371 14.6094C24.3291 14.6094 23.7132 14.6094 23.0973 14.6094ZM23.0973 12.7685C23.7132 12.7685 24.0212 12.7685 24.6371 12.7685C24.9451 12.7685 25.253 12.4616 25.253 12.1548C24.9451 10.6207 24.6371 9.39345 24.0212 7.85936C24.0212 7.55254 23.7132 7.55254 23.4052 7.55254C22.4813 7.85936 21.8654 7.85936 20.9415 8.16618C20.6336 8.16618 20.3256 8.47299 20.6336 8.77981C20.9415 10.0071 20.9415 10.9275 20.9415 12.1548C20.9415 12.4616 21.2495 12.7685 21.5575 12.7685C22.1734 12.7685 22.7893 12.7685 23.0973 12.7685ZM3.69556 14.6094C3.07964 14.6094 2.77167 14.6094 2.15575 14.6094C1.53982 14.6094 1.53982 14.9162 1.53982 15.223C1.84778 16.7571 2.15575 17.9844 2.77167 19.2116C2.77167 19.5184 3.07964 19.5184 3.3876 19.5184C4.31149 19.2116 4.92742 19.2116 5.85131 18.9048C6.15927 18.9048 6.46724 18.598 6.15927 18.2912C6.15927 17.3707 6.15927 16.1434 5.85131 14.9162C5.85131 14.6094 5.54335 14.3025 5.23538 14.3025C4.92742 14.6094 4.31149 14.6094 3.69556 14.6094ZM12.6265 22.5866C12.6265 21.973 12.6265 21.0525 12.6265 20.4389C12.6265 20.1321 12.3185 19.8253 12.0106 19.8253C11.0867 19.8253 10.1628 19.8253 9.23891 20.1321C8.93095 20.1321 8.93095 20.4389 8.93095 20.7457C9.23891 21.6662 9.85484 22.5866 10.4708 23.5071C11.0867 24.1207 11.3947 24.7344 12.3185 25.0412C12.9345 25.348 12.9345 25.348 12.9345 24.7344C12.6265 24.1207 12.6265 23.2003 12.6265 22.5866ZM14.4743 4.79118C14.4743 5.40481 14.4743 6.01845 14.4743 6.9389C14.4743 7.24572 14.4743 7.55254 15.0902 7.55254C16.0141 7.55254 16.938 7.55254 17.8619 7.24572C18.4778 7.24572 18.4778 6.93891 18.1699 6.63209C17.8619 5.71163 17.246 4.48435 16.63 3.87072C16.3221 3.25708 15.7061 2.95027 15.0902 2.64345C14.4743 2.33663 14.4743 2.33663 14.4743 2.95027C14.4743 3.25708 14.4743 3.87072 14.4743 4.79118ZM12.6265 4.79118C12.6265 4.17754 12.6265 3.5639 12.6265 2.95027C12.6265 2.64345 12.6265 2.33663 12.6265 2.33663C12.3185 2.33663 12.3185 2.33663 12.0106 2.64345C10.4708 3.5639 9.54687 5.09799 8.93095 6.9389C8.93095 7.24572 8.93095 7.24572 9.23891 7.24572C10.1628 7.24572 11.0867 7.24572 12.3185 7.55254C12.6265 7.55254 12.9345 7.24572 12.9345 6.9389C12.6265 6.01845 12.6265 5.40481 12.6265 4.79118ZM14.4743 22.5866C14.4743 23.2003 14.4743 24.1207 14.4743 24.7344C14.4743 25.0412 14.7823 25.348 15.0902 25.0412C15.0902 25.0412 15.3982 25.0412 15.3982 24.7344C16.938 23.8139 17.5539 22.2798 18.4778 20.4389C18.4778 20.1321 18.4778 20.1321 18.1699 20.1321C17.246 20.1321 16.3221 20.1321 15.3982 19.8253C14.7823 19.8253 14.7823 20.1321 14.7823 20.4389C14.4743 21.3594 14.4743 21.973 14.4743 22.5866ZM8.93095 24.4275C8.00706 23.2003 7.39113 21.973 7.08316 20.7457C7.08316 20.4389 6.7752 20.4389 6.46724 20.4389C5.85131 20.4389 5.54335 20.7457 4.92742 20.7457C4.31149 21.0525 4.31149 21.0525 4.61946 21.3594C5.54335 22.2798 6.46724 22.8935 7.39113 23.5071C8.00706 24.1207 8.31502 24.4275 8.93095 24.4275ZM18.1699 24.4275C20.0176 23.8139 21.2495 22.5866 22.4813 21.3594C22.7893 21.0525 22.4813 21.0525 22.1734 21.0525C21.5575 21.0525 20.9415 20.7457 20.3256 20.7457C20.0176 20.7457 20.0176 20.7457 19.7097 21.0525C19.4017 22.2798 18.7858 23.5071 18.1699 24.4275ZM18.1699 2.95027C18.7858 4.17754 19.4017 5.40481 20.0176 6.63209C20.0176 6.93891 20.3256 6.9389 20.6336 6.9389C21.2495 6.9389 21.8654 6.63209 22.4813 6.63209C22.7893 6.63209 22.7893 6.32527 22.4813 6.01845C21.2495 4.48436 20.0176 3.5639 18.1699 2.95027ZM8.93095 2.95027C7.39113 3.5639 5.85131 4.48436 4.61946 6.01845C4.31149 6.32527 4.31149 6.32527 4.61946 6.32527C5.23538 6.32527 5.85131 6.63209 6.46724 6.63209C6.7752 6.63209 6.7752 6.63209 7.08316 6.32527C7.39113 5.09799 8.00706 4.17754 8.93095 2.95027Z" fill="#777777"/>
                                        </svg>