<svg
											width="22"
											height="32"
											viewBox="0 0 22 32"
											fill="none"
											xmlns="http://www.w3.org/2000/svg"
										>
											<path
												d="M21.6397 11.7089C21.6397 5.3089 16.7631 0.188904 10.6674 0.188904C4.87654 0.188904 0 5.3089 0 11.7089C0 13.9489 0.609568 16.1889 1.8287 18.1089L10.1335 30.8974C10.5278 31.5046 11.4166 31.5046 11.8109 30.8974L20.1157 18.1089C21.0301 16.1889 21.6397 13.9489 21.6397 11.7089ZM10.9722 17.7889C7.6196 17.7889 4.87654 14.9089 4.87654 11.3889C4.87654 7.8689 7.6196 4.9889 10.9722 4.9889C14.3248 4.9889 17.0679 7.8689 17.0679 11.3889C16.7631 15.2289 14.3248 17.7889 10.9722 17.7889Z"
												fill="#777777"
											/>
										</svg>