<svg
											width="187"
											height="36"
											viewBox="0 0 187 36"
											fill="none"
											xmlns="http://www.w3.org/2000/svg"
										>
											<path
												d="M163.319 15.6114C164.039 15.131 164.52 14.4105 165 13.8101C168.482 9.7271 171.965 5.76421 175.327 1.68124C176.048 0.840634 176.889 0.360296 178.089 0.360296C180.251 0.480383 182.533 0.360296 184.814 0.360296C185.175 0.360296 185.535 0.240205 185.775 0.600467C185.895 0.960728 185.535 1.2009 185.295 1.44107C182.533 4.68343 179.771 7.8057 176.889 11.0481C175.327 12.8494 173.646 14.6507 172.085 16.452C171.124 17.5328 171.124 17.5328 171.965 18.4935C173.886 20.655 175.928 22.6965 177.849 24.8581C180.731 27.9804 183.734 31.1026 186.616 34.345C186.736 34.5852 187.096 34.7052 186.976 34.9454C186.856 35.1856 186.496 35.1856 186.255 35.1856C183.373 35.1856 180.491 35.1856 177.609 35.1856C177.009 35.1856 176.768 34.8253 176.408 34.4651C174.607 32.4236 172.806 30.3821 171.004 28.3406C168.482 25.4585 166.081 22.6965 163.559 19.8144C163.439 19.6943 163.439 19.5743 163.199 19.5743C162.958 19.8144 163.079 20.1747 163.079 20.535C163.079 24.9782 163.079 29.4214 163.079 33.7446C163.079 34.9454 162.958 34.9454 161.878 34.9454C160.317 34.9454 158.755 34.9454 157.194 34.9454C155.873 34.9454 155.873 34.9454 155.873 33.6245C155.873 27.9804 155.873 22.2162 155.873 16.5721C155.873 11.5284 155.873 6.48475 155.873 1.321C155.873 0.120125 155.873 3.05176e-05 157.194 3.05176e-05C158.755 3.05176e-05 160.437 3.05176e-05 161.998 3.05176e-05C162.838 3.05176e-05 163.079 0.240198 163.079 1.08081C163.079 5.40395 163.079 9.84719 163.079 14.1703C163.199 14.8909 163.079 15.2511 163.319 15.6114Z"
												fill="#465F7A"
											/>
											<path
												d="M57.2815 35.3057C56.4409 35.3057 55.4802 35.3057 54.6395 35.3057C53.6789 35.4257 53.1985 34.9454 52.9583 34.1048C52.3579 32.4236 51.6374 30.7423 50.9168 29.1812C50.6767 28.5808 50.3164 28.4607 49.8361 28.4607C45.7531 28.4607 41.7902 28.4607 37.7072 28.4607C37.1068 28.4607 36.8666 28.7009 36.6265 29.1812C35.9059 30.9825 35.1854 32.6637 34.585 34.465C34.3448 35.0655 33.9845 35.3057 33.264 35.3057C31.3426 35.3057 29.3011 35.3057 27.3797 35.3057C26.299 35.3057 26.1789 35.0655 26.5391 34.1048C28.4605 29.4214 30.502 24.738 32.4234 20.0546C35.0653 13.81 37.5872 7.68559 40.2291 1.44105C40.5893 0.72053 40.9496 0.360275 41.7902 0.360275C43.2313 0.360275 44.6723 0.360275 46.1134 0.360275C46.7138 0.360275 46.954 0.600439 47.1941 1.08079C48.9955 5.52402 50.9168 9.96726 52.8382 14.5306C55.4802 20.8952 58.1221 27.2598 60.8841 33.6244C61.6046 35.3057 61.6046 35.3057 59.8033 35.3057C58.9627 35.3057 58.1221 35.3057 57.2815 35.3057ZM43.8317 11.8886C43.5915 12.2489 43.5915 12.369 43.4714 12.4891C42.2706 15.3712 41.1898 18.1332 39.9889 21.0153C39.7487 21.6157 40.109 21.7358 40.5893 21.7358C42.7509 21.7358 44.9125 21.7358 47.0741 21.7358C47.7946 21.7358 47.7946 21.4956 47.5544 21.0153C47.1941 20.2948 46.954 19.5742 46.7138 18.8537C45.7531 16.452 44.7924 14.2904 43.8317 11.8886Z"
												fill="#465F7A"
											/>
											<path
												d="M129.934 17.893C129.934 12.4891 129.934 7.08514 129.934 1.8013C129.934 0.600426 130.055 0.600419 131.135 0.480331C137.74 0.480331 144.345 0.480331 150.95 0.480331C152.151 0.480331 152.151 0.600419 152.151 1.6812C152.151 3.12225 152.151 4.56331 152.151 6.00435C152.151 7.20522 152.031 7.32532 150.95 7.32532C146.747 7.32532 142.544 7.32532 138.341 7.32532C137.14 7.32532 137.14 7.32532 137.14 8.52619C137.14 10.2074 137.14 11.8886 137.14 13.4498C137.14 14.1703 137.38 14.4105 138.1 14.4105C141.463 14.4105 144.945 14.4105 148.308 14.4105C149.749 14.4105 149.749 14.5306 149.749 15.9716C149.749 17.1725 149.749 18.4934 149.749 19.6943C149.749 21.1353 149.629 21.2554 148.188 21.2554C144.825 21.2554 141.463 21.2554 138.22 21.2554C137.14 21.2554 137.14 21.2554 137.14 22.3362C137.14 24.0174 137.14 25.6987 137.14 27.2598C137.14 28.3406 137.14 28.3406 138.22 28.3406C142.424 28.3406 146.627 28.3406 150.95 28.3406C152.151 28.3406 152.271 28.3406 152.271 29.6615C152.271 31.2227 152.271 32.6637 152.271 34.2249C152.271 34.9454 152.03 35.1856 151.19 35.1856C144.465 35.1856 137.74 35.1856 131.015 35.1856C130.175 35.1856 129.934 34.8253 129.934 33.9847C129.934 28.7008 129.934 23.2969 129.934 17.893Z"
												fill="#465F7A"
											/>
											<path
												d="M0.120087 17.773C0.120087 12.3691 0.120087 6.96514 0.120087 1.6813C0.120087 0.480425 0.240175 0.360348 1.32096 0.360348C5.88427 0.360348 10.5677 0.240261 15.131 0.360348C19.8144 0.480436 24.0174 3.48262 25.0982 8.16602C26.5393 14.2905 22.9367 18.9739 18.0131 20.7752C15.4913 21.6158 12.9694 21.856 10.3275 21.856C9.60698 21.856 9.00654 21.856 8.28602 21.856C7.44541 21.7359 7.20523 22.0961 7.20523 22.9368C7.20523 26.6595 7.20523 30.2621 7.20523 33.9848C7.20523 35.1856 7.08515 35.1856 6.00436 35.1856C4.44323 35.1856 2.76201 35.1856 1.20087 35.1856C0.120087 35.1856 0 35.0656 0 33.9848C0.120087 28.7009 0.120087 23.297 0.120087 17.773ZM7.32532 11.1682C7.32532 12.249 7.32532 13.3298 7.32532 14.5306C7.32532 15.2512 7.5655 15.4913 8.28602 15.4913C10.3275 15.4913 12.369 15.3713 14.2904 15.1311C16.452 14.8909 17.893 13.3298 17.893 11.2883C17.893 8.76644 17.1725 7.80576 14.7707 7.32541C12.6092 6.84506 10.3275 6.84505 8.04585 6.84505C7.5655 6.84505 7.32532 7.20532 7.32532 7.56558C7.32532 8.88654 7.32532 9.96733 7.32532 11.1682Z"
												fill="#465F7A"
											/>
											<path
												d="M78.1769 21.2554C78.1769 25.5786 78.1769 29.7816 78.1769 34.1048C78.1769 35.3057 78.0568 35.3057 76.8559 35.3057C75.2948 35.3057 73.7337 35.3057 72.1725 35.3057C70.8516 35.3057 70.8516 35.3057 70.8516 33.9847C70.8516 25.8188 70.8516 17.7729 70.8516 9.60699C70.8516 7.20524 70.8516 7.20524 68.4498 7.20524C66.5284 7.20524 64.607 7.20524 62.6856 7.20524C61.7249 7.20524 61.6049 7.08516 61.6049 6.00437C61.6049 4.44324 61.6049 2.8821 61.6049 1.44105C61.6049 0.72053 61.845 0.360275 62.6856 0.360275C70.6114 0.360275 78.4171 0.360275 86.3428 0.360275C87.1834 0.360275 87.4236 0.72053 87.4236 1.44105C87.4236 3.00219 87.4236 4.56332 87.4236 6.00437C87.4236 6.96507 87.3035 7.20524 86.2227 7.20524C83.9411 7.20524 81.5393 7.20524 79.2577 7.20524C78.4171 7.20524 78.1769 7.44541 78.1769 8.28602C78.297 12.6092 78.1769 16.9323 78.1769 21.2554Z"
												fill="#465F7A"
											/>
											<path
												d="M117.325 21.2554C117.325 25.5786 117.325 29.7816 117.325 34.1048C117.325 35.1855 117.205 35.3056 116.124 35.3056C114.563 35.3056 113.002 35.3056 111.441 35.3056C110.24 35.3056 110.24 35.1855 110.24 34.1048C110.24 25.6986 110.24 17.4126 110.24 9.00653C110.24 8.76636 110.24 8.52618 110.24 8.286C110.24 7.56548 110 7.32532 109.279 7.32532C106.998 7.32532 104.716 7.32532 102.434 7.32532C100.993 7.32532 100.993 7.3253 100.993 5.88426C100.993 4.44321 100.993 3.00217 100.993 1.56113C100.993 0.840604 101.233 0.480331 101.954 0.480331C109.88 0.480331 117.806 0.480331 125.731 0.480331C126.452 0.480331 126.692 0.840604 126.692 1.56113C126.692 3.12226 126.692 4.68339 126.692 6.24452C126.692 7.08513 126.332 7.32532 125.611 7.32532C123.209 7.32532 120.928 7.32532 118.526 7.32532C117.685 7.32532 117.445 7.56548 117.445 8.4061C117.325 12.6091 117.325 16.9323 117.325 21.2554Z"
												fill="#EC495B"
											/>
											<path
												d="M91.2661 17.7729C91.2661 12.369 91.2661 6.96506 91.2661 1.68122C91.2661 0.480352 91.3862 0.480363 92.467 0.360275C94.1482 0.360275 95.7093 0.360275 97.3906 0.360275C98.1111 0.360275 98.4713 0.600442 98.4713 1.44105C98.4713 12.369 98.4713 23.2969 98.4713 34.2249C98.4713 34.9454 98.2312 35.3057 97.3906 35.3057C95.7093 35.3057 94.0281 35.3057 92.3469 35.3057C91.3862 35.3057 91.2661 35.1856 91.2661 34.1048C91.2661 28.7009 91.2661 23.2969 91.2661 17.7729Z"
												fill="#EC495B"
											/>
										</svg>