<svg width="26" height="29" viewBox="0 0 26 29" fill="none" xmlns="http://www.w3.org/2000/svg">
<path d="M9.82924 8.4022C11.4146 6.50684 9.82926 4.29558 8.56097 2.71612C7.92682 1.76843 6.97557 0.504859 5.70728 0.188965C4.43899 0.188965 3.48779 1.45254 2.85364 2.08433C0.9512 3.66379 0 5.87505 0 8.4022C0 8.71809 0 9.03399 0 8.71809C0.317073 10.2976 0.317035 11.5611 0.951181 13.1406C1.58533 14.4042 2.21949 15.6678 2.85364 16.9313C4.43901 19.4585 6.34146 21.9856 8.56097 23.881C10.7805 25.7764 13.317 27.6717 16.1707 28.3035C19.0244 28.9353 21.561 28.3035 23.7805 26.4081C24.4146 25.7764 26 24.8287 26 23.5651C26 22.3015 25.0488 21.6697 24.4146 20.7221C22.8293 19.1426 20.2927 16.9313 18.0732 18.5108C17.1219 19.1426 16.1707 20.4062 15.2195 20.7221C13.9512 21.0379 13 20.0903 12.0487 19.4585C10.1463 17.879 8.24387 15.9837 7.29265 13.7724C6.97557 12.8247 6.34146 11.5611 6.9756 10.6135C7.92682 9.66578 9.1951 9.03399 9.82924 8.4022Z" fill="#777777"/>
</svg>
