
                                        <svg width="26" height="29" viewBox="0 0 26 29" fill="none" xmlns="http://www.w3.org/2000/svg">
                                            <path d="M9.82924 8.40214C11.4146 6.50678 9.82926 4.29552 8.56097 2.71605C7.92682 1.76837 6.97557 0.504798 5.70728 0.188904C4.43899 0.188904 3.48779 1.45248 2.85364 2.08426C0.9512 3.66373 0 5.87499 0 8.40214C0 8.71803 0 9.03393 0 8.71803C0.317073 10.2975 0.317035 11.5611 0.951181 13.1405C1.58533 14.4041 2.21949 15.6677 2.85364 16.9313C4.43901 19.4584 6.34146 21.9856 8.56097 23.8809C10.7805 25.7763 13.317 27.6717 16.1707 28.3034C19.0244 28.9352 21.561 28.3034 23.7805 26.4081C24.4146 25.7763 26 24.8286 26 23.565C26 22.3015 25.0488 21.6697 24.4146 20.722C22.8293 19.1425 20.2927 16.9313 18.0732 18.5107C17.1219 19.1425 16.1707 20.4061 15.2195 20.722C13.9512 21.0379 13 20.0902 12.0487 19.4584C10.1463 17.879 8.24387 15.9836 7.29265 13.7723C6.97557 12.8247 6.34146 11.5611 6.9756 10.6134C7.92682 9.66572 9.1951 9.03393 9.82924 8.40214Z" fill="#777777"/>
                                            </svg>