<svg width="859" height="533" viewBox="0 0 859 533" fill="none" xmlns="http://www.w3.org/2000/svg">
<g filter="url(#filter0_d)">
<path d="M173.603 91.7202C193.76 91.7202 210.1 75.3796 210.1 55.2225C210.1 35.0654 193.76 18.7249 173.603 18.7249C153.446 18.7249 137.105 35.0654 137.105 55.2225C137.105 75.3796 153.446 91.7202 173.603 91.7202Z" fill="#F2DBAD"/>
<path d="M72.6791 508.746C82.4947 508.746 90.4519 500.789 90.4519 490.973C90.4519 481.158 82.4947 473.2 72.6791 473.2C62.8634 473.2 54.9062 481.158 54.9062 490.973C54.9062 500.789 62.8634 508.746 72.6791 508.746Z" fill="#F2DBAD"/>
<path d="M56.4931 195.818C56.4931 191.692 53.3194 188.518 49.1936 188.518C45.0678 188.518 41.894 191.692 41.894 195.818C41.894 199.944 45.0678 203.118 49.1936 203.118C53.3194 203.118 56.4931 199.944 56.4931 195.818Z" fill="#F2DBAD"/>
<path d="M832.551 382.549C844.95 365.125 840.876 340.95 823.452 328.551C806.028 316.153 781.853 320.226 769.454 337.65C757.056 355.074 761.13 379.25 778.553 391.648C795.977 404.047 820.153 399.973 832.551 382.549Z" fill="#5173B8"/>
<path d="M612.21 29.8328C620.449 29.8328 627.127 23.1545 627.127 14.9164C627.127 6.67826 620.449 -6.10352e-05 612.21 -6.10352e-05C603.972 -6.10352e-05 597.294 6.67826 597.294 14.9164C597.294 23.1545 603.972 29.8328 612.21 29.8328Z" fill="#5173B8"/>
<path d="M744.872 524.932C748.903 524.932 752.171 521.664 752.171 517.632C752.171 513.601 748.903 510.333 744.872 510.333C740.84 510.333 737.572 513.601 737.572 517.632C737.572 521.664 740.84 524.932 744.872 524.932Z" fill="#5173B8"/>
<path d="M88.2293 194.866C84.7382 194.866 81.8818 192.01 81.8818 188.518C81.8818 185.027 84.7382 182.171 88.2293 182.171C91.7203 182.171 94.5767 185.027 94.5767 188.518C94.5767 192.01 91.7203 194.866 88.2293 194.866ZM88.2293 183.123C85.3729 183.123 82.8339 185.662 82.8339 188.518C82.8339 191.375 85.3729 193.914 88.2293 193.914C91.0856 193.914 93.6246 191.375 93.6246 188.518C93.6246 185.662 91.0856 183.123 88.2293 183.123Z" fill="#6579BB"/>
<path d="M697.264 53.3184C693.773 53.3184 690.917 50.4621 690.917 46.971C690.917 43.4799 693.773 40.6236 697.264 40.6236C700.755 40.6236 703.612 43.4799 703.612 46.971C703.929 50.4621 700.755 53.3184 697.264 53.3184ZM697.264 41.5757C694.408 41.5757 691.869 44.1147 691.869 46.971C691.869 49.8274 694.408 52.3663 697.264 52.3663C700.121 52.3663 702.66 49.8274 702.66 46.971C702.66 43.7973 700.438 41.5757 697.264 41.5757Z" fill="#6579BB"/>
<path d="M795.015 485.578C791.524 485.578 788.667 482.722 788.667 479.231C788.667 475.74 791.524 472.883 795.015 472.883C798.506 472.883 801.362 475.74 801.362 479.231C801.362 482.722 798.506 485.578 795.015 485.578ZM795.015 473.835C792.159 473.835 789.62 476.374 789.62 479.231C789.62 482.087 792.159 484.626 795.015 484.626C797.871 484.626 800.41 482.087 800.41 479.231C800.41 476.057 798.189 473.835 795.015 473.835Z" fill="#6579BB"/>
<path d="M135.2 414.487C131.709 414.487 128.853 411.63 128.853 408.139C128.853 404.648 131.709 401.792 135.2 401.792C138.691 401.792 141.547 404.648 141.547 408.139C141.547 411.63 138.691 414.487 135.2 414.487ZM135.2 402.744C132.344 402.744 129.805 405.283 129.805 408.139C129.805 410.996 132.344 413.535 135.2 413.535C138.056 413.535 140.595 410.996 140.595 408.139C140.595 405.283 138.056 402.744 135.2 402.744Z" fill="#6579BB"/>
<path d="M6.34742 377.354C2.85634 377.354 0 374.498 0 371.007C0 367.516 2.85634 364.659 6.34742 364.659C9.8385 364.659 12.6948 367.516 12.6948 371.007C12.6948 374.498 9.8385 377.354 6.34742 377.354ZM6.34742 365.612C3.49108 365.612 0.952123 368.151 0.952123 371.007C0.952123 373.863 3.49108 376.402 6.34742 376.402C9.20376 376.402 11.7427 373.863 11.7427 371.007C11.4254 367.833 9.20376 365.612 6.34742 365.612Z" fill="#6579BB"/>
<path d="M801.045 179.632C797.554 179.632 794.697 176.776 794.697 173.285C794.697 169.793 797.554 166.937 801.045 166.937C804.536 166.937 807.392 169.793 807.392 173.285C807.392 176.776 804.536 179.632 801.045 179.632ZM801.045 167.889C798.188 167.889 795.649 170.428 795.649 173.285C795.649 176.141 798.188 178.68 801.045 178.68C803.901 178.68 806.44 176.141 806.44 173.285C806.44 170.111 803.901 167.889 801.045 167.889Z" fill="#6579BB"/>
<path d="M642.994 111.08C634.742 80.6124 583.646 90.1335 583.646 90.1335C583.646 90.1335 548.735 143.134 538.896 144.404C528.74 145.673 559.843 93.3072 559.843 93.3072C540.166 91.403 490.339 115.523 490.339 115.523C490.339 115.523 493.512 177.411 483.356 176.141C473.2 174.872 483.356 121.236 483.356 121.236C464.314 126.949 446.541 149.165 446.541 149.165C424.325 185.345 471.931 211.687 471.931 211.687C471.931 211.687 472.566 233.268 459.236 257.705C459.236 257.705 456.38 262.149 453.206 270.083H458.284C458.601 268.813 459.236 267.227 459.553 265.957C459.871 265.005 460.506 264.053 461.14 262.783C462.727 259.61 463.679 257.388 464.314 255.801C469.075 245.963 475.739 233.585 480.5 230.729C480.5 230.729 479.865 229.777 479.548 228.507C479.865 229.142 480.183 230.094 480.5 230.729C489.386 249.771 533.501 252.945 558.256 247.867C583.011 242.789 572.22 235.807 558.891 224.699C545.561 213.273 517.632 216.447 509.698 212.004C501.446 207.561 513.507 203.118 530.01 204.387C546.513 205.657 554.765 222.16 581.107 224.699C607.766 227.238 627.76 177.411 627.76 177.411C609.353 183.123 576.663 172.967 575.394 166.62C574.124 160.273 622.682 160.907 630.299 159.003C637.916 156.781 651.246 141.548 642.994 111.08Z" fill="#82B6E7"/>
<path d="M151.704 113.302C163.129 95.2114 194.549 111.397 194.549 111.397C194.549 111.397 206.609 152.656 212.956 155.512C219.304 158.368 209.465 118.062 209.465 118.062C222.477 120.601 250.406 146.308 250.406 146.308C250.406 146.308 236.124 185.98 243.106 187.249C250.089 188.519 253.897 151.386 253.897 151.386C265.005 158.686 272.305 176.776 272.305 176.776C279.604 204.704 243.424 212.639 243.424 212.639C243.424 212.639 238.663 226.603 242.472 245.011C242.472 245.011 243.424 248.502 244.059 254.214L240.568 253.262C240.568 252.31 240.568 251.358 240.568 250.406C240.568 249.771 240.25 248.819 240.25 247.867C239.933 245.645 239.615 243.741 239.615 242.789C238.346 235.489 236.442 225.968 234.22 223.429C234.22 223.429 234.855 223.112 235.49 222.16C235.172 222.477 234.855 223.112 234.22 223.429C224.699 233.903 195.183 227.238 180.267 219.304C165.351 211.052 173.602 208.83 184.393 204.07C195.183 199.309 212.639 206.609 218.986 205.339C225.334 204.07 218.352 198.674 207.244 196.453C196.453 193.914 187.567 203.118 169.794 199.627C152.021 196.135 148.847 159.638 148.847 159.638C159.638 166.937 183.123 166.937 185.028 163.129C187.249 159.32 155.195 150.117 150.752 147.26C145.991 144.087 140.596 131.392 151.704 113.302Z" fill="#82B6E7"/>
<path d="M31.7373 460.188C31.4199 460.188 31.1025 460.188 30.7852 460.506C31.1025 460.188 31.4199 460.188 31.7373 460.188Z" fill="#C3D3ED"/>
<path d="M354.821 277.065L339.27 462.092C339.27 462.092 337.683 473.2 345.935 473.2C359.582 473.2 414.17 473.2 414.17 473.2C414.17 473.2 403.696 470.979 404.014 465.584C404.014 459.236 422.104 275.161 422.104 275.161L354.821 277.065Z" fill="#DCB4B2"/>
<path d="M418.613 470.027C416.074 470.027 363.708 470.344 350.378 470.027C344.665 470.027 343.396 464.949 343.396 461.458C343.396 459.871 343.713 458.601 343.713 458.601L344.031 453.841L344.983 441.463L345.935 430.673L347.204 416.708L348.156 404.966L359.264 273.574L426.547 271.67C426.547 271.67 418.93 348.791 413.535 404.966C412.9 411.313 412.265 417.343 411.948 422.738C411.631 424.643 411.631 426.23 411.313 427.816C410.678 433.212 410.361 437.972 410.044 442.415C409.726 444.637 409.726 446.859 409.409 448.763C408.774 456.38 408.457 461.14 408.457 462.092C408.457 462.727 408.457 463.045 408.457 463.679C410.044 469.709 417.661 470.027 418.613 470.027Z" fill="#D0A49A"/>
<path d="M191.375 176.458L229.142 328.797L234.22 349.426L251.993 420.517H579.837L514.776 176.458H191.375Z" fill="#D0A49A"/>
<path d="M191.375 176.458L185.979 178.045L245.011 425.595L251.993 420.517L191.375 176.458Z" fill="#D0A49A"/>
<path d="M245.011 425.595H570.951L579.837 420.517H251.993L245.011 425.595Z" fill="#DCB4B2"/>
<path d="M359.393 473.339H429.85V469.848H359.393V473.339Z" fill="#D0A49A"/>
<path d="M563.969 375.45L510.65 179.632H192.01L191.375 176.458H514.776L567.777 375.133L563.969 375.45Z" fill="#D590A3"/>
<path d="M411.948 425.595L411.631 428.134L345.3 441.781L346.252 430.673L346.57 425.595H411.948Z" fill="#DCB4B2"/>
<path opacity="0.4" d="M418.613 470.027C416.074 470.027 363.708 470.344 350.378 470.027C344.665 470.027 343.396 464.949 343.396 461.458L409.409 449.08C408.774 456.697 408.457 461.458 408.457 462.41C408.457 463.045 408.457 463.362 408.457 463.997C410.044 469.709 417.661 470.027 418.613 470.027Z" fill="#DCB4B2"/>
<path d="M396.079 371.007L251.993 420.517L234.22 349.426L396.079 371.007Z" fill="#DCB4B2"/>
<path d="M191.375 176.458H514.776L567.46 372.594H239.933L191.375 176.458Z" fill="url(#paint0_linear)"/>
<path d="M424.643 397.349C423.691 392.588 418.93 388.78 414.169 388.78C409.409 388.78 406.235 392.588 407.187 397.349C408.139 402.109 412.9 405.918 417.66 405.918C422.421 405.918 425.595 402.109 424.643 397.349Z" fill="#DCB4B2"/>
<path d="M551.909 364.025H249.137L214.86 227.238L212.321 216.765L209.782 207.878L204.705 186.932H503.351L509.064 207.878L511.602 216.765L514.459 227.238L551.909 364.025Z" fill="#F7D2C2"/>
<path d="M509.063 207.878H209.782L204.705 186.932H503.351L509.063 207.878Z" fill="#1D2350"/>
<path d="M217.082 196.453C216.765 194.866 217.717 193.914 218.986 193.914C220.573 193.914 221.843 195.183 222.16 196.453C222.477 198.04 221.525 198.992 220.256 198.992C218.986 198.992 217.399 197.722 217.082 196.453Z" fill="#DDE6F5"/>
<path d="M225.651 196.453C225.333 194.866 226.286 193.914 227.555 193.914C229.142 193.914 230.411 195.183 230.729 196.453C231.046 198.04 230.094 198.992 228.825 198.992C227.555 198.992 225.968 197.722 225.651 196.453Z" fill="#DDE6F5"/>
<path d="M235.172 196.453C234.855 194.866 235.807 193.914 237.076 193.914C238.346 193.914 239.933 195.183 240.25 196.453C240.567 198.04 239.615 198.992 238.346 198.992C237.076 198.992 235.489 197.722 235.172 196.453Z" fill="#DDE6F5"/>
<path d="M485.261 351.965H260.879L226.921 217.717H448.128L485.261 351.965Z" fill="#82B6E7"/>
<path d="M514.459 249.137H463.362L454.158 217.717H505.572L514.459 249.137Z" fill="#653C97"/>
<path d="M377.037 231.046H348.156L346.887 226.286H376.085L377.037 231.046Z" fill="#DCB4B2"/>
<path d="M428.769 231.046H381.163L379.894 226.286H427.499L428.769 231.046Z" fill="#D0A49A"/>
<path d="M382.115 243.106H330.383L329.114 238.663H380.846L382.115 243.106Z" fill="#D0A49A"/>
<path d="M413.535 243.106H386.558L385.606 238.663H412.265L413.535 243.106Z" fill="#D590A3"/>
<path d="M385.924 263.735H356.726L355.456 259.292H384.654L385.924 263.735Z" fill="#D2A0D2"/>
<path d="M437.655 263.735H390.049L388.78 259.292H436.385L437.655 263.735Z" fill="#D0A49A"/>
<path d="M390.684 275.796H339.27L338 271.352H389.732L390.684 275.796Z" fill="#EDEDED"/>
<path d="M422.104 275.796H395.445L394.175 271.352H420.834L422.104 275.796Z" fill="#EDEDED"/>
<path d="M359.582 294.521H261.197L259.927 290.077H358.312L359.582 294.521Z" fill="#DCB4B2"/>
<path d="M394.81 294.521H365.929L364.659 290.077H393.858L394.81 294.521Z" fill="#D2A0D2"/>
<path d="M446.541 294.521H398.936L397.666 290.077H445.272L446.541 294.521Z" fill="#D0A49A"/>
<path d="M293.568 306.581H264.37L263.101 302.137H292.299L293.568 306.581Z" fill="#EDEDED"/>
<path d="M399.888 306.581H348.156L346.887 302.137H398.618L399.888 306.581Z" fill="#D590A3"/>
<path d="M344.983 306.581H297.377L296.108 302.137H343.713L344.983 306.581Z" fill="#D0A49A"/>
<path d="M431.308 306.581H404.331L403.379 302.137H430.038L431.308 306.581Z" fill="#D0A49A"/>
<path d="M370.69 327.844H272.305L271.035 323.401H369.42L370.69 327.844Z" fill="#DCB4B2"/>
<path d="M406.235 327.844H377.037L375.767 323.401H404.965L406.235 327.844Z" fill="#D2A0D2"/>
<path d="M304.676 340.222H275.478L274.209 335.461H303.407L304.676 340.222Z" fill="#EDEDED"/>
<path d="M410.996 340.222H359.264L358.312 335.461H409.726L410.996 340.222Z" fill="#D590A3"/>
<path d="M356.09 340.222H308.485L307.533 335.461H355.138L356.09 340.222Z" fill="#D0A49A"/>
<path d="M442.415 340.222H415.756L414.487 335.461H441.146L442.415 340.222Z" fill="#D0A49A"/>
<path d="M489.069 258.658H466.535L466.218 256.754H488.434L489.069 258.658Z" fill="#EDEDED"/>
<path d="M500.812 258.658H492.243L491.925 256.753H500.177L500.812 258.658Z" fill="#EDEDED"/>
<path d="M517.95 258.658H503.033L502.398 256.753L517.315 256.436L517.95 258.658Z" fill="#EDEDED"/>
<path d="M480.183 263.736L467.805 264.053L467.488 261.831H479.548L480.183 263.736Z" fill="#EDEDED"/>
<path d="M497.955 263.736H482.087L481.77 261.831H497.638L497.955 263.736Z" fill="#EDEDED"/>
<path d="M519.219 263.736H500.812L500.494 261.831H518.585L519.219 263.736Z" fill="#EDEDED"/>
<path d="M491.608 269.766H469.392L468.757 267.861L491.29 267.544L491.608 269.766Z" fill="#EDEDED"/>
<path d="M503.351 269.766H495.099L494.465 267.544H503.034L503.351 269.766Z" fill="#EDEDED"/>
<path d="M520.489 269.448L505.572 269.766L505.255 267.544H520.171L520.489 269.448Z" fill="#EDEDED"/>
<path d="M482.722 274.844H470.662L470.027 272.939H482.404L482.722 274.844Z" fill="#EDEDED"/>
<path d="M500.811 274.844H484.943L484.308 272.939L500.177 272.622L500.811 274.844Z" fill="#EDEDED"/>
<path d="M521.758 274.844H503.668L503.033 272.622H521.441L521.758 274.844Z" fill="#EDEDED"/>
<path d="M474.153 222.16H460.506V220.89H473.835L474.153 222.16Z" fill="#EDEDED"/>
<path d="M481.135 222.16H476.057L475.74 220.89H480.817L481.135 222.16Z" fill="#EDEDED"/>
<path d="M491.608 222.16H482.404V220.89H491.291L491.608 222.16Z" fill="#EDEDED"/>
<path d="M468.757 225.334H461.458L461.14 224.064H468.44L468.757 225.334Z" fill="#EDEDED"/>
<path d="M479.548 225.334H470.027L469.709 224.064H479.23L479.548 225.334Z" fill="#EDEDED"/>
<path d="M492.242 225.334H481.452L481.134 224.064H491.925L492.242 225.334Z" fill="#EDEDED"/>
<path d="M475.74 228.825H462.41L462.093 227.555H475.422L475.74 228.825Z" fill="#EDEDED"/>
<path d="M482.722 228.825H477.644V227.555H482.404L482.722 228.825Z" fill="#EDEDED"/>
<path d="M493.195 228.825H484.309L483.991 227.555H492.878L493.195 228.825Z" fill="#EDEDED"/>
<path d="M470.344 231.998H463.045L462.727 230.729H470.027L470.344 231.998Z" fill="#EDEDED"/>
<path d="M481.134 231.998H471.613L471.296 230.729H480.817L481.134 231.998Z" fill="#EDEDED"/>
<path d="M493.83 231.998H483.039L482.722 230.729H493.512L493.83 231.998Z" fill="#EDEDED"/>
<path d="M496.369 288.491H473.835L473.518 286.586L495.734 286.269L496.369 288.491Z" fill="#EDEDED"/>
<path d="M508.111 288.491H499.542L499.225 286.269H507.477L508.111 288.491Z" fill="#EDEDED"/>
<path d="M525.249 288.491H510.333L509.698 286.269H524.614L525.249 288.491Z" fill="#EDEDED"/>
<path d="M487.482 293.568H475.105L474.787 291.664H486.848L487.482 293.568Z" fill="#EDEDED"/>
<path d="M505.255 293.568H489.386L489.069 291.664H504.938L505.255 293.568Z" fill="#EDEDED"/>
<path d="M526.519 293.569H508.111L507.794 291.664L525.884 291.347L526.519 293.569Z" fill="#EDEDED"/>
<path d="M500.812 306.898H478.279L477.961 304.994L500.177 304.676L500.812 306.898Z" fill="#EDEDED"/>
<path d="M512.555 306.898H503.986L503.668 304.676H511.92L512.555 306.898Z" fill="#EDEDED"/>
<path d="M529.693 306.898H514.776L514.142 304.676H529.058L529.693 306.898Z" fill="#EDEDED"/>
<path d="M491.925 311.976H479.548L479.23 310.072H491.291L491.925 311.976Z" fill="#EDEDED"/>
<path d="M509.698 311.976H493.83L493.512 310.072L509.381 309.754L509.698 311.976Z" fill="#EDEDED"/>
<path d="M530.962 311.976H512.554L512.237 309.754H530.327L530.962 311.976Z" fill="#EDEDED"/>
<path d="M504.938 323.402H482.404L481.77 321.498H504.303L504.938 323.402Z" fill="#EDEDED"/>
<path d="M516.68 323.401H508.111L507.794 321.497L516.046 321.18L516.68 323.401Z" fill="#EDEDED"/>
<path d="M533.501 323.401H518.902L518.267 321.18H533.184L533.501 323.401Z" fill="#EDEDED"/>
<path d="M496.051 328.479H483.674L483.039 326.575H495.417L496.051 328.479Z" fill="#EDEDED"/>
<path d="M513.824 328.479H497.956L497.321 326.575H513.189L513.824 328.479Z" fill="#EDEDED"/>
<path d="M534.771 328.479H516.68L516.363 326.575L534.453 326.258L534.771 328.479Z" fill="#EDEDED"/>
<path d="M515.411 348.156C511.92 348.156 508.111 345.3 506.842 341.491C505.89 338 507.794 334.827 511.603 334.827C515.094 334.827 518.902 337.683 520.172 341.491C521.124 344.983 518.902 348.156 515.411 348.156ZM511.92 336.096C509.064 336.096 507.159 338.635 508.111 341.491C509.064 344.348 511.92 346.887 515.094 346.887C517.95 346.887 519.854 344.348 518.902 341.491C517.95 338.635 514.776 336.096 511.92 336.096Z" fill="#82B6E7"/>
<path d="M514.141 344.982C513.824 344.982 513.507 344.982 513.507 344.665L509.698 341.809C509.063 341.491 509.063 340.856 509.381 340.539C509.698 340.222 510.333 340.222 510.65 340.539L513.189 342.761L514.459 339.587C514.776 339.27 515.094 338.952 515.728 339.27C516.363 339.587 516.68 340.222 516.363 340.539L514.776 344.665C514.776 344.665 514.776 344.665 514.141 344.982C514.459 344.982 514.459 344.982 514.141 344.982Z" fill="#82B6E7"/>
<path d="M533.184 348.156C529.692 348.156 525.884 345.3 524.614 341.491C523.662 338 525.567 334.827 529.375 334.827C532.866 334.827 536.675 337.683 537.944 341.491C538.896 344.983 536.992 348.156 533.184 348.156ZM530.01 336.096C527.153 336.096 525.249 338.635 526.201 341.491C527.153 344.348 530.01 346.887 533.184 346.887C536.04 346.887 537.944 344.348 536.992 341.491C536.04 338.635 532.866 336.096 530.01 336.096Z" fill="#D590A3"/>
<path d="M531.597 342.443C530.962 342.443 530.644 342.126 530.327 341.491L529.375 338.635C529.375 338 529.375 337.683 530.01 337.683C530.645 337.683 530.962 338 531.279 338.635L532.231 341.491C532.549 342.126 532.231 342.443 531.597 342.443Z" fill="#D590A3"/>
<path d="M532.549 344.665C531.914 344.665 531.279 344.348 531.279 343.713C531.279 343.396 531.279 342.761 531.914 342.761H532.231C532.548 342.761 533.183 343.078 533.183 343.713C533.183 344.348 532.866 344.665 532.549 344.665Z" fill="#D590A3"/>
<path d="M495.416 245.963C493.512 245.963 491.29 244.376 490.656 242.472C490.021 240.568 491.29 238.981 493.195 238.981C495.099 238.981 497.32 240.568 497.955 242.472C498.273 244.376 497.32 245.963 495.416 245.963ZM493.512 239.615C491.925 239.615 490.973 240.885 491.29 242.472C491.608 244.059 493.512 245.328 495.099 245.328C496.686 245.328 497.638 244.059 497.32 242.472C496.686 240.885 495.099 239.615 493.512 239.615Z" fill="#CFDBF0"/>
<path d="M494.782 244.376C494.782 244.376 494.464 244.376 494.464 244.059L492.56 242.472C492.243 242.154 492.243 241.837 492.243 241.837C492.243 241.52 492.877 241.52 492.877 241.837L494.147 243.107L494.782 241.52C494.782 241.202 495.099 241.202 495.416 241.52C495.734 241.837 495.734 242.154 495.734 242.154L494.782 244.376C494.782 244.376 495.099 244.059 494.782 244.376Z" fill="#CFDBF0"/>
<path d="M484.943 245.963C483.039 245.963 480.817 244.376 480.183 242.472C479.548 240.568 480.817 238.981 482.722 238.981C484.626 238.981 486.847 240.568 487.482 242.472C488.117 244.376 486.847 245.963 484.943 245.963ZM483.039 239.615C481.452 239.615 480.5 240.885 480.817 242.472C481.135 244.059 483.039 245.328 484.626 245.328C486.213 245.328 487.165 244.059 486.848 242.472C486.53 240.885 484.626 239.615 483.039 239.615Z" fill="#CFDBF0"/>
<path d="M484.309 244.376C484.309 244.376 483.991 244.376 483.991 244.059L482.087 242.472C481.77 242.154 481.77 241.837 481.77 241.837C481.77 241.52 482.405 241.52 482.405 241.837L483.674 243.107L484.309 241.52C484.309 241.202 484.626 241.202 484.943 241.52C485.261 241.837 485.261 242.154 485.261 242.154L484.309 244.376C484.626 244.376 484.943 244.059 484.309 244.376C484.626 244.376 484.626 244.376 484.309 244.376Z" fill="#CFDBF0"/>
<path d="M474.47 245.963C472.566 245.963 470.344 244.376 469.709 242.472C469.075 240.567 470.344 238.981 472.248 238.981C474.152 238.981 476.374 240.567 477.009 242.472C477.644 244.376 476.374 245.963 474.47 245.963ZM472.566 239.615C470.979 239.615 470.027 240.885 470.344 242.472C470.661 244.058 472.566 245.328 474.152 245.328C475.739 245.328 476.691 244.058 476.374 242.472C475.739 240.885 474.152 239.615 472.566 239.615Z" fill="#CFDBF0"/>
<path d="M473.835 244.376C473.835 244.376 473.517 244.376 473.517 244.059L471.613 242.472C471.296 242.154 471.296 241.837 471.296 241.837C471.296 241.52 471.931 241.52 471.931 241.837L473.2 243.106L473.835 241.52C473.835 241.202 474.152 241.202 474.47 241.52C474.787 241.837 474.787 242.154 474.787 242.154L473.835 244.376C474.152 244.376 474.152 244.059 473.835 244.376Z" fill="#CFDBF0"/>
<path d="M505.255 245.963C503.351 245.963 501.129 244.376 500.494 242.472C499.86 240.568 501.129 238.981 503.033 238.981C504.938 238.981 507.159 240.568 507.794 242.472C508.111 244.376 507.159 245.963 505.255 245.963ZM503.351 239.615C501.764 239.615 500.812 240.885 501.129 242.472C501.447 244.059 503.351 245.328 504.938 245.328C506.524 245.328 507.477 244.059 507.159 242.472C506.525 240.885 504.938 239.615 503.351 239.615Z" fill="#D590A3"/>
<path d="M504.303 243.107C503.985 243.107 503.668 242.789 503.668 242.472L503.351 240.885C503.351 240.568 503.351 240.25 503.668 240.25C503.985 240.25 504.303 240.568 504.303 240.885L504.62 242.472C504.62 242.789 504.62 243.107 504.303 243.107Z" fill="#D590A3"/>
<path d="M504.62 244.376C504.303 244.376 503.986 244.059 503.986 244.059C503.986 243.741 503.986 243.741 504.303 243.741C504.62 243.741 504.938 244.059 504.938 244.059C504.938 244.059 504.938 244.376 504.62 244.376Z" fill="#D590A3"/>
<path d="M160.589 344.982C160.589 344.982 165.985 346.252 169.476 345.3C172.967 344.348 178.68 345.935 179.632 347.204C180.584 348.473 180.267 349.108 178.68 349.426C177.093 349.743 171.063 352.282 166.937 351.012C163.128 349.426 157.733 349.426 157.733 349.426L160.589 344.982Z" fill="#F69D9A"/>
<path d="M114.253 298.329C114.253 298.329 120.283 341.491 130.439 345.3C135.517 347.204 157.098 351.647 163.763 351.965C163.763 351.965 165.35 350.695 165.033 345.3C165.033 345.3 142.182 336.731 139.008 332.288C134.248 325.623 141.865 304.359 135.835 298.011C129.487 291.664 119.014 289.125 114.253 298.329Z" fill="#A78DBA"/>
<path d="M119.014 469.075C121.236 469.075 123.14 467.17 123.14 464.949V399.888C123.14 397.666 121.236 395.762 119.014 395.762C116.792 395.762 114.888 397.666 114.888 399.888V464.949C114.888 467.17 116.792 469.075 119.014 469.075Z" fill="#F7D2C2"/>
<path d="M93.3076 473.835C96.164 468.122 106.637 463.997 119.015 463.997C131.71 463.997 142.183 468.122 144.722 473.835H93.3076Z" fill="#F7D2C2"/>
<path d="M100.924 454.793H137.421C138.374 454.793 139.008 454.158 139.008 453.206C139.008 452.254 138.374 451.619 137.421 451.619H100.924C99.9717 451.619 99.3369 452.254 99.3369 453.206C99.3369 454.158 99.9717 454.793 100.924 454.793Z" fill="#F7D2C2"/>
<path d="M116.158 389.097C118.062 391.953 119.966 394.81 122.188 397.666C128.853 405.918 135.835 412.582 137.104 418.93C137.421 420.199 137.739 421.469 138.374 423.056C139.008 424.643 139.643 425.912 140.278 427.816C143.134 433.846 147.26 440.511 151.386 446.541C158.368 457.014 165.35 465.901 165.35 465.901L177.728 465.266C177.093 463.997 172.015 449.397 164.715 431.625C161.859 424.325 158.685 416.708 155.829 409.409C155.512 408.457 154.877 407.504 154.56 406.552C153.607 404.331 152.655 402.109 152.021 399.888C145.356 383.067 139.96 369.737 139.96 369.737C139.96 369.737 112.984 359.581 110.128 366.246C106.954 371.324 108.858 376.719 116.158 389.097Z" fill="#1E2553"/>
<path d="M165.033 463.362C165.033 463.362 165.667 473.518 167.572 473.518C167.889 473.518 177.41 473.518 177.41 473.518H189.788C189.788 473.518 189.788 470.661 185.979 470.027C182.488 469.392 176.458 466.853 174.236 462.092C172.332 457.014 165.033 463.362 165.033 463.362Z" fill="#1E2553"/>
<path d="M136.787 434.481C136.787 434.481 128.218 439.877 129.17 441.781C129.17 442.098 133.931 450.35 133.931 450.35L139.961 461.14C139.961 461.14 142.5 459.554 141.23 456.062C139.961 452.571 139.326 446.224 142.5 441.781C145.673 437.655 136.787 434.481 136.787 434.481Z" fill="#1E2553"/>
<path d="M148.847 364.977C148.847 364.977 182.171 385.606 185.979 399.887C189.788 414.169 140.913 444.319 140.913 444.319C140.913 444.319 135.518 439.559 134.565 436.068C134.565 436.068 156.464 409.726 161.225 403.696C164.081 400.205 117.745 391.001 112.032 382.432C106.319 373.546 108.541 366.246 108.541 366.246L148.847 364.977Z" fill="#374079"/>
<path d="M91.403 410.678H146.626C151.703 410.678 156.147 406.552 156.147 401.157C156.147 396.079 152.021 391.636 146.626 391.636H91.403C86.325 391.636 81.8818 395.762 81.8818 401.157C81.8818 406.235 86.325 410.678 91.403 410.678Z" fill="#DCB4B2"/>
<path d="M132.661 291.029C135.835 292.934 137.739 295.79 137.739 295.79C129.487 298.011 116.158 290.395 116.158 290.395C116.158 290.395 121.236 286.903 123.457 279.287C123.457 278.969 123.775 278.652 123.775 278.017C124.092 276.748 124.092 275.161 124.092 273.891L127.9 277.065L133.931 282.46C133.931 282.46 133.931 284.682 132.978 288.808C132.978 289.442 132.661 290.077 132.661 291.029Z" fill="#F69D9A"/>
<path d="M107.589 329.114C108.858 344.665 107.271 368.468 108.541 372.594C109.81 376.085 122.505 374.181 127.901 372.911C129.805 372.594 132.026 371.959 134.565 371.007C141.23 368.785 148.53 365.929 149.164 363.707V363.39C149.164 363.073 149.164 362.755 149.164 362.438C148.847 361.168 147.895 360.216 147.895 357.36C147.895 354.186 147.895 350.695 147.578 346.887C147.578 346.569 147.578 345.935 147.578 345.617V345.3V344.982C147.578 340.539 147.26 336.096 146.943 331.653C146.625 328.797 146.625 325.94 146.308 323.401C145.673 316.419 145.039 310.072 143.769 306.263C142.182 299.916 138.374 295.79 134.883 292.616L132.344 290.395C129.487 291.029 126.314 290.712 123.457 289.125C120.284 287.538 119.332 286.586 118.697 286.904C111.715 292.616 106.319 310.072 107.589 329.114Z" fill="#D4BBDC"/>
<path d="M134.565 371.007C141.23 368.785 148.53 365.929 149.164 363.707V363.39C149.164 363.073 149.164 362.755 149.164 362.438C148.847 361.168 147.895 360.216 147.895 357.36C147.895 354.186 147.895 350.695 147.578 346.887C147.578 346.569 147.578 345.935 147.578 345.617V345.3V344.982L122.505 333.557C122.505 333.875 120.918 354.186 134.565 371.007Z" fill="#A78DBA"/>
<path d="M133.93 282.46C133.93 282.46 133.93 284.682 132.978 288.808C126.948 286.904 124.092 281.508 123.14 278.969C122.822 278.335 122.822 278.017 122.822 278.017C122.822 278.017 123.14 278.017 123.457 278.017C124.409 277.7 125.996 277.382 127.583 277.065L133.93 282.46Z" fill="#FFB1AF"/>
<path d="M136.47 282.46C136.47 282.46 123.14 284.047 122.505 275.796C121.553 267.544 119.332 262.149 127.901 260.879C136.47 259.61 138.374 262.466 139.326 265.322C139.961 267.861 139.961 281.826 136.47 282.46Z" fill="#F69D9A"/>
<path d="M122.505 276.113C122.505 276.113 123.457 265.005 135.517 264.053C143.769 263.418 139.326 256.119 138.373 255.166C138.373 255.166 132.026 256.119 125.679 257.071C111.714 259.292 121.235 274.526 122.505 276.113Z" fill="#1E2553"/>
<path d="M186.512 355.757L187.719 356.149L197.621 325.662L196.413 325.27L186.512 355.757Z" fill="#82B6E7"/>
<path d="M154.2 355.596L187.834 356.315L187.875 354.411L154.24 353.692L154.2 355.596Z" fill="#82B6E7"/>
<path d="M158.051 351.647C158.051 351.647 163.129 353.552 166.62 352.917C170.112 352.282 175.824 354.504 176.776 356.091C177.728 357.36 177.094 357.995 175.507 357.995C173.92 358.312 167.572 360.216 163.764 358.312C159.956 356.408 154.878 355.773 154.878 355.773L158.051 351.647Z" fill="#F69D9A"/>
<path d="M116.793 299.916C116.793 299.916 118.062 343.396 127.584 348.156C132.344 350.695 153.608 357.36 159.955 358.312C159.955 358.312 161.542 357.36 161.86 351.965C161.86 351.965 139.961 341.174 137.422 336.096C133.296 328.797 143.452 308.802 138.057 301.82C132.662 295.155 122.823 291.347 116.793 299.916Z" fill="#D4BBDC"/>
<path d="M479.23 472.566C479.23 472.566 479.865 468.757 480.817 466.536C482.087 464.314 489.069 465.584 489.069 465.584C489.069 465.584 490.656 466.853 490.656 472.566H479.23Z" fill="#40497B"/>
<path d="M454.793 472.248C456.38 471.296 455.428 463.679 455.428 463.679C455.428 463.679 447.493 457.332 446.541 462.092C445.589 466.853 438.924 469.075 435.433 469.709C432.894 470.027 432.26 471.614 431.942 472.248H454.793Z" fill="#40497B"/>
<path d="M470.979 416.391C470.661 418.295 470.344 419.565 470.344 420.517C469.709 434.799 458.284 467.488 456.38 468.123C453.206 469.392 448.445 466.853 445.906 465.901C444.954 465.584 444.002 464.632 444.32 463.362C450.032 437.655 451.936 400.84 452.571 378.941C452.889 367.833 454.793 360.217 454.793 360.217C454.793 360.217 482.404 352.917 482.404 362.121C482.721 370.69 473.518 403.062 470.979 416.391Z" fill="#82B6E7"/>
<path d="M470.979 416.391L452.571 379.259C452.888 368.151 454.793 360.534 454.793 360.534C454.793 360.534 482.404 353.234 482.404 362.438C482.721 370.69 473.518 403.062 470.979 416.391Z" fill="#1D2350"/>
<path d="M464.949 362.755L479.548 468.123C479.548 468.123 485.895 469.709 490.973 468.44C490.973 468.44 495.099 412.583 494.782 398.936C494.464 385.289 497.956 362.755 494.147 360.216C490.021 357.36 464.949 362.755 464.949 362.755Z" fill="#82B6E7"/>
<path d="M495.099 335.461L497.003 360.851C497.003 361.803 496.368 362.755 495.416 363.073C493.512 363.707 490.973 364.025 486.53 364.977C482.404 365.929 476.691 366.564 469.709 366.564C458.601 366.564 454.475 362.755 454.475 362.755C453.84 362.755 454.793 360.534 455.427 349.426C455.745 345.617 455.745 340.857 456.062 334.827C456.062 329.431 456.379 323.084 456.379 315.467C456.379 306.263 470.661 296.425 470.979 296.425C470.979 297.694 473.2 300.233 476.374 300.233C480.182 300.551 484.943 298.646 484.943 296.425C484.943 296.425 491.925 307.533 494.147 319.275C494.464 320.862 494.781 322.449 494.781 324.036C494.781 324.353 494.781 324.671 494.781 324.988C494.781 324.988 494.781 324.988 494.781 325.305C494.781 325.623 494.781 325.94 494.781 326.258V326.575C494.781 326.892 494.781 327.21 494.781 327.21C494.781 327.527 494.781 327.527 494.781 327.844V328.162C494.781 328.479 494.781 328.479 494.781 328.797V329.114C494.781 329.431 494.781 329.431 494.781 329.749V330.066C494.781 330.383 494.781 330.701 494.781 331.018C494.781 331.336 494.781 331.653 494.781 331.97C494.781 331.97 494.781 331.97 494.781 332.288C494.781 332.605 494.781 332.922 494.781 333.24C495.099 334.192 495.099 334.827 495.099 335.461Z" fill="#D2A0D2"/>
<path d="M470.344 296.425C470.344 296.425 457.015 296.425 453.841 300.868C450.667 305.311 443.685 329.431 447.494 337.366C450.985 345.3 457.967 334.192 461.775 329.114C465.584 324.036 470.344 296.425 470.344 296.425Z" fill="#D2A0D2"/>
<path d="M470.344 294.521V295.79C470.344 295.79 470.027 299.916 475.105 300.551C480.5 301.185 484.309 298.964 484.309 295.473C483.991 292.934 483.356 291.029 483.356 289.125C483.356 288.491 483.357 287.538 483.674 286.586L473.518 286.269L470.662 286.904L470.344 294.521Z" fill="#F9B8B7"/>
<path d="M470.344 286.904V294.203C471.296 294.838 472.566 295.155 474.152 295.155C478.913 295.155 481.769 291.664 483.356 289.125C483.356 288.491 483.356 287.538 483.674 286.586L473.518 286.269L470.344 286.904Z" fill="#F69693"/>
<path d="M484.308 284.999C483.039 291.347 474.787 291.029 471.296 290.712C470.344 290.712 469.709 290.395 469.709 290.395C468.44 290.077 467.805 288.173 467.805 285.952C467.17 281.508 467.805 274.526 468.757 272.939C470.026 270.4 472.248 267.544 480.5 269.448C488.434 271.67 485.895 277.065 484.308 284.999Z" fill="#F9B8B7"/>
<path d="M457.014 314.198C457.014 314.198 451.936 325.623 451.936 328.797C451.936 328.797 454.475 328.797 457.014 329.431C460.823 330.701 457.014 314.198 457.014 314.198Z" fill="#A78DBA"/>
<path d="M465.901 267.227C465.901 267.227 469.392 266.909 473.835 265.005C477.326 263.418 481.769 265.005 483.039 265.957C483.039 265.64 483.039 265.322 482.721 265.005C482.721 265.005 483.356 265.322 483.356 265.957C483.356 265.957 483.991 265.957 484.625 265.957C484.625 265.957 484.308 265.957 484.308 266.274C489.703 268.813 490.338 277.382 488.434 279.604C486.212 282.143 483.673 287.221 483.673 287.221C483.673 287.221 482.721 285.951 483.039 283.73C483.356 281.508 481.452 281.508 479.23 280.556C477.009 279.604 478.913 277.065 476.691 275.161C474.787 273.574 467.17 274.526 467.487 273.257C465.266 272.939 465.901 267.227 465.901 267.227Z" fill="#40497B"/>
<path d="M485.895 335.462C483.673 344.031 460.505 348.474 455.11 349.426C455.427 345.617 455.427 340.857 455.745 334.827L485.895 335.462Z" fill="#A78DBA"/>
<path d="M480.817 338.318C481.134 338.318 485.895 337.683 486.847 337.048C487.799 336.731 491.925 330.701 489.069 329.431C486.53 327.844 479.23 333.875 479.23 333.875L480.817 338.318Z" fill="#F9B8B7"/>
<path d="M450.667 339.905C450.667 339.905 469.709 340.857 482.721 338.318C482.721 338.318 483.039 334.509 478.913 332.922C478.913 332.922 458.919 328.797 454.158 329.749C449.397 331.018 450.667 339.905 450.667 339.905Z" fill="#D2A0D2"/>
<path d="M494.782 324.988C490.656 329.749 485.578 333.557 479.865 334.509C479.865 334.509 478.278 331.97 478.596 328.162C478.596 326.575 479.23 324.353 480.817 322.132C481.135 321.497 481.769 320.862 482.087 319.91C485.26 311.976 484.626 296.425 484.626 296.425C484.626 296.425 497.955 297.694 502.081 303.724C504.303 307.533 500.812 317.371 494.782 324.988Z" fill="#D2A0D2"/>
<path d="M471.296 290.712C470.344 290.712 469.709 290.395 469.709 290.395C468.44 290.077 467.805 288.173 467.805 285.951C470.027 286.586 470.979 288.173 471.296 288.808C471.296 289.443 471.296 290.077 471.296 290.712Z" fill="#F69693"/>
<path d="M465.901 294.521C465.901 294.521 461.458 286.904 464.949 286.586C468.44 286.269 470.027 288.808 470.344 289.443C470.979 290.395 470.344 294.203 470.344 294.203L465.901 294.521Z" fill="#F9B8B7"/>
<path d="M483.356 327.844C483.356 328.797 483.039 329.749 482.722 330.383C481.452 332.922 479.865 334.509 479.865 334.509C467.805 329.114 465.584 310.706 465.266 300.551C464.949 296.425 465.266 293.886 465.266 293.886C470.662 291.982 472.249 295.155 472.249 295.155C472.249 295.155 478.596 310.389 481.77 320.228C482.722 323.719 483.674 326.575 483.356 327.844Z" fill="#D2A0D2"/>
<path d="M494.781 324.988C490.656 329.749 485.578 333.557 479.865 334.509C467.805 329.114 465.583 310.706 465.266 300.551C465.266 300.551 470.979 320.862 478.595 328.162C479.865 329.431 481.452 330.383 483.039 330.383C482.721 330.383 492.242 327.844 494.781 324.988C494.464 324.988 494.464 324.988 494.781 324.988Z" fill="#A78DBA"/>
<path d="M691.234 455.11C693.456 463.679 710.594 469.075 729.636 471.931H799.775C816.596 463.679 816.596 453.841 817.865 426.547C820.721 370.372 790.889 343.078 777.876 347.521C777.242 347.839 776.924 347.839 776.289 348.156C772.481 349.743 768.038 352.282 763.912 358.947C763.912 358.947 750.9 380.845 740.109 393.858C736.618 397.983 733.444 401.475 730.905 402.744C730.905 402.744 730.588 402.744 730.588 403.061C724.875 405.6 716.941 411.313 709.324 417.978C697.899 428.768 688.06 442.733 691.234 455.11Z" fill="#D0A49A"/>
<path d="M709.324 417.978C719.162 421.151 769.624 435.751 781.685 420.199C790.254 409.091 784.858 380.211 780.098 361.486C778.193 353.869 768.355 352.282 764.229 358.629C764.229 358.629 764.229 358.629 764.229 358.947C764.229 358.947 751.217 380.845 740.426 393.858C737.253 397.983 734.079 401.157 731.223 402.744C731.223 402.744 730.905 402.744 730.905 403.061C724.558 405.6 716.624 410.996 709.324 417.978Z" fill="#DCB4B2"/>
<path d="M746.774 346.887C746.774 346.887 743.283 351.965 741.379 363.073C739.474 372.594 738.205 376.085 735.666 377.989C733.127 379.893 719.163 385.606 719.163 385.606L720.115 388.145C720.115 388.145 740.744 385.289 742.965 381.798C745.187 378.306 754.073 357.995 753.439 353.234C752.804 348.791 746.774 346.887 746.774 346.887Z" fill="#F7A7A5"/>
<path d="M696.313 460.823C696.63 462.727 693.774 463.362 690.6 463.362C687.426 463.679 688.378 464.314 683.935 464.949C679.492 465.901 677.588 464.631 677.27 463.997C676.953 463.362 679.175 462.727 681.396 461.775C681.714 461.775 682.031 461.458 682.348 461.458C684.887 460.506 686.157 458.284 688.061 456.062C689.965 454.158 691.552 447.811 691.552 447.811L697.582 446.541C697.582 446.541 695.995 452.254 695.36 454.476C695.043 455.745 695.678 457.332 695.995 458.601C695.995 459.553 696.313 460.188 696.313 460.823Z" fill="#F9B8B7"/>
<path d="M690.282 463.679C687.108 463.997 688.06 464.631 683.617 465.266C679.174 466.218 677.27 464.949 676.952 464.314C676.635 463.679 678.856 463.045 681.078 462.092C681.078 462.092 684.252 463.045 687.743 462.092C690.599 461.14 693.456 459.553 695.677 458.919C695.995 459.553 696.312 460.188 696.312 460.823C696.629 463.045 693.773 463.362 690.282 463.679Z" fill="#1E2553"/>
<path d="M756.613 389.097C756.613 389.097 716.306 385.923 708.689 391.001C701.073 395.762 689.012 451.302 689.012 451.302C689.012 451.302 689.647 451.936 691.551 451.936C693.138 452.254 696.629 451.302 696.629 451.302C696.629 451.302 714.085 426.547 715.354 420.199C716.624 413.852 716.306 408.457 719.163 408.139C722.019 408.139 756.93 412.265 762.008 403.061C767.403 393.858 762.96 384.654 762.96 384.654L756.613 389.097Z" fill="#1E2553"/>
<path d="M711.546 467.488C711.863 469.392 709.007 470.027 705.833 470.027C702.659 470.344 703.612 470.979 699.168 471.614C694.725 472.566 692.821 471.296 692.504 470.661C692.186 470.027 694.408 469.392 696.629 468.44C696.947 468.44 697.264 468.122 697.582 468.122C700.12 467.17 701.39 464.949 703.294 462.727C705.198 460.823 706.785 454.476 706.785 454.476L712.815 453.206C712.815 453.206 711.228 458.919 710.594 461.14C710.276 462.41 710.911 463.997 711.228 465.266C711.228 465.901 711.546 466.536 711.546 467.488Z" fill="#F9B8B7"/>
<path d="M705.833 470.027C702.659 470.344 703.611 470.979 699.168 471.614C694.725 472.566 692.821 471.296 692.503 470.661C692.186 470.027 694.408 469.392 696.629 468.44C696.629 468.44 699.803 469.392 703.294 468.44C706.15 467.488 709.007 465.901 711.228 465.266C711.546 465.901 711.863 466.536 711.863 467.17C711.863 469.392 709.007 469.709 705.833 470.027Z" fill="#1E2553"/>
<path d="M764.547 391.636C764.547 391.636 728.684 393.223 721.384 398.301C714.085 403.379 703.929 459.554 703.929 459.554C703.929 459.554 704.564 460.188 706.468 460.188C708.055 460.188 711.546 459.236 711.546 459.236C711.546 459.236 728.049 433.529 729.001 427.499C729.953 421.152 729.319 415.756 732.175 415.439C735.031 415.122 769.942 418.295 775.02 408.774C779.781 398.936 764.547 391.636 764.547 391.636Z" fill="#374079"/>
<path d="M752.169 344.03C751.535 342.761 750.583 340.539 749.948 336.731C749.948 337.048 750.9 342.126 753.122 344.665C761.373 349.426 777.876 365.612 777.559 369.103L782.32 359.582C782.32 359.582 791.206 346.252 779.146 339.905C772.799 336.731 772.799 331.97 772.799 327.845C772.799 323.719 769.625 306.263 758.199 311.659C758.199 311.659 756.295 311.024 755.343 311.024C755.343 311.024 755.978 311.024 756.295 311.341C755.026 311.341 752.804 311.659 751.217 312.611C747.409 315.784 745.187 338.318 752.169 344.03Z" fill="#1E2553"/>
<path d="M765.816 340.857C765.816 340.857 762.643 340.539 759.152 340.857C756.93 341.174 754.708 341.809 753.439 342.443C750.265 343.713 750.583 349.426 757.247 348.156C763.912 347.204 766.451 342.443 765.816 340.857Z" fill="#F9B8B7"/>
<path d="M753.756 344.982C753.756 344.982 752.804 349.743 757.247 349.743C760.104 349.743 766.134 346.252 765.816 343.713C765.499 342.443 763.277 339.587 762.96 332.605H762.325L753.756 334.827C753.756 334.827 754.074 337.683 754.391 340.222C754.391 342.761 754.391 344.665 753.756 344.982Z" fill="#F9B8B7"/>
<path d="M753.439 335.144C753.439 335.144 753.756 338 754.073 340.539C759.151 340.222 761.373 335.461 762.325 332.922L753.439 335.144Z" fill="#F7A7A5"/>
<path d="M762.96 331.653C762.96 331.653 765.182 327.527 765.817 323.719C766.134 321.18 764.23 311.976 755.026 313.88C755.026 313.88 752.487 314.197 749.948 316.102C748.044 317.689 745.187 320.862 748.996 328.479L749.948 331.018L762.96 331.653Z" fill="#1E2553"/>
<path d="M752.169 337.683C752.169 337.683 763.912 337.048 763.277 329.749C762.643 322.449 763.912 317.371 756.613 317.689C748.996 317.689 747.726 320.545 747.409 323.084C746.774 325.623 748.996 337.683 752.169 337.683Z" fill="#F9B8B7"/>
<path d="M751.217 317.689C751.217 317.689 755.026 325.94 760.104 326.892C765.182 327.844 767.086 326.258 767.086 326.258C767.086 326.258 763.277 323.401 762.008 318.323C762.008 318.641 753.439 313.563 751.217 317.689Z" fill="#1E2553"/>
<path d="M752.169 318.323C752.169 318.323 749.948 320.227 749.313 322.132C748.996 324.036 748.996 327.844 747.726 327.844C747.726 327.844 744.87 322.132 747.409 318.641C749.948 315.149 752.169 318.323 752.169 318.323Z" fill="#1E2553"/>
<path d="M740.427 389.732C741.379 391.001 744.235 391.319 747.409 391.636C749.948 391.953 752.487 392.588 754.391 393.54C758.517 396.079 772.481 404.331 776.29 404.013C777.876 404.013 777.559 400.84 776.607 397.031C775.02 390.684 771.846 382.115 771.846 378.306C771.846 376.402 771.212 371.324 770.26 365.929C770.26 365.612 770.259 364.977 769.942 364.659C768.038 353.869 765.499 341.174 765.499 341.174C765.499 341.174 762.643 347.204 757.247 347.204C751.852 347.204 753.121 342.443 753.121 342.443C753.121 342.443 748.044 343.078 747.091 344.348C745.822 345.617 742.966 351.012 742.331 352.599C742.331 352.599 742.331 354.504 746.774 355.456C746.774 355.456 745.505 360.534 745.505 364.025C745.505 366.564 747.091 374.498 747.726 379.576C748.044 381.48 748.044 382.75 747.726 383.384C747.409 384.336 746.139 384.971 744.87 385.606C742.648 386.875 739.157 388.462 740.427 389.732Z" fill="#C3D3ED"/>
<path d="M745.187 385.288C742.014 390.366 753.439 391.953 755.343 393.223C759.469 395.762 772.481 404.648 776.607 404.331C778.194 404.331 777.877 401.157 776.924 397.349C775.338 391.001 772.164 382.432 772.164 378.624C772.164 376.719 771.529 371.641 770.577 366.246L765.816 361.486C765.816 361.486 760.738 374.815 755.661 377.037C753.122 378.306 750.265 378.941 748.361 379.258C748.678 381.163 748.678 382.432 748.361 383.067C747.726 383.702 746.457 384.654 745.187 385.288Z" fill="#B4C8E8"/>
<path d="M767.403 344.983C767.403 344.983 771.529 342.444 775.655 347.204C779.781 351.965 772.799 386.241 766.769 387.828C760.104 389.732 741.062 387.51 741.062 387.51L741.379 384.654C741.379 384.654 761.691 380.845 762.643 379.576C763.595 378.306 765.182 345.617 767.403 344.983Z" fill="#F9B8B7"/>
<path d="M765.816 340.857C765.816 340.857 774.385 341.492 776.924 344.348C779.463 347.204 780.098 354.821 780.098 354.821C780.098 354.821 772.481 360.851 763.594 358.63L765.816 340.857Z" fill="#C3D3ED"/>
<path d="M728.183 390.531H739.291V389.261H728.183V390.531Z" fill="#A78DBA"/>
<path d="M730.271 390.367C730.271 390.05 719.798 373.864 719.798 373.864H696.947L708.372 390.05L730.271 390.367Z" fill="#A78DBA"/>
<path d="M729.319 390.367C729.319 390.049 718.845 373.546 718.845 373.546H696.947L707.737 390.367H729.319Z" fill="#D4BBDC"/>
<path d="M710.277 382.115C710.594 382.75 711.229 383.384 711.863 383.384C712.498 383.384 712.816 382.75 712.498 382.115C712.181 381.48 711.546 380.845 710.911 380.845C710.277 381.163 709.959 381.48 710.277 382.115Z" fill="#EDEDED"/>
<path d="M743.283 384.337C743.283 384.337 736.618 383.067 735.984 383.384C735.349 383.702 731.223 387.51 731.54 388.145C731.858 388.78 733.762 389.414 735.666 388.78C737.57 388.145 741.696 387.828 742.331 386.876C742.966 385.923 743.283 384.337 743.283 384.337Z" fill="#F9B8B7"/>
<path d="M602.37 199.309H394.175L378.306 146.943H586.185L602.37 199.309Z" fill="#B4C8E8"/>
<path d="M578.251 164.717L580.155 171.064C581.107 173.92 579.52 176.142 576.664 176.142H404.331C401.475 176.142 398.619 173.92 397.666 171.064L395.762 164.717C394.81 161.86 396.397 159.639 399.253 159.639H571.586C574.759 159.639 577.616 161.86 578.251 164.717Z" fill="#EDEDED"/>
<path d="M543.974 165.985H541.435L541.118 165.033H544.926L545.244 165.668L544.292 170.111H543.339L543.974 165.985Z" fill="#7F88B6"/>
<path d="M546.196 167.89C545.879 166.303 546.196 165.033 547.783 165.033C549.052 165.033 550.322 166.303 550.957 167.89C551.274 169.476 550.957 170.746 549.37 170.746C547.783 170.429 546.513 169.159 546.196 167.89ZM549.687 167.89C549.37 166.937 548.735 165.985 547.783 165.985C546.831 165.985 546.831 166.937 547.148 167.89C547.466 168.842 548.1 169.794 549.052 169.794C549.687 169.476 550.005 168.842 549.687 167.89Z" fill="#7F88B6"/>
<path d="M550.956 166.303C550.639 165.668 550.956 165.033 551.909 165.033C552.543 165.033 553.178 165.668 553.495 166.303C553.813 166.937 553.495 167.572 552.543 167.572C551.909 167.89 551.274 167.255 550.956 166.303ZM555.082 165.033H555.717L553.495 170.429H552.861L555.082 165.033ZM552.861 166.303C552.861 165.985 552.543 165.668 551.909 165.668C551.591 165.668 551.591 165.985 551.591 166.303C551.591 166.62 551.909 166.937 552.543 166.937C552.861 167.255 553.178 166.937 552.861 166.303ZM555.082 169.159C554.765 168.524 555.082 167.89 556.034 167.89C556.669 167.89 557.304 168.524 557.621 169.159C557.939 169.794 557.621 170.429 556.669 170.429C556.034 170.429 555.4 169.794 555.082 169.159ZM556.987 169.159C556.987 168.842 556.669 168.524 556.034 168.524C555.717 168.524 555.717 168.842 555.717 169.159C555.717 169.476 556.034 169.794 556.669 169.794C556.987 169.794 556.987 169.476 556.987 169.159Z" fill="#7F88B6"/>
<path d="M516.047 159.638L521.124 175.824H404.649C402.428 175.824 399.889 174.237 398.619 172.015C398.302 171.698 398.302 171.063 397.985 170.746L396.08 164.398C395.128 161.542 396.715 159.321 399.571 159.321H516.047V159.638Z" fill="#A78DBA"/>
<path d="M420.2 159.638L415.439 175.824H404.649C402.427 175.824 399.888 174.237 398.618 172.015L402.427 159.321H420.2V159.638Z" fill="#82B6E7"/>
<path d="M450.668 159.638L445.907 175.824H428.134L432.895 159.638H450.668Z" fill="#82B6E7"/>
<path d="M481.135 159.638L476.375 175.824H458.602L463.362 159.638H481.135Z" fill="#82B6E7"/>
<path d="M511.603 159.638L506.842 175.824H489.069L493.83 159.638H511.603Z" fill="#82B6E7"/>
<path d="M436.068 185.345H404.966L404.331 183.441H435.433L436.068 185.345Z" fill="#7F88B6"/>
<path d="M429.404 191.375H406.87L406.236 189.471H428.769L429.404 191.375Z" fill="#7F88B6"/>
<path d="M444.32 191.375H430.99L430.038 189.471H443.685L444.32 191.375Z" fill="#7F88B6"/>
<path d="M467.488 191.375H446.541L445.907 189.471H466.536L467.488 191.375Z" fill="#7F88B6"/>
<path d="M447.811 185.345H438.607L437.655 183.441H447.176L447.811 185.345Z" fill="#7F88B6"/>
<path d="M485.261 185.345H450.985L450.35 183.441H484.626L485.261 185.345Z" fill="#7F88B6"/>
<path d="M321.497 278.017H175.189L152.338 203.435H298.646L321.497 278.017Z" fill="#B4C8E8"/>
<path d="M300.868 240.567H173.284L163.446 209.148H291.347L300.868 240.567Z" fill="#EDEDED"/>
<path d="M194.231 215.495H172.65L172.015 213.908H193.596L194.231 215.495Z" fill="#1D2350"/>
<path d="M217.4 215.495H199.309L198.675 213.908H216.765L217.4 215.495Z" fill="#1D2350"/>
<path d="M259.293 215.495H221.843L221.526 213.908H258.658L259.293 215.495Z" fill="#1D2350"/>
<path d="M196.136 221.525H174.238L173.92 219.938H195.501L196.136 221.525Z" fill="#1D2350"/>
<path d="M218.986 221.525H201.214L200.579 219.938H218.669L218.986 221.525Z" fill="#1D2350"/>
<path d="M240.251 221.525H222.478L221.843 219.938H239.933L240.251 221.525Z" fill="#1D2350"/>
<path d="M283.096 222.16H245.963L245.328 220.573H282.461L283.096 222.16Z" fill="#1D2350"/>
<path d="M198.357 229.142H176.776L176.141 227.555H197.722L198.357 229.142Z" fill="#1D2350"/>
<path d="M221.525 229.142H203.434L203.117 227.555H220.89L221.525 229.142Z" fill="#1D2350"/>
<path d="M263.418 229.142H226.285L225.651 227.555H262.783L263.418 229.142Z" fill="#1D2350"/>
<path d="M200.261 235.172H178.68L178.045 233.585H199.626L200.261 235.172Z" fill="#1D2350"/>
<path d="M223.429 235.172H205.339L204.704 233.585H222.794L223.429 235.172Z" fill="#1D2350"/>
<path d="M244.693 235.172H226.603L225.968 233.585H244.058L244.693 235.172Z" fill="#1D2350"/>
<path d="M287.221 235.807H250.088L249.454 234.22H286.586L287.221 235.807Z" fill="#1D2350"/>
<path d="M258.657 266.909C253.58 266.909 248.502 262.783 246.915 258.023C245.328 252.945 248.184 249.136 253.262 249.136C258.34 249.136 263.418 253.262 265.005 258.023C266.592 262.783 263.735 266.909 258.657 266.909ZM253.897 250.723C249.771 250.723 247.549 253.897 248.819 258.023C250.088 262.149 254.214 265.322 258.34 265.322C262.466 265.322 264.688 262.149 263.418 258.023C262.149 253.897 257.705 250.723 253.897 250.723Z" fill="#82B6E7"/>
<path d="M257.388 262.466C257.07 262.466 256.753 262.149 256.436 262.149L251.358 258.023C250.723 257.388 250.406 256.753 250.723 256.119C251.041 255.484 251.993 255.484 252.627 256.119L256.118 258.975L258.023 254.849C258.34 254.214 258.975 254.214 259.927 254.532C260.562 254.849 261.196 255.801 260.879 256.436L258.657 261.831C258.023 262.149 257.705 262.466 257.388 262.466Z" fill="#82B6E7"/>
<path d="M232.95 266.909C227.873 266.909 222.795 262.783 221.208 258.023C219.621 252.945 222.477 249.136 227.555 249.136C232.633 249.136 237.711 253.262 239.298 258.023C240.885 262.783 238.028 266.909 232.95 266.909ZM228.19 250.723C224.064 250.723 221.842 253.897 223.112 258.023C224.381 262.149 228.507 265.322 232.633 265.322C236.759 265.322 238.98 262.149 237.711 258.023C236.442 253.897 231.998 250.723 228.19 250.723Z" fill="#82B6E7"/>
<path d="M231.681 262.466C231.364 262.466 231.046 262.149 230.729 262.149L225.651 258.023C225.016 257.388 224.699 256.753 225.016 256.119C225.333 255.484 226.286 255.484 226.92 256.119L230.411 258.975L232.316 254.849C232.633 254.214 233.268 254.214 234.22 254.532C234.855 254.849 235.489 255.801 235.172 256.436L232.95 261.831C232.316 262.149 231.998 262.466 231.681 262.466Z" fill="#82B6E7"/>
<path d="M206.291 266.909C201.213 266.909 196.135 262.783 194.548 258.023C192.962 252.945 195.818 249.136 200.896 249.136C205.974 249.136 211.052 253.262 212.639 258.023C214.226 262.783 211.369 266.909 206.291 266.909ZM201.531 250.723C197.405 250.723 195.183 253.897 196.453 258.023C197.722 262.149 201.848 265.322 205.974 265.322C210.1 265.322 212.321 262.149 211.052 258.023C209.782 253.897 205.339 250.723 201.531 250.723Z" fill="#82B6E7"/>
<path d="M205.022 262.466C204.704 262.466 204.387 262.149 204.07 262.149L198.992 258.023C198.357 257.388 198.04 256.753 198.357 256.119C198.674 255.484 199.626 255.484 200.261 256.119L203.752 258.975L205.656 254.849C205.974 254.214 206.609 254.214 207.561 254.532C208.195 254.849 208.83 255.801 208.513 256.436L206.291 261.831C205.656 262.149 205.339 262.466 205.022 262.466Z" fill="#82B6E7"/>
<path d="M283.73 266.909C278.652 266.909 273.574 262.783 271.987 258.023C270.4 252.945 273.257 249.136 278.335 249.136C283.413 249.136 288.491 253.262 290.077 258.023C291.347 262.783 288.491 266.909 283.73 266.909ZM278.652 250.723C274.526 250.723 272.305 253.897 273.574 258.023C274.844 262.149 278.969 265.322 283.095 265.322C287.221 265.322 289.443 262.149 288.173 258.023C286.904 253.897 282.778 250.723 278.652 250.723Z" fill="#D590A3"/>
<path d="M281.191 259.292C280.556 259.292 279.604 258.658 279.604 258.023L278.335 254.214C278.017 253.58 278.652 252.945 279.287 252.945C279.922 252.945 280.874 253.58 280.874 254.214L282.143 258.023C282.461 258.975 282.143 259.292 281.191 259.292Z" fill="#D590A3"/>
<path d="M282.46 262.466C281.508 262.466 280.874 261.831 280.556 261.197C280.239 260.562 280.874 259.927 281.191 259.927H281.508C282.143 259.927 282.778 260.562 283.095 261.197C283.413 261.831 283.095 262.466 282.46 262.466Z" fill="#D590A3"/>
<path d="M633.156 263.101C633.156 263.101 651.563 282.143 652.515 289.442C653.467 296.742 643.629 307.85 643.629 307.85L633.156 263.101Z" fill="#DCB4B2"/>
<path d="M624.904 462.093C624.904 462.093 624.269 472.248 622.365 472.566C622.048 472.566 612.527 472.566 612.527 472.566H600.149C600.149 472.566 600.149 469.709 603.958 469.075C607.449 468.44 613.796 465.901 616.018 461.14C617.922 455.428 624.904 462.093 624.904 462.093Z" fill="#1E2553"/>
<path d="M652.515 462.092C652.515 462.092 651.88 472.248 649.976 472.566C649.659 472.566 640.137 472.566 640.137 472.566H627.76C627.76 472.566 627.76 469.709 631.569 469.075C635.06 468.44 641.407 465.901 643.629 461.14C645.533 455.745 652.515 462.092 652.515 462.092Z" fill="#1E2553"/>
<path d="M611.257 352.599C611.257 352.599 614.431 373.228 626.491 410.361C638.551 447.176 640.138 463.362 640.138 463.362L653.15 463.044C653.15 463.044 653.467 422.738 647.755 404.331C642.359 385.923 646.802 337.365 646.802 337.365L611.257 352.599Z" fill="#1E2553"/>
<path d="M604.909 338C604.909 338 604.275 369.42 609.67 407.822C615.065 446.224 613.161 462.41 613.161 462.41L626.173 462.727C626.173 462.727 634.107 424.325 631.886 404.966C629.664 385.606 642.677 338.952 642.677 338.952L604.909 338Z" fill="#374079"/>
<path d="M630.299 265.005L623.317 269.448L613.478 267.544C613.478 266.592 614.43 263.418 614.748 260.244C614.748 259.927 614.748 259.927 614.748 259.61C615.382 257.071 615.7 254.849 615.7 254.849L624.904 250.723L628.395 249.136C628.395 249.136 628.077 251.993 628.077 252.31C627.76 259.927 630.299 265.005 630.299 265.005Z" fill="#F9B8B7"/>
<path d="M616.017 262.466C616.335 262.466 628.078 258.975 629.347 259.292C630.616 259.61 631.251 262.149 631.251 262.149L611.892 266.592C611.892 266.592 613.478 263.735 616.017 262.466Z" fill="#DCB4B2"/>
<path d="M647.755 342.126C645.851 351.33 612.209 352.282 603.64 344.03C602.688 343.078 602.688 338.635 603.006 332.605C603.64 320.862 606.179 303.407 606.179 294.52C606.179 290.077 606.814 285.951 607.766 281.826C609.353 273.257 611.892 266.592 611.892 266.592C611.892 266.592 628.078 261.514 631.252 262.149C646.168 266.592 649.659 332.922 647.755 342.126Z" fill="#D0A49A"/>
<path d="M603.005 332.605C603.64 320.862 606.179 303.407 606.179 294.521C606.179 290.077 606.814 285.952 607.766 281.826L617.604 280.239C617.604 280.239 627.126 319.275 603.005 332.605Z" fill="#DCB4B2"/>
<path d="M608.4 316.419C608.4 316.419 609.035 318.006 607.766 318.958C606.496 319.91 605.544 321.814 605.862 323.084C606.179 324.353 609.353 326.575 610.305 326.257C611.257 325.94 613.478 324.353 613.161 323.718C612.844 323.084 614.748 317.688 611.892 315.784C609.353 313.563 608.4 316.419 608.4 316.419Z" fill="#F9B8B7"/>
<path d="M619.509 264.37C619.509 264.37 609.987 266.275 602.371 277.383C594.754 288.491 589.676 297.06 590.945 300.868C592.215 304.994 605.227 318.958 607.448 318.958C609.67 318.958 613.161 317.371 613.479 313.88C613.479 313.88 604.592 300.233 606.179 298.329C606.814 297.377 617.922 288.491 619.509 292.616C622.048 299.281 619.509 264.37 619.509 264.37Z" fill="#D0A49A"/>
<path d="M627.76 252.945C625.856 256.436 617.922 259.292 614.748 260.562C614.748 260.244 614.748 260.244 614.748 259.927C615.383 257.388 615.7 255.166 615.7 255.166L624.904 251.041C627.443 251.041 628.712 251.358 627.76 252.945Z" fill="#F8ADAB"/>
<path d="M612.527 254.532C612.527 254.532 627.443 259.292 630.299 249.771C633.156 240.25 636.964 234.537 627.443 231.364C617.922 227.873 615.066 231.046 613.479 233.903C611.575 236.759 608.718 252.945 612.527 254.532Z" fill="#F9B8B7"/>
<path d="M613.796 232.95C613.796 232.95 614.748 243.741 616.969 243.424C619.191 243.106 621.413 242.472 621.095 245.963C620.778 249.136 617.604 252.945 624.586 253.58C631.568 254.214 641.724 236.124 639.82 232.95C634.107 222.795 605.861 220.89 613.796 232.95Z" fill="#1E2553"/>
</g>
<defs>
<filter id="filter0_d" x="-4" y="-6.10352e-05" width="863.001" height="532.932" filterUnits="userSpaceOnUse" color-interpolation-filters="sRGB">
<feFlood flood-opacity="0" result="BackgroundImageFix"/>
<feColorMatrix in="SourceAlpha" type="matrix" values="0 0 0 0 0 0 0 0 0 0 0 0 0 0 0 0 0 0 127 0"/>
<feOffset dy="4"/>
<feGaussianBlur stdDeviation="2"/>
<feColorMatrix type="matrix" values="0 0 0 0 0 0 0 0 0 0 0 0 0 0 0 0 0 0 0.25 0"/>
<feBlend mode="normal" in2="BackgroundImageFix" result="effect1_dropShadow"/>
<feBlend mode="normal" in="SourceGraphic" in2="effect1_dropShadow" result="shape"/>
</filter>
<linearGradient id="paint0_linear" x1="191.27" y1="274.474" x2="567.306" y2="274.474" gradientUnits="userSpaceOnUse">
<stop stop-color="#EDB0A1"/>
<stop offset="1" stop-color="#F683A3"/>
</linearGradient>
</defs>
</svg>
