<svg width="357" height="321" viewBox="0 0 357 321" fill="none" xmlns="http://www.w3.org/2000/svg">
<g filter="url(#filter0_d)">
<path d="M230.436 14.5859C227.887 13.7362 225.196 13.0282 222.647 12.3201C188.377 3.54026 153.683 8.49662 123.803 27.3309C95.9055 44.8906 74.0974 70.3806 52.7142 95.0209C33.8799 116.687 19.1524 143.452 21.5598 173.048C24.8168 211.991 54.6967 243.146 93.9229 246.403C112.332 247.961 131.167 242.579 147.027 233.375C161.046 225.303 172.8 213.691 187.953 207.743C205.087 200.804 224.205 203.353 241.623 208.168C255.926 212.133 270.37 217.231 285.381 216.948C312.004 216.523 328.289 192.874 334.095 169.367C351.088 101.677 293.028 36.394 232.56 15.2939C231.71 15.0107 231.002 14.8691 230.436 14.5859Z" fill="#ECF7FE"/>
<path d="M258.758 255.183C253.094 255.183 247.571 254.05 242.19 251.784C230.577 246.828 220.806 238.614 211.177 230.543C209.336 228.985 207.495 227.427 205.654 226.011C187.953 211.425 172.517 204.486 156.94 203.92C147.027 203.495 137.256 205.619 127.91 207.602C121.82 208.876 115.448 210.151 109.217 210.859C89.6746 212.841 70.4155 209.443 55.2632 201.087C38.6947 192.024 25.9497 177.297 19.294 159.595C12.7799 142.036 12.6383 122.493 18.8692 104.509C27.3658 80.1517 47.4746 60.4678 79.0538 45.7403L82.3108 44.1826C110.775 30.8712 140.088 17.2765 171.526 12.745C188.944 10.196 206.079 11.3289 222.506 15.8604C238.932 20.392 254.226 28.1806 268.104 39.2262C270.228 40.9255 272.353 42.6249 274.335 44.4658C274.902 44.8906 275.326 45.4571 275.893 45.8819C287.505 56.786 297.984 70.3806 306.339 85.1081C314.836 100.119 321.208 116.687 324.607 132.831C328.289 150.108 328.855 166.959 326.023 182.536C323.049 199.53 316.394 214.824 306.056 227.994C297.984 238.331 287.93 246.403 277.592 250.934C271.503 253.767 265.13 255.183 258.758 255.183ZM154.816 203.636C155.524 203.636 156.373 203.636 157.081 203.636C172.659 204.203 188.236 211.283 205.937 225.869C207.778 227.427 209.619 228.985 211.46 230.401C220.948 238.331 230.861 246.686 242.331 251.501C253.518 256.174 265.697 255.891 277.734 250.651C287.93 246.12 297.984 238.048 306.056 227.71C316.394 214.54 323.049 199.246 326.023 182.253C328.714 166.534 328.289 149.824 324.607 132.548C321.208 116.404 314.836 99.9773 306.339 84.9665C297.984 70.239 287.505 56.6443 275.893 45.7403C275.326 45.3155 274.902 44.749 274.335 44.3242C272.353 42.4832 270.228 40.7839 268.104 39.0846C254.226 28.1806 238.932 20.2503 222.647 15.8604C206.22 11.3289 189.085 10.3376 171.667 12.745C140.23 17.2765 110.916 31.0128 82.4525 44.1826L79.1954 45.7403C47.8994 60.6094 27.6491 80.2934 19.1524 104.65C12.9215 122.493 13.0631 142.036 19.5772 159.595C26.0913 177.297 38.8363 191.883 55.4048 200.946C70.5571 209.301 89.6746 212.7 109.217 210.575C115.448 209.867 121.82 208.593 127.91 207.318C136.689 205.477 145.753 203.636 154.816 203.636Z" fill="#ECF7FE"/>
<path d="M74.9471 53.8121C83.2373 53.8121 89.9578 47.0916 89.9578 38.8014C89.9578 30.5112 83.2373 23.7906 74.9471 23.7906C66.6569 23.7906 59.9363 30.5112 59.9363 38.8014C59.9363 47.0916 66.6569 53.8121 74.9471 53.8121Z" fill="#E7E7E7"/>
<path d="M33.7382 223.887C37.7269 223.887 40.9604 220.653 40.9604 216.665C40.9604 212.676 37.7269 209.442 33.7382 209.442C29.7495 209.442 26.5161 212.676 26.5161 216.665C26.5161 220.653 29.7495 223.887 33.7382 223.887Z" fill="#E7E7E7"/>
<path d="M27.0825 96.2954C27.0825 94.5961 25.808 93.3216 24.1087 93.3216C22.4094 93.3216 21.1349 94.5961 21.1349 96.2954C21.1349 97.9947 22.4094 99.2692 24.1087 99.2692C25.808 99.2692 27.0825 97.8531 27.0825 96.2954Z" fill="#E7E7E7"/>
<path d="M343.804 172.509C348.883 165.371 347.214 155.468 340.077 150.39C332.94 145.311 323.037 146.98 317.958 154.117C312.879 161.254 314.548 171.157 321.685 176.236C328.822 181.314 338.725 179.646 343.804 172.509Z" fill="#5173B8"/>
<path d="M253.943 28.4638C257.306 28.4638 260.032 25.7375 260.032 22.3745C260.032 19.0115 257.306 16.2853 253.943 16.2853C250.58 16.2853 247.854 19.0115 247.854 22.3745C247.854 25.7375 250.58 28.4638 253.943 28.4638Z" fill="#5173B8"/>
<path d="M308.038 230.542C309.681 230.542 311.012 229.211 311.012 227.569C311.012 225.926 309.681 224.595 308.038 224.595C306.396 224.595 305.065 225.926 305.065 227.569C305.065 229.211 306.396 230.542 308.038 230.542Z" fill="#5173B8"/>
<path d="M40.1108 95.8705C38.6947 95.8705 37.5618 94.7377 37.5618 93.3215C37.5618 91.9054 38.6947 90.7726 40.1108 90.7726C41.5269 90.7726 42.6598 91.9054 42.6598 93.3215C42.6598 94.7377 41.5269 95.8705 40.1108 95.8705ZM40.1108 91.0558C38.9779 91.0558 37.9866 92.047 37.9866 93.1799C37.9866 94.3128 38.9779 95.3041 40.1108 95.3041C41.2436 95.3041 42.2349 94.3128 42.2349 93.1799C42.2349 92.047 41.2436 91.0558 40.1108 91.0558Z" fill="#6579BB"/>
<path d="M288.638 37.9517C287.222 37.9517 286.089 36.8188 286.089 35.4027C286.089 33.9866 287.222 32.8537 288.638 32.8537C290.054 32.8537 291.187 33.9866 291.187 35.4027C291.187 36.8188 290.054 37.9517 288.638 37.9517ZM288.638 33.1369C287.505 33.1369 286.514 34.1282 286.514 35.2611C286.514 36.394 287.505 37.3853 288.638 37.3853C289.771 37.3853 290.762 36.394 290.762 35.2611C290.762 34.1282 289.771 33.1369 288.638 33.1369Z" fill="#6579BB"/>
<path d="M328.572 214.399C327.156 214.399 326.023 213.266 326.023 211.85C326.023 210.434 327.156 209.301 328.572 209.301C329.988 209.301 331.121 210.434 331.121 211.85C331.121 213.266 329.988 214.399 328.572 214.399ZM328.572 209.584C327.439 209.584 326.448 210.575 326.448 211.708C326.448 212.841 327.439 213.832 328.572 213.832C329.705 213.832 330.696 212.841 330.696 211.708C330.696 210.575 329.705 209.584 328.572 209.584Z" fill="#6579BB"/>
<path d="M59.2283 185.51C57.8122 185.51 56.6793 184.377 56.6793 182.961C56.6793 181.545 57.8122 180.412 59.2283 180.412C60.6444 180.412 61.7773 181.545 61.7773 182.961C61.9189 184.236 60.6444 185.51 59.2283 185.51ZM59.2283 180.696C58.0954 180.696 57.1041 181.687 57.1041 182.82C57.1041 183.953 58.0954 184.944 59.2283 184.944C60.3612 184.944 61.3524 183.953 61.3524 182.82C61.4941 181.687 60.5028 180.696 59.2283 180.696Z" fill="#6579BB"/>
<path d="M6.549 170.216C5.13289 170.216 4 169.083 4 167.667C4 166.251 5.13289 165.118 6.549 165.118C7.9651 165.118 9.09799 166.251 9.09799 167.667C9.2396 169.083 8.10672 170.216 6.549 170.216ZM6.549 165.401C5.41611 165.401 4.42483 166.393 4.42483 167.526C4.42483 168.659 5.41611 169.65 6.549 169.65C7.68188 169.65 8.67316 168.659 8.67316 167.526C8.81477 166.393 7.82349 165.401 6.549 165.401Z" fill="#6579BB"/>
<path d="M330.838 89.6397C329.422 89.6397 328.289 88.5068 328.289 87.0907C328.289 85.6746 329.422 84.5417 330.838 84.5417C332.254 84.5417 333.387 85.6746 333.387 87.0907C333.529 88.3652 332.396 89.6397 330.838 89.6397ZM330.838 84.8249C329.705 84.8249 328.714 85.8162 328.714 86.9491C328.714 88.082 329.705 89.0733 330.838 89.0733C331.971 89.0733 332.962 88.082 332.962 86.9491C333.104 85.8162 332.112 84.8249 330.838 84.8249Z" fill="#6579BB"/>
<path d="M220.24 258.44H130.742C118.705 258.44 108.792 248.669 108.792 236.49V21.9497C108.792 9.91276 118.563 0 130.742 0H220.381C232.418 0 242.331 9.77115 242.331 21.9497V236.632C242.19 248.669 232.418 258.44 220.24 258.44Z" fill="#161616"/>
<path d="M236.525 14.7275V243.712C236.525 248.527 232.702 252.351 227.887 252.351H123.095C118.28 252.351 114.456 248.527 114.456 243.712V14.7275C114.456 9.91275 118.28 6.08925 123.095 6.08925H228.028C228.17 6.08925 228.312 6.08925 228.453 6.08925C232.843 6.37247 236.525 10.196 236.525 14.7275Z" fill="#ECF2FA"/>
<path d="M196.024 14.4443H154.816C148.868 14.4443 143.487 10.904 141.221 5.52281H209.619C207.353 10.904 201.972 14.4443 196.024 14.4443Z" fill="#161616"/>
<path d="M122.953 14.0195H122.245V10.7624L121.395 11.3289L121.112 10.7624L122.387 9.91275H122.953V14.0195Z" fill="#161616"/>
<path d="M126.494 11.1872C126.494 11.8953 126.069 12.3201 124.936 13.453H126.635L126.494 14.0195H124.086V13.453C125.502 12.0369 125.785 11.7537 125.785 11.1872C125.785 10.7624 125.502 10.6208 125.219 10.6208C124.936 10.6208 124.653 10.7624 124.511 11.0456L124.086 10.6208C124.369 10.196 124.794 9.91275 125.361 9.91275C126.069 10.0544 126.494 10.6208 126.494 11.1872Z" fill="#161616"/>
<path d="M128.334 11.6121C128.334 11.8953 128.193 12.0369 127.91 12.0369C127.626 12.0369 127.485 11.7537 127.485 11.6121C127.485 11.3289 127.626 11.1872 127.91 11.1872C128.051 11.1872 128.334 11.3289 128.334 11.6121ZM128.334 13.7362C128.334 14.0195 128.193 14.1611 127.91 14.1611C127.626 14.1611 127.485 13.8779 127.485 13.7362C127.485 13.453 127.626 13.3114 127.91 13.3114C128.051 13.1698 128.334 13.453 128.334 13.7362Z" fill="#161616"/>
<path d="M131.875 13.1698H131.45V14.0194H130.742V13.1698H129.042V12.6033L130.175 10.0543L130.883 10.3376L129.892 12.6033H130.742L130.883 11.6121H131.45V12.6033H131.875V13.1698Z" fill="#161616"/>
<path d="M134.99 10.6208H133.574V11.6121C133.716 11.4705 133.999 11.4704 134.14 11.4704C134.849 11.4704 135.273 11.8953 135.273 12.745C135.273 13.5946 134.707 14.1611 133.857 14.1611C133.291 14.1611 132.866 13.8778 132.583 13.5946L133.008 13.1698C133.291 13.453 133.432 13.5946 133.857 13.5946C134.282 13.5946 134.565 13.3114 134.565 12.745C134.565 12.1785 134.282 12.0369 133.999 12.0369C133.857 12.0369 133.716 12.0369 133.432 12.1785H132.866V10.0543H135.132L134.99 10.6208Z" fill="#161616"/>
<path d="M216.841 13.0293C216.841 13.7374 216.275 14.1622 215.425 14.1622C214.575 14.1622 214.009 13.5958 214.009 13.0293C214.009 12.6045 214.292 12.1797 214.717 12.0381C214.292 11.7549 214.151 11.4716 214.151 11.0468C214.151 10.3387 214.717 10.0555 215.425 10.0555C216.133 10.0555 216.7 10.3387 216.7 11.0468C216.7 11.4716 216.558 11.7548 215.991 11.8965C216.558 12.1797 216.841 12.6045 216.841 13.0293ZM215.991 13.0293C215.991 12.6045 215.85 12.4629 215.283 12.3213H215.142C214.859 12.4629 214.717 12.7461 214.717 13.1709C214.717 13.5958 215 13.7374 215.425 13.7374C215.85 13.5958 215.991 13.3126 215.991 13.0293ZM214.859 11.0468C214.859 11.33 215 11.4716 215.425 11.6132H215.567C215.85 11.4716 215.991 11.1884 215.991 10.9052C215.991 10.622 215.85 10.3387 215.425 10.3387C215 10.622 214.859 10.7636 214.859 11.0468Z" fill="#161616"/>
<path d="M220.098 12.0369C220.098 13.3114 219.673 14.1611 218.682 14.1611C217.691 14.1611 217.266 13.453 217.266 12.0369C217.266 10.7624 217.691 10.0543 218.682 10.0543C219.673 10.0543 220.098 10.7624 220.098 12.0369ZM218.116 12.0369C218.116 13.1698 218.257 13.5946 218.824 13.5946C219.249 13.5946 219.532 13.1698 219.532 12.0369C219.532 10.904 219.39 10.6208 218.824 10.6208C218.257 10.6208 218.116 11.0456 218.116 12.0369Z" fill="#161616"/>
<path d="M222.647 11.0456C222.647 11.6121 222.222 12.0369 221.656 12.0369C221.089 12.0369 220.665 11.6121 220.665 11.0456C220.665 10.4792 221.089 10.0543 221.656 10.0543C222.222 10.0543 222.647 10.4792 222.647 11.0456ZM221.231 11.0456C221.231 11.3288 221.373 11.6121 221.656 11.6121C221.939 11.6121 222.081 11.3288 222.081 11.0456C222.081 10.7624 221.939 10.4792 221.656 10.4792C221.231 10.4792 221.231 10.7624 221.231 11.0456ZM224.488 10.196L221.798 14.3027L221.373 14.0195L224.063 9.91275L224.488 10.196ZM225.196 13.1698C225.196 13.7362 224.771 14.1611 224.205 14.1611C223.638 14.1611 223.214 13.7362 223.214 13.1698C223.214 12.6033 223.638 12.1785 224.205 12.1785C224.63 12.1785 225.196 12.4617 225.196 13.1698ZM223.638 13.1698C223.638 13.453 223.78 13.7362 224.063 13.7362C224.346 13.7362 224.488 13.453 224.488 13.1698C224.488 12.8866 224.346 12.6033 224.063 12.6033C223.78 12.6033 223.638 12.8866 223.638 13.1698Z" fill="#161616"/>
<path d="M230.011 13.1698H226.754V14.3027H230.011V13.1698Z" fill="#161616"/>
<path d="M230.011 11.6121H226.754V12.745H230.011V11.6121Z" fill="#161616"/>
<path d="M230.011 10.196H226.754V11.3289H230.011V10.196Z" fill="#161616"/>
<path d="M229.303 8.77986H227.604V9.62951H229.303V8.77986Z" fill="#AEAEAE"/>
<path d="M229.587 45.0322V79.8685C229.587 85.2497 225.197 89.498 219.958 89.498H131.168C125.787 89.498 121.538 85.1081 121.538 79.8685V45.0322C121.538 39.651 125.928 35.4027 131.168 35.4027H219.958C225.197 35.4027 229.587 39.7926 229.587 45.0322Z" fill="#5F6DB3"/>
<path d="M229.586 45.0322V46.3067H121.395V45.0322C121.395 39.651 125.785 35.4027 131.025 35.4027H219.815C225.196 35.4027 229.586 39.7926 229.586 45.0322Z" fill="#F37366"/>
<path d="M130.6 40.0758C130.6 39.3678 130.034 38.8013 129.326 38.8013C128.618 38.8013 128.051 39.3678 128.051 40.0758C128.051 40.7839 128.618 41.3503 129.326 41.3503C130.034 41.3503 130.6 40.7839 130.6 40.0758Z" fill="#B47E7E"/>
<path d="M136.831 40.0758C136.831 39.3678 136.265 38.8013 135.557 38.8013C134.849 38.8013 134.282 39.3678 134.282 40.0758C134.282 40.7839 134.849 41.3503 135.557 41.3503C136.265 41.3503 136.831 40.7839 136.831 40.0758Z" fill="#E7E7E7"/>
<path d="M143.204 40.0758C143.204 39.3678 142.637 38.8013 141.929 38.8013C141.221 38.8013 140.655 39.3678 140.655 40.0758C140.655 40.7839 141.221 41.3503 141.929 41.3503C142.496 41.3503 143.204 40.7839 143.204 40.0758Z" fill="#AEFED7"/>
<path d="M149.718 54.0953L148.302 55.7947C147.593 55.2282 146.885 54.945 145.894 54.945C145.044 54.945 144.761 55.2282 144.761 55.7947C144.761 56.3611 145.186 56.5027 146.744 57.0692C149.01 57.7772 150.001 58.7685 150.001 60.751C150.001 62.8752 148.302 64.2913 145.328 64.2913C143.204 64.2913 141.787 63.4417 140.938 62.592L142.496 60.8927C143.345 61.6007 144.195 62.0255 145.186 62.0255C146.177 62.0255 146.602 61.6007 146.602 61.0343C146.602 60.3262 146.319 60.043 144.761 59.6182C142.071 58.7685 141.363 57.6356 141.363 56.0779C141.363 53.9537 143.204 52.6792 145.611 52.6792C147.452 52.6792 148.726 53.1041 149.718 54.0953Z" fill="white"/>
<path d="M161.613 60.1846C161.613 62.4504 160.197 64.1497 157.081 64.1497C153.966 64.1497 152.55 62.4504 152.55 60.1846V52.9624H155.807V60.043C155.807 61.3175 156.232 61.8839 157.081 61.8839C158.073 61.8839 158.356 61.3175 158.356 60.043V52.9624H161.613V60.1846Z" fill="white"/>
<path d="M173.508 63.8665H169.402L166.994 55.9363C167.136 56.9275 167.419 58.4853 167.419 60.4678V63.8665H164.587V52.9624H168.552L171.101 61.0342C170.959 59.7598 170.676 58.4853 170.676 56.5027V52.9624H173.508V63.8665Z" fill="white"/>
<path d="M186.112 58.3437C186.112 62.7336 183.563 63.8665 180.447 63.8665H176.765V52.9624H180.306C183.279 52.9624 186.112 53.8121 186.112 58.3437ZM180.022 55.2282V61.6007H180.73C182.146 61.6007 182.855 60.8926 182.855 58.3437C182.855 55.7947 182.146 55.2282 180.73 55.2282H180.022Z" fill="white"/>
<path d="M194.042 61.7423H191.493L191.068 63.8665H187.669L190.926 52.9624H194.75L197.865 63.8665H194.467L194.042 61.7423ZM193.617 59.4765L192.767 55.2282L191.918 59.4765H193.617Z" fill="white"/>
<path d="M204.946 59.9014V64.0081H201.689V60.043L198.149 53.104H201.689L203.247 57.6356L204.946 53.104H208.345L204.946 59.9014Z" fill="white"/>
<path d="M150.85 77.0363H149.434V68.5396L147.169 69.9557L146.602 68.9645L149.718 67.1235H150.85V77.0363Z" fill="white"/>
<path d="M159.772 74.4873H158.498V76.8946H157.223V74.4873H152.975V73.496L155.949 66.8403L157.081 67.2651L154.391 73.3544H157.223L157.365 70.6638H158.498V73.3544H159.772V74.4873Z" fill="white"/>
<path d="M163.029 70.6638C163.029 71.2302 162.604 71.6551 162.038 71.6551C161.471 71.6551 161.047 71.2302 161.047 70.6638C161.047 70.0973 161.471 69.6725 162.038 69.6725C162.604 69.6725 163.029 70.0973 163.029 70.6638ZM163.029 76.1866C163.029 76.753 162.604 77.1779 162.038 77.1779C161.471 77.1779 161.047 76.753 161.047 76.1866C161.047 75.6202 161.471 75.1953 162.038 75.1953C162.604 75.0537 163.029 75.6202 163.029 76.1866Z" fill="white"/>
<path d="M170.251 69.5309C170.251 70.8054 169.402 71.5134 168.269 71.7966C169.543 71.9383 170.534 72.6463 170.534 74.2041C170.534 75.9034 169.26 77.1779 167.136 77.1779C166.003 77.1779 164.87 76.7531 164.162 75.9034L165.012 75.1953C165.72 75.9034 166.286 76.1866 167.136 76.1866C168.41 76.1866 169.118 75.4785 169.118 74.2041C169.118 72.7879 168.41 72.3631 167.136 72.3631H166.428L166.569 71.3718H167.136C168.127 71.3718 168.977 70.8054 168.977 69.6725C168.977 68.6812 168.269 68.1148 167.277 68.1148C166.428 68.1148 165.861 68.398 165.295 68.9645L164.587 68.1148C165.436 67.2651 166.286 66.9819 167.419 66.9819C169.118 66.9819 170.251 68.1148 170.251 69.5309Z" fill="white"/>
<path d="M178.748 72.0799C178.748 75.3369 177.615 77.1779 175.491 77.1779C173.367 77.1779 172.234 75.3369 172.234 72.0799C172.234 68.8228 173.367 66.9819 175.491 66.9819C177.615 66.9819 178.748 68.8228 178.748 72.0799ZM173.508 72.0799C173.508 75.0537 174.216 76.045 175.349 76.045C176.624 76.045 177.19 74.9121 177.19 72.0799C177.19 69.2477 176.482 68.1148 175.349 68.1148C174.216 67.9732 173.508 69.1061 173.508 72.0799Z" fill="white"/>
<path d="M191.634 69.9557C191.634 72.2215 189.935 73.2128 187.669 73.2128H186.395V76.8946H184.979V66.6987H187.669C190.077 66.8403 191.634 67.8316 191.634 69.9557ZM190.077 69.9557C190.077 68.398 189.085 67.8316 187.528 67.8316H186.253V72.0799H187.528C189.085 72.0799 190.077 71.6551 190.077 69.9557Z" fill="white"/>
<path d="M202.255 77.0363H200.839L200.414 72.5047C200.273 70.947 200.131 69.2477 200.131 68.398L197.865 76.045H196.591L194.325 68.398C194.325 69.5309 194.183 71.2302 194.183 72.6463L193.9 77.1779H192.626L193.475 66.9819H195.316L197.441 74.3457L199.423 66.9819H201.264L202.255 77.0363Z" fill="white"/>
<path d="M183.138 7.22213H167.844C167.136 7.22213 166.428 6.65568 166.428 5.80602C166.428 5.09796 166.994 4.38991 167.844 4.38991H183.138C183.846 4.38991 184.554 4.95635 184.554 5.80602C184.554 6.65568 183.987 7.22213 183.138 7.22213Z" fill="white"/>
<path d="M225.055 22.3745H215.85C215.425 22.3745 215 21.9497 215 21.5248C215 21.1 215.425 20.6752 215.85 20.6752H225.055C225.479 20.6752 225.904 21.1 225.904 21.5248C225.904 21.9497 225.479 22.3745 225.055 22.3745Z" fill="#AEAEAE"/>
<path d="M225.055 26.0564H215.85C215.425 26.0564 215 25.6316 215 25.2067C215 24.7819 215.425 24.3571 215.85 24.3571H225.055C225.479 24.3571 225.904 24.7819 225.904 25.2067C225.904 25.6316 225.479 26.0564 225.055 26.0564Z" fill="#AEAEAE"/>
<path d="M225.055 29.7383H215.85C215.425 29.7383 215 29.3134 215 28.8886C215 28.4638 215.425 28.0389 215.85 28.0389H225.055C225.479 28.0389 225.904 28.4638 225.904 28.8886C225.904 29.3134 225.479 29.7383 225.055 29.7383Z" fill="#AEAEAE"/>
<path d="M191.068 29.7383H129.609C127.06 29.7383 125.077 27.7557 125.077 25.2067C125.077 22.6577 127.06 20.6752 129.609 20.6752H191.068C193.617 20.6752 195.599 22.6577 195.599 25.2067C195.458 27.7557 193.475 29.7383 191.068 29.7383Z" fill="#F37366"/>
<path d="M212.026 238.048H138.955C129.326 238.048 121.395 230.259 121.395 220.488V114.705C121.395 105.075 129.184 97.1451 138.955 97.1451H212.026C221.656 97.1451 229.586 104.934 229.586 114.705V220.488C229.586 230.118 221.656 238.048 212.026 238.048Z" fill="#5F6DB3"/>
<path d="M195.945 151.945C200.544 140.644 195.11 127.754 183.808 123.156C172.507 118.557 159.617 123.991 155.019 135.293C150.42 146.594 155.854 159.484 167.156 164.082C178.457 168.68 191.347 163.247 195.945 151.945Z" fill="#E2EAF7"/>
<path d="M175.491 163.136C164.728 163.136 155.949 154.356 155.949 143.593C155.949 132.831 164.728 124.051 175.491 124.051C186.253 124.051 195.033 132.831 195.033 143.593C195.033 154.356 186.253 163.136 175.491 163.136ZM175.491 124.759C165.153 124.759 156.657 133.256 156.657 143.593C156.657 153.931 165.153 162.428 175.491 162.428C185.828 162.428 194.325 153.931 194.325 143.593C194.325 133.256 185.828 124.759 175.491 124.759Z" fill="#5F6DB3"/>
<path d="M175.491 224.595C187.691 224.595 197.582 214.704 197.582 202.504C197.582 190.303 187.691 180.412 175.491 180.412C163.29 180.412 153.4 190.303 153.4 202.504C153.4 214.704 163.29 224.595 175.491 224.595Z" fill="#E2EAF7"/>
<path d="M212.31 107.624H138.672C137.964 107.624 137.397 107.058 137.397 106.35C137.397 105.642 137.964 105.075 138.672 105.075H212.31C213.018 105.075 213.584 105.642 213.584 106.35C213.584 107.058 213.018 107.624 212.31 107.624Z" fill="white"/>
<path d="M212.31 113.855H138.672C137.964 113.855 137.397 113.289 137.397 112.581C137.397 111.873 137.964 111.306 138.672 111.306H212.31C213.018 111.306 213.584 111.873 213.584 112.581C213.584 113.289 213.018 113.855 212.31 113.855Z" fill="white"/>
<path d="M175.774 131.132C171.809 130.99 168.269 133.822 167.561 137.787C167.277 139.062 167.419 140.195 167.702 141.328C168.835 144.868 171.242 149.258 175.491 156.055C179.456 149.116 182.571 144.868 183.279 141.328C183.421 140.62 183.563 139.912 183.563 139.203C183.563 134.814 180.164 131.273 175.774 131.132ZM175.491 143.169C173.367 143.169 171.526 141.469 171.526 139.203C171.526 137.079 173.225 135.238 175.491 135.238C177.615 135.238 179.456 136.938 179.456 139.203C179.456 141.328 177.615 143.169 175.491 143.169Z" fill="#F37366"/>
<path d="M175.491 222.046C164.728 222.046 155.949 213.266 155.949 202.504C155.949 191.741 164.728 182.961 175.491 182.961C186.253 182.961 195.033 191.741 195.033 202.504C195.033 213.266 186.253 222.046 175.491 222.046ZM175.491 183.669C165.153 183.669 156.657 192.166 156.657 202.504C156.657 212.841 165.153 221.338 175.491 221.338C185.828 221.338 194.325 212.841 194.325 202.504C194.325 192.166 185.828 183.669 175.491 183.669Z" fill="#5F6DB3"/>
<path d="M175.491 213.549C181.591 213.549 186.536 208.604 186.536 202.504C186.536 196.403 181.591 191.458 175.491 191.458C169.39 191.458 164.445 196.403 164.445 202.504C164.445 208.604 169.39 213.549 175.491 213.549Z" fill="#F37366"/>
<path d="M175.491 202.928C175.208 202.928 175.066 202.787 175.066 202.504V194.432C175.066 194.148 175.208 194.007 175.491 194.007C175.774 194.007 175.916 194.148 175.916 194.432V202.504C175.916 202.787 175.774 202.928 175.491 202.928Z" fill="#E2EAF7"/>
<path d="M175.491 202.928C175.349 202.928 175.208 202.787 175.066 202.645C174.924 202.362 175.066 202.22 175.349 202.079L180.022 200.521C180.306 200.379 180.447 200.521 180.589 200.804C180.73 201.087 180.589 201.229 180.306 201.371L175.632 202.928H175.491Z" fill="#E2EAF7"/>
<path opacity="0.3" d="M236.525 14.7275V39.7926L114.456 162.003V120.086L228.312 6.23087C232.843 6.37248 236.525 10.196 236.525 14.7275Z" fill="white"/>
<path opacity="0.3" d="M236.525 56.7859V116.829L114.457 238.898V178.855L236.525 56.7859Z" fill="white"/>
<path opacity="0.3" d="M236.525 140.478V162.994L147.169 252.351H124.652L236.525 140.478Z" fill="white"/>
<path d="M257.483 310.836C294.477 310.836 324.465 306.461 324.465 301.065C324.465 295.668 294.477 291.294 257.483 291.294C220.49 291.294 190.501 295.668 190.501 301.065C190.501 306.461 220.49 310.836 257.483 310.836Z" fill="#AFBADF"/>
<path d="M251.677 66.9819C251.677 66.4155 251.819 65.8491 252.527 65.5658C252.527 65.5658 253.802 64.9994 254.51 66.9819C254.51 66.9819 256.351 68.2564 257.483 72.6464C257.767 73.6376 258.333 74.3457 259.183 74.7705C261.165 75.7618 265.555 77.1779 270.795 73.7793C270.795 73.7793 270.795 73.7793 270.937 73.7793C271.078 78.1692 272.777 82.1343 274.052 84.4001C274.477 85.1082 274.902 85.6746 275.468 86.241C266.83 91.1974 260.741 89.4981 258.333 88.5068C257.908 88.3652 257.625 88.082 257.342 87.6571C257.2 87.3739 257.059 87.0907 256.917 86.8075C256.492 85.2497 255.926 83.4088 255.218 81.9927C254.51 80.1518 253.802 78.594 253.802 78.594C253.802 78.594 252.244 80.7182 250.828 81.143C250.545 80.8598 250.261 80.435 250.261 80.0102L247.429 70.3806C247.146 69.5309 247.004 68.6813 247.004 67.8316C247.004 67.69 247.004 67.4068 246.863 67.2652L246.579 65.8491C246.296 64.8578 246.155 63.8665 246.155 62.7336V61.884V61.7423C246.296 61.7423 246.438 61.884 246.579 61.884C246.579 61.884 247.429 62.7336 247.712 64.0081L248.42 67.1236C248.562 67.69 249.128 68.2564 249.836 68.2564C250.403 68.2564 250.828 67.9732 251.111 67.5484L251.677 66.9819Z" fill="#F6A793"/>
<path d="M290.904 295.967C290.904 295.683 290.762 295.259 290.62 294.975C290.479 294.409 290.054 293.843 289.629 293.418C289.204 292.993 288.78 292.71 288.213 292.568C288.071 293.701 287.93 294.834 287.788 296.108C287.788 296.108 287.788 296.108 287.647 296.108C287.363 296.25 286.797 296.533 285.947 296.958C283.398 297.949 278.725 299.224 274.477 296.675C274.477 296.958 273.91 302.056 274.902 307.154C275.043 307.579 275.185 308.004 275.468 308.287C275.751 308.57 276.035 308.712 276.459 308.853C277.876 309.278 280.283 309.561 282.549 308.57C282.974 308.428 283.257 308.004 283.54 307.579C283.823 306.871 284.531 305.596 285.806 304.888C285.806 304.888 290.337 302.339 290.762 297.808C290.904 296.958 290.904 296.533 290.904 295.967Z" fill="#AEAEAE"/>
<path d="M241.765 158.321L240.632 165.401C240.632 165.401 241.906 165.543 244.03 165.685C243.889 162.994 244.88 159.595 244.88 159.595C244.172 159.595 243.747 159.595 243.322 159.454C242.614 159.454 242.048 159.029 241.765 158.321ZM258.192 160.02L253.943 159.879L249.837 159.737L246.863 159.595C246.863 159.595 245.73 163.702 246.438 165.826C248.704 165.968 251.394 166.11 254.51 166.251C255.643 166.251 256.775 166.393 258.05 166.393C259.749 166.393 261.59 166.534 263.431 166.534C264.139 166.534 264.847 166.534 265.555 166.534C265.555 166.11 265.697 165.543 265.697 165.118C265.839 162.853 265.555 160.587 265.555 160.587C261.165 160.304 258.192 160.02 258.192 160.02ZM277.309 160.445C275.893 160.587 274.477 160.587 273.061 160.587C271.928 160.587 270.937 160.587 269.945 160.587C269.237 160.587 268.529 160.587 267.821 160.587C267.821 160.587 267.963 161.72 267.963 162.994C267.963 164.127 267.963 165.543 267.821 166.534C273.202 166.534 279.008 166.251 284.531 165.543C284.531 163.136 284.248 159.879 284.248 159.879C280.991 160.304 277.309 160.445 277.309 160.445ZM287.222 159.737C286.939 159.737 286.514 159.879 286.089 159.879C286.089 159.879 286.514 163.419 286.231 165.401C287.363 165.26 288.496 165.118 289.629 164.977V159.312C288.78 159.595 287.93 159.737 287.222 159.737Z" fill="#5F5F5F"/>
<path d="M253.943 78.7357C253.943 78.7357 254.651 80.1518 255.359 82.1343H255.218C253.943 82.4175 252.952 82.2759 252.244 81.9927C251.819 81.8511 251.394 81.5679 250.969 81.2846C252.385 80.8598 253.943 78.7357 253.943 78.7357Z" fill="#E27E68"/>
<path d="M296.993 142.602C297.135 144.16 297.276 145.434 297.276 146.567C296.851 146.284 296.426 146.001 295.86 145.718C294.586 144.868 293.453 143.593 292.178 142.177C292.178 140.903 292.32 139.77 292.461 138.637C292.603 138.637 294.019 140.761 296.993 142.602Z" fill="white"/>
<path d="M310.021 145.009C310.021 145.434 310.021 145.859 310.021 146.284C310.021 146.992 309.596 147.7 308.888 147.983C308.463 148.125 307.755 148.408 307.047 148.55C304.782 148.975 301.241 148.975 297.418 146.709C297.418 145.576 297.276 144.301 297.135 142.744C299.967 144.443 304.215 145.859 310.021 145.009Z" fill="white"/>
<path d="M207.636 98.4195C209.336 85.8162 217.549 90.9141 217.549 90.9141C208.911 94.0296 210.327 104.509 210.327 104.509C209.336 103.376 208.769 102.385 208.345 101.677C207.92 100.827 207.636 99.9773 207.778 98.986C207.495 98.7028 207.636 98.5612 207.636 98.4195Z" fill="white"/>
<path d="M277.167 87.3739L277.875 87.7987C276.318 91.4806 270.087 92.7551 267.963 93.1799C267.538 93.1799 267.113 93.3216 266.688 93.3216C255.076 93.888 254.085 87.9403 253.943 87.7987C256.067 87.7987 257.484 87.9404 257.484 87.9404C257.767 88.3652 258.05 88.6484 258.475 88.79C260.882 89.9229 266.971 91.6222 275.61 86.5242C276.035 86.8075 276.601 87.0907 277.167 87.3739Z" fill="white"/>
<path d="M250.12 303.472C250.545 305.596 248.42 306.446 247.146 306.871C246.721 307.012 246.296 307.012 245.73 307.154C241.765 307.437 239.499 305.596 238.649 304.888C238.366 304.605 237.941 304.322 237.658 304.18L231.002 300.64C227.462 298.233 227.887 295.4 227.887 295.4C228.312 299.79 234.401 301.348 234.401 301.348C237.092 301.773 240.065 304.18 240.065 304.18C243.606 306.588 246.579 306.021 248.279 305.455C249.27 305.03 249.837 304.322 250.12 303.472Z" fill="#7C7E9C"/>
<path d="M290.904 297.524C291.045 302.056 287.647 304.747 287.647 304.747C286.372 305.455 285.522 306.588 284.956 307.579C284.106 308.995 282.832 309.986 281.274 310.269C279.15 310.694 277.026 310.128 277.026 310.128C274.76 309.42 275.468 308.145 275.468 308.145C275.751 308.429 276.035 308.57 276.459 308.712C277.875 309.137 280.283 309.42 282.549 308.428C282.973 308.287 283.257 307.862 283.54 307.437C283.823 306.729 284.531 305.455 285.806 304.747C285.947 304.605 290.479 302.056 290.904 297.524Z" fill="#7C7E9C"/>
<path d="M272.069 196.273L266.688 215.107L264.139 198.963C264.706 197.83 265.272 196.556 265.555 195.423C265.697 195.281 268.671 195.989 272.069 196.273Z" fill="#5F5F5F"/>
<path d="M250.12 298.374C245.588 299.79 241.482 298.941 239.782 298.374C239.216 298.232 238.933 298.091 238.933 298.091L238.366 290.585C236.525 289.169 234.826 288.745 233.693 288.603C232.702 288.461 231.71 288.745 230.861 289.311C229.586 290.161 228.878 291.152 228.453 292.143C227.604 293.843 227.887 295.4 227.887 295.4C228.312 299.79 234.401 301.348 234.401 301.348C237.092 301.773 240.065 304.18 240.065 304.18C243.606 306.588 246.58 306.021 248.279 305.455C249.128 305.171 249.695 304.463 249.978 303.614C250.828 300.781 250.12 298.374 250.12 298.374Z" fill="#AEAEAE"/>
<path d="M297.276 146.567C301.1 148.975 304.64 148.975 306.906 148.408C306.906 148.408 302.233 162.569 290.762 170.783C290.196 167.242 289.629 164.835 289.629 164.835V159.171C290.762 158.887 291.612 157.896 291.895 156.905C292.178 155.772 292.32 154.356 292.461 153.223C294.444 149.966 295.86 145.718 295.86 145.718C296.427 146.001 296.851 146.284 297.276 146.567Z" fill="#F6A793"/>
<path d="M268.104 48.5725C275.043 48.5725 273.627 55.5115 273.627 55.5115C273.202 57.494 273.486 58.4853 273.486 58.4853C273.769 60.6094 273.486 64.0081 273.486 64.0081L272.919 67.2652L271.928 72.3632C271.786 72.9296 271.503 73.3545 271.078 73.7793C271.078 73.7793 271.078 73.7793 270.937 73.7793C265.555 77.1779 261.307 75.7618 259.324 74.7705C258.475 74.3457 257.908 73.496 257.625 72.6464C256.351 68.2564 254.651 66.9819 254.651 66.9819C253.802 64.9994 252.669 65.5658 252.669 65.5658C251.961 65.849 251.819 66.4155 251.819 66.9819L251.536 67.5484C251.253 67.9732 250.828 68.2564 250.261 68.2564C249.553 68.2564 248.987 67.8316 248.845 67.1236L248.137 64.0081C247.854 62.7336 247.004 61.884 247.004 61.884C246.863 61.884 246.721 61.8839 246.58 61.7423C245.73 61.4591 245.305 60.7511 245.305 60.1846C245.163 59.4766 245.305 58.7685 245.588 58.2021L246.013 57.494C246.296 56.9276 246.58 56.3611 246.721 55.6531C248.279 49.5638 254.651 47.8645 254.651 47.8645C261.449 44.6074 265.839 47.1564 267.113 48.1477C267.396 48.4309 267.821 48.5725 268.104 48.5725Z" fill="#545454"/>
<path d="M289.204 225.161C288.355 211.283 290.054 201.087 290.054 201.087C293.311 193.582 292.461 181.545 291.187 173.473C291.045 172.624 290.904 171.774 290.762 170.924C290.196 167.384 289.629 164.977 289.629 164.977C288.496 165.118 287.363 165.26 286.231 165.401C286.514 163.277 286.089 159.879 286.089 159.879C285.522 159.879 284.956 160.02 284.248 160.02C284.248 160.02 284.531 163.136 284.531 165.685C279.008 166.251 273.202 166.534 267.821 166.676C267.963 165.685 267.963 164.41 267.963 163.136C267.963 161.72 267.821 160.728 267.821 160.728C267.538 160.728 267.255 160.728 266.971 160.728C266.547 160.728 265.98 160.728 265.555 160.728C265.555 160.728 265.839 162.994 265.697 165.26C265.697 165.685 265.697 166.251 265.555 166.676C264.847 166.676 264.139 166.676 263.431 166.676C261.59 166.676 259.749 166.676 258.05 166.534C256.775 166.534 255.643 166.534 254.51 166.393C251.394 166.251 248.562 166.11 246.438 165.968C245.588 163.844 246.863 159.737 246.863 159.737C246.155 159.737 245.447 159.737 244.88 159.737C244.88 159.737 243.889 163.136 244.03 165.826C242.473 165.685 241.34 165.543 240.915 165.543C240.773 165.543 240.632 165.543 240.632 165.543L237.941 182.395C237.941 182.395 236.1 185.935 236.1 200.521V251.076C236.1 253.908 236.242 256.741 236.383 259.573L238.366 290.727L238.932 298.233C238.932 298.233 239.216 298.374 239.782 298.516C241.481 299.082 245.588 299.932 250.12 298.516C250.403 298.374 250.686 298.374 250.969 298.233L255.076 255.608L256.775 238.614C256.917 236.632 257.2 234.791 257.625 232.808L258.616 227.71L264.139 199.105C264.706 197.972 265.272 196.698 265.555 195.565C265.555 195.565 268.388 196.131 271.928 196.556L266.547 215.39C266.688 216.24 266.83 217.089 266.83 217.798L273.486 296.25C273.769 296.392 274.052 296.675 274.335 296.816C278.584 299.365 283.257 298.091 285.806 297.1C286.655 296.675 287.363 296.392 287.505 296.25H287.647C287.788 295.117 287.93 293.984 288.071 292.71C292.886 255.324 290.904 237.623 289.912 232.1C289.629 229.693 289.346 227.427 289.204 225.161Z" fill="#7E92CA"/>
<path d="M310.021 145.01C304.215 145.859 299.825 144.301 296.993 142.602C296.568 138.495 295.435 133.256 295.01 130.565V130.424V130.282C294.869 129.432 294.727 128.866 294.727 128.866C294.586 129.291 294.444 129.857 294.302 130.424V130.565V130.707C293.878 132.123 293.594 133.822 293.169 135.663C293.169 135.805 293.169 135.946 293.169 136.088C293.028 136.655 293.028 137.221 292.886 137.787C292.886 138.071 292.886 138.212 292.745 138.495C292.603 139.628 292.461 140.761 292.461 142.036C292.32 144.16 292.461 146.284 292.745 148.267C292.886 149.116 292.886 149.824 292.886 150.674C292.886 151.382 292.745 152.09 292.745 153.081C292.603 154.356 292.461 155.63 292.178 156.763C291.895 157.896 291.045 158.746 289.912 159.029C289.063 159.312 288.213 159.454 287.505 159.454C287.222 159.454 286.797 159.595 286.372 159.595C285.806 159.595 285.239 159.737 284.531 159.737C281.274 160.02 277.592 160.162 277.592 160.162C276.318 160.304 275.185 160.303 273.91 160.303C273.769 160.303 273.486 160.303 273.344 160.303C273.202 160.303 273.202 160.303 273.061 160.303C272.211 160.303 271.22 160.303 270.37 160.303H269.945C269.237 160.303 268.671 160.303 267.963 160.303C267.679 160.303 267.396 160.303 267.113 160.303C266.688 160.303 266.122 160.303 265.697 160.303C261.307 160.162 258.333 159.879 258.333 159.879L254.226 159.737H254.085H253.943L250.261 159.595H249.978H249.695L246.863 159.454C246.155 159.454 245.447 159.454 244.88 159.454C244.172 159.454 243.747 159.454 243.322 159.312C242.614 159.171 242.048 158.746 241.765 158.179C241.057 156.622 241.198 154.497 241.34 153.223C241.34 152.515 241.481 151.807 241.481 150.957C241.481 144.443 241.057 138.354 240.632 133.256C240.065 126.034 239.216 121.077 239.216 121.077C237.092 117.537 235.534 113.997 234.401 111.023C233.976 109.89 233.551 108.757 233.268 107.907V107.766V107.624C232.985 106.491 232.702 105.642 232.418 104.792C232.418 104.792 231.569 105.5 230.011 106.35C230.011 106.35 229.869 106.35 229.869 106.491C229.869 106.491 229.728 106.491 229.728 106.633C227.179 108.049 222.93 109.89 217.691 109.89C214.292 108.332 212.026 106.35 210.469 104.509C210.469 104.509 209.194 94.0296 217.691 90.9142C218.682 91.4806 219.815 91.7638 220.948 91.9054H221.09H221.231C227.462 92.8967 235.251 90.3477 237.941 89.3565C238.649 89.0732 239.357 88.9316 240.065 88.79C241.198 88.6484 242.19 88.3652 243.322 88.2236C243.464 88.2236 243.464 88.2236 243.606 88.2236C243.747 88.2236 243.747 88.2236 243.889 88.2236C247.996 87.6571 251.677 87.6571 254.226 87.6571C254.226 87.7987 255.359 93.888 266.971 93.1799C267.396 93.1799 267.821 93.1799 268.246 93.0383C270.37 92.6135 276.601 91.339 278.159 87.6571L291.753 94.1712L291.895 94.3128L292.037 94.4544L293.877 95.3041C293.877 95.3041 300.958 98.1363 304.498 107.907C304.498 107.907 304.498 108.049 304.64 108.191C304.64 108.332 304.64 108.332 304.782 108.474C305.206 109.748 305.49 111.023 305.773 112.439C305.773 112.439 306.764 116.829 307.755 122.777C307.755 122.918 307.755 122.918 307.755 123.06C307.755 123.201 307.755 123.201 307.755 123.343C308.747 129.857 310.163 138.779 310.021 145.01Z" fill="#E7E7E7"/>
<path d="M209.194 71.5135L207.07 66.4155C207.07 66.2739 206.928 66.1323 206.928 65.9907C206.928 65.5658 207.212 65.141 207.636 64.9994C208.203 64.7162 208.769 64.9994 209.053 65.4242L212.026 70.5222L214.859 75.0538L215.708 73.496C215.85 73.0712 216.275 72.9296 216.7 72.9296C216.841 72.9296 216.983 72.9296 217.124 73.0712C217.691 73.3544 217.974 73.9209 217.832 74.4873C217.691 75.0538 217.549 75.6202 217.549 76.3283V76.4699C217.549 76.6115 217.549 76.7531 217.408 76.8947L216.7 79.0188C216.416 79.7269 215.992 80.2934 215.425 80.8598L214.292 81.8511C214.292 82.7007 214.292 83.8336 214.575 84.8249C214.575 85.1081 214.717 85.2497 214.859 85.533L217.549 91.0558C217.549 91.0558 209.336 85.9578 207.636 98.5612C205.796 94.5961 206.645 86.241 207.07 82.984H206.928C205.229 81.8511 204.379 79.5853 203.955 78.4524C203.813 78.0276 203.955 77.6028 204.238 77.3195L204.521 77.0363C204.804 76.8947 204.946 76.6115 204.946 76.3283L205.087 75.6202C205.229 75.1954 205.512 74.7705 206.079 74.6289C206.22 74.6289 206.504 74.4873 206.504 74.2041L206.787 73.2128C206.928 72.788 207.353 72.3632 207.778 72.2215L209.194 71.5135Z" fill="#F6A793"/>
<path d="M251.819 67.9732C251.677 67.5484 251.536 67.1236 251.677 66.5571C251.677 66.2739 251.819 66.1323 251.961 65.8491C252.102 65.7074 252.385 65.4242 252.527 65.4242C253.094 65.141 253.802 65.4242 254.226 65.7074C254.651 66.1323 254.934 66.5571 255.076 67.1235C255.501 68.1148 255.643 69.2477 255.643 70.239C255.643 71.3719 255.359 72.3631 254.934 73.3544C254.793 73.6376 254.651 73.7792 254.51 74.0625C254.368 74.3457 254.085 74.4873 253.802 74.6289C253.518 74.7705 253.235 74.6289 252.952 74.4873C252.669 74.3457 252.527 74.0625 252.385 73.9208C252.81 74.2041 253.235 74.6289 253.66 74.3457C254.085 74.2041 254.226 73.6376 254.368 73.2128C254.651 72.2215 254.793 71.2303 254.793 70.239C254.793 69.2477 254.651 68.2564 254.368 67.4068C254.226 66.9819 254.085 66.5571 253.66 66.1323C253.377 65.849 252.952 65.7074 252.527 65.7074C252.102 65.849 251.819 66.1323 251.677 66.5571C251.677 66.9819 251.677 67.4068 251.819 67.9732Z" fill="#E27E68"/>
<path d="M267.679 170.216C268.246 173.332 268.388 176.447 268.388 179.563C268.388 182.678 268.104 185.793 267.679 188.909L267.255 191.175C267.113 191.883 266.83 192.732 266.688 193.44C266.405 194.149 266.263 194.998 265.98 195.706C265.697 196.414 265.414 197.122 265.13 197.83C264.422 199.246 263.714 200.663 262.723 201.937C261.732 203.212 260.741 204.344 259.466 205.336C261.732 203.212 263.29 200.521 264.564 197.689C265.697 194.857 266.547 191.883 266.971 188.767C267.538 185.793 267.68 182.678 267.821 179.563C267.821 178.005 267.821 176.447 267.821 174.889C267.963 173.332 267.821 171.774 267.679 170.216Z" fill="#C1D3FF"/>
<path d="M266.122 194.998C268.529 195.565 270.936 195.989 273.344 196.131C274.618 196.273 275.751 196.273 277.026 196.273C278.3 196.273 279.433 196.131 280.708 195.989C279.575 196.273 278.3 196.414 277.026 196.556C275.751 196.556 274.618 196.556 273.344 196.556C270.936 196.414 268.388 196.131 265.98 195.706C265.839 195.706 265.697 195.423 265.697 195.281C265.697 194.998 265.839 194.857 266.122 194.998C265.98 194.998 265.98 194.998 266.122 194.998Z" fill="#C1D3FF"/>
<path d="M214.292 79.5853C214.434 80.0101 214.434 80.5766 214.434 81.0014C214.434 81.4262 214.434 81.9927 214.434 82.4175C214.434 82.8423 214.434 83.4088 214.434 83.8336V84.5417C214.434 84.8249 214.575 84.9665 214.575 85.2497C214.434 85.1081 214.292 84.8249 214.151 84.5417C214.009 84.2584 214.009 84.1168 214.009 83.8336C213.867 83.4088 213.867 82.8423 213.867 82.4175C213.867 81.9927 213.867 81.4262 214.009 81.0014C214.151 80.5766 214.292 80.1517 214.292 79.5853Z" fill="#E27E68"/>
<path d="M216.7 72.788C216.416 72.9296 216.275 72.9296 216.133 73.2128C215.992 73.3544 215.992 73.4961 215.85 73.7793C215.567 74.2041 215.425 74.6289 215.142 75.0538V74.9121C214.859 75.1954 214.717 75.4786 214.434 75.7618C214.575 75.337 214.575 75.0537 214.859 74.7705V74.9121C215 74.4873 215.283 74.0625 215.567 73.6377C215.708 73.496 215.85 73.2128 216.133 73.0712C216.133 72.788 216.416 72.788 216.7 72.788Z" fill="#E27E68"/>
<path d="M206.928 65.9906C206.928 66.2739 207.212 66.5571 207.353 66.8403C207.495 67.1235 207.636 67.4068 207.778 67.5484C208.061 68.1148 208.345 68.5396 208.486 69.1061C208.911 70.239 209.336 71.2302 209.619 72.5047C208.911 71.5135 208.486 70.5222 208.061 69.3893C207.778 68.8229 207.636 68.2564 207.495 67.69C207.353 67.4068 207.353 67.1235 207.212 66.8403C207.07 66.5571 206.928 66.2739 206.928 65.9906Z" fill="#E27E68"/>
<path d="M207.212 81.4263C207.212 82.8424 207.07 84.2585 206.928 85.6746C206.787 87.0907 206.645 88.5068 206.362 89.7813C206.22 88.3652 206.22 86.9491 206.362 85.533C206.645 84.1169 206.787 82.8424 207.212 81.4263Z" fill="#E27E68"/>
<path d="M307.614 122.635C307.614 122.493 307.614 122.493 307.614 122.352C307.614 122.352 307.614 122.493 307.472 122.493C307.047 123.201 306.339 124.051 305.773 124.759C303.224 127.733 299.825 129.432 295.01 130.14C294.727 130.14 294.444 130.282 294.302 130.282C292.461 130.565 290.62 130.707 288.78 130.707C287.93 130.707 287.08 130.848 286.372 130.848C281.416 131.273 277.592 132.123 274.335 133.397C274.194 132.831 273.91 132.123 273.627 131.556C271.928 126.6 270.087 121.644 271.361 116.404C273.486 115.696 275.61 114.563 278.159 113.005C282.69 110.173 286.939 107.483 292.32 106.775C293.736 106.633 295.435 106.491 297.135 106.633C298.126 106.633 299.117 106.775 300.25 106.775C301.808 106.916 303.224 107.199 304.357 107.766H304.498C304.498 107.624 304.498 107.624 304.357 107.483C304.357 107.341 304.357 107.341 304.215 107.199C302.941 106.633 301.666 106.35 300.108 106.208C298.975 106.067 297.984 106.067 296.993 106.067C295.294 106.067 293.594 106.067 292.178 106.208C286.655 106.916 282.407 109.607 277.875 112.439C275.468 113.997 273.344 114.988 271.361 115.696C271.503 115.13 271.645 114.563 271.928 113.855C274.052 108.616 278.584 105.358 282.973 102.101C285.098 100.544 287.222 98.986 289.063 97.1451C290.196 96.0122 291.187 94.8793 291.753 93.6048L291.612 93.4632L291.47 93.3216C290.904 94.5961 290.054 95.7289 288.921 96.7202C287.08 98.4195 284.956 100.119 282.832 101.677C278.442 104.934 273.769 108.332 271.645 113.572C271.361 114.28 271.078 114.988 270.937 115.696C266.547 117.112 262.581 116.829 258.616 114.846C254.226 112.722 251.677 108.757 250.545 102.526C250.403 101.818 250.261 100.969 250.12 100.26C249.553 96.5786 248.987 92.7551 246.296 89.7813C245.447 88.9316 244.597 88.0819 243.606 87.5155C243.464 87.5155 243.464 87.5155 243.322 87.5155C243.181 87.5155 243.181 87.5155 243.039 87.5155L243.181 87.6571C244.172 88.2236 245.163 89.0732 246.013 89.9229C248.704 92.8967 249.128 96.437 249.695 100.26C249.837 100.969 249.978 101.818 250.12 102.526C251.253 108.899 253.943 113.005 258.333 115.13C260.741 116.263 263.148 116.829 265.555 116.829C267.255 116.829 268.954 116.546 270.795 115.979C269.52 121.219 271.361 126.175 273.202 131.132C273.486 131.698 273.627 132.406 273.91 132.973C271.645 133.964 269.662 135.097 267.963 136.654L267.679 136.938C267.396 137.221 266.971 137.504 266.688 137.787C263.148 141.044 260.316 144.16 257.908 147.842C257.059 148.975 256.492 150.249 255.926 151.382C254.651 154.073 253.943 156.622 253.802 159.029H253.943H254.085C254.226 156.622 254.935 154.073 256.209 151.524C256.775 150.391 257.483 149.258 258.192 147.983C260.457 144.443 263.29 141.328 266.83 138.071C267.113 137.787 267.538 137.504 267.821 137.221L268.104 136.938C269.804 135.38 271.786 134.247 273.91 133.256C274.618 135.097 275.185 137.221 275.61 139.345C276.035 141.611 276.035 143.877 275.61 146.284C275.185 148.691 274.477 151.099 273.344 153.506C272.353 155.63 271.078 157.613 269.804 159.454C269.804 159.454 269.804 159.454 269.662 159.595H270.087C271.361 157.754 272.636 155.772 273.627 153.648C274.76 151.099 275.61 148.691 276.035 146.284C276.459 143.877 276.459 141.469 276.035 139.203C275.61 136.938 274.902 134.814 274.335 132.973C277.592 131.556 281.274 130.848 286.23 130.424C287.08 130.424 287.93 130.282 288.638 130.282C290.479 130.14 292.32 129.999 294.019 129.857C294.302 129.857 294.586 129.716 294.869 129.716C299.825 128.866 303.224 127.167 305.773 124.193C306.339 123.485 306.906 122.777 307.331 122.069C307.614 122.777 307.614 122.777 307.614 122.635ZM247.571 135.522C247.996 134.672 248.42 133.964 248.987 133.256C249.128 132.973 249.412 132.689 249.695 132.265C250.545 130.99 251.536 129.716 252.102 128.299C253.235 125.184 253.518 122.21 252.81 119.52C251.111 113.005 243.889 111.023 237.941 109.324L237.233 109.182C236.1 108.899 234.684 108.474 233.126 107.907H232.985C231.852 107.483 230.719 107.058 229.869 106.633H229.728C225.338 104.65 222.647 101.818 221.514 98.2779C220.948 96.5786 220.806 94.4545 220.948 92.1887H220.806H220.665C220.523 94.4545 220.665 96.5786 221.231 98.4196C222.364 102.101 225.055 104.934 229.445 106.916H229.586C230.577 107.341 231.71 107.766 232.985 108.332H233.126C234.543 108.757 235.959 109.182 237.092 109.607L237.8 109.748C243.606 111.448 250.686 113.43 252.385 119.661C253.094 122.21 252.81 125.184 251.677 128.158C251.111 129.574 250.261 130.848 249.412 132.123C249.128 132.406 248.987 132.689 248.704 133.114C248.279 133.822 247.712 134.672 247.288 135.522C246.579 137.079 245.871 138.495 245.447 139.912C244.314 143.169 243.747 146.142 244.03 148.408C244.455 152.657 246.296 156.622 249.695 160.02H249.978H250.261L250.12 159.879C246.721 156.48 244.739 152.657 244.455 148.408C244.314 146.142 244.739 143.31 245.871 140.053C246.155 138.495 246.863 136.938 247.571 135.522ZM292.745 135.946V136.088C292.461 137.646 290.479 145.434 284.814 152.232C281.557 156.055 277.592 158.887 273.061 160.445L272.919 160.587C273.061 160.587 273.061 160.587 273.202 160.587C273.344 160.587 273.627 160.587 273.769 160.587C278.159 158.887 281.982 156.197 285.239 152.373C289.771 146.992 291.895 140.903 292.745 137.787C292.886 137.221 292.886 136.655 293.028 136.088C293.028 135.946 293.028 135.805 293.028 135.663C292.886 135.805 292.745 135.805 292.745 135.946Z" fill="#FFF2C9"/>
<path d="M258.616 227.569L257.625 232.667C257.2 234.508 256.917 236.49 256.775 238.473L255.076 255.466L250.969 240.88L258.616 227.569Z" fill="#5F5F5F"/>
<path d="M292.886 136.088C293.169 133.964 293.736 132.123 294.161 130.565C294.444 130.565 294.586 129.432 294.869 129.432C295.435 132.123 296.568 138.354 297.135 142.602C294.019 140.761 292.603 138.495 292.603 138.495C292.603 137.787 292.745 136.938 292.886 136.088Z" fill="#89745E"/>
<path d="M300.958 111.306C300.108 112.864 299.4 114.28 298.692 115.838C298.267 116.546 297.984 117.395 297.701 118.103C297.418 118.812 297.135 119.661 296.851 120.511C296.851 118.812 297.418 117.112 298.126 115.554C298.551 114.846 298.976 113.997 299.4 113.289C299.825 112.581 300.392 111.873 300.958 111.306Z" fill="#995E26"/>
<path d="M292.178 144.018C292.037 142.319 292.178 140.478 292.32 138.779C292.461 137.929 292.461 137.079 292.603 136.088C292.745 135.238 292.886 134.389 293.028 133.539C293.311 131.84 293.877 130.14 294.302 128.441L295.152 125.892C295.435 125.042 295.577 124.193 295.718 123.343C296.426 119.944 296.851 116.404 296.851 113.005C296.851 111.306 296.851 109.465 296.71 107.766C296.568 106.067 296.426 104.226 296.143 102.526C296.851 105.925 297.276 109.465 297.276 113.005C297.276 116.546 296.993 120.086 296.285 123.485C296.143 124.334 295.86 125.184 295.577 126.034L294.727 128.583C294.161 130.282 293.736 131.981 293.311 133.681C292.886 137.079 292.461 140.62 292.178 144.018Z" fill="#995E26"/>
<path d="M266.547 138.637C267.255 139.487 267.963 140.336 268.812 141.044C269.662 141.894 270.37 142.602 271.22 143.31C272.919 144.726 274.76 146.142 276.601 147.417C278.442 148.691 280.424 149.824 282.407 150.816C284.39 151.948 286.514 152.798 288.496 153.648C287.363 153.365 286.372 152.94 285.239 152.515C284.248 152.09 283.115 151.665 282.124 151.24C280 150.249 278.159 149.116 276.176 147.842C274.335 146.567 272.494 145.151 270.795 143.593C269.379 142.177 267.821 140.478 266.547 138.637Z" fill="#995E26"/>
<path d="M233.126 107.907C232.702 106.775 232.418 105.642 232.277 104.934C232.277 104.934 231.427 105.642 229.728 106.633C227.179 108.049 222.93 109.89 217.549 109.89C221.656 111.731 227.037 112.722 234.259 111.306C233.835 110.173 233.41 108.899 233.126 107.907Z" fill="#89745E"/>
<path d="M231.71 102.526C232.418 105.783 233.551 108.757 234.684 111.873C235.959 114.846 237.375 117.82 239.074 120.652C240.773 123.485 242.614 126.175 244.738 128.583C245.73 129.857 246.863 130.99 248.137 132.123L248.987 132.973L249.978 133.822L251.819 135.38C251.111 134.955 250.545 134.389 249.836 133.964L248.845 133.256L247.854 132.406C246.579 131.273 245.447 130.14 244.314 129.008C242.048 126.6 240.207 123.91 238.508 121.077C236.808 118.245 235.392 115.271 234.259 112.156C233.976 111.448 233.693 110.598 233.41 109.748C233.126 108.899 232.843 108.191 232.702 107.341L232.135 104.934C231.994 104.226 231.852 103.376 231.71 102.526Z" fill="#995E26"/>
<path d="M242.473 133.256C243.039 134.672 243.606 136.088 244.455 137.363C245.163 138.779 246.013 140.053 246.863 141.328C248.562 143.877 250.403 146.284 252.527 148.408C254.651 150.674 256.917 152.657 259.324 154.497C261.732 156.338 264.281 158.038 266.971 159.595C265.555 158.887 264.281 158.179 262.865 157.471C261.59 156.622 260.316 155.914 259.041 154.922C256.492 153.081 254.226 151.099 252.102 148.833C249.978 146.567 247.996 144.16 246.438 141.469C244.739 139.062 243.322 136.23 242.473 133.256Z" fill="#995E26"/>
<path d="M97.1799 312.818C137.849 312.818 170.818 308.634 170.818 303.472C170.818 298.31 137.849 294.126 97.1799 294.126C56.5109 294.126 23.5422 298.31 23.5422 303.472C23.5422 308.634 56.5109 312.818 97.1799 312.818Z" fill="#AFBADF"/>
<path d="M93.498 83.1256L95.6222 87.3739L93.3564 88.6485V93.4632V94.1713C93.3564 95.3042 92.9316 96.4371 92.0819 97.1451C89.2497 97.4283 87.2672 95.3041 87.2672 95.3041C87.4088 95.0209 87.5504 94.7377 87.692 94.4545C88.2584 93.4632 88.8249 92.1887 89.1081 91.0558C89.8161 87.2323 88.9665 83.2672 88.6833 81.7095C88.5416 81.0014 88.4 80.1518 88.4 79.4437C88.4 75.337 90.8074 73.7793 90.8074 73.7793C90.8074 73.7793 93.7813 77.886 93.498 83.1256Z" fill="#FDD8CD"/>
<path d="M87.4088 95.3041C87.4088 95.3041 89.2497 97.4283 92.2236 97.1451C91.5155 97.7115 90.6658 97.9947 89.8162 97.9947H86.4175C86.5591 97.0035 86.984 96.0122 87.4088 95.3041Z" fill="#AD7B6F"/>
<path d="M96.3302 170.5C89.1081 170.924 85.4262 173.19 85.4262 173.19C85.2846 171.916 85.2846 170.783 85.143 169.508C85.143 169.508 86.5591 168.659 89.2497 167.809C91.6571 169.083 94.0645 169.367 96.1886 169.225L96.3302 170.5Z" fill="#ACBBE0"/>
<path d="M98.0295 109.465L86.9839 105.925C86.9839 105.925 87.9752 107.483 90.0993 109.748C91.3738 111.165 92.2235 113.005 92.3651 114.846C92.3651 115.696 92.3651 116.546 92.0819 117.395L92.3651 117.537L93.498 118.812C94.9141 117.962 96.3302 116.971 98.0295 115.838C99.8705 114.563 101.853 113.005 103.836 111.448L98.0295 109.465Z" fill="#8CAC84"/>
<path d="M110.633 172.057C104.969 170.641 100.154 170.358 96.3302 170.641V169.225C99.0208 169.083 101.287 168.092 102.703 167.242C103.128 166.959 103.552 166.818 103.977 166.534C106.809 166.818 109.925 167.384 113.324 168.375C113.748 169.65 114.315 171.208 115.023 173.19C113.465 172.765 112.049 172.34 110.633 172.057Z" fill="#ACBBE0"/>
<path d="M135.273 278.549L135.132 281.664H133.291H122.811H121.82L121.112 278.549H131.875H135.273Z" fill="white"/>
<path d="M68.716 282.797L66.4502 286.196L64.8925 285.629L55.6878 281.947L54.8381 281.664L56.2542 277.699L64.8925 281.239L68.716 282.797Z" fill="white"/>
<path d="M157.081 300.64C157.223 300.923 157.223 301.206 157.223 301.348C157.081 302.056 156.656 302.622 155.948 302.764C155.665 302.906 155.382 303.047 155.099 303.047C152.975 303.755 150.709 304.039 148.585 304.039C138.53 304.039 121.679 302.198 121.679 302.198C121.112 300.923 121.395 299.365 121.395 299.224C121.679 299.507 122.103 299.79 122.528 299.932C126.777 300.64 138.53 302.339 145.752 302.339C145.752 302.339 153.541 301.631 156.94 300.923C156.94 300.923 157.081 300.782 157.081 300.64Z" fill="white"/>
<path d="M157.081 300.64C156.94 300.782 156.798 300.923 156.656 300.923C153.399 301.631 145.469 302.339 145.469 302.339C138.247 302.339 126.493 300.64 122.245 299.932C121.82 299.79 121.395 299.649 121.112 299.224C120.829 298.941 120.687 298.516 120.687 298.091V292.993V290.444C120.687 290.019 121.112 289.736 121.537 290.019L121.82 290.161L126.068 292.568C129.892 293.984 133.574 290.869 135.132 289.453C135.556 289.028 135.84 288.603 135.84 288.603C138.813 292.426 150.567 296.816 153.258 297.808C153.541 297.949 153.966 297.949 154.249 298.091C155.948 298.516 156.798 299.365 157.223 300.073C157.223 300.215 157.223 300.498 157.081 300.64Z" fill="#FDDDD5"/>
<path d="M72.8228 300.215C73.3893 300.074 73.8141 299.79 74.2389 299.365C73.8141 302.481 66.592 302.198 65.0342 302.056C64.751 302.056 64.4678 302.056 64.3262 302.056C61.7772 302.198 60.0779 302.906 59.2282 303.189C58.8034 303.331 58.5201 303.614 58.0953 303.614C52.7141 305.455 48.6074 304.322 48.6074 304.322C48.3242 303.755 48.4658 302.623 48.4658 302.623C48.6074 302.623 48.6074 302.764 48.749 302.764C52.7141 303.897 58.3785 301.914 58.3785 301.914C62.3436 300.498 65.7423 300.215 67.3 300.074C67.8665 300.074 68.4329 300.074 68.9993 300.215C70.5571 300.498 71.9732 300.357 72.8228 300.215Z" fill="white"/>
<path d="M72.9645 296.25C72.9645 296.25 74.6638 296.958 74.5222 298.516C74.5222 298.799 74.3806 299.082 74.0973 299.365C73.8141 299.79 73.2477 300.074 72.6812 300.215C71.8316 300.357 70.4155 300.498 68.7161 300.215C68.1497 300.074 67.5832 300.074 67.0168 300.074C65.3175 300.215 62.0604 300.498 58.0953 301.914C58.0953 301.914 52.4309 303.897 48.4658 302.764C48.3242 302.764 48.3242 302.764 48.1826 302.622C48.0409 302.481 47.8993 302.339 47.8993 302.056C47.7577 301.348 47.7577 300.073 48.6074 298.374L49.7403 293.559C49.7403 293.559 49.8819 291.435 51.1564 291.577L51.8644 291.86L57.3873 293.984C59.2282 294.692 61.2108 294.126 62.4853 292.568L63.1933 291.577C63.4765 291.294 63.9014 291.152 64.1846 291.294L72.9645 296.25Z" fill="#FDDDD5"/>
<path d="M137.256 80.1518C137.539 80.435 137.681 80.8598 137.964 81.1431C137.964 81.1431 136.831 82.276 134.707 84.1169C132.724 80.1518 129.042 77.6028 128.759 77.4612L132.441 75.337C132.441 75.337 132.724 75.4787 133.149 75.9035C134.282 76.7531 135.981 78.3109 137.256 80.1518Z" fill="#FCD5C5"/>
<path d="M135.273 226.719C125.927 203.636 118.705 183.953 114.881 173.19C113.324 172.765 111.907 172.34 110.491 172.057C104.827 170.641 100.012 170.358 96.1886 170.641C88.9664 171.066 85.2845 173.332 85.2845 173.332C85.4262 176.022 85.5678 178.43 85.7094 180.837C85.9926 183.811 86.1342 186.643 86.2758 188.909C86.559 191.458 86.7007 193.44 86.9839 194.573L87.1255 195.423L87.5503 199.813L89.3913 203.212C89.8161 203.92 89.9577 204.628 89.9577 205.477H90.0993C91.3738 206.61 93.0731 207.602 94.6309 208.31L99.1624 214.824L101.428 218.081L115.164 237.765C115.589 238.331 116.014 238.898 116.581 239.322C116.722 239.464 116.864 239.464 116.864 239.606C118.705 241.022 121.254 241.871 122.387 242.296C122.387 242.296 117.43 252.067 117.147 258.44C117.289 260.847 117.713 263.113 118.138 265.379L120.97 278.407H135.132L136.548 234.791C136.689 232.1 136.264 229.268 135.273 226.719Z" fill="#5173B8"/>
<path d="M133.291 281.664C133.291 281.664 133.715 286.904 135.132 289.453C133.574 291.01 129.892 293.984 126.068 292.568L121.82 290.161C122.528 287.47 122.67 281.664 122.67 281.664H133.291Z" fill="#FDD8CD"/>
<path d="M117.147 239.606C118.988 241.022 121.537 241.871 122.67 242.296C122.67 242.296 117.713 252.067 117.43 258.44C117.289 257.165 117.289 255.749 117.289 254.475L117.147 239.606Z" fill="#5F5F5F"/>
<path d="M111.907 164.269C111.907 164.269 112.332 165.685 113.323 168.375C109.925 167.384 106.809 166.818 103.977 166.534C105.11 165.968 106.385 165.543 107.659 165.118C109.358 164.552 110.774 164.41 111.907 164.269Z" fill="#FDD8CD"/>
<path d="M99.304 214.682L101.57 217.939L100.437 221.196C99.304 220.913 98.1711 220.488 97.1798 220.063L99.304 214.682Z" fill="#5F5F5F"/>
<path d="M94.7725 208.31L99.304 214.824L97.1799 220.205C92.0819 218.081 88.1168 215.107 88.1168 215.107L87.9752 213.408C87.9752 213.408 89.3913 213.832 89.5329 210.859C89.5329 210.292 89.6745 209.867 89.6745 209.301L89.9577 206.469C89.9577 206.185 89.9577 205.761 89.9577 205.336H90.0993C91.657 206.469 93.2148 207.46 94.7725 208.31Z" fill="#5F5F5F"/>
<path d="M97.1798 220.063C92.0819 217.939 88.1167 214.965 88.1167 214.965L88.2584 216.523C88.2584 217.231 87.6919 217.939 86.9839 217.939C86.1342 217.939 85.5678 217.373 85.4261 216.665L85.2845 214.541H84.01C83.5852 214.541 83.302 214.399 83.1604 213.974C82.8771 213.549 82.7355 212.983 82.5939 212.558H81.3194C80.6114 212.558 80.0449 212.133 80.0449 211.425L79.9033 211C79.3369 211.142 78.7704 211 78.3456 210.575C78.3456 210.859 78.204 215.815 77.9208 221.479C77.6375 227.71 77.2127 234.649 76.6463 237.198C76.6463 237.481 76.5047 237.623 76.5047 237.765C74.2389 239.181 72.3979 241.163 70.9818 243.429L67.1583 249.377C66.5919 250.368 66.0255 251.359 65.6006 252.492L56.2543 277.274L64.751 280.814L68.5744 282.372L89.8161 249.094C90.5241 247.961 91.0906 246.828 91.5154 245.553L100.295 220.913C99.304 220.913 98.1711 220.63 97.1798 220.063Z" fill="#5173B8"/>
<path d="M87.2671 195.281L87.692 199.671L77.9208 202.22L76.9295 197.972C76.9295 197.972 86.1342 196.414 87.2671 195.281Z" fill="#FCD5C5"/>
<path d="M89.3913 167.809C86.7007 168.659 85.2846 169.508 85.2846 169.508C85.143 167.809 85.143 166.251 85.0013 164.552C86.4175 165.968 87.9752 166.959 89.3913 167.809Z" fill="#AD7B6F"/>
<path d="M109.925 155.347L104.968 145.01L101.711 138.071C102.986 135.946 103.128 133.822 102.844 131.84C102.561 130.282 101.995 128.724 101.145 127.308C100.72 126.742 100.295 126.175 99.8705 125.609L97.6047 123.06L93.6396 118.528L92.5067 117.254L92.2235 117.112C91.7986 118.528 90.949 119.803 89.108 120.936C89.108 120.936 88.9664 120.936 88.8248 121.077C88.1168 121.361 86.2758 121.785 84.2933 120.794C83.0188 120.228 81.7443 119.095 80.4698 117.112C79.9033 116.121 79.1953 115.413 78.3456 114.705C77.2127 113.714 75.5134 112.864 73.6724 113.147C71.1235 113.572 69.4241 114.846 68.1496 116.829C66.0255 120.086 65.459 125.184 65.7422 130.282C65.8838 133.397 66.3087 136.655 66.7335 139.487C67.3 142.744 67.8664 145.576 68.2912 147.417C68.2912 147.559 68.2912 147.559 68.2912 147.7C68.5745 148.55 68.7161 149.541 68.8577 150.391C68.8577 150.816 68.9993 151.099 68.9993 151.524L70.4154 159.879L71.6899 167.242L73.2476 176.73L74.9469 186.643L76.0798 193.865V194.149L76.9295 197.83C76.9295 197.83 86.1342 196.273 87.2671 195.14L87.1255 194.29C86.9839 193.157 86.7006 191.175 86.4174 188.626C86.2758 186.36 85.9926 183.669 85.851 180.554C85.7094 178.288 85.5678 175.739 85.4261 173.048C85.2845 171.774 85.2845 170.641 85.1429 169.367C85.0013 167.667 85.0013 166.11 84.8597 164.41C84.8597 163.419 84.7181 162.569 84.7181 161.578C84.5765 158.463 84.4349 155.347 84.2933 152.373C84.2933 151.524 84.1516 150.532 84.1516 149.683L85.7094 152.09L90.949 160.445L96.3302 169.083C99.0208 168.942 101.287 167.951 102.703 167.101C103.128 166.818 103.552 166.676 103.977 166.393C105.11 165.826 106.385 165.402 107.659 164.977C109.5 164.41 110.916 164.269 111.907 164.127C112.191 164.127 112.474 164.127 112.757 164.127C113.465 164.127 113.89 163.419 113.607 162.853L109.925 155.347ZM128.901 77.6028L126.777 78.7357C126.777 78.7357 125.502 79.5853 123.236 81.0014C120.829 82.5592 117.43 84.6833 113.607 87.0907C110.774 88.9317 107.659 90.7726 104.685 92.7552C101.711 94.5961 98.596 96.5786 95.9054 98.1364C91.657 100.827 88.1168 102.951 86.2758 104.084H86.1342C86.2758 104.792 86.559 105.359 86.8423 106.067L97.8879 109.607L103.836 111.448C104.685 110.74 105.535 110.032 106.526 109.324C109.642 106.775 113.04 103.942 116.297 101.11C119.13 98.7028 121.82 96.2954 124.369 94.0297C128.617 90.2062 132.299 86.8075 134.848 84.4001C132.866 80.2934 129.042 77.7444 128.901 77.6028Z" fill="#B3CBB0"/>
<path d="M55.6879 281.947L64.751 285.488L63.1933 291.718L62.4852 292.71C61.3523 294.267 59.2282 294.834 57.3872 294.126L51.8644 292.002L55.6879 281.947Z" fill="#FDD8CD"/>
<path d="M148.018 67.1236L147.735 69.531C147.593 70.2391 148.443 70.8055 149.151 70.5222L149.576 70.3806L151.134 69.6726C151.275 69.6726 151.417 69.531 151.7 69.531C152.125 69.531 152.55 69.8142 152.833 70.0974C153.258 70.8055 153.116 71.6551 152.408 72.08L145.328 76.1867C144.761 76.4699 144.053 76.7531 143.487 76.7531C142.637 76.7531 141.787 77.0363 141.079 77.4612L137.539 79.8686L137.397 80.0102C135.981 78.0276 134.282 76.6115 133.432 75.7619V75.6202C133.999 75.337 135.556 73.4961 136.548 72.3632C136.973 71.9384 137.256 71.3719 137.539 70.6639C138.53 68.3981 139.38 68.6813 139.38 68.6813C139.805 66.8404 141.079 66.982 141.079 66.982C142.779 64.433 144.478 64.9994 144.478 64.9994C145.186 63.7249 145.752 62.3088 146.036 60.7511L147.027 56.786C147.169 56.3612 147.452 56.0779 148.018 56.0779C148.585 56.0779 149.01 56.5028 149.01 57.0692L148.018 67.1236Z" fill="#FDD8CD"/>
<path d="M148.018 67.1236C148.16 67.2652 149.434 68.5397 149.576 70.3806L149.151 70.5222C148.443 70.8055 147.735 70.2391 147.735 69.531L148.018 67.1236Z" fill="#FDD8CD"/>
<path d="M147.027 57.2108C146.885 58.2021 146.744 59.0518 146.602 60.0431C146.46 61.0343 146.177 61.884 145.894 62.8753C145.611 63.7249 145.186 64.7162 144.761 65.4243C144.336 66.2739 143.77 66.982 143.062 67.69C143.487 66.8404 144.053 65.9907 144.478 65.1411C144.903 64.2914 145.186 63.4417 145.469 62.5921C145.752 61.7424 146.036 60.7511 146.319 59.9014C146.46 59.0518 146.602 58.2021 147.027 57.2108Z" fill="#AD7B6F"/>
<path d="M151.275 69.8142C150.85 69.9558 150.567 70.239 150.142 70.3806L149.576 70.6639C149.434 70.8055 149.151 70.8055 149.009 70.9471C148.443 71.0887 148.018 70.8055 147.735 70.2391C147.593 69.9558 147.593 69.6726 147.593 69.531V68.9645C147.735 68.1149 147.735 67.2652 147.877 66.4155C148.018 65.5659 148.16 64.7162 148.301 63.8665C148.301 64.7162 148.301 65.5659 148.301 66.4155C148.301 67.2652 148.16 68.1149 148.16 68.9645V69.531C148.16 69.8142 148.16 69.8142 148.16 70.0974C148.301 70.3807 148.585 70.6639 149.009 70.5223C149.151 70.5223 149.434 70.3806 149.576 70.3806L150.142 70.2391C150.426 70.0974 150.85 69.9558 151.275 69.8142Z" fill="#AD7B6F"/>
<path d="M102.703 211.142C100.437 210.717 98.1711 210.009 96.0469 209.159C93.9227 208.168 91.9402 207.035 90.2408 205.336C92.2234 206.61 94.2059 207.602 96.3301 208.593C97.3214 209.018 98.4543 209.443 99.4456 210.009L102.703 211.142Z" fill="#9E9E9E"/>
<path d="M67.0167 249.943C68.008 247.961 69.1409 246.12 70.2738 244.279C71.4067 242.296 72.8228 240.597 74.5221 239.181C75.3718 238.473 76.363 237.906 77.2127 237.34L80.0449 235.641C81.0362 235.074 81.8859 234.508 82.7355 233.8C83.5852 233.233 84.5765 232.667 85.4261 231.959C83.8684 233.516 82.0275 234.791 80.3281 236.065C79.4785 236.773 78.4872 237.34 77.6375 237.906C76.6463 238.473 75.7966 239.039 74.9469 239.747C73.2476 241.163 71.8315 242.721 70.6986 244.562C69.5657 246.261 68.2912 248.102 67.0167 249.943Z" fill="#9E9E9E"/>
<path d="M90.0994 205.336C90.0994 204.486 89.8161 203.778 89.5329 203.07L87.692 199.671L77.9208 202.22L77.6376 204.911C77.6376 205.194 77.6376 205.619 77.6376 205.902V206.469L77.7792 209.726C77.7792 210.151 77.9208 210.575 78.3457 210.859C78.7705 211.283 79.3369 211.425 79.9034 211.283L80.045 211.708C80.1866 212.416 80.753 212.841 81.3195 212.841H82.594C82.7356 213.266 82.8772 213.832 83.1604 214.257C83.302 214.541 83.5853 214.824 84.0101 214.824H85.2846L85.4262 216.948C85.4262 217.798 86.1343 218.364 86.9839 218.222C87.692 218.222 88.2584 217.514 88.2584 216.806L88.1168 215.249L87.9752 213.549C87.9752 213.549 89.3913 213.974 89.5329 211C89.5329 210.434 89.6745 210.009 89.6745 209.443L89.9577 206.61C90.0994 206.044 90.0994 205.761 90.0994 205.336Z" fill="#FDD8CD"/>
<path d="M88.1169 215.107C87.8336 213.549 87.692 211.991 87.692 210.292C87.692 208.734 87.5504 207.177 87.692 205.477C87.9752 207.035 88.1169 208.593 88.1169 210.292C88.2585 211.85 88.2585 213.408 88.1169 215.107Z" fill="#AD7B6F"/>
<path d="M84.7181 208.451C85.0013 209.867 85.1429 211.283 85.2845 212.558C85.4261 213.974 85.4261 215.39 85.2845 216.806C85.0013 215.39 84.8597 213.974 84.7181 212.7C84.7181 211.283 84.7181 209.867 84.7181 208.451Z" fill="#AD7B6F"/>
<path d="M81.7443 207.885C81.8859 208.451 82.0275 209.018 82.0275 209.442C82.1692 210.009 82.1692 210.575 82.3108 211C82.3108 211.567 82.4524 211.992 82.594 212.558C82.7356 213.124 82.8772 213.549 83.0188 214.116C82.7356 213.691 82.4524 213.124 82.3108 212.7C82.1692 212.133 82.0275 211.567 81.8859 211.142C81.8859 210.575 81.7443 210.009 81.7443 209.442C81.7443 209.018 81.7443 208.451 81.7443 207.885Z" fill="#AD7B6F"/>
<path d="M79.0537 206.469C79.3369 207.318 79.6201 208.168 79.7617 209.018C79.9033 209.867 80.0449 210.717 79.9033 211.708C79.6201 210.859 79.3369 210.009 79.1953 209.159C79.0537 208.31 78.912 207.46 79.0537 206.469Z" fill="#AD7B6F"/>
<path d="M65.0342 281.381L64.6093 281.098L83.302 251.359C85.2845 248.244 86.9839 244.987 88.4 241.447L99.1624 214.682L99.5872 214.824L88.8248 241.588C87.4087 244.987 85.7094 248.386 83.7268 251.501L65.0342 281.381Z" fill="#86A9D9"/>
<path d="M132.158 278.549H131.591V239.889C131.591 233.516 130.458 227.285 128.334 221.338L110.35 172.057H110.633L110.916 171.916L128.901 221.196C131.025 227.144 132.158 233.516 132.158 239.889V278.549Z" fill="#86A9D9"/>
<path d="M92.3651 114.846C92.2235 113.006 91.3738 111.165 90.0993 109.748C88.1168 107.483 86.9839 105.925 86.9839 105.925C86.7007 105.217 86.4175 104.65 86.2758 103.942C85.7094 101.818 85.851 99.8357 86.2758 97.9948C86.5591 96.8619 86.9839 95.8706 87.4087 95.1625C87.5503 94.8793 87.692 94.5961 87.8336 94.3129C88.4 93.3216 88.9665 92.0471 89.2497 90.9142C89.9577 87.0907 89.1081 83.1257 88.8248 81.5679C88.6832 80.8599 88.5416 80.0102 88.5416 79.3022C88.5416 75.1954 90.949 73.6377 90.949 73.6377C90.3826 72.5048 89.2497 71.5135 87.9752 70.6639C86.1342 69.3894 84.1517 68.6813 83.4436 68.2565C83.302 68.1149 83.1604 68.1149 83.1604 68.1149C83.1604 68.1149 77.6376 66.4156 71.5483 67.8317C67.0168 68.8229 62.0604 71.6552 58.6617 78.4525C58.6617 78.4525 56.1127 82.7008 55.2631 98.9861C55.2631 98.9861 55.1215 103.659 50.3067 109.182C49.7402 109.89 49.0322 110.457 48.3241 111.165C45.9167 113.147 39.5443 119.378 43.3677 126.459C43.3677 126.459 49.1738 132.406 47.6161 137.221C47.6161 137.221 40.5355 151.524 51.1563 157.047C51.1563 157.047 53.5637 158.463 56.6792 158.746C58.3785 158.887 60.3611 158.604 62.202 157.471C63.6181 156.622 64.6094 155.347 65.459 153.931C66.1671 152.657 67.4416 150.816 68.9993 150.816C68.8577 149.966 68.5745 148.975 68.4329 148.125C68.4329 147.983 68.4329 147.983 68.4329 147.842C68.008 146.142 67.4416 143.31 66.8752 139.912C66.4503 137.079 66.0255 133.822 65.8839 130.707C65.7423 125.609 66.1671 120.511 68.2913 117.254C69.5658 115.271 71.2651 113.997 73.8141 113.572C75.655 113.289 77.3544 114.138 78.4872 115.13C79.3369 115.838 80.045 116.687 80.6114 117.537C81.7443 119.52 83.1604 120.653 84.4349 121.219C86.4175 122.069 88.2584 121.644 88.9665 121.502C89.2497 121.361 89.2497 121.361 89.2497 121.361C91.0906 120.369 91.9403 118.953 92.3651 117.537C92.3651 116.546 92.3651 115.696 92.3651 114.846Z" fill="#555555"/>
<path d="M88.6832 121.219C88.6832 119.944 88.3999 118.67 87.8335 117.395C86.7006 115.13 84.718 113.006 82.7355 111.023C81.6026 109.89 80.4697 108.757 79.6201 107.624C76.6462 103.801 78.0623 98.278 80.7529 94.8793C80.8946 94.5961 81.1778 94.3129 81.3194 94.1713C82.3107 92.8968 83.4435 91.6223 83.4435 89.923C83.4435 88.5068 82.7355 87.374 82.0274 86.3827C81.7442 85.8162 81.3194 85.3914 81.0362 84.825C79.7617 82.1344 79.9033 78.7357 81.461 75.9035C82.8771 73.2129 85.1429 71.5135 87.8335 71.0887C87.8335 71.0887 87.8335 71.0887 87.9751 71.0887L87.8335 70.9471C85.2845 71.3719 82.8771 73.0713 81.461 75.7619C79.9033 78.7357 79.7617 82.1344 81.0362 84.825C81.3194 85.3914 81.6026 85.9579 82.0274 86.3827C82.7355 87.5156 83.4435 88.6485 83.4435 89.923C83.4435 91.4807 82.3107 92.8968 81.3194 94.0297C81.0362 94.3129 80.8946 94.5961 80.7529 94.7377C78.0623 98.1364 76.6462 103.659 79.6201 107.624C80.4697 108.757 81.6026 109.89 82.7355 111.165C84.718 113.147 86.7006 115.271 87.6919 117.537L88.6832 121.219ZM68.1496 116.971C67.4415 115.838 67.0167 114.846 66.7335 113.714C66.3086 112.014 66.3086 110.173 66.7335 108.191C67.2999 105.217 68.1496 103.093 69.5657 101.252C69.9905 100.685 70.4154 100.261 70.8402 99.8357C71.9731 98.5612 73.106 97.2867 73.5308 95.5874C74.0972 93.8881 74.0972 91.7639 73.6724 89.4981C73.5308 88.79 73.3892 88.082 73.2476 87.3739C72.8227 85.533 72.3979 83.6921 72.5395 81.7095C73.106 75.9035 75.5133 73.0713 76.5046 72.2216C78.6288 70.239 80.3281 69.2478 82.4523 68.6813C82.7355 68.6813 82.8771 68.5397 83.1603 68.3981H83.3019C83.3019 68.3981 83.3019 68.3981 83.4435 68.3981L83.1603 68.2565C82.8771 68.3981 82.5939 68.3981 82.4523 68.5397C80.3281 69.1062 78.4872 70.239 76.363 72.08C73.2476 74.9122 72.5395 79.7269 72.2563 81.7095C72.1147 83.6921 72.5395 85.533 72.9643 87.3739C73.106 88.082 73.2476 88.7901 73.3892 89.3565C73.814 91.4807 73.6724 93.6048 73.2476 95.3042C72.8227 96.8619 71.6898 98.1364 70.557 99.4109C70.1321 99.8357 69.7073 100.402 69.2825 100.827C67.8664 102.668 67.0167 104.792 66.4502 107.766C66.167 109.748 66.167 111.589 66.4502 113.43C66.8751 114.846 67.2999 115.979 68.1496 116.971C68.008 117.112 68.008 117.112 68.008 117.112L68.1496 116.971ZM56.5375 158.604C56.8207 158.321 56.9623 158.038 57.2455 157.896C58.3784 156.622 59.2281 155.206 59.7945 153.506C60.7858 150.816 60.9274 147.842 60.2194 144.585C59.7945 142.036 58.8033 139.628 57.812 137.221C57.5288 136.371 57.1039 135.38 56.8207 134.389C55.5462 130.848 54.5549 127.733 53.5637 124.476C52.5724 121.219 52.8556 117.395 54.2717 114.563C55.263 112.581 56.2543 110.315 57.9536 108.757L58.3784 108.332C59.6529 106.916 60.9274 105.642 61.9187 103.942C64.4677 99.5525 63.9013 94.4545 63.4764 89.6397C63.0516 85.3914 62.6268 81.0015 64.1845 76.8947C65.8838 72.788 68.2912 69.6726 71.5482 67.8317C71.6898 67.8317 71.6898 67.69 71.8315 67.69H71.5482H71.265C68.1496 69.531 65.7422 72.6464 64.0429 76.6115C62.3435 80.7183 62.91 85.1082 63.3348 89.4981C63.9013 94.3129 64.3261 99.2692 61.7771 103.659C60.7858 105.359 59.5113 106.633 58.2368 107.908L57.812 108.332C56.1127 110.032 55.1214 112.156 54.1301 114.28C52.714 117.254 52.5724 120.936 53.422 124.334C54.2717 127.591 55.4046 130.707 56.6791 134.247C56.9623 135.238 57.3872 136.088 57.812 137.079C58.8033 139.487 59.6529 141.753 60.2194 144.302C60.7858 147.559 60.6442 150.532 59.7945 153.223C59.2281 154.922 58.3784 156.338 57.2455 157.613C56.9623 158.038 56.6791 158.321 56.5375 158.604H56.3959H56.5375Z" fill="#96C0F6"/>
<path d="M124.369 93.7464C124.652 89.4981 124.369 85.1082 123.378 80.8599L123.236 81.0014C124.228 85.2498 124.652 89.6397 124.228 93.888C124.228 93.888 124.228 93.888 124.228 94.0297L124.369 93.7464ZM116.439 100.827C116.439 100.119 116.297 99.4109 116.297 98.7028C116.297 98.278 116.297 97.9948 116.297 97.5699C116.156 94.7377 115.448 92.1887 114.598 89.4981C114.456 89.2149 114.456 88.9317 114.315 88.6485C114.173 88.082 114.032 87.5156 113.748 86.9491L113.607 87.0907C113.748 87.6572 113.89 88.2236 114.173 88.79C114.315 89.0733 114.315 89.3565 114.456 89.6397C115.306 92.3303 116.014 94.8793 116.156 97.7115C116.156 97.9948 116.156 98.4196 116.156 98.8444C116.156 99.5525 116.297 100.261 116.297 101.11C116.297 101.11 116.297 101.11 116.297 101.252L116.439 100.827ZM104.827 92.6135C106.385 97.1451 106.951 102.81 106.668 109.182L106.526 109.324C106.809 102.951 106.243 97.4283 104.685 92.8968L104.827 92.6135ZM98.1711 109.465C98.0295 105.642 97.4631 101.96 96.047 97.9947L95.9054 98.1364C97.1799 102.101 97.8879 105.642 98.0295 109.465H98.1711ZM65.6006 130.707C65.6006 130.565 65.6006 130.565 65.6006 130.707C65.7422 130.565 65.7422 130.565 65.7422 130.424C67.5832 128.3 69.4241 126.6 72.398 125.184C73.9557 124.476 75.655 124.051 77.2127 123.626C79.6201 122.918 82.0275 122.352 84.0101 121.077L83.8684 120.936C81.8859 122.21 79.4785 122.777 77.2127 123.485C75.5134 123.91 73.8141 124.476 72.2563 125.042C69.2825 126.317 67.4416 128.016 65.459 130.282C65.459 130.282 65.459 130.282 65.3174 130.424L65.6006 130.707ZM66.5919 139.912C66.7335 139.77 66.7335 139.628 66.8751 139.628V139.487C68.9993 136.513 72.5396 134.389 76.3631 133.539C77.6376 133.256 78.9121 132.973 80.1866 132.831C81.1778 132.689 82.3107 132.406 83.302 132.265C85.1429 131.84 87.4087 131.273 89.8161 129.999C92.7899 128.441 95.4805 126.034 97.4631 123.202L97.3215 123.06C95.1973 125.892 92.6483 128.158 89.6745 129.716C87.2671 130.99 85.0013 131.557 83.1604 131.981C82.1691 132.265 81.0362 132.406 80.0449 132.548C78.7704 132.831 77.496 132.973 76.2215 133.256C72.2563 134.106 68.7161 136.371 66.5919 139.345L66.4503 139.487L66.3087 139.628L66.5919 139.912ZM68.1496 147.559C68.5745 147.134 68.8577 146.851 69.2825 146.567C72.6812 144.018 77.0711 143.169 81.1778 142.319H81.4611C82.3107 142.177 83.1604 142.036 83.8684 141.753C89.108 140.478 93.0731 138.495 96.047 135.805C97.8879 133.964 99.4456 131.132 100.579 128.866V128.724C100.72 128.441 101.003 128.016 101.145 127.591L101.287 127.733C101.145 128.158 100.862 128.441 100.72 128.866V129.008C99.5873 131.273 98.0295 134.247 96.1886 136.088C93.2148 138.92 89.2497 140.903 84.0101 142.177C83.302 142.319 82.4523 142.602 81.6027 142.744H81.3194C77.2127 143.593 72.9644 144.443 69.5657 146.992C69.1409 147.275 68.8577 147.559 68.4329 147.983L68.1496 147.559ZM70.4154 160.304C70.4154 160.304 70.4154 160.162 70.4154 160.304C72.1147 158.179 74.6637 155.772 81.1778 153.506C82.1691 153.223 83.1604 152.94 84.2933 152.657C84.7181 152.515 85.2845 152.373 85.7094 152.373C87.1255 152.09 88.4 151.807 89.8161 151.524C92.2235 151.099 94.7725 150.532 97.1799 149.824C100.154 148.975 102.703 147.417 104.968 145.293L104.827 145.151C102.561 147.275 100.012 148.691 97.0382 149.683C94.6309 150.391 92.0819 150.957 89.6745 151.382C88.2584 151.665 86.9839 151.949 85.5678 152.232C85.1429 152.373 84.7181 152.373 84.2933 152.515C83.1604 152.798 82.0275 153.081 81.1778 153.365C77.496 154.639 73.2476 156.48 70.4154 160.162V160.304ZM71.5483 167.667C71.6899 167.667 71.6899 167.526 71.5483 167.667C73.5308 165.826 76.6463 163.702 84.7181 161.861C85.2845 161.72 85.851 161.578 86.2758 161.436C87.6919 161.153 89.108 160.87 90.8074 160.587C91.9403 160.445 93.2148 160.162 94.3476 160.02C97.7463 159.595 101.287 159.029 104.544 158.179C106.385 157.613 108.226 156.763 109.783 155.63L109.642 155.489C108.084 156.622 106.385 157.613 104.544 158.038C101.145 158.887 97.7463 159.454 94.3476 159.879C93.2148 160.02 91.9403 160.304 90.6658 160.445C88.9664 160.728 87.5503 161.012 86.1342 161.295C85.7094 161.436 85.1429 161.578 84.5765 161.578C80.0449 162.569 74.8053 164.127 71.4067 167.384L71.5483 167.667ZM85.4262 173.19C85.1429 173.332 84.7181 173.332 84.4349 173.473C84.01 173.615 83.5852 173.615 83.1604 173.757C82.3107 173.898 81.4611 174.181 80.753 174.323C78.9121 174.748 76.9295 175.173 75.0886 175.881C74.3805 176.164 73.6725 176.589 73.106 177.014V177.155C73.6725 176.73 74.3805 176.306 75.0886 176.022C76.9295 175.314 78.7704 174.889 80.753 174.465C81.6027 174.323 82.3107 174.181 83.1604 173.898C83.5852 173.757 84.01 173.757 84.4349 173.615C84.7181 173.473 85.1429 173.473 85.4262 173.332V173.19ZM74.8053 186.926C74.8053 186.926 74.947 186.926 74.8053 186.926C77.3543 183.953 81.3194 181.828 85.851 180.696V180.554C81.3194 181.687 77.3543 183.811 74.6637 186.785L74.8053 186.926ZM86.559 188.767C83.1604 189.759 79.9033 191.316 77.2127 193.299C76.7879 193.582 76.5047 193.865 76.0798 194.29V194.149C76.5047 193.724 76.7879 193.44 77.2127 193.157C79.9033 191.175 83.1604 189.617 86.559 188.484V188.767Z" fill="#D0E6BE"/>
<path d="M81.6027 234.791L76.6463 238.048L76.5047 237.623C76.9295 235.074 77.3544 228.135 77.7792 221.904L81.6027 234.791Z" fill="#5F5F5F"/>
<path d="M90.9489 160.445L85.7093 152.09L84.1516 149.683C84.1516 150.532 84.2932 151.524 84.2932 152.373C84.4348 155.347 84.5764 158.463 84.7181 161.578C84.7181 162.569 84.8597 163.419 84.8597 164.41C86.2758 165.826 87.8335 166.959 89.2496 167.667C91.657 168.942 94.0644 169.225 96.1885 169.083L90.9489 160.445Z" fill="#8CAC84"/>
<path d="M92.365 117.395C94.0644 119.095 95.6221 120.794 97.1798 122.493C98.0295 123.343 98.7375 124.193 99.5872 125.042C100.437 125.892 101.145 126.883 101.711 127.875C102.844 129.999 103.552 132.406 103.127 134.814C102.986 135.946 102.561 137.221 101.853 138.212C101.145 139.204 100.295 140.053 99.4456 140.761C101.287 139.204 102.419 137.079 102.561 134.814C102.703 132.548 102.136 130.282 101.003 128.299C100.437 127.308 99.7288 126.459 98.8791 125.609C98.1711 124.759 97.3214 123.91 96.6133 122.918L94.3476 120.228C93.7811 119.236 93.0731 118.387 92.365 117.395Z" fill="#3F5A3B"/>
<path d="M85.7094 176.589C85.2846 172.34 85.0013 167.951 84.7181 163.702C84.4349 159.454 84.1517 155.064 84.0101 150.816C83.8685 146.567 83.5852 142.177 83.4436 137.929L83.302 131.415C83.302 129.291 83.1604 127.167 83.1604 124.901C83.4436 129.149 83.7268 133.539 84.0101 137.787L84.7181 150.674L85.2846 163.561L85.5678 170.075L85.7094 176.589Z" fill="#3F5A3B"/>
</g>
<defs>
<filter id="filter0_d" x="0" y="0" width="357" height="320.818" filterUnits="userSpaceOnUse" color-interpolation-filters="sRGB">
<feFlood flood-opacity="0" result="BackgroundImageFix"/>
<feColorMatrix in="SourceAlpha" type="matrix" values="0 0 0 0 0 0 0 0 0 0 0 0 0 0 0 0 0 0 127 0"/>
<feOffset dy="4"/>
<feGaussianBlur stdDeviation="2"/>
<feColorMatrix type="matrix" values="0 0 0 0 0 0 0 0 0 0 0 0 0 0 0 0 0 0 0.25 0"/>
<feBlend mode="normal" in2="BackgroundImageFix" result="effect1_dropShadow"/>
<feBlend mode="normal" in="SourceGraphic" in2="effect1_dropShadow" result="shape"/>
</filter>
</defs>
</svg>
