<svg width="340" height="215" viewBox="0 0 340 215" fill="none" xmlns="http://www.w3.org/2000/svg">
<g filter="url(#filter0_d)">
<path d="M72.2231 36.0445C80.1444 36.0445 86.566 29.6229 86.566 21.7015C86.566 13.7801 80.1444 7.35858 72.2231 7.35858C64.3017 7.35858 57.8801 13.7801 57.8801 21.7015C57.8801 29.6229 64.3017 36.0445 72.2231 36.0445Z" fill="#F2DBAD"/>
<path d="M32.5615 199.928C36.4189 199.928 39.5459 196.801 39.5459 192.944C39.5459 189.086 36.4189 185.959 32.5615 185.959C28.7042 185.959 25.5771 189.086 25.5771 192.944C25.5771 196.801 28.7042 199.928 32.5615 199.928Z" fill="#F2DBAD"/>
<path d="M26.2008 76.953C26.2008 75.3316 24.9536 74.0844 23.3322 74.0844C21.7108 74.0844 20.4636 75.3316 20.4636 76.953C20.4636 78.5744 21.7108 79.8216 23.3322 79.8216C24.9536 79.8216 26.2008 78.5744 26.2008 76.953Z" fill="#F2DBAD"/>
<path d="M331.178 150.335C336.05 143.488 334.449 133.987 327.602 129.115C320.755 124.242 311.254 125.843 306.382 132.691C301.51 139.538 303.11 149.038 309.958 153.911C316.805 158.783 326.306 157.182 331.178 150.335Z" fill="#5173B8"/>
<path d="M244.588 11.7238C247.825 11.7238 250.45 9.09933 250.45 5.86189C250.45 2.62446 247.825 0 244.588 0C241.35 0 238.726 2.62446 238.726 5.86189C238.726 9.09933 241.35 11.7238 244.588 11.7238Z" fill="#5173B8"/>
<path d="M296.721 206.289C298.306 206.289 299.59 205.004 299.59 203.42C299.59 201.836 298.306 200.552 296.721 200.552C295.137 200.552 293.853 201.836 293.853 203.42C293.853 205.004 295.137 206.289 296.721 206.289Z" fill="#5173B8"/>
<path d="M38.6724 76.5789C37.3005 76.5789 36.178 75.4564 36.178 74.0844C36.178 72.7125 37.3005 71.59 38.6724 71.59C40.0443 71.59 41.1668 72.7125 41.1668 74.0844C41.1668 75.4564 40.0443 76.5789 38.6724 76.5789ZM38.6724 71.9642C37.5499 71.9642 36.5521 72.962 36.5521 74.0844C36.5521 75.2069 37.5499 76.2047 38.6724 76.2047C39.7949 76.2047 40.7927 75.2069 40.7927 74.0844C40.7927 72.962 39.7949 71.9642 38.6724 71.9642Z" fill="#6579BB"/>
<path d="M278.012 20.9532C276.641 20.9532 275.518 19.8307 275.518 18.4588C275.518 17.0868 276.641 15.9644 278.012 15.9644C279.384 15.9644 280.507 17.0868 280.507 18.4588C280.632 19.8307 279.384 20.9532 278.012 20.9532ZM278.012 16.3385C276.89 16.3385 275.892 17.3363 275.892 18.4588C275.892 19.5813 276.89 20.579 278.012 20.579C279.135 20.579 280.133 19.5813 280.133 18.4588C280.133 17.2116 279.26 16.3385 278.012 16.3385Z" fill="#6579BB"/>
<path d="M316.427 190.824C315.055 190.824 313.932 189.701 313.932 188.329C313.932 186.957 315.055 185.835 316.427 185.835C317.799 185.835 318.921 186.957 318.921 188.329C318.921 189.701 317.799 190.824 316.427 190.824ZM316.427 186.209C315.304 186.209 314.306 187.207 314.306 188.329C314.306 189.452 315.304 190.449 316.427 190.449C317.549 190.449 318.547 189.452 318.547 188.329C318.547 187.082 317.674 186.209 316.427 186.209Z" fill="#6579BB"/>
<path d="M57.1311 162.886C55.7592 162.886 54.6367 161.763 54.6367 160.392C54.6367 159.02 55.7592 157.897 57.1311 157.897C58.5031 157.897 59.6256 159.02 59.6256 160.392C59.6256 161.763 58.5031 162.886 57.1311 162.886ZM57.1311 158.271C56.0087 158.271 55.0109 159.269 55.0109 160.392C55.0109 161.514 56.0087 162.512 57.1311 162.512C58.2536 162.512 59.2514 161.514 59.2514 160.392C59.2514 159.269 58.2536 158.271 57.1311 158.271Z" fill="#6579BB"/>
<path d="M6.49442 148.294C5.12249 148.294 4 147.171 4 145.799C4 144.427 5.12249 143.305 6.49442 143.305C7.86636 143.305 8.98885 144.427 8.98885 145.799C8.98885 147.171 7.86636 148.294 6.49442 148.294ZM6.49442 143.679C5.37193 143.679 4.37417 144.677 4.37417 145.799C4.37417 146.922 5.37193 147.919 6.49442 147.919C7.61691 147.919 8.61468 146.922 8.61468 145.799C8.48996 144.552 7.61691 143.679 6.49442 143.679Z" fill="#6579BB"/>
<path d="M318.796 70.5922C317.424 70.5922 316.302 69.4697 316.302 68.0978C316.302 66.7259 317.424 65.6034 318.796 65.6034C320.168 65.6034 321.291 66.7259 321.291 68.0978C321.291 69.4697 320.168 70.5922 318.796 70.5922ZM318.796 65.9776C317.674 65.9776 316.676 66.9753 316.676 68.0978C316.676 69.2203 317.674 70.2181 318.796 70.2181C319.919 70.2181 320.917 69.2203 320.917 68.0978C320.917 66.8506 319.919 65.9776 318.796 65.9776Z" fill="#6579BB"/>
<path d="M256.685 43.6525C253.442 31.6792 233.362 35.4209 233.362 35.4209C233.362 35.4209 219.643 56.2493 215.777 56.7482C211.785 57.2471 224.008 36.6681 224.008 36.6681C216.275 35.9198 196.694 45.3986 196.694 45.3986C196.694 45.3986 197.941 69.7192 193.95 69.2203C189.959 68.7214 193.95 47.6435 193.95 47.6435C186.467 49.8885 179.483 58.619 179.483 58.619C170.752 72.8372 189.46 83.1891 189.46 83.1891C189.46 83.1891 189.71 91.6701 184.472 101.274C184.472 101.274 183.349 103.02 182.102 106.138H184.097C184.222 105.639 184.472 105.015 184.596 104.516C184.721 104.142 184.97 103.768 185.22 103.269C185.843 102.022 186.218 101.149 186.467 100.525C188.338 96.659 190.957 91.7948 192.828 90.6723C192.828 90.6723 192.578 90.2982 192.454 89.7993C192.578 90.0487 192.703 90.4229 192.828 90.6723C196.32 98.1556 213.656 99.4028 223.385 97.4073C233.113 95.4118 228.872 92.6679 223.634 88.3026C218.396 83.8127 207.42 85.0599 204.302 83.3138C201.059 81.5677 205.799 79.8216 212.284 80.3205C218.77 80.8194 222.013 87.3049 232.364 88.3026C242.841 89.3004 250.699 69.7192 250.699 69.7192C243.465 71.9642 230.618 67.9731 230.12 65.4787C229.621 62.9842 248.703 63.2337 251.696 62.4854C254.69 61.6123 259.928 55.6257 256.685 43.6525Z" fill="#82B6E7"/>
<path d="M63.6167 44.5255C68.1067 37.4164 80.4541 43.7772 80.4541 43.7772C80.4541 43.7772 85.1935 59.9909 87.6879 61.1134C90.1823 62.2359 86.316 46.3963 86.316 46.3963C91.4296 47.3941 102.405 57.4965 102.405 57.4965C102.405 57.4965 96.7925 73.0866 99.5364 73.5855C102.28 74.0844 103.777 59.492 103.777 59.492C108.142 62.3606 111.011 69.4697 111.011 69.4697C113.879 80.4452 99.6611 83.5632 99.6611 83.5632C99.6611 83.5632 97.7903 89.051 99.287 96.2848C99.287 96.2848 99.6611 97.6567 99.9106 99.9017L98.5386 99.5275C98.5386 99.1534 98.5386 98.7792 98.5386 98.405C98.5386 98.1556 98.4139 97.7814 98.4139 97.4073C98.2892 96.5342 98.1645 95.7859 98.1645 95.4117C97.6656 92.5432 96.9173 88.8015 96.0442 87.8037C96.0442 87.8037 96.2937 87.679 96.5431 87.3049C96.4184 87.4296 96.2937 87.679 96.0442 87.8037C92.3026 91.9195 80.7035 89.3004 74.8416 86.1824C68.9797 82.9396 72.2225 82.0666 76.463 80.1958C80.7035 78.3249 87.5632 81.1935 90.0576 80.6946C92.552 80.1958 89.8082 78.0755 85.4429 77.2024C81.2024 76.2047 77.7102 79.8216 70.7258 78.4496C63.7415 77.0777 62.4942 62.7348 62.4942 62.7348C66.7348 65.6034 75.9641 65.6034 76.7124 64.1067C77.5855 62.6101 64.9887 58.9932 63.2426 57.8707C61.3717 56.6234 59.2515 51.6346 63.6167 44.5255Z" fill="#82B6E7"/>
<path d="M16.4723 180.846C16.3476 180.846 16.2229 180.846 16.0981 180.971C16.2229 180.846 16.3476 180.846 16.4723 180.846Z" fill="#C3D3ED"/>
<path d="M143.438 108.882L137.327 181.594C137.327 181.594 136.704 185.959 139.946 185.959C145.309 185.959 166.761 185.959 166.761 185.959C166.761 185.959 162.646 185.086 162.77 182.966C162.77 180.472 169.879 108.133 169.879 108.133L143.438 108.882Z" fill="#DCB4B2"/>
<path d="M168.507 184.712C167.51 184.712 146.931 184.837 141.692 184.712C139.447 184.712 138.948 182.717 138.948 181.345C138.948 180.721 139.073 180.222 139.073 180.222L139.198 178.351L139.572 173.487L139.946 169.247L140.445 163.759L140.819 159.144L145.185 107.51L171.625 106.761C171.625 106.761 168.632 137.069 166.512 159.144C166.262 161.639 166.013 164.008 165.888 166.129C165.764 166.877 165.764 167.501 165.639 168.124C165.389 170.244 165.265 172.115 165.14 173.861C165.015 174.734 165.015 175.607 164.891 176.356C164.641 179.349 164.516 181.22 164.516 181.594C164.516 181.844 164.516 181.968 164.516 182.218C165.14 184.587 168.133 184.712 168.507 184.712Z" fill="#D0A49A"/>
<path d="M79.207 69.3451L94.0488 129.211L96.0444 137.318L103.029 165.256H231.866L206.298 69.3451H79.207Z" fill="#D0A49A"/>
<path d="M79.2069 69.3451L77.0867 69.9687L100.285 167.251L103.029 165.256L79.2069 69.3451Z" fill="#D0A49A"/>
<path d="M100.285 167.251H228.374L231.866 165.256H103.029L100.285 167.251Z" fill="#DCB4B2"/>
<path d="M145.235 186.014H172.923V184.642H145.235V186.014Z" fill="#D0A49A"/>
<path d="M225.63 147.545L204.677 70.5923H79.4565L79.207 69.3451H206.298L227.126 147.421L225.63 147.545Z" fill="#D590A3"/>
<path d="M165.888 167.251L165.763 168.249L139.697 173.612L140.071 169.247L140.196 167.251H165.888Z" fill="#DCB4B2"/>
<path opacity="0.4" d="M168.507 184.712C167.51 184.712 146.931 184.837 141.692 184.712C139.447 184.712 138.948 182.717 138.948 181.345L164.891 176.481C164.641 179.474 164.516 181.345 164.516 181.719C164.516 181.968 164.516 182.093 164.516 182.342C165.14 184.587 168.133 184.712 168.507 184.712Z" fill="#DCB4B2"/>
<path d="M159.652 145.799L103.029 165.256L96.0444 137.318L159.652 145.799Z" fill="#DCB4B2"/>
<path d="M79.207 69.3451H206.298L227.002 146.423H98.2894L79.207 69.3451Z" fill="url(#paint0_linear)"/>
<path d="M170.877 156.151C170.503 154.28 168.632 152.784 166.761 152.784C164.89 152.784 163.643 154.28 164.017 156.151C164.391 158.022 166.262 159.519 168.133 159.519C170.004 159.519 171.251 158.022 170.877 156.151Z" fill="#DCB4B2"/>
<path d="M220.89 143.055H101.906L88.4364 89.3004L87.4386 85.1846L86.4408 81.6924L84.4453 73.4608H201.808L204.053 81.6924L205.051 85.1846L206.173 89.3004L220.89 143.055Z" fill="#F7D2C2"/>
<path d="M204.053 81.6924H86.4408L84.4453 73.4608H201.808L204.053 81.6924Z" fill="#1D2350"/>
<path d="M89.3096 77.2025C89.1849 76.5789 89.559 76.2047 90.0579 76.2047C90.6815 76.2047 91.1804 76.7036 91.3051 77.2025C91.4298 77.8261 91.0557 78.2002 90.5568 78.2002C90.0579 78.2002 89.4343 77.7014 89.3096 77.2025Z" fill="#DDE6F5"/>
<path d="M92.677 77.2025C92.5523 76.5789 92.9265 76.2047 93.4253 76.2047C94.0489 76.2047 94.5478 76.7036 94.6726 77.2025C94.7973 77.8261 94.4231 78.2002 93.9242 78.2002C93.4253 78.2002 92.8017 77.7014 92.677 77.2025Z" fill="#DDE6F5"/>
<path d="M96.4187 77.2025C96.294 76.5789 96.6682 76.2047 97.167 76.2047C97.6659 76.2047 98.2895 76.7036 98.4143 77.2025C98.539 77.8261 98.1648 78.2002 97.6659 78.2002C97.167 78.2002 96.5434 77.7014 96.4187 77.2025Z" fill="#DDE6F5"/>
<path d="M194.699 138.316H106.521L93.1758 85.5589H180.106L194.699 138.316Z" fill="#82B6E7"/>
<path d="M206.173 97.9063H186.093L182.476 85.5589H202.681L206.173 97.9063Z" fill="#653C97"/>
<path d="M152.169 90.7971H140.819L140.321 88.9263H151.795L152.169 90.7971Z" fill="#DCB4B2"/>
<path d="M172.499 90.7971H153.79L153.292 88.9263H172L172.499 90.7971Z" fill="#D0A49A"/>
<path d="M154.165 95.5365H133.835L133.336 93.7904H153.666L154.165 95.5365Z" fill="#D0A49A"/>
<path d="M166.512 95.5365H155.911L155.536 93.7904H166.013L166.512 95.5365Z" fill="#D590A3"/>
<path d="M155.661 103.643H144.187L143.688 101.897H155.163L155.661 103.643Z" fill="#D2A0D2"/>
<path d="M175.991 103.643H157.283L156.784 101.897H175.492L175.991 103.643Z" fill="#D0A49A"/>
<path d="M157.532 108.383H137.327L136.828 106.637H157.158L157.532 108.383Z" fill="#EDEDED"/>
<path d="M169.879 108.383H159.403L158.904 106.637H169.38L169.879 108.383Z" fill="#EDEDED"/>
<path d="M145.309 115.741H106.646L106.147 113.995H144.811L145.309 115.741Z" fill="#DCB4B2"/>
<path d="M159.153 115.741H147.804L147.305 113.995H158.779L159.153 115.741Z" fill="#D2A0D2"/>
<path d="M179.483 115.741H160.775L160.276 113.995H178.984L179.483 115.741Z" fill="#D0A49A"/>
<path d="M119.367 120.481H107.893L107.394 118.735H118.868L119.367 120.481Z" fill="#EDEDED"/>
<path d="M161.149 120.481H140.819L140.321 118.735H160.65L161.149 120.481Z" fill="#D590A3"/>
<path d="M139.572 120.481H120.864L120.365 118.735H139.073L139.572 120.481Z" fill="#D0A49A"/>
<path d="M173.496 120.481H162.895L162.521 118.735H172.997L173.496 120.481Z" fill="#D0A49A"/>
<path d="M149.674 128.837H111.011L110.512 127.091H149.176L149.674 128.837Z" fill="#DCB4B2"/>
<path d="M163.643 128.837H152.169L151.67 127.091H163.144L163.643 128.837Z" fill="#D2A0D2"/>
<path d="M123.733 133.701H112.258L111.759 131.83H123.234L123.733 133.701Z" fill="#EDEDED"/>
<path d="M165.514 133.701H145.184L144.81 131.83H165.015L165.514 133.701Z" fill="#D590A3"/>
<path d="M143.937 133.701H125.229L124.855 131.83H143.563L143.937 133.701Z" fill="#D0A49A"/>
<path d="M177.861 133.701H167.385L166.886 131.83H177.363L177.861 133.701Z" fill="#D0A49A"/>
<path d="M196.195 101.648H187.34L187.215 100.9H195.946L196.195 101.648Z" fill="#EDEDED"/>
<path d="M200.81 101.648H197.443L197.318 100.9H200.561L200.81 101.648Z" fill="#EDEDED"/>
<path d="M207.545 101.648H201.683L201.434 100.899L207.296 100.775L207.545 101.648Z" fill="#EDEDED"/>
<path d="M192.703 103.643L187.839 103.768L187.714 102.895H192.454L192.703 103.643Z" fill="#EDEDED"/>
<path d="M199.687 103.643H193.451L193.327 102.895H199.563L199.687 103.643Z" fill="#EDEDED"/>
<path d="M208.044 103.643H200.81L200.685 102.895H207.794L208.044 103.643Z" fill="#EDEDED"/>
<path d="M197.193 106.013H188.463L188.213 105.265L197.069 105.14L197.193 106.013Z" fill="#EDEDED"/>
<path d="M201.808 106.013H198.565L198.316 105.14H201.683L201.808 106.013Z" fill="#EDEDED"/>
<path d="M208.543 105.888L202.681 106.013L202.556 105.14H208.418L208.543 105.888Z" fill="#EDEDED"/>
<path d="M193.701 108.009H188.962L188.712 107.26H193.576L193.701 108.009Z" fill="#EDEDED"/>
<path d="M200.81 108.009H194.574L194.325 107.26L200.561 107.136L200.81 108.009Z" fill="#EDEDED"/>
<path d="M209.042 108.009H201.933L201.683 107.136H208.917L209.042 108.009Z" fill="#EDEDED"/>
<path d="M190.334 87.3049H184.971V86.806H190.209L190.334 87.3049Z" fill="#EDEDED"/>
<path d="M193.078 87.3049H191.082L190.957 86.806H192.953L193.078 87.3049Z" fill="#EDEDED"/>
<path d="M197.193 87.3049H193.576V86.806H197.069L197.193 87.3049Z" fill="#EDEDED"/>
<path d="M188.214 88.5521H185.345L185.22 88.0532H188.089L188.214 88.5521Z" fill="#EDEDED"/>
<path d="M192.454 88.5521H188.712L188.588 88.0532H192.329L192.454 88.5521Z" fill="#EDEDED"/>
<path d="M197.443 88.5521H193.202L193.077 88.0532H197.318L197.443 88.5521Z" fill="#EDEDED"/>
<path d="M190.957 89.9241H185.719L185.594 89.4252H190.833L190.957 89.9241Z" fill="#EDEDED"/>
<path d="M193.701 89.924H191.706V89.4251H193.577L193.701 89.924Z" fill="#EDEDED"/>
<path d="M197.817 89.924H194.325L194.2 89.4251H197.692L197.817 89.924Z" fill="#EDEDED"/>
<path d="M188.837 91.1713H185.968L185.844 90.6724H188.712L188.837 91.1713Z" fill="#EDEDED"/>
<path d="M193.078 91.1713H189.336L189.211 90.6724H192.953L193.078 91.1713Z" fill="#EDEDED"/>
<path d="M198.066 91.1713H193.826L193.701 90.6724H197.942L198.066 91.1713Z" fill="#EDEDED"/>
<path d="M199.064 113.372H190.209L190.084 112.623L198.815 112.499L199.064 113.372Z" fill="#EDEDED"/>
<path d="M203.679 113.372H200.311L200.187 112.499H203.429L203.679 113.372Z" fill="#EDEDED"/>
<path d="M210.413 113.372H204.551L204.302 112.499H210.164L210.413 113.372Z" fill="#EDEDED"/>
<path d="M195.572 115.367H190.707L190.583 114.619H195.322L195.572 115.367Z" fill="#EDEDED"/>
<path d="M202.556 115.367H196.32L196.195 114.619H202.431L202.556 115.367Z" fill="#EDEDED"/>
<path d="M210.912 115.367H203.679L203.554 114.619L210.663 114.494L210.912 115.367Z" fill="#EDEDED"/>
<path d="M200.81 120.605H191.955L191.83 119.857L200.561 119.732L200.81 120.605Z" fill="#EDEDED"/>
<path d="M205.425 120.605H202.058L201.933 119.732H205.176L205.425 120.605Z" fill="#EDEDED"/>
<path d="M212.16 120.605H206.298L206.049 119.732H211.911L212.16 120.605Z" fill="#EDEDED"/>
<path d="M197.318 122.601H192.454L192.329 121.853H197.069L197.318 122.601Z" fill="#EDEDED"/>
<path d="M204.302 122.601H198.066L197.942 121.853L204.178 121.728L204.302 122.601Z" fill="#EDEDED"/>
<path d="M212.659 122.601H205.425L205.3 121.728H212.409L212.659 122.601Z" fill="#EDEDED"/>
<path d="M202.432 127.091H193.576L193.327 126.343H202.182L202.432 127.091Z" fill="#EDEDED"/>
<path d="M207.046 127.091H203.679L203.554 126.343L206.797 126.218L207.046 127.091Z" fill="#EDEDED"/>
<path d="M213.657 127.091H207.919L207.67 126.218H213.532L213.657 127.091Z" fill="#EDEDED"/>
<path d="M198.94 129.087H194.075L193.826 128.338H198.69L198.94 129.087Z" fill="#EDEDED"/>
<path d="M205.924 129.087H199.688L199.438 128.338H205.674L205.924 129.087Z" fill="#EDEDED"/>
<path d="M214.155 129.087H207.046L206.922 128.338L214.031 128.214L214.155 129.087Z" fill="#EDEDED"/>
<path d="M206.548 136.819C205.176 136.819 203.679 135.697 203.18 134.2C202.806 132.828 203.554 131.581 205.051 131.581C206.423 131.581 207.919 132.703 208.418 134.2C208.793 135.572 207.919 136.819 206.548 136.819ZM205.176 132.08C204.053 132.08 203.305 133.078 203.679 134.2C204.053 135.323 205.176 136.32 206.423 136.32C207.545 136.32 208.294 135.323 207.919 134.2C207.545 133.078 206.298 132.08 205.176 132.08Z" fill="#82B6E7"/>
<path d="M206.048 135.572C205.924 135.572 205.799 135.572 205.799 135.447L204.302 134.325C204.053 134.2 204.053 133.951 204.178 133.826C204.302 133.701 204.552 133.701 204.677 133.826L205.674 134.699L206.173 133.452C206.298 133.327 206.423 133.202 206.672 133.327C206.922 133.452 207.046 133.701 206.921 133.826L206.298 135.447C206.298 135.447 206.298 135.447 206.048 135.572C206.173 135.572 206.173 135.572 206.048 135.572Z" fill="#82B6E7"/>
<path d="M213.532 136.819C212.16 136.819 210.663 135.697 210.164 134.2C209.79 132.828 210.538 131.581 212.035 131.581C213.407 131.581 214.904 132.703 215.403 134.2C215.777 135.572 215.028 136.819 213.532 136.819ZM212.284 132.08C211.162 132.08 210.414 133.078 210.788 134.2C211.162 135.323 212.284 136.32 213.532 136.32C214.654 136.32 215.402 135.323 215.028 134.2C214.654 133.078 213.407 132.08 212.284 132.08Z" fill="#D590A3"/>
<path d="M212.908 134.574C212.659 134.574 212.534 134.45 212.409 134.2L212.035 133.078C212.035 132.828 212.035 132.703 212.284 132.703C212.534 132.703 212.659 132.828 212.783 133.078L213.157 134.2C213.282 134.45 213.157 134.574 212.908 134.574Z" fill="#D590A3"/>
<path d="M213.282 135.447C213.033 135.447 212.783 135.323 212.783 135.073C212.783 134.948 212.783 134.699 213.033 134.699H213.157C213.282 134.699 213.532 134.824 213.532 135.073C213.532 135.323 213.407 135.447 213.282 135.447Z" fill="#D590A3"/>
<path d="M198.69 96.659C197.941 96.659 197.068 96.0354 196.819 95.2871C196.569 94.5388 197.068 93.9152 197.817 93.9152C198.565 93.9152 199.438 94.5388 199.687 95.2871C199.812 96.0354 199.438 96.659 198.69 96.659ZM197.941 94.1646C197.318 94.1646 196.944 94.6635 197.068 95.2871C197.193 95.9107 197.941 96.4096 198.565 96.4096C199.189 96.4096 199.563 95.9107 199.438 95.2871C199.189 94.6635 198.565 94.1646 197.941 94.1646Z" fill="#CFDBF0"/>
<path d="M198.44 96.0355C198.44 96.0355 198.316 96.0355 198.316 95.9108L197.567 95.2872C197.443 95.1624 197.443 95.0377 197.443 95.0377C197.443 94.913 197.692 94.913 197.692 95.0377L198.191 95.5366L198.44 94.913C198.44 94.7883 198.565 94.7883 198.69 94.913C198.815 95.0377 198.815 95.1624 198.815 95.1624L198.44 96.0355C198.44 96.0355 198.565 95.9108 198.44 96.0355Z" fill="#CFDBF0"/>
<path d="M194.574 96.659C193.826 96.659 192.953 96.0354 192.703 95.2871C192.454 94.5388 192.953 93.9152 193.701 93.9152C194.449 93.9152 195.322 94.5388 195.572 95.2871C195.821 96.0354 195.322 96.659 194.574 96.659ZM193.826 94.1646C193.202 94.1646 192.828 94.6635 192.953 95.2871C193.077 95.9107 193.826 96.4096 194.449 96.4096C195.073 96.4096 195.447 95.9107 195.322 95.2871C195.198 94.6635 194.449 94.1646 193.826 94.1646Z" fill="#CFDBF0"/>
<path d="M194.325 96.0355C194.325 96.0355 194.2 96.0355 194.2 95.9108L193.452 95.2872C193.327 95.1624 193.327 95.0377 193.327 95.0377C193.327 94.913 193.576 94.913 193.576 95.0377L194.075 95.5366L194.325 94.913C194.325 94.7883 194.449 94.7883 194.574 94.913C194.699 95.0377 194.699 95.1624 194.699 95.1624L194.325 96.0355C194.449 96.0355 194.574 95.9108 194.325 96.0355C194.449 96.0355 194.449 96.0355 194.325 96.0355Z" fill="#CFDBF0"/>
<path d="M190.458 96.659C189.71 96.659 188.837 96.0354 188.587 95.287C188.338 94.5387 188.837 93.9151 189.585 93.9151C190.333 93.9151 191.206 94.5387 191.456 95.287C191.705 96.0354 191.206 96.659 190.458 96.659ZM189.71 94.1645C189.086 94.1645 188.712 94.6634 188.837 95.287C188.961 95.9106 189.71 96.4095 190.333 96.4095C190.957 96.4095 191.331 95.9106 191.206 95.287C190.957 94.6634 190.333 94.1645 189.71 94.1645Z" fill="#CFDBF0"/>
<path d="M190.209 96.0354C190.209 96.0354 190.084 96.0354 190.084 95.9107L189.336 95.2871C189.211 95.1624 189.211 95.0377 189.211 95.0377C189.211 94.9129 189.46 94.9129 189.46 95.0377L189.959 95.5365L190.209 94.9129C190.209 94.7882 190.333 94.7882 190.458 94.9129C190.583 95.0377 190.583 95.1624 190.583 95.1624L190.209 96.0354C190.333 96.0354 190.333 95.9107 190.209 96.0354Z" fill="#CFDBF0"/>
<path d="M202.556 96.659C201.808 96.659 200.935 96.0354 200.685 95.2871C200.436 94.5388 200.935 93.9152 201.683 93.9152C202.432 93.9152 203.305 94.5388 203.554 95.2871C203.679 96.0354 203.305 96.659 202.556 96.659ZM201.808 94.1646C201.184 94.1646 200.81 94.6635 200.935 95.2871C201.06 95.9107 201.808 96.4096 202.432 96.4096C203.055 96.4096 203.429 95.9107 203.305 95.2871C203.055 94.6635 202.432 94.1646 201.808 94.1646Z" fill="#D590A3"/>
<path d="M202.182 95.5366C202.057 95.5366 201.933 95.4118 201.933 95.2871L201.808 94.6635C201.808 94.5388 201.808 94.4141 201.933 94.4141C202.057 94.4141 202.182 94.5388 202.182 94.6635L202.307 95.2871C202.307 95.4118 202.307 95.5366 202.182 95.5366Z" fill="#D590A3"/>
<path d="M202.307 96.0354C202.182 96.0354 202.058 95.9107 202.058 95.9107C202.058 95.7859 202.058 95.7859 202.182 95.7859C202.307 95.7859 202.432 95.9107 202.432 95.9107C202.432 95.9107 202.432 96.0354 202.307 96.0354Z" fill="#D590A3"/>
<path d="M67.1088 135.572C67.1088 135.572 69.2291 136.071 70.601 135.697C71.973 135.323 74.2179 135.946 74.5921 136.445C74.9662 136.944 74.8415 137.193 74.2179 137.318C73.5943 137.443 71.2246 138.441 69.6032 137.942C68.1066 137.318 65.9863 137.318 65.9863 137.318L67.1088 135.572Z" fill="#F69D9A"/>
<path d="M48.8994 117.238C48.8994 117.238 51.2691 134.2 55.2602 135.697C57.2557 136.445 65.7367 138.191 68.3559 138.316C68.3559 138.316 68.9795 137.817 68.8548 135.697C68.8548 135.697 59.8749 132.329 58.6277 130.583C56.7568 127.964 59.7501 119.608 57.3804 117.113C54.886 114.619 50.7702 113.621 48.8994 117.238Z" fill="#A78DBA"/>
<path d="M50.7706 184.338C51.6436 184.338 52.3919 183.59 52.3919 182.717V157.149C52.3919 156.276 51.6436 155.527 50.7706 155.527C49.8975 155.527 49.1492 156.276 49.1492 157.149V182.717C49.1492 183.59 49.8975 184.338 50.7706 184.338Z" fill="#F7D2C2"/>
<path d="M40.6682 186.209C41.7907 183.964 45.9065 182.342 50.7706 182.342C55.7595 182.342 59.8753 183.964 60.873 186.209H40.6682Z" fill="#F7D2C2"/>
<path d="M43.6612 178.725H58.0041C58.3783 178.725 58.6277 178.476 58.6277 178.102C58.6277 177.728 58.3783 177.478 58.0041 177.478H43.6612C43.287 177.478 43.0376 177.728 43.0376 178.102C43.0376 178.476 43.287 178.725 43.6612 178.725Z" fill="#F7D2C2"/>
<path d="M49.6478 152.908C50.3962 154.031 51.1445 155.153 52.0176 156.276C54.6367 159.518 57.3806 162.138 57.8794 164.632C58.0042 165.131 58.1289 165.63 58.3783 166.253C58.6278 166.877 58.8772 167.376 59.1267 168.124C60.2491 170.494 61.8705 173.113 63.4919 175.483C66.2358 179.598 68.9796 183.091 68.9796 183.091L73.8438 182.841C73.5943 182.342 71.5988 176.605 68.7302 169.621C67.6077 166.752 66.3605 163.759 65.238 160.89C65.1133 160.516 64.8638 160.142 64.7391 159.768C64.3649 158.895 63.9908 158.022 63.7414 157.149C61.1222 150.538 59.0019 145.3 59.0019 145.3C59.0019 145.3 48.4006 141.309 47.2781 143.928C46.0309 145.924 46.7793 148.044 49.6478 152.908Z" fill="#1E2553"/>
<path d="M68.855 182.093C68.855 182.093 69.1044 186.084 69.8527 186.084C69.9775 186.084 73.7191 186.084 73.7191 186.084H78.5832C78.5832 186.084 78.5832 184.962 77.0865 184.712C75.7146 184.463 73.3449 183.465 72.4719 181.594C71.7236 179.599 68.855 182.093 68.855 182.093Z" fill="#1E2553"/>
<path d="M57.755 170.743C57.755 170.743 54.3875 172.864 54.7617 173.612C54.7617 173.737 56.6325 176.979 56.6325 176.979L59.0022 181.22C59.0022 181.22 60 180.596 59.5011 179.224C59.0022 177.853 58.7528 175.358 60 173.612C61.2472 171.991 57.755 170.743 57.755 170.743Z" fill="#1E2553"/>
<path d="M62.4943 143.429C62.4943 143.429 75.59 151.536 77.0866 157.149C78.5833 162.761 59.3762 174.61 59.3762 174.61C59.3762 174.61 57.256 172.739 56.8818 171.367C56.8818 171.367 65.4876 161.015 67.3584 158.645C68.4809 157.273 50.2716 153.657 48.0266 150.289C45.7816 146.797 46.6547 143.928 46.6547 143.928L62.4943 143.429Z" fill="#374079"/>
<path d="M39.9196 161.389H61.6211C63.6166 161.389 65.3627 159.768 65.3627 157.648C65.3627 155.652 63.7414 153.906 61.6211 153.906H39.9196C37.9241 153.906 36.178 155.527 36.178 157.648C36.178 159.643 37.9241 161.389 39.9196 161.389Z" fill="#DCB4B2"/>
<path d="M56.1335 114.369C57.3807 115.118 58.129 116.24 58.129 116.24C54.8863 117.113 49.6479 114.12 49.6479 114.12C49.6479 114.12 51.6435 112.748 52.5166 109.755C52.5166 109.63 52.6413 109.505 52.6413 109.256C52.766 108.757 52.766 108.133 52.766 107.634L54.2626 108.882L56.6323 111.002C56.6323 111.002 56.6324 111.875 56.2582 113.496C56.2582 113.746 56.1335 113.995 56.1335 114.369Z" fill="#F69D9A"/>
<path d="M46.2806 129.336C46.7795 135.447 46.1559 144.801 46.6548 146.423C47.1536 147.795 52.1425 147.046 54.2628 146.547C55.0111 146.423 55.8841 146.173 56.8819 145.799C59.5011 144.926 62.3697 143.804 62.6191 142.931V142.806C62.6191 142.681 62.6191 142.556 62.6191 142.432C62.4944 141.933 62.1202 141.559 62.1202 140.436C62.1202 139.189 62.1202 137.817 61.9955 136.32C61.9955 136.196 61.9955 135.946 61.9955 135.821V135.697V135.572C61.9955 133.826 61.8708 132.08 61.746 130.334C61.6213 129.211 61.6213 128.089 61.4966 127.091C61.2471 124.347 60.9977 121.853 60.4988 120.356C59.8752 117.862 58.3786 116.24 57.0066 114.993L56.0089 114.12C54.8864 114.369 53.6392 114.245 52.5167 113.621C51.2695 112.997 50.8953 112.623 50.6459 112.748C47.902 114.993 45.7817 121.853 46.2806 129.336Z" fill="#D4BBDC"/>
<path d="M56.882 145.799C59.5011 144.926 62.3697 143.804 62.6192 142.931V142.806C62.6192 142.681 62.6192 142.556 62.6192 142.432C62.4944 141.933 62.1203 141.559 62.1203 140.436C62.1203 139.189 62.1203 137.817 61.9956 136.32C61.9956 136.196 61.9956 135.946 61.9956 135.821V135.697V135.572L52.1426 131.082C52.1426 131.207 51.519 139.189 56.882 145.799Z" fill="#A78DBA"/>
<path d="M56.6323 111.002C56.6323 111.002 56.6323 111.875 56.2582 113.496C53.8885 112.748 52.766 110.628 52.3918 109.63C52.2671 109.381 52.2671 109.256 52.2671 109.256C52.2671 109.256 52.3918 109.256 52.5165 109.256C52.8907 109.131 53.5143 109.006 54.1379 108.882L56.6323 111.002Z" fill="#FFB1AF"/>
<path d="M57.6301 111.002C57.6301 111.002 52.3918 111.626 52.1423 108.383C51.7682 105.14 50.8951 103.02 54.2626 102.521C57.6301 102.022 58.3784 103.144 58.7526 104.267C59.002 105.265 59.002 110.752 57.6301 111.002Z" fill="#F69D9A"/>
<path d="M52.1423 108.507C52.1423 108.507 52.5165 104.142 57.2559 103.768C60.4986 103.519 58.7525 100.65 58.3784 100.276C58.3784 100.276 55.8839 100.65 53.3895 101.024C47.9018 101.897 51.6434 107.884 52.1423 108.507Z" fill="#1E2553"/>
<path d="M77.2958 139.806L77.7703 139.96L81.6614 127.979L81.1869 127.825L77.2958 139.806Z" fill="#82B6E7"/>
<path d="M64.5979 139.743L77.8157 140.025L77.8317 139.277L64.6138 138.995L64.5979 139.743Z" fill="#82B6E7"/>
<path d="M66.1112 138.191C66.1112 138.191 68.1068 138.939 69.4787 138.69C70.8506 138.441 73.0956 139.314 73.4698 139.937C73.8439 140.436 73.5945 140.686 72.9709 140.686C72.3473 140.81 69.8528 141.559 68.3562 140.81C66.8595 140.062 64.864 139.812 64.864 139.812L66.1112 138.191Z" fill="#F69D9A"/>
<path d="M49.8975 117.862C49.8975 117.862 50.3963 134.948 54.138 136.819C56.0088 137.817 64.3651 140.436 66.8595 140.81C66.8595 140.81 67.4832 140.436 67.6079 138.316C67.6079 138.316 59.0021 134.075 58.0043 132.08C56.383 129.211 60.3741 121.354 58.2538 118.61C56.1335 115.991 52.2672 114.494 49.8975 117.862Z" fill="#D4BBDC"/>
<path d="M192.329 185.71C192.329 185.71 192.579 184.213 192.953 183.34C193.452 182.467 196.195 182.966 196.195 182.966C196.195 182.966 196.819 183.465 196.819 185.71H192.329Z" fill="#40497B"/>
<path d="M182.726 185.585C183.349 185.211 182.975 182.218 182.975 182.218C182.975 182.218 179.857 179.723 179.483 181.594C179.109 183.465 176.489 184.338 175.118 184.587C174.12 184.712 173.87 185.336 173.746 185.585H182.726Z" fill="#40497B"/>
<path d="M189.086 163.634C188.962 164.383 188.837 164.882 188.837 165.256C188.587 170.868 184.097 183.714 183.349 183.964C182.102 184.463 180.231 183.465 179.233 183.091C178.859 182.966 178.485 182.592 178.61 182.093C180.855 171.991 181.603 157.523 181.852 148.917C181.977 144.552 182.725 141.559 182.725 141.559C182.725 141.559 193.576 138.69 193.576 142.307C193.701 145.675 190.084 158.396 189.086 163.634Z" fill="#82B6E7"/>
<path d="M189.086 163.634L181.853 149.042C181.977 144.677 182.726 141.683 182.726 141.683C182.726 141.683 193.576 138.815 193.576 142.432C193.701 145.674 190.084 158.396 189.086 163.634Z" fill="#1D2350"/>
<path d="M186.717 142.556L192.454 183.964C192.454 183.964 194.948 184.587 196.944 184.089C196.944 184.089 198.565 162.138 198.441 156.775C198.316 151.412 199.688 142.556 198.191 141.559C196.57 140.436 186.717 142.556 186.717 142.556Z" fill="#82B6E7"/>
<path d="M198.565 131.83L199.313 141.808C199.313 142.182 199.064 142.556 198.69 142.681C197.941 142.931 196.944 143.055 195.197 143.429C193.576 143.804 191.331 144.053 188.587 144.053C184.222 144.053 182.601 142.556 182.601 142.556C182.351 142.556 182.725 141.683 182.975 137.318C183.099 135.821 183.099 133.951 183.224 131.581C183.224 129.461 183.349 126.966 183.349 123.973C183.349 120.356 188.961 116.49 189.086 116.49C189.086 116.989 189.959 117.986 191.206 117.986C192.703 118.111 194.574 117.363 194.574 116.49C194.574 116.49 197.318 120.855 198.191 125.47C198.315 126.093 198.44 126.717 198.44 127.34C198.44 127.465 198.44 127.59 198.44 127.715C198.44 127.715 198.44 127.715 198.44 127.839C198.44 127.964 198.44 128.089 198.44 128.213V128.338C198.44 128.463 198.44 128.588 198.44 128.588C198.44 128.712 198.44 128.712 198.44 128.837V128.962C198.44 129.086 198.44 129.086 198.44 129.211V129.336C198.44 129.461 198.44 129.461 198.44 129.585V129.71C198.44 129.835 198.44 129.96 198.44 130.084C198.44 130.209 198.44 130.334 198.44 130.458C198.44 130.458 198.44 130.458 198.44 130.583C198.44 130.708 198.44 130.833 198.44 130.957C198.565 131.331 198.565 131.581 198.565 131.83Z" fill="#D2A0D2"/>
<path d="M188.837 116.49C188.837 116.49 183.599 116.49 182.351 118.236C181.104 119.982 178.36 129.461 179.857 132.579C181.229 135.697 183.973 131.331 185.469 129.336C186.966 127.34 188.837 116.49 188.837 116.49Z" fill="#D2A0D2"/>
<path d="M188.837 115.741V116.24C188.837 116.24 188.712 117.862 190.708 118.111C192.828 118.36 194.325 117.487 194.325 116.116C194.2 115.118 193.951 114.369 193.951 113.621C193.951 113.372 193.951 112.997 194.075 112.623L190.084 112.499L188.962 112.748L188.837 115.741Z" fill="#F9B8B7"/>
<path d="M188.837 112.748V115.617C189.211 115.866 189.71 115.991 190.334 115.991C192.204 115.991 193.327 114.619 193.95 113.621C193.95 113.372 193.95 112.997 194.075 112.623L190.084 112.499L188.837 112.748Z" fill="#F69693"/>
<path d="M194.325 112C193.826 114.494 190.583 114.369 189.211 114.245C188.837 114.245 188.588 114.12 188.588 114.12C188.089 113.995 187.839 113.247 187.839 112.374C187.59 110.628 187.839 107.884 188.213 107.26C188.712 106.263 189.585 105.14 192.828 105.888C195.946 106.761 194.948 108.882 194.325 112Z" fill="#F9B8B7"/>
<path d="M183.599 123.474C183.599 123.474 181.603 127.964 181.603 129.211C181.603 129.211 182.601 129.211 183.599 129.461C185.095 129.96 183.599 123.474 183.599 123.474Z" fill="#A78DBA"/>
<path d="M187.091 105.015C187.091 105.015 188.463 104.891 190.209 104.142C191.581 103.519 193.327 104.142 193.826 104.516C193.826 104.392 193.826 104.267 193.701 104.142C193.701 104.142 193.95 104.267 193.95 104.516C193.95 104.516 194.2 104.516 194.449 104.516C194.449 104.516 194.324 104.516 194.324 104.641C196.445 105.639 196.694 109.006 195.946 109.879C195.073 110.877 194.075 112.873 194.075 112.873C194.075 112.873 193.701 112.374 193.826 111.501C193.95 110.628 193.202 110.628 192.329 110.254C191.456 109.879 192.204 108.882 191.331 108.133C190.583 107.51 187.589 107.884 187.714 107.385C186.841 107.26 187.091 105.015 187.091 105.015Z" fill="#40497B"/>
<path d="M194.948 131.83C194.075 135.198 184.971 136.944 182.85 137.318C182.975 135.822 182.975 133.951 183.1 131.581L194.948 131.83Z" fill="#A78DBA"/>
<path d="M192.953 132.953C193.077 132.953 194.948 132.703 195.322 132.454C195.697 132.329 197.318 129.96 196.195 129.461C195.198 128.837 192.329 131.207 192.329 131.207L192.953 132.953Z" fill="#F9B8B7"/>
<path d="M181.104 133.576C181.104 133.576 188.588 133.951 193.701 132.953C193.701 132.953 193.826 131.456 192.204 130.833C192.204 130.833 184.347 129.211 182.476 129.585C180.605 130.084 181.104 133.576 181.104 133.576Z" fill="#D2A0D2"/>
<path d="M198.441 127.715C196.819 129.585 194.824 131.082 192.579 131.456C192.579 131.456 191.955 130.458 192.08 128.962C192.08 128.338 192.329 127.465 192.953 126.592C193.078 126.343 193.327 126.093 193.452 125.719C194.699 122.601 194.449 116.49 194.449 116.49C194.449 116.49 199.688 116.989 201.309 119.358C202.182 120.855 200.81 124.721 198.441 127.715Z" fill="#D2A0D2"/>
<path d="M189.211 114.245C188.837 114.245 188.587 114.12 188.587 114.12C188.089 113.995 187.839 113.247 187.839 112.374C188.712 112.623 189.086 113.247 189.211 113.496C189.211 113.746 189.211 113.995 189.211 114.245Z" fill="#F69693"/>
<path d="M187.091 115.741C187.091 115.741 185.345 112.748 186.717 112.623C188.089 112.499 188.712 113.496 188.837 113.746C189.086 114.12 188.837 115.617 188.837 115.617L187.091 115.741Z" fill="#F9B8B7"/>
<path d="M193.951 128.837C193.951 129.211 193.826 129.585 193.701 129.835C193.202 130.833 192.579 131.456 192.579 131.456C187.839 129.336 186.966 122.102 186.842 118.111C186.717 116.49 186.842 115.492 186.842 115.492C188.962 114.744 189.585 115.991 189.585 115.991C189.585 115.991 192.08 121.977 193.327 125.844C193.701 127.216 194.075 128.338 193.951 128.837Z" fill="#D2A0D2"/>
<path d="M198.44 127.715C196.819 129.585 194.823 131.082 192.578 131.456C187.839 129.336 186.966 122.102 186.841 118.111C186.841 118.111 189.086 126.093 192.08 128.962C192.578 129.461 193.202 129.835 193.826 129.835C193.701 129.835 197.443 128.837 198.44 127.715C198.316 127.715 198.316 127.715 198.44 127.715Z" fill="#A78DBA"/>
<path d="M275.643 178.85C276.516 182.218 283.251 184.338 290.734 185.46H318.297C324.908 182.218 324.908 178.351 325.407 167.625C326.529 145.55 314.805 134.824 309.692 136.57C309.442 136.694 309.317 136.694 309.068 136.819C307.571 137.443 305.825 138.441 304.204 141.06C304.204 141.06 299.09 149.665 294.85 154.779C293.478 156.4 292.231 157.772 291.233 158.271C291.233 158.271 291.108 158.271 291.108 158.396C288.863 159.394 285.745 161.639 282.752 164.258C278.262 168.498 274.396 173.986 275.643 178.85Z" fill="#D0A49A"/>
<path d="M282.752 164.258C286.618 165.505 306.449 171.242 311.188 165.131C314.556 160.766 312.435 149.416 310.565 142.057C309.816 139.064 305.95 138.441 304.328 140.935C304.328 140.935 304.328 140.935 304.328 141.06C304.328 141.06 299.215 149.665 294.974 154.779C293.727 156.4 292.48 157.648 291.357 158.271C291.357 158.271 291.233 158.271 291.233 158.396C288.738 159.394 285.62 161.514 282.752 164.258Z" fill="#DCB4B2"/>
<path d="M297.469 136.32C297.469 136.32 296.097 138.316 295.349 142.681C294.6 146.423 294.101 147.795 293.104 148.543C292.106 149.291 286.618 151.536 286.618 151.536L286.992 152.534C286.992 152.534 295.099 151.412 295.972 150.04C296.845 148.668 300.337 140.685 300.088 138.815C299.839 137.069 297.469 136.32 297.469 136.32Z" fill="#F7A7A5"/>
<path d="M277.639 181.095C277.763 181.844 276.641 182.093 275.394 182.093C274.146 182.218 274.521 182.467 272.774 182.717C271.028 183.091 270.28 182.592 270.155 182.342C270.031 182.093 270.904 181.844 271.777 181.469C271.901 181.469 272.026 181.345 272.151 181.345C273.149 180.971 273.647 180.097 274.396 179.224C275.144 178.476 275.768 175.982 275.768 175.982L278.137 175.483C278.137 175.483 277.514 177.728 277.264 178.601C277.14 179.1 277.389 179.723 277.514 180.222C277.514 180.596 277.639 180.846 277.639 181.095Z" fill="#F9B8B7"/>
<path d="M275.269 182.218C274.021 182.342 274.396 182.592 272.649 182.841C270.903 183.216 270.155 182.717 270.03 182.467C269.906 182.218 270.779 181.968 271.652 181.594C271.652 181.594 272.899 181.968 274.271 181.594C275.393 181.22 276.516 180.596 277.389 180.347C277.514 180.596 277.638 180.846 277.638 181.095C277.763 181.968 276.64 182.093 275.269 182.218Z" fill="#1E2553"/>
<path d="M301.335 152.908C301.335 152.908 285.496 151.661 282.503 153.656C279.509 155.527 274.77 177.353 274.77 177.353C274.77 177.353 275.019 177.603 275.768 177.603C276.391 177.728 277.763 177.353 277.763 177.353C277.763 177.353 284.623 167.625 285.122 165.131C285.621 162.636 285.496 160.516 286.618 160.391C287.741 160.391 301.46 162.013 303.456 158.396C305.576 154.779 303.83 151.162 303.83 151.162L301.335 152.908Z" fill="#1E2553"/>
<path d="M283.625 183.714C283.75 184.463 282.627 184.712 281.38 184.712C280.133 184.837 280.507 185.086 278.761 185.336C277.015 185.71 276.267 185.211 276.142 184.962C276.017 184.712 276.89 184.463 277.763 184.089C277.888 184.089 278.013 183.964 278.137 183.964C279.135 183.59 279.634 182.717 280.382 181.844C281.131 181.095 281.754 178.601 281.754 178.601L284.124 178.102C284.124 178.102 283.5 180.347 283.251 181.22C283.126 181.719 283.376 182.342 283.5 182.841C283.5 183.091 283.625 183.34 283.625 183.714Z" fill="#F9B8B7"/>
<path d="M281.38 184.712C280.133 184.837 280.507 185.086 278.761 185.336C277.015 185.71 276.266 185.211 276.142 184.962C276.017 184.712 276.89 184.463 277.763 184.089C277.763 184.089 279.01 184.463 280.382 184.089C281.505 183.714 282.627 183.091 283.5 182.841C283.625 183.091 283.75 183.34 283.75 183.59C283.75 184.463 282.627 184.587 281.38 184.712Z" fill="#1E2553"/>
<path d="M304.453 153.906C304.453 153.906 290.36 154.53 287.491 156.525C284.623 158.521 280.632 180.596 280.632 180.596C280.632 180.596 280.881 180.846 281.629 180.846C282.253 180.846 283.625 180.472 283.625 180.472C283.625 180.472 290.11 170.369 290.485 168C290.859 165.505 290.609 163.385 291.732 163.26C292.854 163.135 306.574 164.383 308.569 160.641C310.44 156.775 304.453 153.906 304.453 153.906Z" fill="#374079"/>
<path d="M299.589 135.198C299.34 134.699 298.966 133.826 298.716 132.329C298.716 132.454 299.09 134.449 299.964 135.447C303.206 137.318 309.692 143.679 309.567 145.051L311.438 141.309C311.438 141.309 314.93 136.071 310.191 133.576C307.696 132.329 307.696 130.458 307.696 128.837C307.696 127.216 306.449 120.356 301.959 122.476C301.959 122.476 301.211 122.227 300.837 122.227C300.837 122.227 301.086 122.227 301.211 122.352C300.712 122.352 299.839 122.476 299.215 122.85C297.719 124.098 296.845 132.953 299.589 135.198Z" fill="#1E2553"/>
<path d="M304.952 133.951C304.952 133.951 303.705 133.826 302.333 133.951C301.46 134.075 300.587 134.325 300.088 134.574C298.841 135.073 298.966 137.318 301.585 136.819C304.204 136.445 305.202 134.574 304.952 133.951Z" fill="#F9B8B7"/>
<path d="M300.213 135.572C300.213 135.572 299.839 137.443 301.585 137.443C302.707 137.443 305.077 136.071 304.952 135.073C304.828 134.574 303.955 133.452 303.83 130.708H303.58L300.213 131.581C300.213 131.581 300.338 132.703 300.462 133.701C300.462 134.699 300.462 135.447 300.213 135.572Z" fill="#F9B8B7"/>
<path d="M300.088 131.706C300.088 131.706 300.213 132.828 300.337 133.826C302.333 133.701 303.206 131.83 303.58 130.833L300.088 131.706Z" fill="#F7A7A5"/>
<path d="M303.83 130.334C303.83 130.334 304.703 128.712 304.952 127.216C305.077 126.218 304.329 122.601 300.712 123.349C300.712 123.349 299.714 123.474 298.716 124.222C297.968 124.846 296.845 126.093 298.342 129.086L298.716 130.084L303.83 130.334Z" fill="#1E2553"/>
<path d="M299.589 132.703C299.589 132.703 304.204 132.454 303.954 129.585C303.705 126.717 304.204 124.721 301.335 124.846C298.342 124.846 297.843 125.968 297.718 126.966C297.469 127.964 298.342 132.703 299.589 132.703Z" fill="#F9B8B7"/>
<path d="M299.215 124.846C299.215 124.846 300.712 128.089 302.707 128.463C304.703 128.837 305.451 128.213 305.451 128.213C305.451 128.213 303.954 127.091 303.455 125.095C303.455 125.22 300.088 123.225 299.215 124.846Z" fill="#1E2553"/>
<path d="M299.589 125.095C299.589 125.095 298.716 125.844 298.467 126.592C298.342 127.34 298.342 128.837 297.843 128.837C297.843 128.837 296.721 126.592 297.718 125.22C298.716 123.848 299.589 125.095 299.589 125.095Z" fill="#1E2553"/>
<path d="M294.974 153.158C295.349 153.656 296.471 153.781 297.718 153.906C298.716 154.031 299.714 154.28 300.462 154.654C302.084 155.652 307.571 158.895 309.068 158.77C309.692 158.77 309.567 157.523 309.193 156.026C308.569 153.532 307.322 150.164 307.322 148.668C307.322 147.919 307.072 145.924 306.698 143.804C306.698 143.679 306.698 143.429 306.573 143.305C305.825 139.064 304.827 134.075 304.827 134.075C304.827 134.075 303.705 136.445 301.585 136.445C299.464 136.445 299.963 134.574 299.963 134.574C299.963 134.574 297.968 134.824 297.594 135.322C297.095 135.821 295.972 137.942 295.723 138.565C295.723 138.565 295.723 139.314 297.469 139.688C297.469 139.688 296.97 141.683 296.97 143.055C296.97 144.053 297.594 147.171 297.843 149.167C297.968 149.915 297.968 150.414 297.843 150.663C297.718 151.037 297.219 151.287 296.721 151.536C295.847 152.035 294.476 152.659 294.974 153.158Z" fill="#C3D3ED"/>
<path d="M296.845 151.411C295.598 153.407 300.088 154.031 300.836 154.529C302.458 155.527 307.571 159.019 309.193 158.895C309.816 158.895 309.692 157.648 309.317 156.151C308.694 153.656 307.447 150.289 307.447 148.792C307.447 148.044 307.197 146.048 306.823 143.928L304.952 142.057C304.952 142.057 302.957 147.296 300.961 148.169C299.963 148.668 298.841 148.917 298.093 149.042C298.217 149.79 298.217 150.289 298.093 150.538C297.843 150.788 297.344 151.162 296.845 151.411Z" fill="#B4C8E8"/>
<path d="M305.576 135.572C305.576 135.572 307.197 134.574 308.819 136.445C310.44 138.316 307.696 151.786 305.326 152.409C302.707 153.158 295.224 152.285 295.224 152.285L295.349 151.162C295.349 151.162 303.331 149.666 303.705 149.167C304.079 148.668 304.703 135.821 305.576 135.572Z" fill="#F9B8B7"/>
<path d="M304.952 133.951C304.952 133.951 308.32 134.2 309.317 135.323C310.315 136.445 310.564 139.438 310.564 139.438C310.564 139.438 307.571 141.808 304.079 140.935L304.952 133.951Z" fill="#C3D3ED"/>
<path d="M290.163 153.472H294.528V152.973H290.163V153.472Z" fill="#A78DBA"/>
<path d="M290.983 153.407C290.983 153.283 286.868 146.922 286.868 146.922H277.888L282.378 153.283L290.983 153.407Z" fill="#A78DBA"/>
<path d="M290.609 153.407C290.609 153.282 286.493 146.797 286.493 146.797H277.888L282.128 153.407H290.609Z" fill="#D4BBDC"/>
<path d="M283.126 150.164C283.251 150.414 283.5 150.663 283.75 150.663C283.999 150.663 284.124 150.414 283.999 150.164C283.874 149.915 283.625 149.665 283.375 149.665C283.126 149.79 283.001 149.915 283.126 150.164Z" fill="#EDEDED"/>
<path d="M296.097 151.037C296.097 151.037 293.478 150.538 293.229 150.663C292.979 150.788 291.358 152.285 291.482 152.534C291.607 152.783 292.355 153.033 293.104 152.783C293.852 152.534 295.473 152.409 295.723 152.035C295.972 151.661 296.097 151.037 296.097 151.037Z" fill="#F9B8B7"/>
<path d="M240.721 78.325H158.904L152.667 57.746H234.36L240.721 78.325Z" fill="#B4C8E8"/>
<path d="M231.242 64.7308L231.99 67.2252C232.364 68.3477 231.741 69.2207 230.618 69.2207H162.895C161.772 69.2207 160.65 68.3477 160.276 67.2252L159.527 64.7308C159.153 63.6083 159.777 62.7352 160.899 62.7352H228.623C229.87 62.7352 230.992 63.6083 231.242 64.7308Z" fill="#EDEDED"/>
<path d="M217.772 65.2293H216.774L216.65 64.8552H218.146L218.271 65.1046L217.897 66.8507H217.523L217.772 65.2293Z" fill="#7F88B6"/>
<path d="M218.645 65.9777C218.52 65.3541 218.645 64.8552 219.269 64.8552C219.768 64.8552 220.266 65.3541 220.516 65.9777C220.641 66.6013 220.516 67.1001 219.892 67.1001C219.269 66.9754 218.77 66.4765 218.645 65.9777ZM220.017 65.9777C219.892 65.6035 219.643 65.2293 219.269 65.2293C218.894 65.2293 218.894 65.6035 219.019 65.9777C219.144 66.3518 219.393 66.726 219.768 66.726C220.017 66.6013 220.142 66.3518 220.017 65.9777Z" fill="#7F88B6"/>
<path d="M220.516 65.3541C220.391 65.1046 220.516 64.8552 220.89 64.8552C221.14 64.8552 221.389 65.1046 221.514 65.3541C221.639 65.6035 221.514 65.8529 221.14 65.8529C220.89 65.9777 220.641 65.7282 220.516 65.3541ZM222.137 64.8552H222.387L221.514 66.9754H221.264L222.137 64.8552ZM221.264 65.3541C221.264 65.2293 221.14 65.1046 220.89 65.1046C220.765 65.1046 220.765 65.2293 220.765 65.3541C220.765 65.4788 220.89 65.6035 221.14 65.6035C221.264 65.7282 221.389 65.6035 221.264 65.3541ZM222.137 66.4765C222.013 66.2271 222.137 65.9777 222.512 65.9777C222.761 65.9777 223.01 66.2271 223.135 66.4765C223.26 66.726 223.135 66.9754 222.761 66.9754C222.512 66.9754 222.262 66.726 222.137 66.4765ZM222.886 66.4765C222.886 66.3518 222.761 66.2271 222.512 66.2271C222.387 66.2271 222.387 66.3518 222.387 66.4765C222.387 66.6013 222.512 66.726 222.761 66.726C222.886 66.726 222.886 66.6013 222.886 66.4765Z" fill="#7F88B6"/>
<path d="M206.797 62.7349L208.792 69.0957H163.02C162.147 69.0957 161.149 68.4721 160.65 67.599C160.525 67.4743 160.525 67.2249 160.401 67.1001L159.652 64.6057C159.278 63.4832 159.902 62.6102 161.024 62.6102H206.797V62.7349Z" fill="#A78DBA"/>
<path d="M169.131 62.7349L167.26 69.0957H163.019C162.146 69.0957 161.149 68.4721 160.65 67.599L162.146 62.6102H169.131V62.7349Z" fill="#82B6E7"/>
<path d="M181.104 62.7349L179.233 69.0957H172.249L174.12 62.7349H181.104Z" fill="#82B6E7"/>
<path d="M193.077 62.7349L191.207 69.0957H184.222L186.093 62.7349H193.077Z" fill="#82B6E7"/>
<path d="M205.051 62.7349L203.18 69.0957H196.195L198.066 62.7349H205.051Z" fill="#82B6E7"/>
<path d="M175.367 72.8373H163.144L162.895 72.0889H175.117L175.367 72.8373Z" fill="#7F88B6"/>
<path d="M172.748 75.2069H163.892L163.643 74.4586H172.498L172.748 75.2069Z" fill="#7F88B6"/>
<path d="M178.61 75.2069H173.371L172.997 74.4586H178.36L178.61 75.2069Z" fill="#7F88B6"/>
<path d="M187.714 75.2069H179.483L179.233 74.4586H187.34L187.714 75.2069Z" fill="#7F88B6"/>
<path d="M179.982 72.8373H176.365L175.991 72.0889H179.732L179.982 72.8373Z" fill="#7F88B6"/>
<path d="M194.699 72.8373H181.229L180.979 72.0889H194.449L194.699 72.8373Z" fill="#7F88B6"/>
<path d="M130.343 109.256H72.8461L63.8662 79.9464H121.363L130.343 109.256Z" fill="#B4C8E8"/>
<path d="M122.236 94.5388H72.0978L68.2314 82.1914H118.494L122.236 94.5388Z" fill="#EDEDED"/>
<path d="M80.3294 84.6857H71.8483L71.5989 84.0621H80.0799L80.3294 84.6857Z" fill="#1D2350"/>
<path d="M89.434 84.6857H82.3249L82.0754 84.0621H89.1846L89.434 84.6857Z" fill="#1D2350"/>
<path d="M105.897 84.6857H91.1804L91.0557 84.0621H105.648L105.897 84.6857Z" fill="#1D2350"/>
<path d="M81.0779 87.0555H72.4721L72.3474 86.4319H80.8284L81.0779 87.0555Z" fill="#1D2350"/>
<path d="M90.0578 87.0555H83.0734L82.824 86.4319H89.9331L90.0578 87.0555Z" fill="#1D2350"/>
<path d="M98.414 87.0555H91.4296L91.1802 86.4319H98.2893L98.414 87.0555Z" fill="#1D2350"/>
<path d="M115.251 87.3049H100.659L100.41 86.6813H115.002L115.251 87.3049Z" fill="#1D2350"/>
<path d="M81.9507 90.0488H73.4696L73.2202 89.4252H81.7012L81.9507 90.0488Z" fill="#1D2350"/>
<path d="M91.0551 90.0487H83.946L83.8213 89.4251H90.8056L91.0551 90.0487Z" fill="#1D2350"/>
<path d="M107.518 90.0487H92.926L92.6765 89.4251H107.269L107.518 90.0487Z" fill="#1D2350"/>
<path d="M82.699 92.4185H74.218L73.9685 91.7949H82.4496L82.699 92.4185Z" fill="#1D2350"/>
<path d="M91.8036 92.4185H84.6945L84.4451 91.7949H91.5542L91.8036 92.4185Z" fill="#1D2350"/>
<path d="M100.16 92.4185H93.051L92.8015 91.7949H99.9106L100.16 92.4185Z" fill="#1D2350"/>
<path d="M116.873 92.6679H102.28L102.031 92.0443H116.623L116.873 92.6679Z" fill="#1D2350"/>
<path d="M105.648 104.891C103.652 104.891 101.657 103.269 101.033 101.398C100.409 99.4028 101.532 97.9062 103.527 97.9062C105.523 97.9062 107.518 99.5276 108.142 101.398C108.766 103.269 107.643 104.891 105.648 104.891ZM103.777 98.5298C102.155 98.5298 101.282 99.777 101.781 101.398C102.28 103.02 103.902 104.267 105.523 104.267C107.144 104.267 108.017 103.02 107.518 101.398C107.02 99.777 105.274 98.5298 103.777 98.5298Z" fill="#82B6E7"/>
<path d="M105.149 103.145C105.024 103.145 104.899 103.02 104.775 103.02L102.779 101.398C102.53 101.149 102.405 100.9 102.53 100.65C102.654 100.401 103.029 100.401 103.278 100.65L104.65 101.773L105.398 100.151C105.523 99.9018 105.772 99.9018 106.147 100.027C106.396 100.151 106.645 100.525 106.521 100.775L105.648 102.895C105.398 103.02 105.273 103.145 105.149 103.145Z" fill="#82B6E7"/>
<path d="M95.5454 104.891C93.5498 104.891 91.5543 103.269 90.9307 101.398C90.3071 99.4028 91.4296 97.9062 93.4251 97.9062C95.4206 97.9062 97.4162 99.5276 98.0398 101.398C98.6634 103.269 97.5409 104.891 95.5454 104.891ZM93.6746 98.5298C92.0532 98.5298 91.1801 99.777 91.679 101.398C92.1779 103.02 93.7993 104.267 95.4206 104.267C97.042 104.267 97.9151 103.02 97.4162 101.398C96.9173 99.777 95.1712 98.5298 93.6746 98.5298Z" fill="#82B6E7"/>
<path d="M95.0465 103.145C94.9218 103.145 94.797 103.02 94.6723 103.02L92.6768 101.398C92.4273 101.149 92.3026 100.9 92.4274 100.65C92.5521 100.401 92.9262 100.401 93.1757 100.65L94.5476 101.773L95.2959 100.151C95.4206 99.9018 95.6701 99.9018 96.0443 100.027C96.2937 100.151 96.5431 100.525 96.4184 100.775L95.5454 102.895C95.2959 103.02 95.1712 103.145 95.0465 103.145Z" fill="#82B6E7"/>
<path d="M85.0688 104.891C83.0733 104.891 81.0777 103.269 80.4541 101.398C79.8305 99.4028 80.953 97.9062 82.9485 97.9062C84.9441 97.9062 86.9396 99.5276 87.5632 101.398C88.1868 103.269 87.0644 104.891 85.0688 104.891ZM83.198 98.5298C81.5766 98.5298 80.7036 99.777 81.2024 101.398C81.7013 103.02 83.3227 104.267 84.9441 104.267C86.5655 104.267 87.4385 103.02 86.9396 101.398C86.4407 99.777 84.6946 98.5298 83.198 98.5298Z" fill="#82B6E7"/>
<path d="M84.5699 103.145C84.4452 103.145 84.3205 103.02 84.1958 103.02L82.2002 101.398C81.9508 101.149 81.8261 100.9 81.9508 100.65C82.0755 100.401 82.4496 100.401 82.6991 100.65L84.071 101.773L84.8194 100.151C84.9441 99.9018 85.1935 99.9018 85.5677 100.027C85.8171 100.151 86.0666 100.525 85.9418 100.775L85.0688 102.895C84.8194 103.02 84.6946 103.145 84.5699 103.145Z" fill="#82B6E7"/>
<path d="M115.501 104.891C113.505 104.891 111.51 103.269 110.886 101.398C110.262 99.4028 111.385 97.9062 113.38 97.9062C115.376 97.9062 117.372 99.5276 117.995 101.398C118.494 103.269 117.372 104.891 115.501 104.891ZM113.505 98.5298C111.884 98.5298 111.011 99.777 111.51 101.398C112.008 103.02 113.63 104.267 115.251 104.267C116.873 104.267 117.746 103.02 117.247 101.398C116.748 99.777 115.127 98.5298 113.505 98.5298Z" fill="#D590A3"/>
<path d="M114.503 101.897C114.253 101.897 113.879 101.648 113.879 101.398L113.38 99.9018C113.256 99.6523 113.505 99.4029 113.755 99.4029C114.004 99.4029 114.378 99.6523 114.378 99.9018L114.877 101.398C115.002 101.773 114.877 101.897 114.503 101.897Z" fill="#D590A3"/>
<path d="M115.002 103.145C114.628 103.145 114.378 102.895 114.253 102.646C114.129 102.396 114.378 102.147 114.503 102.147H114.628C114.877 102.147 115.127 102.396 115.251 102.646C115.376 102.895 115.251 103.145 115.002 103.145Z" fill="#D590A3"/>
<path d="M252.819 103.394C252.819 103.394 260.052 110.877 260.427 113.746C260.801 116.614 256.934 120.98 256.934 120.98L252.819 103.394Z" fill="#DCB4B2"/>
<path d="M249.576 181.594C249.576 181.594 249.326 185.585 248.578 185.71C248.453 185.71 244.712 185.71 244.712 185.71H239.848C239.848 185.71 239.848 184.587 241.344 184.338C242.716 184.089 245.211 183.091 246.084 181.22C246.832 178.975 249.576 181.594 249.576 181.594Z" fill="#1E2553"/>
<path d="M260.426 181.594C260.426 181.594 260.177 185.585 259.429 185.71C259.304 185.71 255.562 185.71 255.562 185.71H250.698C250.698 185.71 250.698 184.587 252.195 184.338C253.567 184.088 256.061 183.091 256.934 181.22C257.683 179.1 260.426 181.594 260.426 181.594Z" fill="#1E2553"/>
<path d="M244.213 138.565C244.213 138.565 245.46 146.672 250.2 161.264C254.939 175.732 255.563 182.093 255.563 182.093L260.676 181.968C260.676 181.968 260.801 166.129 258.556 158.895C256.436 151.661 258.182 132.579 258.182 132.579L244.213 138.565Z" fill="#1E2553"/>
<path d="M241.718 132.828C241.718 132.828 241.469 145.175 243.589 160.267C245.709 175.358 244.961 181.719 244.961 181.719L250.075 181.843C250.075 181.843 253.193 166.752 252.32 159.144C251.447 151.536 256.56 133.202 256.56 133.202L241.718 132.828Z" fill="#374079"/>
<path d="M251.696 104.142L248.952 105.888L245.086 105.14C245.086 104.766 245.46 103.519 245.585 102.271C245.585 102.147 245.585 102.147 245.585 102.022C245.834 101.024 245.959 100.151 245.959 100.151L249.576 98.5298L250.948 97.9062C250.948 97.9062 250.823 99.0287 250.823 99.1534C250.698 102.147 251.696 104.142 251.696 104.142Z" fill="#F9B8B7"/>
<path d="M246.084 103.144C246.208 103.144 250.823 101.773 251.322 101.897C251.821 102.022 252.07 103.02 252.07 103.02L244.462 104.766C244.462 104.766 245.086 103.643 246.084 103.144Z" fill="#DCB4B2"/>
<path d="M258.556 134.449C257.807 138.066 244.587 138.441 241.22 135.198C240.845 134.824 240.845 133.078 240.97 130.708C241.22 126.093 242.217 119.233 242.217 115.741C242.217 113.995 242.467 112.374 242.841 110.752C243.465 107.385 244.462 104.766 244.462 104.766C244.462 104.766 250.823 102.77 252.07 103.02C257.932 104.766 259.304 130.833 258.556 134.449Z" fill="#D0A49A"/>
<path d="M240.97 130.708C241.22 126.093 242.217 119.233 242.217 115.741C242.217 113.995 242.467 112.374 242.841 110.752L246.707 110.129C246.707 110.129 250.449 125.47 240.97 130.708Z" fill="#DCB4B2"/>
<path d="M243.091 124.347C243.091 124.347 243.34 124.971 242.841 125.345C242.342 125.719 241.968 126.467 242.093 126.966C242.217 127.465 243.465 128.338 243.839 128.213C244.213 128.089 245.086 127.465 244.961 127.216C244.837 126.966 245.585 124.846 244.462 124.098C243.465 123.225 243.091 124.347 243.091 124.347Z" fill="#F9B8B7"/>
<path d="M247.456 103.893C247.456 103.893 243.714 104.641 240.721 109.006C237.727 113.372 235.732 116.739 236.231 118.236C236.73 119.857 241.843 125.345 242.716 125.345C243.589 125.345 244.961 124.721 245.086 123.349C245.086 123.349 241.594 117.986 242.217 117.238C242.467 116.864 246.832 113.372 247.456 114.993C248.453 117.612 247.456 103.893 247.456 103.893Z" fill="#D0A49A"/>
<path d="M250.699 99.4028C249.95 100.775 246.832 101.897 245.585 102.396C245.585 102.271 245.585 102.271 245.585 102.147C245.834 101.149 245.959 100.276 245.959 100.276L249.576 98.6545C250.574 98.6545 251.073 98.7792 250.699 99.4028Z" fill="#F8ADAB"/>
<path d="M244.712 100.026C244.712 100.026 250.574 101.897 251.696 98.1556C252.819 94.4139 254.315 92.169 250.574 90.9218C246.832 89.5498 245.71 90.797 245.086 91.9195C244.338 93.042 243.215 99.4028 244.712 100.026Z" fill="#F9B8B7"/>
<path d="M245.211 91.5454C245.211 91.5454 245.585 95.7859 246.458 95.6612C247.331 95.5364 248.204 95.287 248.079 96.6589C247.954 97.9062 246.707 99.4028 249.451 99.6522C252.195 99.9017 256.186 92.7926 255.438 91.5454C253.193 87.5543 242.093 86.806 245.211 91.5454Z" fill="#1E2553"/>
</g>
<defs>
<filter id="filter0_d" x="0" y="0" width="337.998" height="214.289" filterUnits="userSpaceOnUse" color-interpolation-filters="sRGB">
<feFlood flood-opacity="0" result="BackgroundImageFix"/>
<feColorMatrix in="SourceAlpha" type="matrix" values="0 0 0 0 0 0 0 0 0 0 0 0 0 0 0 0 0 0 127 0"/>
<feOffset dy="4"/>
<feGaussianBlur stdDeviation="2"/>
<feColorMatrix type="matrix" values="0 0 0 0 0 0 0 0 0 0 0 0 0 0 0 0 0 0 0.25 0"/>
<feBlend mode="normal" in2="BackgroundImageFix" result="effect1_dropShadow"/>
<feBlend mode="normal" in="SourceGraphic" in2="effect1_dropShadow" result="shape"/>
</filter>
<linearGradient id="paint0_linear" x1="79.1656" y1="107.863" x2="226.941" y2="107.863" gradientUnits="userSpaceOnUse">
<stop stop-color="#EDB0A1"/>
<stop offset="1" stop-color="#F683A3"/>
</linearGradient>
</defs>
</svg>
