<svg width="62" height="62" viewBox="0 0 62 62" fill="none" xmlns="http://www.w3.org/2000/svg">
<path d="M61.4675 30.2166C61.4225 27.9234 61.1527 25.6752 60.6131 23.5168C57.3756 10.0722 45.1901 0 30.7113 0C16.2325 0 4.09184 10.0722 0.85434 23.5618C0.314757 25.7201 0.0449652 27.9684 0 30.2616C0 30.4415 0 30.5764 0 30.7562C0 42.1774 6.25017 52.1597 15.513 57.4656V49.5517C10.0272 45.0552 6.56492 38.3104 6.56492 30.7562C6.56492 30.5764 6.56492 30.4415 6.56492 30.2616C6.60989 27.9234 6.96961 25.6752 7.64409 23.5618C10.7017 13.7144 19.8746 6.56493 30.7113 6.56493C41.5479 6.56493 50.7208 13.7144 53.7784 23.5618C54.4529 25.6752 54.8126 27.9234 54.8576 30.2616C54.8576 30.4415 54.8576 30.5764 54.8576 30.7562C54.8576 44.0659 44.021 54.9475 30.6663 54.9475C29.812 54.9475 28.9126 54.9026 28.0583 54.8126V61.4225C28.9126 61.5125 29.767 61.5125 30.6663 61.5125C47.6182 61.5125 61.4225 47.7081 61.4225 30.7562C61.4675 30.5764 61.4675 30.3965 61.4675 30.2166Z" fill="white"/>
<path d="M26.3047 35.4776H36.1071L31.2059 26.8892L26.3047 35.4776Z" fill="white"/>
<path d="M22.1227 60.2534C22.1227 60.2534 22.0777 47.7531 22.0777 44.6055C22.0777 40.109 21.9878 35.6125 22.0777 31.1159C22.0777 30.8012 22.1227 30.5314 22.1227 30.2166C22.6622 25.2705 26.5293 22.3028 30.9358 22.4826C35.4324 22.6625 38.6249 26.1698 38.9397 30.2166C39.0746 31.6555 38.8048 33.1394 38.1303 34.5333C36.6914 37.6359 32.6445 39.8842 28.148 39.7493V45.8645C30.4862 45.9095 33.364 45.8196 34.7579 45.3699C41.8174 43.3465 45.8193 36.7816 45.5496 30.2166C45.4147 26.7543 44.0657 23.292 41.3228 20.5041C37.0062 15.9627 30.3513 14.5238 24.5508 17.1318C19.1999 19.5599 15.8725 23.8765 15.6027 29.767C15.6027 29.9019 15.6027 30.0817 15.6027 30.2166C15.3329 36.8715 15.4678 57.4206 15.4678 57.4206C17.5362 58.5897 19.7845 59.5789 22.1227 60.2534Z" fill="white"/>
<path d="M28.1934 44.8304V33.4991H34.2187L34.1737 45.5049C32.2852 45.9995 29.8121 45.8646 29.8121 45.8646H29.2276C28.643 45.9096 28.1934 45.4149 28.1934 44.8304Z" fill="white"/>
</svg>
