<svg width="166" height="62" viewBox="0 0 166 62" fill="none" xmlns="http://www.w3.org/2000/svg">
<path d="M61.4675 30.2166C61.4225 27.9234 61.1527 25.6752 60.6131 23.5168C57.3756 10.0722 45.1901 0 30.7113 0C16.2325 0 4.09184 10.0722 0.85434 23.5618C0.314757 25.7201 0.0449652 27.9684 0 30.2616C0 30.4415 0 30.5764 0 30.7562C0 42.1774 6.25017 52.1597 15.513 57.4656V49.5517C10.0272 45.0552 6.56492 38.3104 6.56492 30.7562C6.56492 30.5764 6.56492 30.4415 6.56492 30.2616C6.60989 27.9234 6.96961 25.6752 7.64409 23.5618C10.7017 13.7144 19.8746 6.56493 30.7113 6.56493C41.5479 6.56493 50.7208 13.7144 53.7784 23.5618C54.4529 25.6752 54.8126 27.9234 54.8576 30.2616C54.8576 30.4415 54.8576 30.5764 54.8576 30.7562C54.8576 44.0659 44.021 54.9475 30.6663 54.9475C29.812 54.9475 28.9126 54.9026 28.0583 54.8126V61.4225C28.9126 61.5125 29.767 61.5125 30.6663 61.5125C47.6182 61.5125 61.4225 47.7081 61.4225 30.7562C61.4675 30.5764 61.4675 30.3965 61.4675 30.2166Z" fill="#EC495B"/>
<path d="M26.3047 35.4776H36.1071L31.2059 26.8892L26.3047 35.4776Z" fill="#465F7A"/>
<path d="M22.1227 60.2534C22.1227 60.2534 22.0777 47.7531 22.0777 44.6055C22.0777 40.109 21.9878 35.6125 22.0777 31.1159C22.0777 30.8012 22.1227 30.5314 22.1227 30.2166C22.6622 25.2705 26.5293 22.3028 30.9358 22.4826C35.4324 22.6625 38.6249 26.1698 38.9397 30.2166C39.0746 31.6555 38.8048 33.1394 38.1303 34.5333C36.6914 37.6359 32.6445 39.8842 28.148 39.7493V45.8645C30.4862 45.9095 33.364 45.8196 34.7579 45.3699C41.8174 43.3465 45.8193 36.7816 45.5496 30.2166C45.4147 26.7543 44.0657 23.292 41.3228 20.5041C37.0062 15.9627 30.3513 14.5238 24.5508 17.1318C19.1999 19.5599 15.8725 23.8765 15.6027 29.767C15.6027 29.9019 15.6027 30.0817 15.6027 30.2166C15.3329 36.8715 15.4678 57.4206 15.4678 57.4206C17.5362 58.5897 19.7845 59.5789 22.1227 60.2534Z" fill="#465F7A"/>
<path d="M28.1934 44.8304V33.4991H34.2187L34.1737 45.5049C32.2852 45.9995 29.8121 45.8646 29.8121 45.8646H29.2276C28.643 45.9096 28.1934 45.4149 28.1934 44.8304Z" fill="#465F7A"/>
<path d="M154.223 29.764C154.581 29.5251 154.82 29.1668 155.059 28.8682C156.791 26.8376 158.523 24.8667 160.195 22.8362C160.553 22.4181 160.971 22.1792 161.568 22.1792C162.643 22.239 163.778 22.1792 164.913 22.1792C165.092 22.1792 165.271 22.1195 165.391 22.2987C165.45 22.4778 165.271 22.5973 165.152 22.7167C163.778 24.3292 162.405 25.882 160.971 27.4945C160.195 28.3904 159.359 29.2862 158.582 30.182C158.105 30.7195 158.105 30.7195 158.523 31.1973C159.478 32.2723 160.493 33.2876 161.449 34.3626C162.882 35.9154 164.375 37.4682 165.809 39.0807C165.868 39.2002 166.048 39.2599 165.988 39.3793C165.928 39.4988 165.749 39.4988 165.63 39.4988C164.196 39.4988 162.763 39.4988 161.33 39.4988C161.031 39.4988 160.911 39.3196 160.732 39.1404C159.836 38.1251 158.941 37.1099 158.045 36.0946C156.791 34.6612 155.596 33.2876 154.342 31.8543C154.282 31.7946 154.282 31.7348 154.163 31.7348C154.043 31.8543 154.103 32.0335 154.103 32.2126C154.103 34.4224 154.103 36.6321 154.103 38.7821C154.103 39.3793 154.043 39.3793 153.506 39.3793C152.73 39.3793 151.953 39.3793 151.177 39.3793C150.52 39.3793 150.52 39.3793 150.52 38.7224C150.52 35.9154 150.52 33.0487 150.52 30.2418C150.52 27.7334 150.52 25.2251 150.52 22.657C150.52 22.0598 150.52 22.0001 151.177 22.0001C151.953 22.0001 152.789 22.0001 153.566 22.0001C153.984 22.0001 154.103 22.1195 154.103 22.5376C154.103 24.6876 154.103 26.8973 154.103 29.0473C154.163 29.4057 154.103 29.5848 154.223 29.764Z" fill="#465F7A"/>
<path d="M101.488 39.5585C101.07 39.5585 100.592 39.5585 100.174 39.5585C99.696 39.6182 99.4571 39.3793 99.3377 38.9613C99.0391 38.1252 98.6807 37.2891 98.3224 36.5127C98.2029 36.2141 98.0238 36.1543 97.7849 36.1543C95.7543 36.1543 93.7835 36.1543 91.7529 36.1543C91.4543 36.1543 91.3348 36.2738 91.2154 36.5127C90.8571 37.4085 90.4987 38.2446 90.2001 39.1405C90.0807 39.4391 89.9015 39.5585 89.5432 39.5585C88.5876 39.5585 87.5723 39.5585 86.6168 39.5585C86.0793 39.5585 86.0195 39.4391 86.1987 38.9613C87.1543 36.6321 88.1695 34.3029 89.1251 31.9738C90.439 28.8682 91.6932 25.8223 93.0071 22.7168C93.1862 22.3584 93.3654 22.1793 93.7835 22.1793C94.5001 22.1793 95.2168 22.1793 95.9335 22.1793C96.2321 22.1793 96.3515 22.2987 96.471 22.5376C97.3668 24.7473 98.3224 26.9571 99.2779 29.2265C100.592 32.3918 101.906 35.5571 103.279 38.7224C103.638 39.5585 103.638 39.5585 102.742 39.5585C102.324 39.5585 101.906 39.5585 101.488 39.5585ZM94.7987 27.9126C94.6793 28.0918 94.6793 28.1515 94.6196 28.2112C94.0224 29.6446 93.4849 31.0182 92.8876 32.4515C92.7682 32.7501 92.9474 32.8099 93.1862 32.8099C94.2612 32.8099 95.3363 32.8099 96.4113 32.8099C96.7696 32.8099 96.7696 32.6904 96.6501 32.4515C96.471 32.0932 96.3515 31.7349 96.2321 31.3765C95.7543 30.1821 95.2765 29.1071 94.7987 27.9126Z" fill="#465F7A"/>
<path d="M137.62 30.8987C137.62 28.2112 137.62 25.5237 137.62 22.8959C137.62 22.2987 137.68 22.2987 138.217 22.239C141.502 22.239 144.787 22.239 148.071 22.239C148.669 22.239 148.669 22.2987 148.669 22.8362C148.669 23.5528 148.669 24.2695 148.669 24.9862C148.669 25.5834 148.609 25.6431 148.071 25.6431C145.981 25.6431 143.891 25.6431 141.8 25.6431C141.203 25.6431 141.203 25.6431 141.203 26.2404C141.203 27.0765 141.203 27.9126 141.203 28.689C141.203 29.0473 141.323 29.1668 141.681 29.1668C143.353 29.1668 145.085 29.1668 146.757 29.1668C147.474 29.1668 147.474 29.2265 147.474 29.9432C147.474 30.5404 147.474 31.1973 147.474 31.7946C147.474 32.5112 147.414 32.571 146.698 32.571C145.025 32.571 143.353 32.571 141.741 32.571C141.203 32.571 141.203 32.571 141.203 33.1085C141.203 33.9446 141.203 34.7807 141.203 35.5571C141.203 36.0946 141.203 36.0946 141.741 36.0946C143.831 36.0946 145.921 36.0946 148.071 36.0946C148.669 36.0946 148.728 36.0946 148.728 36.7515C148.728 37.5279 148.728 38.2446 148.728 39.021C148.728 39.3793 148.609 39.4988 148.191 39.4988C144.846 39.4988 141.502 39.4988 138.157 39.4988C137.739 39.4988 137.62 39.3196 137.62 38.9015C137.62 36.2738 137.62 33.5862 137.62 30.8987Z" fill="#465F7A"/>
<path d="M73.0597 30.839C73.0597 28.1515 73.0597 25.464 73.0597 22.8362C73.0597 22.239 73.1194 22.1793 73.6569 22.1793C75.9264 22.1793 78.2556 22.1195 80.525 22.1793C82.8542 22.239 84.9445 23.732 85.482 26.0612C86.1987 29.1071 84.407 31.4362 81.9584 32.3321C80.7042 32.7501 79.45 32.8696 78.1361 32.8696C77.7778 32.8696 77.4792 32.8696 77.1209 32.8696C76.7028 32.8099 76.5834 32.989 76.5834 33.4071C76.5834 35.2585 76.5834 37.0502 76.5834 38.9016C76.5834 39.4988 76.5236 39.4988 75.9861 39.4988C75.2097 39.4988 74.3736 39.4988 73.5972 39.4988C73.0597 39.4988 73 39.4391 73 38.9016C73.0597 36.2738 73.0597 33.5863 73.0597 30.839ZM76.6431 27.5543C76.6431 28.0918 76.6431 28.6293 76.6431 29.2265C76.6431 29.5848 76.7625 29.7043 77.1209 29.7043C78.1361 29.7043 79.1514 29.6446 80.107 29.5251C81.182 29.4057 81.8987 28.6293 81.8987 27.614C81.8987 26.3598 81.5403 25.8821 80.3459 25.6432C79.2709 25.4043 78.1361 25.4043 77.0014 25.4043C76.7625 25.4043 76.6431 25.5834 76.6431 25.7626C76.6431 26.4196 76.6431 26.9571 76.6431 27.5543Z" fill="#465F7A"/>
<path d="M111.879 32.571C111.879 34.721 111.879 36.8113 111.879 38.9613C111.879 39.5585 111.82 39.5585 111.222 39.5585C110.446 39.5585 109.67 39.5585 108.893 39.5585C108.236 39.5585 108.236 39.5585 108.236 38.9016C108.236 34.8404 108.236 30.839 108.236 26.7779C108.236 25.5834 108.236 25.5834 107.042 25.5834C106.086 25.5834 105.131 25.5834 104.175 25.5834C103.697 25.5834 103.638 25.5237 103.638 24.9862C103.638 24.2098 103.638 23.4334 103.638 22.7168C103.638 22.3584 103.757 22.1793 104.175 22.1793C108.117 22.1793 111.999 22.1793 115.941 22.1793C116.359 22.1793 116.478 22.3584 116.478 22.7168C116.478 23.4932 116.478 24.2695 116.478 24.9862C116.478 25.464 116.418 25.5834 115.881 25.5834C114.746 25.5834 113.552 25.5834 112.417 25.5834C111.999 25.5834 111.879 25.7029 111.879 26.1209C111.939 28.271 111.879 30.421 111.879 32.571Z" fill="#465F7A"/>
<path d="M131.349 32.571C131.349 34.721 131.349 36.8113 131.349 38.9613C131.349 39.4988 131.289 39.5585 130.752 39.5585C129.975 39.5585 129.199 39.5585 128.422 39.5585C127.825 39.5585 127.825 39.4988 127.825 38.9613C127.825 34.7807 127.825 30.6598 127.825 26.4793C127.825 26.3598 127.825 26.2404 127.825 26.1209C127.825 25.7626 127.706 25.6431 127.347 25.6431C126.213 25.6431 125.078 25.6431 123.943 25.6431C123.227 25.6431 123.227 25.6431 123.227 24.9265C123.227 24.2098 123.227 23.4931 123.227 22.7765C123.227 22.4181 123.346 22.239 123.704 22.239C127.646 22.239 131.588 22.239 135.529 22.239C135.888 22.239 136.007 22.4181 136.007 22.7765C136.007 23.5529 136.007 24.3292 136.007 25.1056C136.007 25.5237 135.828 25.6431 135.47 25.6431C134.275 25.6431 133.141 25.6431 131.946 25.6431C131.528 25.6431 131.409 25.7626 131.409 26.1806C131.349 28.2709 131.349 30.4209 131.349 32.571Z" fill="#EC495B"/>
<path d="M118.389 30.839C118.389 28.1515 118.389 25.464 118.389 22.8362C118.389 22.239 118.449 22.239 118.986 22.1793C119.823 22.1793 120.599 22.1793 121.435 22.1793C121.793 22.1793 121.973 22.2987 121.973 22.7168C121.973 28.1515 121.973 33.5863 121.973 39.021C121.973 39.3793 121.853 39.5585 121.435 39.5585C120.599 39.5585 119.763 39.5585 118.927 39.5585C118.449 39.5585 118.389 39.4988 118.389 38.9613C118.389 36.2738 118.389 33.5863 118.389 30.839Z" fill="#EC495B"/>
</svg>
