<svg width="35" height="35" viewBox="0 0 35 35" fill="none" xmlns="http://www.w3.org/2000/svg">
<path d="M34.9744 17.193C34.9488 15.8882 34.7953 14.6089 34.4883 13.3808C32.6462 5.73099 25.7127 0 17.4744 0C9.23611 0 2.32822 5.73099 0.486111 13.4064C0.179094 14.6345 0.0255848 15.9137 0 17.2186C0 17.3209 0 17.3977 0 17.5C0 23.9985 3.55629 29.6784 8.82675 32.6974V28.1944C5.70541 25.636 3.73538 21.7982 3.73538 17.5C3.73538 17.3977 3.73538 17.3209 3.73538 17.2186C3.76096 15.8882 3.96564 14.6089 4.34942 13.4064C6.08918 7.80336 11.3085 3.73538 17.4744 3.73538C23.6404 3.73538 28.8597 7.80336 30.5994 13.4064C30.9832 14.6089 31.1879 15.8882 31.2135 17.2186C31.2135 17.3209 31.2135 17.3977 31.2135 17.5C31.2135 25.0731 25.0475 31.2646 17.4488 31.2646C16.9627 31.2646 16.451 31.239 15.9649 31.1879V34.9488C16.451 35 16.9371 35 17.4488 35C27.0943 35 34.9488 27.1455 34.9488 17.5C34.9744 17.3977 34.9744 17.2953 34.9744 17.193Z" fill="#EC495B"/>
<path d="M14.9673 20.1863H20.5448L17.756 15.2996L14.9673 20.1863Z" fill="#465F7A"/>
<path d="M12.588 34.2828C12.588 34.2828 12.5624 27.1702 12.5624 25.3793C12.5624 22.8208 12.5112 20.2623 12.5624 17.7039C12.5624 17.5248 12.588 17.3712 12.588 17.1922C12.895 14.3778 15.0953 12.6892 17.6026 12.7916C20.1611 12.8939 21.9776 14.8895 22.1567 17.1922C22.2334 18.0109 22.0799 18.8552 21.6962 19.6483C20.8774 21.4136 18.5748 22.6929 16.0163 22.6161V26.0957C17.3467 26.1213 18.9842 26.0701 19.7773 25.8142C23.7941 24.6629 26.0711 20.9275 25.9176 17.1922C25.8409 15.2221 25.0733 13.2521 23.5127 11.6658C21.0565 9.08178 17.27 8.26306 13.9695 9.74698C10.925 11.1286 9.03168 13.5847 8.87817 16.9363C8.87817 17.0131 8.87817 17.1154 8.87817 17.1922C8.72466 20.9787 8.80141 32.671 8.80141 32.671C9.97832 33.3362 11.2576 33.899 12.588 34.2828Z" fill="#465F7A"/>
<path d="M16.0417 25.5074V19.0601H19.4701L19.4445 25.8912C18.37 26.1726 16.9628 26.0959 16.9628 26.0959H16.6302C16.2976 26.1215 16.0417 25.84 16.0417 25.5074Z" fill="#465F7A"/>
</svg>
