<svg width="71" height="14" viewBox="0 0 71 14" fill="none" xmlns="http://www.w3.org/2000/svg">
<path d="M61.1527 5.84554C61.4225 5.66568 61.6024 5.39589 61.7822 5.17106C63.0862 3.64225 64.3902 2.15839 65.6492 0.629572C65.919 0.314815 66.2338 0.134958 66.6834 0.134958C67.4928 0.179923 68.3472 0.134958 69.2015 0.134958C69.3364 0.134958 69.4713 0.0899915 69.5612 0.224887C69.6062 0.359783 69.4713 0.449712 69.3813 0.539643C68.3471 1.7537 67.3129 2.9228 66.2338 4.13686C65.6492 4.81134 65.0197 5.48582 64.4352 6.1603C64.0754 6.56498 64.0755 6.56498 64.3902 6.92471C65.1097 7.73408 65.8741 8.49849 66.5935 9.30786C67.6727 10.477 68.7968 11.6461 69.876 12.8601C69.9209 12.9501 70.0558 12.995 70.0109 13.0849C69.9659 13.1749 69.831 13.1749 69.7411 13.1749C68.6619 13.1749 67.5827 13.1749 66.5036 13.1749C66.2787 13.1749 66.1888 13.04 66.0539 12.9051C65.3794 12.1407 64.705 11.3763 64.0305 10.6119C63.0862 9.53269 62.1869 8.49849 61.2426 7.41933C61.1977 7.37436 61.1977 7.3294 61.1077 7.3294C61.0178 7.41933 61.0628 7.55422 61.0628 7.68912C61.0628 9.35283 61.0628 11.0165 61.0628 12.6353C61.0628 13.0849 61.0178 13.0849 60.6131 13.0849C60.0286 13.0849 59.444 13.0849 58.8595 13.0849C58.3649 13.0849 58.3649 13.0849 58.3649 12.5903C58.3649 10.477 58.3649 8.31863 58.3649 6.20527C58.3649 4.31673 58.3649 2.42819 58.3649 0.494681C58.3649 0.045029 58.3649 6.10352e-05 58.8595 6.10352e-05C59.444 6.10352e-05 60.0735 6.10352e-05 60.6581 6.10352e-05C60.9729 6.10352e-05 61.0628 0.0899888 61.0628 0.404745C61.0628 2.02349 61.0628 3.68721 61.0628 5.30596C61.1077 5.57575 61.0628 5.71065 61.1527 5.84554Z" fill="#465F7A"/>
<path d="M21.4484 13.2198C21.1337 13.2198 20.774 13.2198 20.4592 13.2198C20.0995 13.2648 19.9196 13.0849 19.8297 12.7702C19.6049 12.1407 19.3351 11.5112 19.0653 10.9266C18.9753 10.7018 18.8405 10.6568 18.6606 10.6568C17.1318 10.6568 15.6479 10.6568 14.1191 10.6568C13.8943 10.6568 13.8043 10.7467 13.7144 10.9266C13.4446 11.6011 13.1748 12.2306 12.95 12.9051C12.8601 13.1299 12.7252 13.2198 12.4554 13.2198C11.7359 13.2198 10.9715 13.2198 10.2521 13.2198C9.8474 13.2198 9.80244 13.1299 9.93734 12.7702C10.6568 11.0165 11.4212 9.26289 12.1406 7.50925C13.1299 5.17105 14.0741 2.87783 15.0634 0.539633C15.1983 0.269842 15.3332 0.134949 15.6479 0.134949C16.1875 0.134949 16.7271 0.134949 17.2667 0.134949C17.4915 0.134949 17.5814 0.224875 17.6714 0.404736C18.3458 2.06845 19.0653 3.73217 19.7847 5.44085C20.774 7.82401 21.7632 10.2072 22.7974 12.5903C23.0672 13.2198 23.0672 13.2198 22.3927 13.2198C22.078 13.2198 21.7632 13.2198 21.4484 13.2198ZM16.4123 4.45161C16.3224 4.5865 16.3224 4.63147 16.2774 4.67643C15.8278 5.7556 15.4231 6.7898 14.9734 7.86897C14.8835 8.09379 15.0184 8.13876 15.1983 8.13876C16.0076 8.13876 16.817 8.13876 17.6264 8.13876C17.8962 8.13876 17.8962 8.04883 17.8063 7.86897C17.6714 7.59918 17.5814 7.32938 17.4915 7.05959C17.1318 6.16029 16.7721 5.35091 16.4123 4.45161Z" fill="#465F7A"/>
<path d="M48.6524 6.69986C48.6524 4.67642 48.6524 2.65299 48.6524 0.674521C48.6524 0.224869 48.6974 0.224866 49.102 0.179901C51.5751 0.179901 54.0482 0.179901 56.5213 0.179901C56.971 0.179901 56.971 0.224866 56.971 0.629553C56.971 1.16914 56.971 1.70872 56.971 2.2483C56.971 2.69796 56.926 2.74293 56.5213 2.74293C54.9475 2.74293 53.3737 2.74293 51.8 2.74293C51.3503 2.74293 51.3503 2.74293 51.3503 3.19258C51.3503 3.82209 51.3503 4.4516 51.3503 5.03615C51.3503 5.30594 51.4402 5.39587 51.71 5.39587C52.9691 5.39587 54.273 5.39587 55.5321 5.39587C56.0717 5.39587 56.0717 5.44084 56.0717 5.98042C56.0717 6.43007 56.0717 6.92469 56.0717 7.37434C56.0717 7.91392 56.0267 7.95889 55.4871 7.95889C54.2281 7.95889 52.969 7.95889 51.755 7.95889C51.3503 7.95889 51.3503 7.95889 51.3503 8.36358C51.3503 8.99309 51.3503 9.6226 51.3503 10.2072C51.3503 10.6118 51.3503 10.6118 51.755 10.6118C53.3288 10.6118 54.9026 10.6118 56.5213 10.6118C56.971 10.6118 57.0159 10.6118 57.0159 11.1065C57.0159 11.691 57.0159 12.2306 57.0159 12.8151C57.0159 13.0849 56.926 13.1749 56.6112 13.1749C54.0932 13.1749 51.5751 13.1749 49.0571 13.1749C48.7423 13.1749 48.6524 13.04 48.6524 12.7252C48.6524 10.7467 48.6524 8.7233 48.6524 6.69986Z" fill="#465F7A"/>
<path d="M0.0449653 6.65493C0.0449653 4.6315 0.0449653 2.60806 0.0449653 0.629588C0.0449653 0.179936 0.0899305 0.134975 0.494618 0.134975C2.2033 0.134975 3.95694 0.0900095 5.66562 0.134975C7.41926 0.17994 8.99305 1.30407 9.39774 3.05772C9.93732 5.35094 8.58836 7.10459 6.74479 7.77907C5.80052 8.09382 4.85625 8.18375 3.86701 8.18375C3.59722 8.18375 3.37239 8.18375 3.1026 8.18375C2.78785 8.13879 2.69791 8.27368 2.69791 8.58844C2.69791 9.98236 2.69791 11.3313 2.69791 12.7252C2.69791 13.1749 2.65295 13.1749 2.24826 13.1749C1.66371 13.1749 1.0342 13.1749 0.449652 13.1749C0.0449652 13.1749 0 13.1299 0 12.7252C0.0449652 10.7468 0.0449653 8.72334 0.0449653 6.65493ZM2.74288 4.18185C2.74288 4.58653 2.74288 4.99122 2.74288 5.44087C2.74288 5.71067 2.83281 5.80059 3.1026 5.80059C3.86701 5.80059 4.63142 5.75563 5.35086 5.6657C6.16024 5.57577 6.69982 4.99122 6.69982 4.22681C6.69982 3.28254 6.43003 2.92282 5.53072 2.74296C4.72135 2.5631 3.86701 2.5631 3.01267 2.5631C2.83281 2.5631 2.74288 2.69799 2.74288 2.83289C2.74288 3.32751 2.74288 3.73219 2.74288 4.18185Z" fill="#465F7A"/>
<path d="M29.2724 7.9589C29.2724 9.57765 29.2724 11.1514 29.2724 12.7702C29.2724 13.2198 29.2274 13.2198 28.7778 13.2198C28.1932 13.2198 27.6087 13.2198 27.0241 13.2198C26.5295 13.2198 26.5295 13.2198 26.5295 12.7252C26.5295 9.66758 26.5295 6.65491 26.5295 3.59727C26.5295 2.69797 26.5295 2.69797 25.6302 2.69797C24.9107 2.69797 24.1913 2.69797 23.4719 2.69797C23.1121 2.69797 23.0672 2.653 23.0672 2.24831C23.0672 1.66377 23.0672 1.07922 23.0672 0.539633C23.0672 0.269842 23.1571 0.134949 23.4719 0.134949C26.4396 0.134949 29.3623 0.134949 32.33 0.134949C32.6448 0.134949 32.7347 0.269842 32.7347 0.539633C32.7347 1.12418 32.7347 1.70873 32.7347 2.24831C32.7347 2.60804 32.6897 2.69797 32.285 2.69797C31.4307 2.69797 30.5314 2.69797 29.6771 2.69797C29.3623 2.69797 29.2724 2.78789 29.2724 3.10265C29.3173 4.7214 29.2724 6.34015 29.2724 7.9589Z" fill="#465F7A"/>
<path d="M43.931 7.95889C43.931 9.57764 43.931 11.1514 43.931 12.7702C43.931 13.1749 43.8861 13.2198 43.4814 13.2198C42.8968 13.2198 42.3123 13.2198 41.7277 13.2198C41.2781 13.2198 41.2781 13.1749 41.2781 12.7702C41.2781 9.6226 41.2781 6.52 41.2781 3.37244C41.2781 3.28251 41.2781 3.19257 41.2781 3.10264C41.2781 2.83285 41.1881 2.74293 40.9184 2.74293C40.064 2.74293 39.2097 2.74293 38.3553 2.74293C37.8158 2.74293 37.8158 2.74292 37.8158 2.20334C37.8158 1.66375 37.8158 1.12418 37.8158 0.584592C37.8158 0.314801 37.9057 0.179901 38.1755 0.179901C41.1432 0.179901 44.1109 0.179901 47.0786 0.179901C47.3484 0.179901 47.4383 0.314801 47.4383 0.584592C47.4383 1.16914 47.4383 1.75369 47.4383 2.33823C47.4383 2.65299 47.3034 2.74293 47.0336 2.74293C46.1343 2.74293 45.28 2.74293 44.3807 2.74293C44.0659 2.74293 43.976 2.83285 43.976 3.14761C43.931 4.72139 43.931 6.34014 43.931 7.95889Z" fill="#EC495B"/>
<path d="M34.1736 6.65491C34.1736 4.63147 34.1736 2.60803 34.1736 0.629562C34.1736 0.17991 34.2185 0.179914 34.6232 0.134949C35.2527 0.134949 35.8373 0.134949 36.4668 0.134949C36.7366 0.134949 36.8715 0.224876 36.8715 0.539633C36.8715 4.63147 36.8715 8.72331 36.8715 12.8151C36.8715 13.0849 36.7816 13.2198 36.4668 13.2198C35.8373 13.2198 35.2078 13.2198 34.5783 13.2198C34.2185 13.2198 34.1736 13.1749 34.1736 12.7702C34.1736 10.7467 34.1736 8.72331 34.1736 6.65491Z" fill="#EC495B"/>
</svg>
