<svg width="93" height="18" viewBox="0 0 93 18" fill="none" xmlns="http://www.w3.org/2000/svg">
<path d="M81.2226 7.76399C81.5809 7.5251 81.8198 7.16676 82.0587 6.86815C83.7906 4.83759 85.5226 2.86674 87.1948 0.836173C87.5532 0.418115 87.9712 0.17923 88.5684 0.17923C89.6434 0.238953 90.7782 0.17923 91.9129 0.17923C92.0921 0.17923 92.2712 0.119506 92.3907 0.298674C92.4504 0.477841 92.2712 0.597284 92.1518 0.71673C90.7782 2.32924 89.4046 3.88202 87.9712 5.49453C87.1948 6.39037 86.3587 7.28621 85.5823 8.18205C85.1045 8.71955 85.1045 8.71955 85.5226 9.19733C86.4782 10.2723 87.4934 11.2876 88.449 12.3626C89.8823 13.9154 91.3754 15.4682 92.8087 17.0807C92.8685 17.2002 93.0476 17.2599 92.9879 17.3793C92.9282 17.4988 92.749 17.4988 92.6296 17.4988C91.1962 17.4988 89.7629 17.4988 88.3296 17.4988C88.0309 17.4988 87.9115 17.3196 87.7323 17.1404C86.8365 16.1251 85.9407 15.1099 85.0448 14.0946C83.7906 12.6612 82.5962 11.2876 81.342 9.85428C81.2823 9.79456 81.2823 9.73484 81.1629 9.73484C81.0434 9.85428 81.1031 10.0335 81.1031 10.2126C81.1031 12.4224 81.1031 14.6321 81.1031 16.7821C81.1031 17.3793 81.0434 17.3793 80.5059 17.3793C79.7295 17.3793 78.9531 17.3793 78.1767 17.3793C77.5198 17.3793 77.5198 17.3793 77.5198 16.7224C77.5198 13.9154 77.5198 11.0487 77.5198 8.24177C77.5198 5.73343 77.5198 3.22508 77.5198 0.657013C77.5198 0.0597872 77.5198 6.10352e-05 78.1767 6.10352e-05C78.9531 6.10352e-05 79.7892 6.10352e-05 80.5656 6.10352e-05C80.9837 6.10352e-05 81.1031 0.119502 81.1031 0.53756C81.1031 2.68757 81.1031 4.89731 81.1031 7.04732C81.1628 7.40566 81.1031 7.58482 81.2226 7.76399Z" fill="white"/>
<path d="M28.4877 17.5585C28.0696 17.5585 27.5918 17.5585 27.1738 17.5585C26.696 17.6182 26.4571 17.3793 26.3377 16.9613C26.0391 16.1252 25.6807 15.2891 25.3224 14.5127C25.2029 14.2141 25.0238 14.1543 24.7849 14.1543C22.7543 14.1543 20.7835 14.1543 18.7529 14.1543C18.4543 14.1543 18.3348 14.2738 18.2154 14.5127C17.8571 15.4085 17.4987 16.2446 17.2001 17.1405C17.0807 17.4391 16.9015 17.5585 16.5432 17.5585C15.5876 17.5585 14.5723 17.5585 13.6168 17.5585C13.0793 17.5585 13.0195 17.4391 13.1987 16.9613C14.1543 14.6321 15.1695 12.3029 16.1251 9.97375C17.439 6.86818 18.6932 3.82233 20.0071 0.716759C20.1862 0.358424 20.3654 0.17926 20.7835 0.17926C21.5001 0.17926 22.2168 0.17926 22.9335 0.17926C23.2321 0.17926 23.3515 0.2987 23.471 0.53759C24.3668 2.74732 25.3224 4.95706 26.2779 7.22652C27.5918 10.3918 28.9057 13.5571 30.2793 16.7224C30.6377 17.5585 30.6377 17.5585 29.7418 17.5585C29.3238 17.5585 28.9057 17.5585 28.4877 17.5585ZM21.7987 5.91262C21.6793 6.09179 21.6793 6.15151 21.6196 6.21123C21.0224 7.64457 20.4849 9.01819 19.8876 10.4515C19.7682 10.7501 19.9474 10.8099 20.1862 10.8099C21.2612 10.8099 22.3363 10.8099 23.4113 10.8099C23.7696 10.8099 23.7696 10.6904 23.6501 10.4515C23.471 10.0932 23.3515 9.73486 23.2321 9.37653C22.7543 8.18208 22.2765 7.10707 21.7987 5.91262Z" fill="white"/>
<path d="M64.6199 8.89872C64.6199 6.21121 64.6199 3.5237 64.6199 0.895904C64.6199 0.298679 64.6796 0.298675 65.2171 0.238953C68.5018 0.238953 71.7866 0.238953 75.0713 0.238953C75.6685 0.238953 75.6685 0.298675 75.6685 0.836178C75.6685 1.55285 75.6685 2.26952 75.6685 2.98619C75.6685 3.58342 75.6088 3.64314 75.0713 3.64314C72.981 3.64314 70.8907 3.64314 68.8005 3.64314C68.2032 3.64314 68.2032 3.64314 68.2032 4.24037C68.2032 5.07648 68.2032 5.91259 68.2032 6.68899C68.2032 7.04732 68.3227 7.16677 68.681 7.16677C70.3532 7.16677 72.0852 7.16677 73.7574 7.16677C74.4741 7.16677 74.4741 7.22649 74.4741 7.94316C74.4741 8.54039 74.4741 9.19733 74.4741 9.79456C74.4741 10.5112 74.4144 10.571 73.6977 10.571C72.0255 10.571 70.3532 10.571 68.7407 10.571C68.2032 10.571 68.2032 10.571 68.2032 11.1085C68.2032 11.9446 68.2032 12.7807 68.2032 13.5571C68.2032 14.0946 68.2032 14.0946 68.7407 14.0946C70.831 14.0946 72.9213 14.0946 75.0713 14.0946C75.6685 14.0946 75.7283 14.0946 75.7283 14.7515C75.7283 15.5279 75.7283 16.2446 75.7283 17.021C75.7283 17.3793 75.6088 17.4988 75.1908 17.4988C71.8463 17.4988 68.5018 17.4988 65.1574 17.4988C64.7393 17.4988 64.6199 17.3196 64.6199 16.9015C64.6199 14.2738 64.6199 11.5862 64.6199 8.89872Z" fill="white"/>
<path d="M0.0597226 8.83902C0.0597226 6.15151 0.0597226 3.46399 0.0597226 0.836196C0.0597226 0.23897 0.119445 0.179253 0.656948 0.179253C2.9264 0.179253 5.25558 0.119531 7.52504 0.179253C9.85422 0.238976 11.9445 1.73204 12.482 4.06122C13.1987 7.10707 11.407 9.43625 8.95838 10.3321C7.70421 10.7501 6.45003 10.8696 5.13614 10.8696C4.7778 10.8696 4.47919 10.8696 4.12086 10.8696C3.7028 10.8099 3.58335 10.989 3.58335 11.4071C3.58335 13.2585 3.58335 15.0502 3.58335 16.9016C3.58335 17.4988 3.52363 17.4988 2.98613 17.4988C2.20973 17.4988 1.37362 17.4988 0.597225 17.4988C0.0597225 17.4988 0 17.4391 0 16.9016C0.0597225 14.2738 0.0597226 11.5863 0.0597226 8.83902ZM3.64307 5.55428C3.64307 6.09178 3.64307 6.62929 3.64307 7.22651C3.64307 7.58485 3.76252 7.70429 4.12086 7.70429C5.13614 7.70429 6.15142 7.64457 7.10698 7.52513C8.18199 7.40568 8.89866 6.62928 8.89866 5.614C8.89866 4.35982 8.54032 3.88205 7.34587 3.64316C6.27087 3.40427 5.13614 3.40427 4.00141 3.40427C3.76252 3.40427 3.64307 3.58344 3.64307 3.76261C3.64307 4.41955 3.64307 4.95706 3.64307 5.55428Z" fill="white"/>
<path d="M38.8794 10.571C38.8794 12.721 38.8794 14.8113 38.8794 16.9613C38.8794 17.5585 38.8197 17.5585 38.2225 17.5585C37.4461 17.5585 36.6697 17.5585 35.8933 17.5585C35.2363 17.5585 35.2363 17.5585 35.2363 16.9016C35.2363 12.8404 35.2363 8.83903 35.2363 4.77789C35.2363 3.58344 35.2363 3.58344 34.0419 3.58344C33.0863 3.58344 32.1308 3.58344 31.1752 3.58344C30.6974 3.58344 30.6377 3.52372 30.6377 2.98622C30.6377 2.20982 30.6377 1.43343 30.6377 0.716759C30.6377 0.358424 30.7571 0.17926 31.1752 0.17926C35.1169 0.17926 38.9988 0.17926 42.9405 0.17926C43.3586 0.17926 43.478 0.358424 43.478 0.716759C43.478 1.49315 43.478 2.26955 43.478 2.98622C43.478 3.464 43.4183 3.58344 42.8808 3.58344C41.7461 3.58344 40.5516 3.58344 39.4169 3.58344C38.9988 3.58344 38.8794 3.70288 38.8794 4.12094C38.9391 6.27095 38.8794 8.42097 38.8794 10.571Z" fill="white"/>
<path d="M58.3488 10.571C58.3488 12.721 58.3488 14.8113 58.3488 16.9613C58.3488 17.4988 58.2891 17.5585 57.7516 17.5585C56.9752 17.5585 56.1988 17.5585 55.4224 17.5585C54.8252 17.5585 54.8252 17.4988 54.8252 16.9613C54.8252 12.7807 54.8252 8.65983 54.8252 4.47926C54.8252 4.35981 54.8252 4.24036 54.8252 4.12092C54.8252 3.76258 54.7058 3.64314 54.3474 3.64314C53.2127 3.64314 52.078 3.64314 50.9432 3.64314C50.2266 3.64314 50.2266 3.64314 50.2266 2.92647C50.2266 2.2098 50.2266 1.49313 50.2266 0.776461C50.2266 0.418126 50.346 0.238953 50.7043 0.238953C54.646 0.238953 58.5877 0.238953 62.5294 0.238953C62.8877 0.238953 63.0072 0.418126 63.0072 0.776461C63.0072 1.55285 63.0072 2.32924 63.0072 3.10564C63.0072 3.52369 62.828 3.64314 62.4697 3.64314C61.2752 3.64314 60.1405 3.64314 58.9461 3.64314C58.528 3.64314 58.4086 3.76259 58.4086 4.18064C58.3488 6.27093 58.3488 8.42094 58.3488 10.571Z" fill="white"/>
<path d="M45.3892 8.83903C45.3892 6.15151 45.3892 3.46399 45.3892 0.836203C45.3892 0.238977 45.4489 0.238983 45.9864 0.17926C46.8225 0.17926 47.5989 0.17926 48.435 0.17926C48.7933 0.17926 48.9725 0.298702 48.9725 0.716759C48.9725 6.15151 48.9725 11.5863 48.9725 17.021C48.9725 17.3793 48.8531 17.5585 48.435 17.5585C47.5989 17.5585 46.7628 17.5585 45.9267 17.5585C45.4489 17.5585 45.3892 17.4988 45.3892 16.9613C45.3892 14.2738 45.3892 11.5863 45.3892 8.83903Z" fill="white"/>
</svg>
