<svg width="347" height="170" viewBox="0 0 347 170" fill="none" xmlns="http://www.w3.org/2000/svg">
<g opacity="0.3">
<g opacity="0.3">
<path opacity="0.3" d="M75.3284 143.507L71.0284 134.307C72.1284 130.907 72.7284 127.207 72.7284 123.407C72.7284 103.507 56.6284 87.4071 36.7284 87.4071C16.8284 87.4071 0.728394 103.507 0.728394 123.407C0.728394 143.307 16.8284 159.407 36.7284 159.407C48.7284 159.407 59.3284 153.507 65.9284 144.507L75.3284 143.507Z" fill="white"/>
<path opacity="0.3" d="M129.828 19.8071C113.628 8.20708 91.1284 11.9071 79.5284 28.1071C67.9284 44.3071 71.6284 66.8071 87.8284 78.4071C97.5284 85.4071 109.628 86.8071 120.228 83.3071L128.528 88.0071L130.428 78.0071C133.328 75.8071 135.928 73.2071 138.128 70.1071C149.728 53.9071 146.028 31.4071 129.828 19.8071Z" fill="white"/>
<path opacity="0.3" d="M298.028 87.4071C278.128 87.4071 262.028 103.507 262.028 123.407C262.028 127.207 262.628 130.807 263.728 134.307L259.428 143.507L268.928 144.607C275.428 153.607 286.128 159.507 298.128 159.507C318.028 159.507 334.128 143.407 334.128 123.507C334.028 103.507 317.928 87.4071 298.028 87.4071Z" fill="white"/>
<path opacity="0.3" d="M255.128 28.0071C243.528 11.9071 221.028 8.20707 204.828 19.8071C188.628 31.4071 184.928 53.9071 196.528 70.1071C198.728 73.2071 201.328 75.8071 204.228 78.0071L206.128 88.0071L214.428 83.3071C225.028 86.8071 237.028 85.4071 246.828 78.4071C263.028 66.7071 266.728 44.2071 255.128 28.0071Z" fill="white"/>
</g>
<g opacity="0.3">
<path opacity="0.3" d="M75.5283 143.307L71.2283 134.107C72.3283 130.707 72.9283 127.007 72.9283 123.207C72.9283 103.307 56.8283 87.2072 36.9283 87.2072C17.0283 87.2072 0.928345 103.307 0.928345 123.207C0.928345 143.107 17.0283 159.207 36.9283 159.207C48.9283 159.207 59.5283 153.307 66.1283 144.307L75.5283 143.307Z" fill="#FAFAFA"/>
<path opacity="0.3" d="M130.128 19.5071C113.928 7.90715 91.4283 11.6071 79.8283 27.8071C68.2283 44.0071 71.9283 66.5072 88.0283 78.1072C97.7283 85.1072 109.828 86.5071 120.428 83.0071L128.728 87.7072L130.628 77.7072C133.528 75.5072 136.128 72.9071 138.328 69.8071C149.928 53.7071 146.228 31.1072 130.128 19.5071Z" fill="#FAFAFA"/>
<path opacity="0.3" d="M298.228 87.1072C278.328 87.1072 262.228 103.207 262.228 123.107C262.228 126.907 262.828 130.507 263.928 134.007L259.628 143.207L269.128 144.307C275.628 153.307 286.328 159.207 298.328 159.207C318.228 159.207 334.328 143.107 334.328 123.207C334.328 103.307 318.128 87.1072 298.228 87.1072Z" fill="#FAFAFA"/>
<path opacity="0.3" d="M255.328 27.8071C243.728 11.6071 221.228 7.90715 205.028 19.5071C188.828 31.1072 185.128 53.6071 196.728 69.8071C198.928 72.9071 201.528 75.5072 204.428 77.7072L206.328 87.7072L214.628 83.0071C225.228 86.5071 237.228 85.1072 247.028 78.1072C263.228 66.5072 266.928 44.0071 255.328 27.8071Z" fill="#FAFAFA"/>
</g>
<g opacity="0.3">
<path opacity="0.3" d="M75.8284 143.007L71.5284 133.807C72.6284 130.407 73.2284 126.707 73.2284 122.907C73.2284 103.007 57.1284 86.9071 37.2284 86.9071C17.3284 86.9071 1.22839 103.007 1.22839 122.907C1.22839 142.807 17.3284 158.907 37.2284 158.907C49.2284 158.907 59.8284 153.007 66.4284 144.007L75.8284 143.007Z" fill="#F5F5F5"/>
<path opacity="0.3" d="M130.328 19.3071C114.128 7.70708 91.6284 11.4071 80.0284 27.6071C68.4284 43.8071 72.1284 66.3071 88.3284 77.9071C98.0284 84.9071 110.128 86.3071 120.728 82.8071L129.028 87.5071L130.928 77.5071C133.828 75.3071 136.428 72.7071 138.628 69.6071C150.128 53.4071 146.428 30.9071 130.328 19.3071Z" fill="#F5F5F5"/>
<path opacity="0.3" d="M298.528 86.9071C278.628 86.9071 262.528 103.007 262.528 122.907C262.528 126.707 263.128 130.307 264.228 133.807L259.928 143.007L269.428 144.107C275.928 153.107 286.628 159.007 298.628 159.007C318.528 159.007 334.628 142.907 334.628 123.007C334.528 103.107 318.428 86.9071 298.528 86.9071Z" fill="#F5F5F5"/>
<path opacity="0.3" d="M255.528 27.6071C243.928 11.4071 221.428 7.70708 205.228 19.3071C189.028 30.9071 185.328 53.4071 196.928 69.6071C199.128 72.7071 201.728 75.3071 204.628 77.5071L206.528 87.5071L214.828 82.8071C225.428 86.3071 237.428 84.9071 247.228 77.9071C263.528 66.3071 267.228 43.7071 255.528 27.6071Z" fill="#F5F5F5"/>
</g>
<g opacity="0.3">
<path opacity="0.3" d="M76.0283 142.807L71.7283 133.607C72.8283 130.207 73.4283 126.507 73.4283 122.707C73.4283 102.807 57.3283 86.7072 37.4283 86.7072C17.5283 86.7072 1.42834 102.807 1.42834 122.707C1.42834 142.607 17.5283 158.707 37.4283 158.707C49.4283 158.707 60.0283 152.807 66.6283 143.807L76.0283 142.807Z" fill="#F0F0F0"/>
<path opacity="0.3" d="M130.528 19.1071C114.328 7.50712 91.8283 11.2071 80.2283 27.4071C68.6283 43.6071 72.3283 66.1071 88.5283 77.7071C98.2283 84.7071 110.328 86.1071 120.928 82.6071L129.228 87.3071L131.128 77.3071C134.028 75.1071 136.628 72.5071 138.828 69.4071C150.428 53.2071 146.728 30.7071 130.528 19.1071Z" fill="#F0F0F0"/>
<path opacity="0.3" d="M298.728 86.7072C278.828 86.7072 262.728 102.807 262.728 122.707C262.728 126.507 263.328 130.107 264.428 133.607L260.028 142.807L269.528 143.907C276.028 152.907 286.728 158.807 298.728 158.807C318.628 158.807 334.728 142.707 334.728 122.807C334.728 102.807 318.628 86.7072 298.728 86.7072Z" fill="#F0F0F0"/>
<path opacity="0.3" d="M255.828 27.4071C244.228 11.2071 221.728 7.50712 205.528 19.1071C189.328 30.7071 185.628 53.2071 197.228 69.4071C199.428 72.5071 202.028 75.1071 204.928 77.3071L206.828 87.3071L215.128 82.6071C225.728 86.1071 237.728 84.7071 247.528 77.7071C263.728 66.0071 267.428 43.5071 255.828 27.4071Z" fill="#F0F0F0"/>
</g>
<g opacity="0.3">
<path opacity="0.3" d="M76.2284 142.607L71.9284 133.407C73.0284 130.007 73.6284 126.307 73.6284 122.507C73.6284 102.607 57.5284 86.5071 37.6284 86.5071C17.7284 86.5071 1.62842 102.607 1.62842 122.507C1.62842 142.407 17.7284 158.507 37.6284 158.507C49.6284 158.507 60.2284 152.607 66.8284 143.607L76.2284 142.607Z" fill="#EBEBEB"/>
<path opacity="0.3" d="M130.728 18.9071C114.528 7.30705 92.0284 11.0071 80.4284 27.2071C68.8284 43.4071 72.5284 65.8071 88.7284 77.4071C98.4284 84.4071 110.528 85.8071 121.128 82.3071L129.428 87.007L131.328 77.007C134.228 74.807 136.828 72.2071 139.028 69.1071C150.628 53.0071 146.928 30.5071 130.728 18.9071Z" fill="#EBEBEB"/>
<path opacity="0.3" d="M298.928 86.5071C279.028 86.5071 262.928 102.607 262.928 122.507C262.928 126.307 263.528 129.907 264.628 133.407L260.328 142.607L269.828 143.707C276.328 152.707 287.028 158.607 299.028 158.607C318.928 158.607 335.028 142.507 335.028 122.607C334.928 102.607 318.828 86.5071 298.928 86.5071Z" fill="#EBEBEB"/>
<path opacity="0.3" d="M256.028 27.1071C244.428 10.9071 221.928 7.20708 205.728 18.8071C189.528 30.4071 185.828 52.9071 197.428 69.1071C199.628 72.2071 202.228 74.8071 205.128 77.0071L207.028 87.0071L215.328 82.3071C225.928 85.8071 237.928 84.4071 247.728 77.4071C263.928 65.8071 267.628 43.3071 256.028 27.1071Z" fill="#EBEBEB"/>
</g>
<g opacity="0.3">
<path opacity="0.3" d="M76.4284 142.407L72.1284 133.207C73.2284 129.807 73.8284 126.107 73.8284 122.307C73.8284 102.407 57.7284 86.3071 37.8284 86.3071C17.9284 86.3071 1.82837 102.407 1.82837 122.307C1.82837 142.207 17.9284 158.307 37.8284 158.307C49.8284 158.307 60.4284 152.407 67.0284 143.407L76.4284 142.407Z" fill="#E6E6E6"/>
<path opacity="0.3" d="M131.028 18.6071C114.828 7.00712 92.3283 10.7071 80.7283 26.9071C69.1283 43.1071 72.8283 65.6071 89.0283 77.2071C98.7283 84.2071 110.828 85.6071 121.428 82.1071L129.728 86.8071L131.628 76.8071C134.528 74.6071 137.128 72.0071 139.328 68.9071C150.828 52.8071 147.128 30.2071 131.028 18.6071Z" fill="#E6E6E6"/>
<path opacity="0.3" d="M299.128 86.2072C279.228 86.2072 263.128 102.307 263.128 122.207C263.128 126.007 263.728 129.607 264.828 133.107L260.528 142.307L270.028 143.407C276.528 152.407 287.228 158.307 299.228 158.307C319.128 158.307 335.228 142.207 335.228 122.307C335.228 102.407 319.028 86.2072 299.128 86.2072Z" fill="#E6E6E6"/>
<path opacity="0.3" d="M256.228 26.9071C244.628 10.7071 222.128 7.00712 205.928 18.6071C189.728 30.2071 186.028 52.7071 197.628 68.9071C199.828 72.0071 202.428 74.6071 205.328 76.8071L207.228 86.8071L215.528 82.1071C226.128 85.6071 238.128 84.2071 247.928 77.2071C264.128 65.6071 267.828 43.1071 256.228 26.9071Z" fill="#E6E6E6"/>
</g>
<g opacity="0.3">
<path opacity="0.3" d="M76.7284 142.107L72.4284 132.907C73.5284 129.507 74.1284 125.807 74.1284 122.007C74.1284 102.107 58.0284 86.0071 38.1284 86.0071C18.2284 86.0071 2.12842 102.107 2.12842 122.007C2.12842 141.907 18.2284 158.007 38.1284 158.007C50.1284 158.007 60.7284 152.107 67.3284 143.107L76.7284 142.107Z" fill="#E1E1E1"/>
<path opacity="0.3" d="M131.228 18.4071C115.028 6.80705 92.5284 10.5071 80.9284 26.7071C69.3284 42.9071 73.0284 65.4071 89.2284 77.007C98.9284 84.007 111.028 85.4071 121.628 81.9071L129.928 86.6071L131.828 76.6071C134.728 74.4071 137.328 71.8071 139.528 68.7071C151.128 52.5071 147.428 30.0071 131.228 18.4071Z" fill="#E1E1E1"/>
<path opacity="0.3" d="M299.428 86.0071C279.528 86.0071 263.428 102.107 263.428 122.007C263.428 125.807 264.028 129.407 265.128 132.907L260.828 142.107L270.328 143.207C276.828 152.207 287.528 158.107 299.528 158.107C319.428 158.107 335.528 142.007 335.528 122.107C335.428 102.107 319.328 86.0071 299.428 86.0071Z" fill="#E1E1E1"/>
<path opacity="0.3" d="M256.528 26.7071C244.928 10.5071 222.428 6.80705 206.228 18.4071C190.028 30.0071 186.328 52.5071 197.928 68.7071C200.128 71.8071 202.728 74.4071 205.628 76.6071L207.528 86.6071L215.828 81.9071C226.428 85.4071 238.428 84.007 248.228 77.007C264.428 65.4071 268.128 42.8071 256.528 26.7071Z" fill="#E1E1E1"/>
</g>
<g opacity="0.3">
<path opacity="0.3" d="M76.9284 141.907L72.6284 132.707C73.7284 129.307 74.3284 125.607 74.3284 121.807C74.3284 101.907 58.2284 85.8071 38.3284 85.8071C18.4284 85.8071 2.32837 101.907 2.32837 121.807C2.32837 141.707 18.4284 157.807 38.3284 157.807C50.3284 157.807 60.9284 151.907 67.5284 142.907L76.9284 141.907Z" fill="#DCDCDC"/>
<path opacity="0.3" d="M131.428 18.2071C115.228 6.6071 92.7284 10.3071 81.1284 26.5071C69.5284 42.7071 73.2284 65.2071 89.4284 76.8071C99.1284 83.8071 111.228 85.2071 121.828 81.7071L130.128 86.4071L132.028 76.4071C134.928 74.2071 137.528 71.6071 139.728 68.5071C151.328 52.3071 147.628 29.8071 131.428 18.2071Z" fill="#DCDCDC"/>
<path opacity="0.3" d="M299.628 85.8071C279.728 85.8071 263.628 101.907 263.628 121.807C263.628 125.607 264.228 129.207 265.328 132.707L261.028 141.907L270.528 143.007C277.028 152.007 287.728 157.907 299.728 157.907C319.628 157.907 335.728 141.807 335.728 121.907C335.628 101.907 319.528 85.8071 299.628 85.8071Z" fill="#DCDCDC"/>
<path opacity="0.3" d="M256.728 26.4071C245.128 10.2071 222.628 6.50712 206.428 18.1071C190.228 29.7071 186.528 52.2071 198.128 68.4071C200.328 71.5071 202.928 74.1071 205.828 76.3071L207.728 86.3071L216.028 81.6071C226.628 85.1071 238.628 83.7071 248.428 76.7071C264.628 65.1071 268.328 42.6071 256.728 26.4071Z" fill="#DCDCDC"/>
</g>
<g opacity="0.3">
<path opacity="0.3" d="M77.1284 141.707L72.8284 132.507C73.9284 129.107 74.5284 125.407 74.5284 121.607C74.5284 101.707 58.4284 85.6071 38.5284 85.6071C18.6284 85.6071 2.52844 101.707 2.52844 121.607C2.52844 141.507 18.6284 157.607 38.5284 157.607C50.5284 157.607 61.1284 151.707 67.7284 142.707L77.1284 141.707Z" fill="#D7D7D7"/>
<path opacity="0.3" d="M131.628 18.007C115.428 6.40703 92.9284 10.107 81.3284 26.307C69.7284 42.507 73.4284 65.007 89.6284 76.607C99.3284 83.607 111.428 85.007 122.028 81.507L130.328 86.207L132.228 76.207C135.128 74.007 137.728 71.407 139.928 68.307C151.528 52.107 147.828 29.607 131.628 18.007Z" fill="#D7D7D7"/>
<path opacity="0.3" d="M299.828 85.6071C279.928 85.6071 263.828 101.707 263.828 121.607C263.828 125.407 264.429 129.007 265.529 132.507L261.229 141.707L270.729 142.807C277.229 151.807 287.928 157.707 299.928 157.707C319.828 157.707 335.928 141.607 335.928 121.707C335.828 101.707 319.728 85.6071 299.828 85.6071Z" fill="#D7D7D7"/>
<path opacity="0.3" d="M256.928 26.2071C245.328 10.0071 222.828 6.30705 206.628 17.9071C190.428 29.5071 186.728 52.0071 198.328 68.2071C200.528 71.3071 203.128 73.9071 206.028 76.1071L207.928 86.1071L216.228 81.4071C226.828 84.9071 238.828 83.507 248.628 76.507C264.828 64.9071 268.528 42.4071 256.928 26.2071Z" fill="#D7D7D7"/>
</g>
<g opacity="0.3">
<path opacity="0.3" d="M77.3284 141.507L73.0284 132.307C74.1284 128.907 74.7284 125.207 74.7284 121.407C74.7284 101.507 58.6284 85.4071 38.7284 85.4071C18.8284 85.4071 2.72839 101.507 2.72839 121.407C2.72839 141.307 18.8284 157.407 38.7284 157.407C50.7284 157.407 61.3284 151.507 67.9284 142.507L77.3284 141.507Z" fill="#D2D2D2"/>
<path opacity="0.3" d="M131.928 17.7071C115.728 6.1071 93.2284 9.8071 81.6284 26.0071C70.0284 42.2071 73.7284 64.7071 89.8284 76.3071C99.5284 83.3071 111.628 84.7071 122.228 81.2071L130.528 85.9071L132.428 75.9071C135.328 73.7071 137.928 71.1071 140.128 68.0071C151.728 51.8071 148.028 29.3071 131.928 17.7071Z" fill="#D2D2D2"/>
<path opacity="0.3" d="M300.028 85.3071C280.128 85.3071 264.028 101.407 264.028 121.307C264.028 125.107 264.628 128.707 265.728 132.207L261.428 141.407L270.928 142.507C277.428 151.507 288.128 157.407 300.128 157.407C320.028 157.407 336.128 141.307 336.128 121.407C336.128 101.507 319.928 85.3071 300.028 85.3071Z" fill="#D2D2D2"/>
<path opacity="0.3" d="M257.128 26.0071C245.528 9.8071 223.028 6.1071 206.928 17.7071C190.728 29.3071 187.028 51.8071 198.628 68.0071C200.828 71.1071 203.428 73.7071 206.328 75.9071L208.228 85.9071L216.528 81.2071C227.128 84.7071 239.128 83.3071 248.928 76.3071C265.028 64.7071 268.728 42.2071 257.128 26.0071Z" fill="#D2D2D2"/>
</g>
<g opacity="0.3">
<path opacity="0.3" d="M77.6284 141.207L73.3284 132.007C74.4284 128.607 75.0284 124.907 75.0284 121.107C75.0284 101.207 58.9284 85.1072 39.0284 85.1072C19.1284 85.1072 3.02844 101.207 3.02844 121.107C3.02844 141.007 19.1284 157.107 39.0284 157.107C51.0284 157.107 61.6284 151.207 68.2284 142.207L77.6284 141.207Z" fill="#CDCDCD"/>
<path opacity="0.3" d="M132.128 17.5071C115.928 5.90715 93.4284 9.60715 81.8284 25.8071C70.2284 42.0071 73.9284 64.5072 90.1284 76.1072C99.8284 83.1072 111.928 84.5071 122.528 81.0071L130.828 85.7072L132.728 75.7072C135.628 73.5072 138.228 70.9071 140.428 67.8071C152.028 51.6071 148.328 29.1072 132.128 17.5071Z" fill="#CDCDCD"/>
<path opacity="0.3" d="M300.328 85.1072C280.428 85.1072 264.328 101.207 264.328 121.107C264.328 124.907 264.929 128.507 266.029 132.007L261.729 141.207L271.229 142.307C277.729 151.307 288.428 157.207 300.428 157.207C320.328 157.207 336.428 141.107 336.428 121.207C336.328 101.207 320.228 85.1072 300.328 85.1072Z" fill="#CDCDCD"/>
<path opacity="0.3" d="M257.428 25.8071C245.828 9.60715 223.328 5.90715 207.128 17.5071C190.928 29.1072 187.228 51.6071 198.828 67.8071C201.028 70.9071 203.628 73.5072 206.528 75.7072L208.428 85.7072L216.728 81.0071C227.328 84.5071 239.328 83.1072 249.128 76.1072C265.328 64.4072 269.028 41.9072 257.428 25.8071Z" fill="#CDCDCD"/>
</g>
<g opacity="0.3">
<path opacity="0.3" d="M77.8284 141.007L73.5284 131.807C74.6284 128.407 75.2284 124.707 75.2284 120.907C75.2284 101.007 59.1284 84.9071 39.2284 84.9071C19.3284 84.9071 3.22839 101.007 3.22839 120.907C3.22839 140.807 19.3284 156.907 39.2284 156.907C51.2284 156.907 61.8284 151.007 68.4284 142.007L77.8284 141.007Z" fill="#C8C8C8"/>
<path opacity="0.3" d="M132.328 17.3071C116.128 5.70708 93.6284 9.40707 82.0284 25.6071C70.4284 41.8071 74.1284 64.2071 90.3284 75.8071C100.028 82.8071 112.128 84.2071 122.728 80.7071L131.028 85.4071L132.928 75.4071C135.828 73.2071 138.428 70.6071 140.628 67.5071C152.228 51.4071 148.528 28.9071 132.328 17.3071Z" fill="#C8C8C8"/>
<path opacity="0.3" d="M300.528 84.9071C280.628 84.9071 264.528 101.007 264.528 120.907C264.528 124.707 265.128 128.307 266.228 131.807L261.928 141.007L271.428 142.107C277.928 151.107 288.628 157.007 300.628 157.007C320.528 157.007 336.628 140.907 336.628 121.007C336.528 101.007 320.428 84.9071 300.528 84.9071Z" fill="#C8C8C8"/>
<path opacity="0.3" d="M257.628 25.5071C246.028 9.3071 223.528 5.6071 207.328 17.2071C191.128 28.8071 187.428 51.3071 199.028 67.5071C201.228 70.6071 203.828 73.2071 206.728 75.4071L208.628 85.4071L216.928 80.7071C227.528 84.2071 239.528 82.8071 249.328 75.8071C265.528 64.2071 269.228 41.7071 257.628 25.5071Z" fill="#C8C8C8"/>
</g>
<g opacity="0.3">
<path opacity="0.3" d="M78.0283 140.807L73.7283 131.607C74.8283 128.207 75.4283 124.507 75.4283 120.707C75.4283 100.807 59.3283 84.7072 39.4283 84.7072C19.5283 84.7072 3.42834 100.807 3.42834 120.707C3.42834 140.607 19.5283 156.707 39.4283 156.707C51.4283 156.707 62.0283 150.807 68.6283 141.807L78.0283 140.807Z" fill="#C3C3C3"/>
<path opacity="0.3" d="M132.528 17.0071C116.328 5.40715 93.8283 9.10715 82.2283 25.3071C70.6283 41.5071 74.3283 64.0072 90.5283 75.6072C100.228 82.6072 112.328 84.0071 122.928 80.5071L131.228 85.2072L133.128 75.2072C136.028 73.0072 138.628 70.4071 140.828 67.3071C152.428 51.2071 148.728 28.7071 132.528 17.0071Z" fill="#C3C3C3"/>
<path opacity="0.3" d="M300.728 84.6072C280.828 84.6072 264.728 100.707 264.728 120.607C264.728 124.407 265.328 128.007 266.428 131.507L262.128 140.707L271.628 141.807C278.128 150.807 288.828 156.707 300.828 156.707C320.728 156.707 336.828 140.607 336.828 120.707C336.828 100.807 320.628 84.6072 300.728 84.6072Z" fill="#C3C3C3"/>
<path opacity="0.3" d="M257.828 25.3071C246.228 9.10715 223.728 5.40715 207.528 17.0071C191.328 28.6072 187.628 51.1071 199.228 67.3071C201.428 70.4071 204.028 73.0072 206.928 75.2072L208.828 85.2072L217.128 80.5071C227.728 84.0071 239.728 82.6072 249.528 75.6072C265.728 64.0072 269.428 41.5071 257.828 25.3071Z" fill="#C3C3C3"/>
</g>
<g opacity="0.3">
<path opacity="0.3" d="M78.3284 140.607L74.0284 131.407C75.1284 128.007 75.7284 124.307 75.7284 120.507C75.7284 100.607 59.6284 84.5071 39.7284 84.5071C19.8284 84.5071 3.72839 100.607 3.72839 120.507C3.72839 140.407 19.8284 156.507 39.7284 156.507C51.7284 156.507 62.3284 150.607 68.9284 141.607L78.3284 140.607Z" fill="#BEBEBE"/>
<path opacity="0.3" d="M132.828 16.8071C116.628 5.20708 94.1284 8.90707 82.5284 25.1071C70.9284 41.3071 74.6284 63.8071 90.8284 75.4071C100.528 82.4071 112.628 83.8071 123.228 80.3071L131.528 85.0071L133.428 75.0071C136.328 72.8071 138.928 70.2071 141.128 67.1071C152.628 50.9071 148.928 28.4071 132.828 16.8071Z" fill="#BEBEBE"/>
<path opacity="0.3" d="M300.928 84.4071C281.028 84.4071 264.928 100.507 264.928 120.407C264.928 124.207 265.528 127.807 266.628 131.307L262.328 140.507L271.828 141.607C278.328 150.607 289.028 156.507 301.028 156.507C320.928 156.507 337.028 140.407 337.028 120.507C337.028 100.607 320.828 84.4071 300.928 84.4071Z" fill="#BEBEBE"/>
<path opacity="0.3" d="M258.028 25.1071C246.428 8.90707 223.928 5.20708 207.728 16.8071C191.528 28.4071 187.828 50.9071 199.428 67.1071C201.628 70.2071 204.228 72.8071 207.128 75.0071L209.028 85.0071L217.328 80.3071C227.928 83.8071 239.928 82.4071 249.728 75.4071C265.928 63.8071 269.628 41.3071 258.028 25.1071Z" fill="#BEBEBE"/>
</g>
<g opacity="0.3">
<path opacity="0.3" d="M78.5283 140.307L74.2283 131.107C75.3283 127.707 75.9283 124.007 75.9283 120.207C75.9283 100.307 59.8283 84.2072 39.9283 84.2072C20.0283 84.2072 3.92834 100.307 3.92834 120.207C3.92834 140.107 20.0283 156.207 39.9283 156.207C51.9283 156.207 62.5283 150.307 69.1283 141.307L78.5283 140.307Z" fill="#B9B9B9"/>
<path opacity="0.3" d="M133.028 16.6071C116.828 5.00712 94.3283 8.70712 82.7283 24.9071C71.1283 41.1071 74.8283 63.6071 91.0283 75.2071C100.728 82.2071 112.828 83.6071 123.428 80.1071L131.728 84.8071L133.628 74.8071C136.528 72.6071 139.128 70.0071 141.328 66.9071C152.928 50.7071 149.228 28.2071 133.028 16.6071Z" fill="#B9B9B9"/>
<path opacity="0.3" d="M301.228 84.2072C281.328 84.2072 265.228 100.307 265.228 120.207C265.228 124.007 265.828 127.607 266.928 131.107L262.628 140.307L272.128 141.407C278.628 150.407 289.328 156.307 301.328 156.307C321.228 156.307 337.328 140.207 337.328 120.307C337.228 100.307 321.128 84.2072 301.228 84.2072Z" fill="#B9B9B9"/>
<path opacity="0.3" d="M258.328 24.9071C246.728 8.70712 224.228 5.00712 208.028 16.6071C191.828 28.2071 188.128 50.7071 199.728 66.9071C201.928 70.0071 204.528 72.6071 207.428 74.8071L209.328 84.8071L217.628 80.1071C228.228 83.6071 240.228 82.2071 250.028 75.2071C266.228 63.5071 269.928 41.0071 258.328 24.9071Z" fill="#B9B9B9"/>
</g>
<g opacity="0.3">
<path opacity="0.3" d="M78.7284 140.107L74.4284 130.907C75.5284 127.507 76.1284 123.807 76.1284 120.007C76.1284 100.107 60.0284 84.0071 40.1284 84.0071C20.2284 84.0071 4.12842 100.107 4.12842 120.007C4.12842 139.907 20.2284 156.007 40.1284 156.007C52.1284 156.007 62.7284 150.107 69.3284 141.107L78.7284 140.107Z" fill="#B4B4B4"/>
<path opacity="0.3" d="M133.228 16.4071C117.028 4.80705 94.5284 8.50705 82.9284 24.7071C71.3284 40.8071 75.0284 63.3071 91.2284 74.9071C100.928 81.9071 113.028 83.3071 123.628 79.8071L131.928 84.507L133.828 74.507C136.728 72.307 139.328 69.7071 141.528 66.6071C153.128 50.5071 149.428 28.0071 133.228 16.4071Z" fill="#B4B4B4"/>
<path opacity="0.3" d="M301.428 84.0071C281.528 84.0071 265.428 100.107 265.428 120.007C265.428 123.807 266.028 127.407 267.128 130.907L262.828 140.107L272.328 141.207C278.828 150.207 289.528 156.107 301.528 156.107C321.428 156.107 337.528 140.007 337.528 120.107C337.428 100.107 321.328 84.0071 301.428 84.0071Z" fill="#B4B4B4"/>
<path opacity="0.3" d="M258.528 24.6071C246.928 8.40707 224.428 4.70708 208.228 16.3071C192.028 27.9071 188.328 50.4071 199.928 66.6071C202.128 69.7071 204.728 72.3071 207.628 74.5071L209.528 84.5071L217.828 79.8071C228.428 83.3071 240.428 81.9071 250.228 74.9071C266.428 63.3071 270.128 40.8071 258.528 24.6071Z" fill="#B4B4B4"/>
</g>
<g opacity="0.3">
<path opacity="0.3" d="M78.9284 139.907L74.6284 130.707C75.7284 127.307 76.3284 123.607 76.3284 119.807C76.3284 99.9071 60.2284 83.8071 40.3284 83.8071C20.4284 83.8071 4.32837 99.9071 4.32837 119.807C4.32837 139.707 20.4284 155.807 40.3284 155.807C52.3284 155.807 62.9284 149.907 69.5284 140.907L78.9284 139.907Z" fill="#AFAFAF"/>
<path opacity="0.3" d="M133.528 16.1071C117.328 4.50712 94.8283 8.20712 83.2283 24.4071C71.6283 40.6071 75.3283 63.1071 91.5283 74.7071C101.228 81.7071 113.328 83.1071 123.928 79.6071L132.228 84.3071L134.128 74.3071C137.028 72.1071 139.628 69.5071 141.828 66.4071C153.328 50.3071 149.628 27.7071 133.528 16.1071Z" fill="#AFAFAF"/>
<path opacity="0.3" d="M301.628 83.7072C281.728 83.7072 265.628 99.8071 265.628 119.707C265.628 123.507 266.228 127.107 267.328 130.607L263.028 139.807L272.528 140.907C279.028 149.907 289.728 155.807 301.728 155.807C321.628 155.807 337.728 139.707 337.728 119.807C337.728 99.9072 321.528 83.7072 301.628 83.7072Z" fill="#AFAFAF"/>
<path opacity="0.3" d="M258.728 24.4071C247.128 8.20712 224.628 4.50712 208.428 16.1071C192.228 27.7071 188.528 50.2071 200.128 66.4071C202.328 69.5071 204.928 72.1071 207.828 74.3071L209.728 84.3071L218.028 79.6071C228.628 83.1071 240.628 81.7071 250.428 74.7071C266.628 63.1071 270.328 40.6071 258.728 24.4071Z" fill="#AFAFAF"/>
</g>
<g opacity="0.3">
<path opacity="0.3" d="M79.2284 139.607L74.9284 130.407C76.0284 127.007 76.6284 123.307 76.6284 119.507C76.6284 99.6071 60.5284 83.5071 40.6284 83.5071C20.7284 83.5071 4.62842 99.6071 4.62842 119.507C4.62842 139.407 20.7284 155.507 40.6284 155.507C52.6284 155.507 63.2284 149.607 69.8284 140.607L79.2284 139.607Z" fill="#AAAAAA"/>
<path opacity="0.3" d="M133.728 15.9071C117.528 4.30705 95.0284 8.00705 83.4284 24.2071C71.8284 40.4071 75.5284 62.9071 91.7284 74.507C101.428 81.507 113.528 82.9071 124.128 79.4071L132.428 84.1071L134.328 74.1071C137.228 71.9071 139.828 69.3071 142.028 66.2071C153.628 50.0071 149.928 27.5071 133.728 15.9071Z" fill="#AAAAAA"/>
<path opacity="0.3" d="M301.928 83.5071C282.028 83.5071 265.928 99.6071 265.928 119.507C265.928 123.307 266.528 126.907 267.628 130.407L263.328 139.607L272.828 140.707C279.328 149.707 290.028 155.607 302.028 155.607C321.928 155.607 338.028 139.507 338.028 119.607C337.928 99.6071 321.828 83.5071 301.928 83.5071Z" fill="#AAAAAA"/>
<path opacity="0.3" d="M259.028 24.2071C247.428 8.00705 224.928 4.30705 208.728 15.9071C192.528 27.5071 188.828 50.0071 200.428 66.2071C202.628 69.3071 205.228 71.9071 208.128 74.1071L210.028 84.1071L218.328 79.4071C228.928 82.9071 240.928 81.507 250.728 74.507C266.928 62.9071 270.628 40.3071 259.028 24.2071Z" fill="#AAAAAA"/>
</g>
<g opacity="0.3">
<path opacity="0.3" d="M79.4284 139.407L75.1284 130.207C76.2284 126.807 76.8284 123.107 76.8284 119.307C76.8284 99.4071 60.7284 83.3071 40.8284 83.3071C20.9284 83.3071 4.82837 99.4071 4.82837 119.307C4.82837 139.207 20.9284 155.307 40.8284 155.307C52.8284 155.307 63.4284 149.407 70.0284 140.407L79.4284 139.407Z" fill="#A5A5A5"/>
<path opacity="0.3" d="M133.928 15.7071C117.728 4.1071 95.2284 7.8071 83.6284 24.0071C72.0284 40.2071 75.7284 62.7071 91.9284 74.3071C101.628 81.3071 113.728 82.7071 124.328 79.2071L132.628 83.9071L134.528 73.9071C137.428 71.7071 140.028 69.1071 142.228 66.0071C153.828 49.8071 150.128 27.3071 133.928 15.7071Z" fill="#A5A5A5"/>
<path opacity="0.3" d="M302.128 83.3071C282.228 83.3071 266.128 99.4071 266.128 119.307C266.128 123.107 266.728 126.707 267.828 130.207L263.528 139.407L273.028 140.507C279.528 149.507 290.228 155.407 302.228 155.407C322.128 155.407 338.228 139.307 338.228 119.407C338.128 99.4071 322.028 83.3071 302.128 83.3071Z" fill="#A5A5A5"/>
<path opacity="0.3" d="M259.228 23.9071C247.628 7.70712 225.128 4.00712 208.928 15.6071C192.728 27.3071 189.028 49.8071 200.628 66.0071C202.828 69.1071 205.428 71.7071 208.328 73.9071L210.228 83.9071L218.528 79.2071C229.128 82.7071 241.128 81.3071 250.928 74.3071C267.128 62.6071 270.828 40.1071 259.228 23.9071Z" fill="#A5A5A5"/>
</g>
<g opacity="0.3">
<path opacity="0.3" d="M79.6284 139.207L75.3284 130.007C76.4284 126.607 77.0284 122.907 77.0284 119.107C77.0284 99.2071 60.9284 83.1071 41.0284 83.1071C21.1284 83.1071 5.02844 99.2071 5.02844 119.107C5.02844 139.007 21.1284 155.107 41.0284 155.107C53.0284 155.107 63.6284 149.207 70.2284 140.207L79.6284 139.207Z" fill="#A0A0A0"/>
<path opacity="0.3" d="M134.128 15.507C117.928 3.90703 95.4284 7.60703 83.8284 23.807C72.2284 40.007 75.9284 62.507 92.1284 74.107C101.828 81.107 113.928 82.507 124.528 79.007L132.828 83.707L134.728 73.707C137.628 71.507 140.228 68.907 142.428 65.807C154.028 49.607 150.328 27.107 134.128 15.507Z" fill="#A0A0A0"/>
<path opacity="0.3" d="M302.328 83.1071C282.428 83.1071 266.328 99.2071 266.328 119.107C266.328 122.907 266.929 126.507 268.029 130.007L263.729 139.207L273.229 140.307C279.729 149.307 290.428 155.207 302.428 155.207C322.328 155.207 338.428 139.107 338.428 119.207C338.328 99.207 322.228 83.1071 302.328 83.1071Z" fill="#A0A0A0"/>
<path opacity="0.3" d="M259.428 23.7071C247.828 7.50705 225.328 3.80705 209.128 15.4071C192.928 27.0071 189.228 49.5071 200.828 65.7071C203.028 68.8071 205.628 71.4071 208.528 73.6071L210.428 83.6071L218.728 78.9071C229.328 82.4071 241.328 81.007 251.128 74.007C267.328 62.4071 271.028 39.9071 259.428 23.7071Z" fill="#A0A0A0"/>
</g>
<g opacity="0.3">
<path opacity="0.3" d="M79.8284 139.007L75.5284 129.807C76.6284 126.407 77.2284 122.707 77.2284 118.907C77.2284 99.0071 61.1284 82.9071 41.2284 82.9071C21.3284 82.9071 5.22839 99.0071 5.22839 118.907C5.22839 138.807 21.3284 154.907 41.2284 154.907C53.2284 154.907 63.8284 149.007 70.4284 140.007L79.8284 139.007Z" fill="#9B9B9B"/>
<path opacity="0.3" d="M134.428 15.2071C118.228 3.6071 95.7284 7.3071 84.1284 23.5071C72.5284 39.7071 76.2284 62.2071 92.4284 73.8071C102.128 80.8071 114.228 82.2071 124.828 78.7071L133.128 83.4071L135.028 73.4071C137.928 71.2071 140.528 68.6071 142.728 65.5071C154.228 49.4071 150.528 26.8071 134.428 15.2071Z" fill="#9B9B9B"/>
<path opacity="0.3" d="M302.528 82.8071C282.628 82.8071 266.528 98.9071 266.528 118.807C266.528 122.607 267.128 126.207 268.228 129.707L263.928 138.907L273.428 140.007C279.928 149.007 290.628 154.907 302.628 154.907C322.528 154.907 338.628 138.807 338.628 118.907C338.628 99.0071 322.428 82.8071 302.528 82.8071Z" fill="#9B9B9B"/>
<path opacity="0.3" d="M259.628 23.5071C248.028 7.3071 225.528 3.6071 209.328 15.2071C193.128 26.8071 189.428 49.3071 201.028 65.5071C203.228 68.6071 205.828 71.2071 208.728 73.4071L210.628 83.4071L218.928 78.7071C229.528 82.2071 241.528 80.8071 251.328 73.8071C267.528 62.2071 271.228 39.7071 259.628 23.5071Z" fill="#9B9B9B"/>
</g>
<g opacity="0.3">
<path opacity="0.3" d="M80.1284 138.707L75.8284 129.507C76.9284 126.107 77.5284 122.407 77.5284 118.607C77.5284 98.7072 61.4284 82.6072 41.5284 82.6072C21.6284 82.6072 5.52844 98.7072 5.52844 118.607C5.52844 138.507 21.6284 154.607 41.5284 154.607C53.5284 154.607 64.1284 148.707 70.7284 139.707L80.1284 138.707Z" fill="#969696"/>
<path opacity="0.3" d="M134.628 15.0071C118.428 3.40715 95.9284 7.10715 84.3284 23.3071C72.7284 39.5071 76.4284 62.0072 92.6284 73.6072C102.328 80.6072 114.428 82.0071 125.028 78.5071L133.328 83.2072L135.228 73.2072C138.128 71.0072 140.728 68.4071 142.928 65.3071C154.528 49.1071 150.828 26.6072 134.628 15.0071Z" fill="#969696"/>
<path opacity="0.3" d="M302.828 82.6072C282.928 82.6072 266.828 98.7072 266.828 118.607C266.828 122.407 267.429 126.007 268.529 129.507L264.229 138.707L273.729 139.807C280.229 148.807 290.928 154.707 302.928 154.707C322.828 154.707 338.928 138.607 338.928 118.707C338.828 98.7072 322.728 82.6072 302.828 82.6072Z" fill="#969696"/>
<path opacity="0.3" d="M259.928 23.3071C248.328 7.10715 225.828 3.40715 209.628 15.0071C193.428 26.6072 189.728 49.1071 201.328 65.3071C203.528 68.4071 206.128 71.0072 209.028 73.2072L210.928 83.2072L219.228 78.5071C229.828 82.0071 241.828 80.6072 251.628 73.6072C267.828 61.9072 271.528 39.4072 259.928 23.3071Z" fill="#969696"/>
</g>
<g opacity="0.3">
<path opacity="0.3" d="M80.3284 138.507L76.0284 129.307C77.1284 125.907 77.7284 122.207 77.7284 118.407C77.7284 98.5071 61.6284 82.4071 41.7284 82.4071C21.8284 82.4071 5.72839 98.5071 5.72839 118.407C5.72839 138.307 21.8284 154.407 41.7284 154.407C53.7284 154.407 64.3284 148.507 70.9284 139.507L80.3284 138.507Z" fill="#919191"/>
<path opacity="0.3" d="M134.828 14.8071C118.628 3.20708 96.1284 6.90707 84.5284 23.1071C72.9284 39.3071 76.6284 61.8071 92.8284 73.4071C102.528 80.4071 114.628 81.8071 125.228 78.3071L133.528 83.0071L135.428 73.0071C138.328 70.8071 140.928 68.2071 143.128 65.1071C154.728 48.9071 151.028 26.4071 134.828 14.8071Z" fill="#919191"/>
<path opacity="0.3" d="M303.028 82.4071C283.128 82.4071 267.028 98.5071 267.028 118.407C267.028 122.207 267.628 125.807 268.728 129.307L264.428 138.507L273.928 139.607C280.428 148.607 291.128 154.507 303.128 154.507C323.028 154.507 339.128 138.407 339.128 118.507C339.028 98.5071 322.928 82.4071 303.028 82.4071Z" fill="#919191"/>
<path opacity="0.3" d="M260.128 23.0071C248.528 6.90707 226.028 3.20707 209.828 14.8071C193.628 26.4071 189.928 48.9071 201.528 65.1071C203.728 68.2071 206.328 70.8071 209.228 73.0071L211.128 83.0071L219.428 78.3071C230.028 81.8071 242.028 80.4071 251.828 73.4071C268.028 61.7071 271.728 39.2071 260.128 23.0071Z" fill="#919191"/>
</g>
<g opacity="0.3">
<path opacity="0.3" d="M80.5283 138.307L76.2283 129.107C77.3283 125.707 77.9283 122.007 77.9283 118.207C77.9283 98.3071 61.8283 82.2072 41.9283 82.2072C22.0283 82.2072 5.92834 98.3071 5.92834 118.207C5.92834 138.107 22.0283 154.207 41.9283 154.207C53.9283 154.207 64.5283 148.307 71.1283 139.307L80.5283 138.307Z" fill="#8C8C8C"/>
<path opacity="0.3" d="M135.028 14.6071C118.828 3.00712 96.3283 6.70712 84.7283 22.9071C73.1283 39.1071 76.8283 61.6071 93.0283 73.2071C102.728 80.2071 114.828 81.6071 125.428 78.1071L133.728 82.8071L135.628 72.8071C138.528 70.6071 141.128 68.0071 143.328 64.9071C154.928 48.7071 151.228 26.2071 135.028 14.6071Z" fill="#8C8C8C"/>
<path opacity="0.3" d="M303.228 82.2072C283.328 82.2072 267.228 98.3071 267.228 118.207C267.228 122.007 267.828 125.607 268.928 129.107L264.628 138.307L274.128 139.407C280.628 148.407 291.328 154.307 303.328 154.307C323.228 154.307 339.328 138.207 339.328 118.307C339.228 98.3072 323.128 82.2072 303.228 82.2072Z" fill="#8C8C8C"/>
<path opacity="0.3" d="M260.328 22.8071C248.728 6.60715 226.228 2.90715 210.028 14.5071C193.828 26.1072 190.128 48.6071 201.728 64.8071C203.928 67.9071 206.528 70.5072 209.428 72.7072L211.328 82.7072L219.628 78.0071C230.228 81.5071 242.228 80.1072 252.028 73.1072C268.228 61.5072 271.928 39.0071 260.328 22.8071Z" fill="#8C8C8C"/>
</g>
<g opacity="0.3">
<path opacity="0.3" d="M80.8284 138.107L76.5284 128.907C77.6284 125.507 78.2284 121.807 78.2284 118.007C78.2284 98.1071 62.1284 82.0071 42.2284 82.0071C22.3284 82.0071 6.22839 98.1071 6.22839 118.007C6.22839 137.907 22.3284 154.007 42.2284 154.007C54.2284 154.007 64.8284 148.107 71.4284 139.107L80.8284 138.107Z" fill="#878787"/>
<path opacity="0.3" d="M135.328 14.3071C119.128 2.70708 96.6284 6.40707 85.0284 22.6071C73.4284 38.8071 77.1284 61.3071 93.3284 72.9071C103.028 79.9071 115.128 81.3071 125.728 77.8071L134.028 82.5071L135.928 72.5071C138.828 70.3071 141.428 67.7071 143.628 64.6071C155.128 48.4071 151.428 25.9071 135.328 14.3071Z" fill="#878787"/>
<path opacity="0.3" d="M303.428 81.9071C283.528 81.9071 267.428 98.0071 267.428 117.907C267.428 121.707 268.028 125.307 269.128 128.807L264.828 138.007L274.328 139.107C280.828 148.107 291.528 154.007 303.528 154.007C323.428 154.007 339.528 137.907 339.528 118.007C339.528 98.1071 323.328 81.9071 303.428 81.9071Z" fill="#878787"/>
<path opacity="0.3" d="M260.528 22.6071C248.928 6.40707 226.428 2.70708 210.228 14.3071C194.028 25.9071 190.328 48.4071 201.928 64.6071C204.128 67.7071 206.728 70.3071 209.628 72.5071L211.528 82.5071L219.828 77.8071C230.428 81.3071 242.428 79.9071 252.228 72.9071C268.428 61.3071 272.128 38.8071 260.528 22.6071Z" fill="#878787"/>
</g>
<g opacity="0.3">
<path opacity="0.3" d="M81.0283 137.807L76.7283 128.607C77.8283 125.207 78.4283 121.507 78.4283 117.707C78.4283 97.8071 62.3283 81.7072 42.4283 81.7072C22.5283 81.7072 6.42834 97.8071 6.42834 117.707C6.42834 137.607 22.5283 153.707 42.4283 153.707C54.4283 153.707 65.0283 147.807 71.6283 138.807L81.0283 137.807Z" fill="#828282"/>
<path opacity="0.3" d="M135.528 14.1071C119.328 2.50712 96.8283 6.20712 85.2283 22.4071C73.6283 38.6071 77.3283 61.1071 93.5283 72.7071C103.228 79.7071 115.328 81.1071 125.928 77.6071L134.228 82.3071L136.128 72.3071C139.028 70.1071 141.628 67.5071 143.828 64.4071C155.428 48.2071 151.728 25.7071 135.528 14.1071Z" fill="#828282"/>
<path opacity="0.3" d="M303.728 81.7072C283.828 81.7072 267.728 97.8071 267.728 117.707C267.728 121.507 268.328 125.107 269.428 128.607L265.028 137.807L274.528 138.907C281.028 147.907 291.728 153.807 303.728 153.807C323.628 153.807 339.728 137.707 339.728 117.807C339.728 97.8072 323.628 81.7072 303.728 81.7072Z" fill="#828282"/>
<path opacity="0.3" d="M260.828 22.4071C249.228 6.20712 226.728 2.50712 210.528 14.1071C194.328 25.7071 190.628 48.2071 202.228 64.4071C204.428 67.5071 207.028 70.1071 209.928 72.3071L211.828 82.3071L220.128 77.6071C230.728 81.1071 242.728 79.7071 252.528 72.7071C268.728 61.0071 272.428 38.5071 260.828 22.4071Z" fill="#828282"/>
</g>
<g opacity="0.3">
<path opacity="0.3" d="M81.2284 137.607L76.9284 128.407C78.0284 125.007 78.6284 121.307 78.6284 117.507C78.6284 97.6071 62.5284 81.5071 42.6284 81.5071C22.7284 81.5071 6.62842 97.6071 6.62842 117.507C6.62842 137.407 22.7284 153.507 42.6284 153.507C54.6284 153.507 65.2284 147.607 71.8284 138.607L81.2284 137.607Z" fill="#7D7D7D"/>
<path opacity="0.3" d="M135.728 13.9071C119.528 2.30705 97.0284 6.00705 85.4284 22.2071C73.8284 38.4071 77.5284 60.9071 93.7284 72.507C103.428 79.507 115.528 80.9071 126.128 77.4071L134.428 82.1071L136.328 72.1071C139.228 69.9071 141.828 67.3071 144.028 64.2071C155.628 48.0071 151.928 25.5071 135.728 13.9071Z" fill="#7D7D7D"/>
<path opacity="0.3" d="M303.928 81.5071C284.028 81.5071 267.928 97.6071 267.928 117.507C267.928 121.307 268.528 124.907 269.628 128.407L265.328 137.607L274.828 138.707C281.328 147.707 292.028 153.607 304.028 153.607C323.928 153.607 340.028 137.507 340.028 117.607C339.928 97.6071 323.828 81.5071 303.928 81.5071Z" fill="#7D7D7D"/>
<path opacity="0.3" d="M261.028 22.1071C249.428 5.90707 226.928 2.20708 210.728 13.8071C194.528 25.4071 190.828 47.9071 202.428 64.1071C204.628 67.2071 207.228 69.8071 210.128 72.0071L212.028 82.0071L220.328 77.3071C230.928 80.8071 242.928 79.4071 252.728 72.4071C268.928 60.8071 272.628 38.3071 261.028 22.1071Z" fill="#7D7D7D"/>
</g>
<g opacity="0.3">
<path opacity="0.3" d="M81.4284 137.407L77.1284 128.207C78.2284 124.807 78.8284 121.107 78.8284 117.307C78.8284 97.4071 62.7284 81.3071 42.8284 81.3071C22.9284 81.3071 6.82837 97.4071 6.82837 117.307C6.82837 137.207 22.9284 153.307 42.8284 153.307C54.8284 153.307 65.4284 147.407 72.0284 138.407L81.4284 137.407Z" fill="#787878"/>
<path opacity="0.3" d="M136.028 13.6071C119.828 2.00712 97.3283 5.70712 85.7283 21.9071C74.1283 38.1071 77.8283 60.6071 94.0283 72.2071C103.728 79.2071 115.828 80.6071 126.428 77.1071L134.728 81.8071L136.628 71.8071C139.528 69.6071 142.128 67.0071 144.328 63.9071C155.828 47.8071 152.128 25.3071 136.028 13.6071Z" fill="#787878"/>
<path opacity="0.3" d="M304.128 81.2072C284.228 81.2072 268.128 97.3071 268.128 117.207C268.128 121.007 268.728 124.607 269.828 128.107L265.528 137.307L275.028 138.407C281.528 147.407 292.228 153.307 304.228 153.307C324.128 153.307 340.228 137.207 340.228 117.307C340.228 97.4072 324.028 81.2072 304.128 81.2072Z" fill="#787878"/>
<path opacity="0.3" d="M261.228 21.9071C249.628 5.70712 227.128 2.00712 210.928 13.6071C194.728 25.2071 191.028 47.7071 202.628 63.9071C204.828 67.0071 207.428 69.6071 210.328 71.8071L212.228 81.8071L220.528 77.1071C231.128 80.6071 243.128 79.2071 252.928 72.2071C269.128 60.6071 272.828 38.1071 261.228 21.9071Z" fill="#787878"/>
</g>
<g opacity="0.3">
<path opacity="0.3" d="M81.7284 137.107L77.4284 127.907C78.5284 124.507 79.1284 120.807 79.1284 117.007C79.1284 97.1071 63.0284 81.0071 43.1284 81.0071C23.2284 81.0071 7.12842 97.1071 7.12842 117.007C7.12842 136.907 23.2284 153.007 43.1284 153.007C55.1284 153.007 65.7284 147.107 72.3284 138.107L81.7284 137.107Z" fill="#737373"/>
<path opacity="0.3" d="M136.228 13.4071C120.028 1.80705 97.5284 5.50705 85.9284 21.7071C74.3284 37.8071 78.0284 60.4071 94.2284 72.007C103.928 79.007 116.028 80.4071 126.628 76.9071L134.928 81.6071L136.828 71.6071C139.728 69.4071 142.328 66.8071 144.528 63.7071C156.028 47.5071 152.328 25.0071 136.228 13.4071Z" fill="#737373"/>
<path opacity="0.3" d="M304.328 81.0071C284.428 81.0071 268.328 97.1071 268.328 117.007C268.328 120.807 268.928 124.407 270.028 127.907L265.728 137.107L275.228 138.207C281.728 147.207 292.428 153.107 304.428 153.107C324.328 153.107 340.428 137.007 340.428 117.107C340.428 97.2071 324.328 81.0071 304.328 81.0071Z" fill="#737373"/>
<path opacity="0.3" d="M261.428 21.7071C249.828 5.50705 227.328 1.80705 211.128 13.4071C194.928 25.0071 191.228 47.5071 202.828 63.7071C205.028 66.8071 207.628 69.4071 210.528 71.6071L212.428 81.6071L220.728 76.9071C231.328 80.4071 243.328 79.007 253.128 72.007C269.428 60.4071 273.128 37.8071 261.428 21.7071Z" fill="#737373"/>
</g>
<g opacity="0.3">
<path opacity="0.3" d="M81.9284 136.907L77.6284 127.707C78.7284 124.307 79.3284 120.607 79.3284 116.807C79.3284 96.9071 63.2284 80.8071 43.3284 80.8071C23.4284 80.8071 7.32837 96.9071 7.32837 116.807C7.32837 136.707 23.4284 152.807 43.3284 152.807C55.3284 152.807 65.9284 146.907 72.5284 137.907L81.9284 136.907Z" fill="#6E6E6E"/>
<path opacity="0.3" d="M136.428 13.2071C120.228 1.6071 97.7284 5.3071 86.1284 21.5071C74.5284 37.7071 78.2284 60.2071 94.4284 71.8071C104.128 78.8071 116.228 80.2071 126.828 76.7071L135.128 81.4071L137.028 71.4071C139.928 69.2071 142.528 66.6071 144.728 63.5071C156.328 47.3071 152.628 24.8071 136.428 13.2071Z" fill="#6E6E6E"/>
<path opacity="0.3" d="M304.628 80.8071C284.728 80.8071 268.628 96.9071 268.628 116.807C268.628 120.607 269.228 124.207 270.328 127.707L266.028 136.907L275.528 138.007C282.028 147.007 292.728 152.907 304.728 152.907C324.628 152.907 340.728 136.807 340.728 116.907C340.628 96.9071 324.528 80.8071 304.628 80.8071Z" fill="#6E6E6E"/>
<path opacity="0.3" d="M261.728 21.5071C250.128 5.3071 227.628 1.6071 211.428 13.2071C195.228 24.8071 191.528 47.3071 203.128 63.5071C205.328 66.6071 207.928 69.2071 210.828 71.4071L212.728 81.4071L221.028 76.7071C231.628 80.2071 243.628 78.8071 253.428 71.8071C269.628 60.1071 273.328 37.6071 261.728 21.5071Z" fill="#6E6E6E"/>
</g>
<g opacity="0.3">
<path opacity="0.3" d="M82.1284 136.707L77.8284 127.507C78.9284 124.107 79.5284 120.407 79.5284 116.607C79.5284 96.7071 63.4284 80.6071 43.5284 80.6071C23.6284 80.6071 7.52844 96.7071 7.52844 116.607C7.52844 136.507 23.6284 152.607 43.5284 152.607C55.5284 152.607 66.1284 146.707 72.7284 137.707L82.1284 136.707Z" fill="#696969"/>
<path opacity="0.3" d="M136.628 13.007C120.428 1.40703 97.9284 5.10703 86.3284 21.307C74.7284 37.507 78.4284 60.007 94.6284 71.607C104.328 78.607 116.428 80.007 127.028 76.507L135.328 81.207L137.228 71.207C140.128 69.007 142.728 66.407 144.928 63.307C156.528 47.107 152.828 24.607 136.628 13.007Z" fill="#696969"/>
<path opacity="0.3" d="M304.828 80.6071C284.928 80.6071 268.828 96.7071 268.828 116.607C268.828 120.407 269.429 124.007 270.529 127.507L266.229 136.707L275.729 137.807C282.229 146.807 292.928 152.707 304.928 152.707C324.828 152.707 340.928 136.607 340.928 116.707C340.828 96.707 324.728 80.6071 304.828 80.6071Z" fill="#696969"/>
<path opacity="0.3" d="M261.928 21.2071C250.328 5.00705 227.828 1.30705 211.628 12.9071C195.428 24.5071 191.728 47.0071 203.328 63.2071C205.528 66.3071 208.128 68.9071 211.028 71.1071L212.928 81.1071L221.228 76.4071C231.828 79.9071 243.828 78.507 253.628 71.507C269.828 59.9071 273.528 37.4071 261.928 21.2071Z" fill="#696969"/>
</g>
<g opacity="0.3">
<path opacity="0.3" d="M82.3284 136.507L78.0284 127.307C79.1284 123.907 79.7284 120.207 79.7284 116.407C79.7284 96.5071 63.6284 80.4071 43.7284 80.4071C23.8284 80.4071 7.72839 96.5071 7.72839 116.407C7.72839 136.307 23.8284 152.407 43.7284 152.407C55.7284 152.407 66.3284 146.507 72.9284 137.507L82.3284 136.507Z" fill="#646464"/>
<path opacity="0.3" d="M136.928 12.7071C120.728 1.1071 98.2284 4.8071 86.6284 21.0071C75.0284 37.2071 78.7284 59.7071 94.9284 71.3071C104.628 78.3071 116.728 79.7071 127.328 76.2071L135.628 80.9071L137.528 70.9071C140.428 68.7071 143.028 66.1071 145.228 63.0071C156.728 46.9071 153.028 24.3071 136.928 12.7071Z" fill="#646464"/>
<path opacity="0.3" d="M305.028 80.3071C285.128 80.3071 269.028 96.4071 269.028 116.307C269.028 120.107 269.628 123.707 270.728 127.207L266.428 136.407L275.928 137.507C282.428 146.507 293.128 152.407 305.128 152.407C325.028 152.407 341.128 136.307 341.128 116.407C341.128 96.5071 324.928 80.3071 305.028 80.3071Z" fill="#646464"/>
<path opacity="0.3" d="M262.128 21.0071C250.528 4.8071 228.028 1.1071 211.828 12.7071C195.628 24.3071 191.928 46.8071 203.528 63.0071C205.728 66.1071 208.328 68.7071 211.228 70.9071L213.128 80.9071L221.428 76.2071C232.028 79.7071 244.028 78.3071 253.828 71.3071C270.028 59.7071 273.728 37.2071 262.128 21.0071Z" fill="#646464"/>
</g>
<g opacity="0.3">
<path opacity="0.3" d="M82.6284 136.207L78.3284 127.007C79.4284 123.607 80.0284 119.907 80.0284 116.107C80.0284 96.2072 63.9284 80.1072 44.0284 80.1072C24.1284 80.1072 8.02844 96.2072 8.02844 116.107C8.02844 136.007 24.1284 152.107 44.0284 152.107C56.0284 152.107 66.6284 146.207 73.2284 137.207L82.6284 136.207Z" fill="#5F5F5F"/>
<path opacity="0.3" d="M137.128 12.5071C120.928 0.907149 98.4284 4.60715 86.8284 20.8071C75.2284 37.0071 78.9284 59.5072 95.1284 71.1072C104.828 78.1072 116.928 79.5071 127.528 76.0071L135.828 80.7072L137.728 70.7072C140.628 68.5072 143.228 65.9071 145.428 62.8071C157.028 46.6071 153.328 24.1072 137.128 12.5071Z" fill="#5F5F5F"/>
<path opacity="0.3" d="M305.328 80.1072C285.428 80.1072 269.328 96.2072 269.328 116.107C269.328 119.907 269.929 123.507 271.029 127.007L266.729 136.207L276.229 137.307C282.729 146.307 293.428 152.207 305.428 152.207C325.328 152.207 341.428 136.107 341.428 116.207C341.328 96.2072 325.228 80.1072 305.328 80.1072Z" fill="#5F5F5F"/>
<path opacity="0.3" d="M262.428 20.8071C250.828 4.60715 228.328 0.907149 212.128 12.5071C195.928 24.1072 192.228 46.6071 203.828 62.8071C206.028 65.9071 208.628 68.5072 211.528 70.7072L213.428 80.7072L221.728 76.0071C232.328 79.5071 244.328 78.1072 254.128 71.1072C270.328 59.5072 274.028 36.9072 262.428 20.8071Z" fill="#5F5F5F"/>
</g>
<g opacity="0.3">
<path opacity="0.3" d="M82.8284 136.007L78.5284 126.807C79.6284 123.407 80.2284 119.707 80.2284 115.907C80.2284 96.0071 64.1284 79.9071 44.2284 79.9071C24.3284 79.9071 8.22839 96.0071 8.22839 115.907C8.22839 135.807 24.3284 151.907 44.2284 151.907C56.2284 151.907 66.8284 146.007 73.4284 137.007L82.8284 136.007Z" fill="#5A5A5A"/>
<path opacity="0.3" d="M137.328 12.3071C121.128 0.707076 98.6284 4.40707 87.0284 20.6071C75.4284 36.8071 79.1284 59.3071 95.3284 70.9071C105.028 77.9071 117.128 79.3071 127.728 75.8071L136.028 80.5071L137.928 70.5071C140.828 68.3071 143.428 65.7071 145.628 62.6071C157.228 46.4071 153.528 23.9071 137.328 12.3071Z" fill="#5A5A5A"/>
<path opacity="0.3" d="M305.528 79.9071C285.628 79.9071 269.528 96.0071 269.528 115.907C269.528 119.707 270.128 123.307 271.228 126.807L266.928 136.007L276.428 137.107C282.928 146.107 293.628 152.007 305.628 152.007C325.528 152.007 341.628 135.907 341.628 116.007C341.528 96.0071 325.428 79.9071 305.528 79.9071Z" fill="#5A5A5A"/>
<path opacity="0.3" d="M262.628 20.5071C251.028 4.3071 228.528 0.6071 212.328 12.2071C196.128 23.8071 192.428 46.3071 204.028 62.5071C206.228 65.6071 208.828 68.2071 211.728 70.4071L213.628 80.4071L221.928 75.7071C232.528 79.2071 244.528 77.8071 254.328 70.8071C270.528 59.2071 274.228 36.7071 262.628 20.5071Z" fill="#5A5A5A"/>
</g>
<g opacity="0.3">
<path opacity="0.3" d="M83.0283 135.807L78.7283 126.607C79.8283 123.207 80.4283 119.507 80.4283 115.707C80.4283 95.8071 64.3283 79.7072 44.4283 79.7072C24.5283 79.7072 8.42834 95.8071 8.42834 115.707C8.42834 135.607 24.5283 151.707 44.4283 151.707C56.4283 151.707 67.0283 145.807 73.6283 136.807L83.0283 135.807Z" fill="#555555"/>
<path opacity="0.3" d="M137.528 12.1071C121.328 0.507125 98.8283 4.20712 87.2283 20.4071C75.6283 36.6071 79.3283 59.1071 95.5283 70.7071C105.228 77.7071 117.328 79.1071 127.928 75.6071L136.228 80.3071L138.128 70.3071C141.028 68.1071 143.628 65.5071 145.828 62.4071C157.428 46.2071 153.728 23.7071 137.528 12.1071Z" fill="#555555"/>
<path opacity="0.3" d="M305.728 79.7072C285.828 79.7072 269.728 95.8071 269.728 115.707C269.728 119.507 270.328 123.107 271.428 126.607L267.028 135.807L276.528 136.907C283.028 145.907 293.728 151.807 305.728 151.807C325.628 151.807 341.728 135.707 341.728 115.807C341.728 95.8072 325.628 79.7072 305.728 79.7072Z" fill="#555555"/>
<path opacity="0.3" d="M262.828 20.3071C251.228 4.10715 228.728 0.407149 212.528 12.0071C196.328 23.6072 192.628 46.1071 204.228 62.3071C206.428 65.4071 209.028 68.0072 211.928 70.2072L213.828 80.2072L222.128 75.5071C232.728 79.0071 244.728 77.6072 254.528 70.6072C270.728 59.0072 274.428 36.5071 262.828 20.3071Z" fill="#555555"/>
</g>
<g opacity="0.3">
<path opacity="0.3" d="M83.2284 135.607L78.9284 126.407C80.0284 123.007 80.6284 119.307 80.6284 115.507C80.6284 95.6071 64.5284 79.5071 44.6284 79.5071C24.7284 79.5071 8.62842 95.6071 8.62842 115.507C8.62842 135.407 24.7284 151.507 44.6284 151.507C56.6284 151.507 67.2284 145.607 73.8284 136.607L83.2284 135.607Z" fill="#505050"/>
<path opacity="0.3" d="M137.828 11.8071C121.628 0.207076 99.1284 3.90707 87.5284 20.1071C75.9284 36.3071 79.6284 58.8071 95.8284 70.4071C105.528 77.4071 117.628 78.8071 128.228 75.3071L136.528 80.0071L138.428 70.0071C141.328 67.8071 143.928 65.2071 146.128 62.1071C157.628 45.9071 153.928 23.4071 137.828 11.8071Z" fill="#505050"/>
<path opacity="0.3" d="M305.928 79.4071C286.028 79.4071 269.928 95.5071 269.928 115.407C269.928 119.207 270.528 122.807 271.628 126.307L267.328 135.507L276.828 136.607C283.328 145.607 294.028 151.507 306.028 151.507C325.928 151.507 342.028 135.407 342.028 115.507C342.028 95.6071 325.828 79.4071 305.928 79.4071Z" fill="#505050"/>
<path opacity="0.3" d="M263.028 20.1071C251.428 3.90707 228.928 0.207076 212.728 11.8071C196.528 23.4071 192.828 45.9071 204.428 62.1071C206.628 65.2071 209.228 67.8071 212.128 70.0071L214.028 80.0071L222.328 75.3071C232.928 78.8071 244.928 77.4071 254.728 70.4071C270.928 58.8071 274.628 36.3071 263.028 20.1071Z" fill="#505050"/>
</g>
<g opacity="0.3">
<path opacity="0.3" d="M83.5283 135.307L79.2283 126.107C80.3283 122.707 80.9283 119.007 80.9283 115.207C80.9283 95.3071 64.8283 79.2072 44.9283 79.2072C25.0283 79.2072 8.92834 95.3071 8.92834 115.207C8.92834 135.107 25.0283 151.207 44.9283 151.207C56.9283 151.207 67.5283 145.307 74.1283 136.307L83.5283 135.307Z" fill="#4B4B4B"/>
<path opacity="0.3" d="M138.028 11.6071C121.828 0.0071249 99.3283 3.70712 87.7283 19.9071C76.1283 36.1071 79.8283 58.6071 96.0283 70.2071C105.728 77.2071 117.828 78.6071 128.428 75.1071L136.728 79.8071L138.628 69.8071C141.528 67.6071 144.128 65.0071 146.328 61.9071C157.928 45.7071 154.228 23.2071 138.028 11.6071Z" fill="#4B4B4B"/>
<path opacity="0.3" d="M306.228 79.2072C286.328 79.2072 270.228 95.3071 270.228 115.207C270.228 119.007 270.828 122.607 271.928 126.107L267.628 135.307L277.128 136.407C283.628 145.407 294.328 151.307 306.328 151.307C326.228 151.307 342.328 135.207 342.328 115.307C342.228 95.3072 326.128 79.2072 306.228 79.2072Z" fill="#4B4B4B"/>
<path opacity="0.3" d="M263.328 19.9071C251.728 3.70712 229.228 0.0071249 213.028 11.6071C196.828 23.2071 193.128 45.7071 204.728 61.9071C206.928 65.0071 209.528 67.6071 212.428 69.8071L214.328 79.8071L222.628 75.1071C233.228 78.6071 245.228 77.2071 255.028 70.2071C271.228 58.5071 274.928 36.0071 263.328 19.9071Z" fill="#4B4B4B"/>
</g>
<g opacity="0.3">
<path opacity="0.3" d="M83.7284 135.107L79.4284 125.907C80.5284 122.507 81.1284 118.807 81.1284 115.007C81.1284 95.1071 65.0284 79.0071 45.1284 79.0071C25.2284 79.0071 9.12842 95.1071 9.12842 115.007C9.12842 134.907 25.2284 151.007 45.1284 151.007C57.1284 151.007 67.7284 145.107 74.3284 136.107L83.7284 135.107Z" fill="#464646"/>
<path opacity="0.3" d="M138.228 11.4071C122.028 -0.192949 99.5284 3.50705 87.9284 19.7071C76.3284 35.8071 80.0284 58.3071 96.2284 69.9071C105.928 76.9071 118.028 78.3071 128.628 74.8071L136.928 79.507L138.828 69.507C141.728 67.307 144.328 64.7071 146.528 61.6071C158.128 45.5071 154.428 23.0071 138.228 11.4071Z" fill="#464646"/>
<path opacity="0.3" d="M306.428 79.0071C286.528 79.0071 270.428 95.1071 270.428 115.007C270.428 118.807 271.028 122.407 272.128 125.907L267.828 135.107L277.328 136.207C283.828 145.207 294.528 151.107 306.528 151.107C326.428 151.107 342.528 135.007 342.528 115.107C342.428 95.1071 326.328 79.0071 306.428 79.0071Z" fill="#464646"/>
<path opacity="0.3" d="M263.528 19.6071C251.928 3.40707 229.428 -0.292924 213.228 11.3071C197.028 22.9071 193.328 45.4071 204.928 61.6071C207.128 64.7071 209.728 67.3071 212.628 69.5071L214.528 79.5071L222.828 74.8071C233.428 78.3071 245.428 76.9071 255.228 69.9071C271.428 58.3071 275.128 35.8071 263.528 19.6071Z" fill="#464646"/>
</g>
<g opacity="0.3">
<path opacity="0.3" d="M83.9284 134.907L79.6284 125.707C80.7284 122.307 81.3284 118.607 81.3284 114.807C81.3284 94.9071 65.2284 78.8071 45.3284 78.8071C25.4284 78.8071 9.32837 94.9071 9.32837 114.807C9.32837 134.707 25.4284 150.807 45.3284 150.807C57.3284 150.807 67.9284 144.907 74.5284 135.907L83.9284 134.907Z" fill="#414141"/>
<path opacity="0.3" d="M138.428 11.2071C122.228 -0.3929 99.7284 3.3071 88.1284 19.5071C76.5284 35.7071 80.2284 58.2071 96.4284 69.8071C106.128 76.8071 118.228 78.2071 128.828 74.7071L137.128 79.4071L139.028 69.4071C141.928 67.2071 144.528 64.6071 146.728 61.5071C158.328 45.3071 154.628 22.8071 138.428 11.2071Z" fill="#414141"/>
<path opacity="0.3" d="M306.628 78.8071C286.728 78.8071 270.628 94.9071 270.628 114.807C270.628 118.607 271.228 122.207 272.328 125.707L268.028 134.907L277.528 136.007C284.028 145.007 294.728 150.907 306.728 150.907C326.628 150.907 342.728 134.807 342.728 114.907C342.728 95.0071 326.528 78.8071 306.628 78.8071Z" fill="#414141"/>
<path opacity="0.3" d="M263.728 19.4071C252.128 3.20712 229.628 -0.492875 213.428 11.1071C197.228 22.7071 193.528 45.2071 205.128 61.4071C207.328 64.5071 209.928 67.1071 212.828 69.3071L214.728 79.3071L223.028 74.6071C233.628 78.1071 245.628 76.7071 255.428 69.7071C271.628 58.1071 275.328 35.6071 263.728 19.4071Z" fill="#414141"/>
</g>
<g opacity="0.3">
<path opacity="0.3" d="M84.2284 134.707L79.9284 125.507C81.0284 122.107 81.6284 118.407 81.6284 114.607C81.6284 94.7071 65.5284 78.6071 45.6284 78.6071C25.7284 78.6071 9.62842 94.7071 9.62842 114.607C9.62842 134.507 25.7284 150.607 45.6284 150.607C57.6284 150.607 68.2284 144.707 74.8284 135.707L84.2284 134.707Z" fill="#3C3C3C"/>
<path opacity="0.3" d="M138.728 10.9071C122.528 -0.692949 100.028 3.00705 88.4284 19.2071C76.8284 35.4071 80.5284 57.9071 96.7284 69.507C106.428 76.507 118.528 77.9071 129.128 74.4071L137.428 79.1071L139.328 69.1071C142.228 66.9071 144.828 64.3071 147.028 61.2071C158.528 45.0071 154.828 22.5071 138.728 10.9071Z" fill="#3C3C3C"/>
<path opacity="0.3" d="M306.828 78.5071C286.928 78.5071 270.828 94.6071 270.828 114.507C270.828 118.307 271.428 121.907 272.528 125.407L268.228 134.607L277.728 135.707C284.228 144.707 294.928 150.607 306.928 150.607C326.828 150.607 342.928 134.507 342.928 114.607C342.928 94.7071 326.728 78.5071 306.828 78.5071Z" fill="#3C3C3C"/>
<path opacity="0.3" d="M263.928 19.2071C252.328 3.00705 229.828 -0.692949 213.628 10.9071C197.428 22.5071 193.728 45.0071 205.328 61.2071C207.528 64.3071 210.128 66.9071 213.028 69.1071L214.928 79.1071L223.228 74.4071C233.828 77.9071 245.828 76.507 255.628 69.507C271.828 57.9071 275.528 35.4071 263.928 19.2071Z" fill="#3C3C3C"/>
</g>
<g opacity="0.3">
<path opacity="0.3" d="M84.4284 134.407L80.1284 125.207C81.2284 121.807 81.8284 118.107 81.8284 114.307C81.8284 94.4071 65.7284 78.3071 45.8284 78.3071C25.9284 78.3071 9.82837 94.4071 9.82837 114.307C9.82837 134.207 25.9284 150.307 45.8284 150.307C57.8284 150.307 68.4284 144.407 75.0284 135.407L84.4284 134.407Z" fill="#373737"/>
<path opacity="0.3" d="M138.928 10.7071C122.728 -0.8929 100.228 2.8071 88.6284 19.0071C77.0284 35.2071 80.7284 57.7071 96.9284 69.3071C106.628 76.3071 118.728 77.7071 129.328 74.2071L137.628 78.9071L139.528 68.9071C142.428 66.7071 145.028 64.1071 147.228 61.0071C158.828 44.8071 155.128 22.3071 138.928 10.7071Z" fill="#373737"/>
<path opacity="0.3" d="M307.128 78.3071C287.228 78.3071 271.128 94.4071 271.128 114.307C271.128 118.107 271.728 121.707 272.828 125.207L268.528 134.407L278.028 135.507C284.528 144.507 295.228 150.407 307.228 150.407C327.128 150.407 343.228 134.307 343.228 114.407C343.128 94.4071 327.028 78.3071 307.128 78.3071Z" fill="#373737"/>
<path opacity="0.3" d="M264.228 19.0071C252.628 2.8071 230.128 -0.8929 213.928 10.7071C197.728 22.3071 194.028 44.8071 205.628 61.0071C207.828 64.1071 210.428 66.7071 213.328 68.9071L215.228 78.9071L223.528 74.2071C234.128 77.7071 246.128 76.3071 255.928 69.3071C272.128 57.6071 275.828 35.1071 264.228 19.0071Z" fill="#373737"/>
</g>
<g opacity="0.3">
<path opacity="0.3" d="M84.6284 134.207L80.3284 125.007C81.4284 121.607 82.0284 117.907 82.0284 114.107C82.0284 94.2071 65.9284 78.1071 46.0284 78.1071C26.1284 78.1071 10.0284 94.2071 10.0284 114.107C10.0284 134.007 26.1284 150.107 46.0284 150.107C58.0284 150.107 68.6284 144.207 75.2284 135.207L84.6284 134.207Z" fill="#323232"/>
<path opacity="0.3" d="M139.128 10.507C122.928 -1.09297 100.428 2.60703 88.8284 18.807C77.2284 35.007 80.9284 57.507 97.1284 69.107C106.828 76.107 118.928 77.507 129.528 74.007L137.828 78.707L139.728 68.707C142.628 66.507 145.228 63.907 147.428 60.807C159.028 44.607 155.328 22.107 139.128 10.507Z" fill="#323232"/>
<path opacity="0.3" d="M307.328 78.1071C287.428 78.1071 271.328 94.2071 271.328 114.107C271.328 117.907 271.929 121.507 273.029 125.007L268.729 134.207L278.229 135.307C284.729 144.307 295.428 150.207 307.428 150.207C327.328 150.207 343.428 134.107 343.428 114.207C343.328 94.207 327.228 78.1071 307.328 78.1071Z" fill="#323232"/>
<path opacity="0.3" d="M264.428 18.7071C252.828 2.50705 230.328 -1.19295 214.128 10.4071C197.928 22.0071 194.228 44.5071 205.828 60.7071C208.028 63.8071 210.628 66.4071 213.528 68.6071L215.428 78.6071L223.728 73.9071C234.328 77.4071 246.328 76.007 256.128 69.007C272.328 57.4071 276.028 34.9071 264.428 18.7071Z" fill="#323232"/>
</g>
<g opacity="0.3">
<path opacity="0.3" d="M84.8284 134.007L80.5284 124.807C81.6284 121.407 82.2284 117.707 82.2284 113.907C82.2284 94.0071 66.1284 77.9071 46.2284 77.9071C26.3284 77.9071 10.2284 94.0071 10.2284 113.907C10.2284 133.807 26.3284 149.907 46.2284 149.907C58.2284 149.907 68.8284 144.007 75.4284 135.007L84.8284 134.007Z" fill="#2D2D2D"/>
<path opacity="0.3" d="M139.428 10.2071C123.228 -1.3929 100.728 2.3071 89.1284 18.5071C77.5284 34.7071 81.2284 57.2071 97.4284 68.8071C107.128 75.8071 119.228 77.2071 129.828 73.7071L138.128 78.4071L140.028 68.4071C142.928 66.2071 145.528 63.6071 147.728 60.5071C159.228 44.4071 155.528 21.8071 139.428 10.2071Z" fill="#2D2D2D"/>
<path opacity="0.3" d="M307.528 77.8071C287.628 77.8071 271.528 93.9071 271.528 113.807C271.528 117.607 272.128 121.207 273.228 124.707L268.928 133.907L278.428 135.007C284.928 144.007 295.628 149.907 307.628 149.907C327.528 149.907 343.628 133.807 343.628 113.907C343.628 94.0071 327.428 77.8071 307.528 77.8071Z" fill="#2D2D2D"/>
<path opacity="0.3" d="M264.628 18.5071C253.028 2.3071 230.528 -1.3929 214.328 10.2071C198.128 21.8071 194.428 44.3071 206.028 60.5071C208.228 63.6071 210.828 66.2071 213.728 68.4071L215.628 78.4071L223.928 73.7071C234.528 77.2071 246.528 75.8071 256.328 68.8071C272.528 57.2071 276.228 34.7071 264.628 18.5071Z" fill="#2D2D2D"/>
</g>
<g opacity="0.3">
<path opacity="0.3" d="M85.1284 133.707L80.8284 124.507C81.9284 121.107 82.5284 117.407 82.5284 113.607C82.5284 93.7072 66.4284 77.6072 46.5284 77.6072C26.6284 77.6072 10.5284 93.7072 10.5284 113.607C10.5284 133.507 26.6284 149.607 46.5284 149.607C58.5284 149.607 69.1284 143.707 75.7284 134.707L85.1284 133.707Z" fill="#282828"/>
<path opacity="0.3" d="M139.628 10.0071C123.428 -1.59285 100.928 2.10715 89.3284 18.3071C77.7284 34.5071 81.4284 57.0072 97.6284 68.6072C107.328 75.6072 119.428 77.0071 130.028 73.5071L138.328 78.2072L140.228 68.2072C143.128 66.0072 145.728 63.4071 147.928 60.3071C159.428 44.1071 155.828 21.6072 139.628 10.0071Z" fill="#282828"/>
<path opacity="0.3" d="M307.828 77.6072C287.928 77.6072 271.828 93.7072 271.828 113.607C271.828 117.407 272.429 121.007 273.529 124.507L269.229 133.707L278.729 134.807C285.229 143.807 295.928 149.707 307.928 149.707C327.828 149.707 343.928 133.607 343.928 113.707C343.928 93.8072 327.728 77.6072 307.828 77.6072Z" fill="#282828"/>
<path opacity="0.3" d="M264.828 18.3071C253.228 2.10715 230.728 -1.59285 214.528 10.0071C198.328 21.6072 194.628 44.1071 206.228 60.3071C208.428 63.4071 211.028 66.0072 213.928 68.2072L215.828 78.2072L224.128 73.5071C234.728 77.0071 246.728 75.6072 256.528 68.6072C272.828 57.0072 276.528 34.4072 264.828 18.3071Z" fill="#282828"/>
</g>
<g opacity="0.3">
<path opacity="0.3" d="M85.3284 133.507L81.0284 124.307C82.1284 120.907 82.7284 117.207 82.7284 113.407C82.7284 93.5071 66.6284 77.4071 46.7284 77.4071C26.8284 77.4071 10.7284 93.5071 10.7284 113.407C10.7284 133.307 26.8284 149.407 46.7284 149.407C58.7284 149.407 69.3284 143.507 75.9284 134.507L85.3284 133.507Z" fill="#232323"/>
<path opacity="0.3" d="M139.828 9.80708C123.628 -1.79292 101.128 1.90707 89.5284 18.1071C77.9284 34.3071 81.6284 56.8071 97.8284 68.4071C107.528 75.4071 119.628 76.8071 130.228 73.3071L138.528 78.0071L140.428 68.0071C143.328 65.8071 145.928 63.2071 148.128 60.1071C159.728 43.9071 156.028 21.4071 139.828 9.80708Z" fill="#232323"/>
<path opacity="0.3" d="M308.028 77.4071C288.128 77.4071 272.028 93.5071 272.028 113.407C272.028 117.207 272.628 120.807 273.728 124.307L269.428 133.507L278.928 134.607C285.428 143.607 296.128 149.507 308.128 149.507C328.028 149.507 344.128 133.407 344.128 113.507C344.128 93.6071 327.928 77.4071 308.028 77.4071Z" fill="#232323"/>
<path opacity="0.3" d="M265.128 18.1071C253.528 1.90707 231.028 -1.79292 214.828 9.80708C198.628 21.4071 194.928 43.9071 206.528 60.1071C208.728 63.2071 211.328 65.8071 214.228 68.0071L216.128 78.0071L224.428 73.3071C235.028 76.8071 247.028 75.4071 256.828 68.4071C273.028 56.7071 276.728 34.2071 265.128 18.1071Z" fill="#232323"/>
</g>
<g opacity="0.3">
<path opacity="0.3" d="M85.5283 133.307L81.2283 124.107C82.3283 120.707 82.9283 117.007 82.9283 113.207C82.9283 93.3071 66.8283 77.2072 46.9283 77.2072C27.0283 77.2072 10.9283 93.3071 10.9283 113.207C10.9283 133.107 27.0283 149.207 46.9283 149.207C58.9283 149.207 69.5283 143.307 76.1283 134.307L85.5283 133.307Z" fill="#1E1E1E"/>
<path opacity="0.3" d="M140.028 9.60713C123.828 -1.99288 101.328 1.70712 89.7283 17.9071C78.1283 34.1071 81.8283 56.6071 98.0283 68.2071C107.728 75.2071 119.828 76.6071 130.428 73.1071L138.728 77.8071L140.628 67.8071C143.528 65.6071 146.128 63.0071 148.328 59.9071C159.928 43.7071 156.228 21.2071 140.028 9.60713Z" fill="#1E1E1E"/>
<path opacity="0.3" d="M308.228 77.2072C288.328 77.2072 272.228 93.3071 272.228 113.207C272.228 117.007 272.828 120.607 273.928 124.107L269.628 133.307L279.128 134.407C285.628 143.407 296.328 149.307 308.328 149.307C328.228 149.307 344.328 133.207 344.328 113.307C344.228 93.3072 328.128 77.2072 308.228 77.2072Z" fill="#1E1E1E"/>
<path opacity="0.3" d="M265.328 17.8071C253.728 1.60715 231.228 -2.09285 215.028 9.50715C198.828 21.1072 195.128 43.6071 206.728 59.8071C208.928 62.9071 211.528 65.5072 214.428 67.7072L216.328 77.7072L224.628 73.0071C235.228 76.5071 247.228 75.1072 257.028 68.1072C273.228 56.5072 276.928 34.0071 265.328 17.8071Z" fill="#1E1E1E"/>
</g>
<g opacity="0.3">
<path opacity="0.3" d="M85.7284 133.107L81.4284 123.907C82.5284 120.507 83.1284 116.807 83.1284 113.007C83.1284 93.1071 67.0284 77.0071 47.1284 77.0071C27.2284 77.0071 11.1284 93.1071 11.1284 113.007C11.1284 132.907 27.2284 149.007 47.1284 149.007C59.1284 149.007 69.7284 143.107 76.3284 134.107L85.7284 133.107Z" fill="#191919"/>
<path opacity="0.3" d="M140.328 9.30708C124.128 -2.29292 101.628 1.40707 90.0284 17.6071C78.4284 33.8071 82.1284 56.3071 98.3284 67.9071C108.028 74.9071 120.128 76.3071 130.728 72.8071L139.028 77.5071L140.928 67.5071C143.828 65.3071 146.428 62.7071 148.628 59.6071C160.128 43.5071 156.428 20.9071 140.328 9.30708Z" fill="#191919"/>
<path opacity="0.3" d="M308.428 76.9071C288.528 76.9071 272.428 93.0071 272.428 112.907C272.428 116.707 273.028 120.307 274.128 123.807L269.828 133.007L279.328 134.107C285.828 143.107 296.528 149.007 308.528 149.007C328.428 149.007 344.528 132.907 344.528 113.007C344.528 93.1071 328.328 76.9071 308.428 76.9071Z" fill="#191919"/>
<path opacity="0.3" d="M265.528 17.6071C253.928 1.40707 231.428 -2.29292 215.228 9.30708C199.028 20.9071 195.328 43.4071 206.928 59.6071C209.128 62.7071 211.728 65.3071 214.628 67.5071L216.528 77.5071L224.828 72.8071C235.428 76.3071 247.428 74.9071 257.228 67.9071C273.428 56.3071 277.128 33.8071 265.528 17.6071Z" fill="#191919"/>
</g>
<g opacity="0.3">
<path opacity="0.3" d="M86.0283 132.807L81.7283 123.607C82.8283 120.207 83.4283 116.507 83.4283 112.707C83.4283 92.8071 67.3283 76.7072 47.4283 76.7072C27.5283 76.7072 11.4283 92.8071 11.4283 112.707C11.4283 132.607 27.5283 148.707 47.4283 148.707C59.4283 148.707 70.0283 142.807 76.6283 133.807L86.0283 132.807Z" fill="#141414"/>
<path opacity="0.3" d="M140.528 9.10713C124.328 -2.49288 101.828 1.20712 90.2283 17.4071C78.6283 33.6071 82.3283 56.1071 98.5283 67.7071C108.228 74.7071 120.328 76.1071 130.928 72.6071L139.228 77.3071L141.128 67.3071C144.028 65.1071 146.628 62.5071 148.828 59.4071C160.428 43.2071 156.728 20.7071 140.528 9.10713Z" fill="#141414"/>
<path opacity="0.3" d="M308.728 76.7072C288.828 76.7072 272.728 92.8071 272.728 112.707C272.728 116.507 273.328 120.107 274.428 123.607L270.028 132.807L279.528 133.907C286.028 142.907 296.728 148.807 308.728 148.807C328.628 148.807 344.728 132.707 344.728 112.807C344.728 92.9072 328.628 76.7072 308.728 76.7072Z" fill="#141414"/>
<path opacity="0.3" d="M265.828 17.4071C254.228 1.20712 231.728 -2.49288 215.528 9.10713C199.328 20.7071 195.628 43.2071 207.228 59.4071C209.428 62.5071 212.028 65.1071 214.928 67.3071L216.828 77.3071L225.128 72.6071C235.728 76.1071 247.728 74.7071 257.528 67.7071C273.728 56.1071 277.428 33.5071 265.828 17.4071Z" fill="#141414"/>
</g>
<g opacity="0.3">
<path opacity="0.3" d="M86.2284 132.607L81.9284 123.407C83.0284 120.007 83.6284 116.307 83.6284 112.507C83.6284 92.6071 67.5284 76.5071 47.6284 76.5071C27.7284 76.5071 11.6284 92.6071 11.6284 112.507C11.6284 132.407 27.7284 148.507 47.6284 148.507C59.6284 148.507 70.2284 142.607 76.8284 133.607L86.2284 132.607Z" fill="#0F0F0F"/>
<path opacity="0.3" d="M140.728 8.90705C124.528 -2.69295 102.028 1.00705 90.4284 17.2071C78.8284 33.4071 82.5284 55.9071 98.7284 67.507C108.428 74.507 120.528 75.9071 131.128 72.4071L139.428 77.1071L141.328 67.1071C144.228 64.9071 146.828 62.3071 149.028 59.2071C160.628 43.0071 156.928 20.5071 140.728 8.90705Z" fill="#0F0F0F"/>
<path opacity="0.3" d="M308.928 76.5071C289.028 76.5071 272.928 92.6071 272.928 112.507C272.928 116.307 273.528 119.907 274.628 123.407L270.328 132.607L279.828 133.707C286.328 142.707 297.028 148.607 309.028 148.607C328.928 148.607 345.028 132.507 345.028 112.607C345.028 92.7071 328.828 76.5071 308.928 76.5071Z" fill="#0F0F0F"/>
<path opacity="0.3" d="M266.028 17.1071C254.428 0.907075 231.928 -2.79292 215.728 8.80708C199.528 20.4071 195.828 42.9071 207.428 59.1071C209.628 62.2071 212.228 64.8071 215.128 67.0071L217.028 77.0071L225.328 72.3071C235.928 75.8071 247.928 74.4071 257.728 67.4071C273.928 55.8071 277.628 33.3071 266.028 17.1071Z" fill="#0F0F0F"/>
</g>
<g opacity="0.3">
<path opacity="0.3" d="M86.4284 132.407L82.1284 123.207C83.2284 119.807 83.8284 116.107 83.8284 112.307C83.8284 92.4071 67.7284 76.3071 47.8284 76.3071C27.9284 76.3071 11.8284 92.4071 11.8284 112.307C11.8284 132.207 27.9284 148.307 47.8284 148.307C59.8284 148.307 70.4284 142.407 77.0284 133.407L86.4284 132.407Z" fill="#0A0A0A"/>
<path opacity="0.3" d="M140.928 8.7071C124.728 -2.8929 102.228 0.8071 90.6284 17.0071C79.0284 33.2071 82.7284 55.7071 98.9284 67.3071C108.628 74.3071 120.728 75.7071 131.328 72.2071L139.628 76.9071L141.528 66.9071C144.428 64.7071 147.028 62.1071 149.228 59.0071C160.828 42.8071 157.128 20.3071 140.928 8.7071Z" fill="#0A0A0A"/>
<path opacity="0.3" d="M309.128 76.3071C289.228 76.3071 273.128 92.4071 273.128 112.307C273.128 116.107 273.728 119.707 274.828 123.207L270.528 132.407L280.028 133.507C286.528 142.507 297.228 148.407 309.228 148.407C329.128 148.407 345.228 132.307 345.228 112.407C345.228 92.5071 329.028 76.3071 309.128 76.3071Z" fill="#0A0A0A"/>
<path opacity="0.3" d="M266.228 16.9071C254.628 0.707124 232.128 -2.99288 215.928 8.60713C199.728 20.2071 196.028 42.7071 207.628 58.9071C209.828 62.0071 212.428 64.6071 215.328 66.8071L217.228 76.8071L225.528 72.1071C236.128 75.6071 248.128 74.2071 257.928 67.2071C274.128 55.6071 277.828 33.1071 266.228 16.9071Z" fill="#0A0A0A"/>
</g>
<g opacity="0.3">
<path opacity="0.3" d="M86.6284 132.207L82.3284 123.007C83.4284 119.607 84.0284 115.907 84.0284 112.107C84.0284 92.2071 67.9284 76.1071 48.0284 76.1071C28.1284 76.1071 12.0284 92.2071 12.0284 112.107C12.0284 132.007 28.1284 148.107 48.0284 148.107C60.0284 148.107 70.6284 142.207 77.2284 133.207L86.6284 132.207Z" fill="#050505"/>
<path opacity="0.3" d="M141.228 8.40705C125.028 -3.19295 102.528 0.507051 90.9284 16.7071C79.3284 32.9071 83.0284 55.4071 99.2284 67.007C108.928 74.007 121.028 75.4071 131.628 71.9071L139.928 76.6071L141.828 66.6071C144.728 64.4071 147.328 61.8071 149.528 58.7071C161.028 42.5071 157.328 20.0071 141.228 8.40705Z" fill="#050505"/>
<path opacity="0.3" d="M309.328 76.0071C289.428 76.0071 273.328 92.1071 273.328 112.007C273.328 115.807 273.929 119.407 275.029 122.907L270.729 132.107L280.229 133.207C286.729 142.207 297.428 148.107 309.428 148.107C329.328 148.107 345.428 132.007 345.428 112.107C345.428 92.2071 329.228 76.0071 309.328 76.0071Z" fill="#050505"/>
<path opacity="0.3" d="M266.428 16.7071C254.828 0.507051 232.328 -3.19295 216.128 8.40705C199.928 20.0071 196.228 42.5071 207.828 58.7071C210.028 61.8071 212.628 64.4071 215.528 66.6071L217.428 76.6071L225.728 71.9071C236.328 75.4071 248.328 74.007 258.128 67.007C274.328 55.4071 278.028 32.9071 266.428 16.7071Z" fill="#050505"/>
</g>
<g opacity="0.3">
<path opacity="0.3" d="M86.9284 131.907L82.6284 122.707C83.7284 119.307 84.3284 115.607 84.3284 111.807C84.3284 91.9071 68.2284 75.8071 48.3284 75.8071C28.4284 75.8071 12.3284 91.9071 12.3284 111.807C12.3284 131.707 28.4284 147.807 48.3284 147.807C60.3284 147.807 70.9284 141.907 77.5284 132.907L86.9284 131.907Z" fill="black"/>
<path opacity="0.3" d="M141.428 8.2071C125.228 -3.3929 102.728 0.3071 91.1284 16.5071C79.5284 32.7071 83.2284 55.2071 99.4284 66.8071C109.128 73.8071 121.228 75.2071 131.828 71.7071L140.128 76.4071L142.028 66.4071C144.928 64.2071 147.528 61.6071 149.728 58.5071C161.328 42.3071 157.628 19.8071 141.428 8.2071Z" fill="black"/>
<path opacity="0.3" d="M309.628 75.8071C289.728 75.8071 273.628 91.9071 273.628 111.807C273.628 115.607 274.228 119.207 275.328 122.707L271.028 131.907L280.528 133.007C287.028 142.007 297.728 147.907 309.728 147.907C329.628 147.907 345.728 131.807 345.728 111.907C345.728 92.0071 329.528 75.8071 309.628 75.8071Z" fill="black"/>
<path opacity="0.3" d="M266.728 16.5071C255.128 0.3071 232.628 -3.3929 216.428 8.2071C200.228 19.8071 196.528 42.3071 208.128 58.5071C210.328 61.6071 212.928 64.2071 215.828 66.4071L217.728 76.4071L226.028 71.7071C236.628 75.2071 248.628 73.8071 258.428 66.8071C274.628 55.1071 278.328 32.6071 266.728 16.5071Z" fill="black"/>
</g>
</g>
<path d="M128.828 121.207L113.228 105.607C130.328 88.5071 153.228 79.0071 177.428 79.0071V101.007C159.128 101.107 141.828 108.207 128.828 121.207Z" fill="#FC9B27"/>
<path d="M226.228 121.207C213.228 108.207 195.928 101.107 177.528 101.107V79.1071C201.828 79.1071 224.628 88.5071 241.728 105.707L226.228 121.207Z" fill="#FB3A58"/>
<path d="M108.728 169.907H86.7284C86.7284 145.607 96.1284 122.807 113.328 105.707L128.928 121.307C115.828 134.207 108.728 151.507 108.728 169.907Z" fill="#398BE4"/>
<path d="M268.328 169.907H246.328C246.328 151.507 239.128 134.207 226.228 121.207L241.828 105.607C258.928 122.807 268.328 145.607 268.328 169.907Z" fill="#1CB399"/>
<path d="M199.228 32.2071H199.128C185.828 30.1071 171.928 30.0071 158.628 31.8071C158.228 31.9071 157.828 31.6071 157.828 31.2071C157.728 30.8071 158.028 30.4071 158.428 30.4071C171.928 28.6071 185.928 28.7071 199.328 30.8071C199.728 30.9071 200.028 31.2071 199.928 31.6071C199.928 31.9071 199.628 32.2071 199.228 32.2071Z" fill="black"/>
<path d="M199.528 28.7071C201.028 28.9071 202.028 30.3071 201.828 31.8071C201.628 33.3071 200.228 34.3071 198.728 34.1071C197.228 33.9071 196.228 32.5071 196.428 31.0071C196.628 29.5071 198.028 28.5071 199.528 28.7071Z" fill="black"/>
<path d="M158.328 28.3071C156.828 28.5071 155.728 29.9071 155.928 31.4071C156.128 32.9071 157.528 34.0071 159.028 33.8071C160.528 33.6071 161.628 32.2071 161.428 30.7071C161.228 29.2071 159.828 28.1071 158.328 28.3071Z" fill="black"/>
<path d="M37.4284 168.007C37.0284 168.007 36.7284 167.707 36.7284 167.307C36.8284 161.307 37.3284 155.207 38.2284 149.307C38.3284 148.907 38.6284 148.607 39.0284 148.707C39.4284 148.807 39.7284 149.107 39.6284 149.507C38.7284 155.407 38.2284 161.407 38.1284 167.307C38.1284 167.707 37.8284 168.007 37.4284 168.007Z" fill="black"/>
<path d="M36.2284 149.107C36.4284 147.607 37.8284 146.507 39.3284 146.807C40.8284 147.007 41.9284 148.407 41.6284 149.907C41.4284 151.407 40.0284 152.507 38.5284 152.207C37.0284 152.007 36.0284 150.607 36.2284 149.107Z" fill="black"/>
<path d="M34.7284 167.107C34.7284 168.607 35.9284 169.907 37.4284 169.907C38.9284 169.907 40.2284 168.707 40.2284 167.207C40.2284 165.707 39.0284 164.407 37.5284 164.407C36.0284 164.407 34.7284 165.607 34.7284 167.107Z" fill="black"/>
<path d="M70.0283 80.707C69.8283 80.707 69.7283 80.607 69.5283 80.507C69.2283 80.207 69.1283 79.807 69.4283 79.507C72.1283 76.307 74.9283 73.207 77.8283 70.307C81.3283 66.807 85.1283 63.407 89.0283 60.207C89.3283 59.907 89.8283 60.007 90.0283 60.307C90.3283 60.607 90.2283 61.107 89.9283 61.307C86.1283 64.407 82.3283 67.807 78.8283 71.307C75.9283 74.207 73.1283 77.207 70.5283 80.407C70.5283 80.607 70.3283 80.707 70.0283 80.707Z" fill="black"/>
<path d="M72.3284 81.7071C71.3284 82.9071 69.6284 83.0071 68.4284 82.0071C67.2284 81.0071 67.1284 79.3071 68.1284 78.1071C69.1284 76.9071 70.8284 76.8071 72.0284 77.8071C73.1284 78.8071 73.3284 80.5071 72.3284 81.7071Z" fill="black"/>
<path d="M91.2283 63.1071C92.4283 62.1071 92.5283 60.4071 91.6283 59.2071C90.6283 58.0071 88.9283 57.9071 87.7283 58.8071C86.5283 59.8071 86.4283 61.5071 87.3283 62.7071C88.3283 63.9071 90.1283 64.0071 91.2283 63.1071Z" fill="black"/>
<path d="M286.028 81.907C285.828 81.907 285.628 81.807 285.428 81.607C282.528 78.007 279.328 74.507 276.128 71.307C273.128 68.307 269.928 65.407 266.728 62.707C266.428 62.407 266.328 62.007 266.628 61.707C266.928 61.407 267.328 61.307 267.628 61.607C270.928 64.307 274.128 67.307 277.128 70.307C280.428 73.607 283.628 77.107 286.528 80.707C286.828 81.007 286.728 81.507 286.428 81.707C286.328 81.907 286.228 81.907 286.028 81.907Z" fill="black"/>
<path d="M288.028 79.3071C289.028 80.5071 288.828 82.2071 287.728 83.2071C286.528 84.2071 284.828 84.0071 283.828 82.9071C282.828 81.7071 283.028 80.0071 284.128 79.0071C285.328 78.0071 287.028 78.2071 288.028 79.3071Z" fill="black"/>
<path d="M269.028 60.2071C267.828 59.2071 266.128 59.4071 265.128 60.5071C264.128 61.7071 264.328 63.4071 265.428 64.4071C266.628 65.4071 268.328 65.2071 269.328 64.1071C270.328 62.9071 270.228 61.2071 269.028 60.2071Z" fill="black"/>
<path d="M317.628 168.007C317.228 168.007 316.928 167.707 316.928 167.307C316.828 161.507 316.328 155.707 315.528 150.007C315.428 149.607 315.728 149.207 316.128 149.207C316.528 149.107 316.928 149.407 316.928 149.807C317.728 155.507 318.228 161.407 318.328 167.307C318.328 167.707 318.028 168.007 317.628 168.007Z" fill="black"/>
<path d="M320.328 167.107C320.328 168.607 319.128 169.907 317.628 169.907C316.128 169.907 314.828 168.707 314.828 167.207C314.828 165.707 316.028 164.407 317.528 164.407C319.028 164.407 320.328 165.607 320.328 167.107Z" fill="black"/>
<path d="M318.928 149.707C318.728 148.207 317.328 147.107 315.828 147.407C314.328 147.607 313.228 149.007 313.528 150.507C313.728 152.007 315.128 153.107 316.628 152.807C318.128 152.607 319.228 151.207 318.928 149.707Z" fill="black"/>
<path d="M86.9284 131.907L82.6284 122.707C83.7284 119.307 84.3284 115.607 84.3284 111.807C84.3284 91.907 68.2284 75.807 48.3284 75.807C28.4284 75.807 12.3284 91.907 12.3284 111.807C12.3284 131.707 28.4284 147.807 48.3284 147.807C60.3284 147.807 70.9284 141.907 77.5284 132.907L86.9284 131.907Z" fill="#398BE4"/>
<path d="M48.2284 149.007C27.7284 149.007 11.1284 132.307 11.1284 111.907C11.1284 91.407 27.8284 74.807 48.2284 74.807C68.7284 74.807 85.3284 91.507 85.3284 111.907C85.3284 115.607 84.8284 119.207 83.7284 122.707L88.5284 132.907L78.0284 134.007C71.0284 143.407 59.9284 149.007 48.2284 149.007ZM48.2284 76.907C28.9284 76.907 13.3284 92.607 13.3284 111.807C13.3284 131.107 29.0284 146.707 48.2284 146.707C59.3284 146.707 69.9284 141.307 76.5284 132.307L76.8284 131.907L85.3284 131.007L81.5284 122.807L81.6284 122.407C82.7284 119.007 83.2284 115.407 83.2284 111.907C83.1284 92.607 67.5284 76.907 48.2284 76.907Z" fill="white"/>
<path d="M141.428 8.2071C125.228 -3.3929 102.728 0.3071 91.1284 16.5071C79.5284 32.7071 83.2284 55.2071 99.4284 66.8071C109.128 73.8071 121.228 75.2071 131.828 71.7071L140.128 76.4071L142.028 66.4071C144.928 64.2071 147.528 61.6071 149.728 58.5071C161.328 42.3071 157.628 19.8071 141.428 8.2071Z" fill="#FC9B27"/>
<path d="M140.928 78.1071L131.728 72.9071C120.628 76.4071 108.328 74.5071 98.8284 67.7071C82.1284 55.7071 78.3284 32.507 90.2284 15.807C102.128 -0.792951 125.428 -4.69295 142.028 7.30705C158.628 19.2071 162.528 42.507 150.528 59.1071C148.428 62.1071 145.828 64.7071 142.928 66.9071L140.928 78.1071ZM131.928 70.507L139.328 74.7071L141.028 65.8071L141.328 65.507C144.228 63.4071 146.728 60.807 148.828 57.907C160.028 42.307 156.428 20.407 140.828 9.10705C125.228 -2.09295 103.328 1.50705 92.0284 17.107C80.8284 32.707 84.4284 54.6071 100.028 65.9071C109.128 72.4071 120.828 74.2071 131.428 70.7071L131.928 70.507Z" fill="white"/>
<path d="M309.028 75.807C288.828 75.807 272.428 92.207 272.428 112.407C272.428 116.207 273.028 120.007 274.128 123.407L269.728 132.807L279.328 133.907C286.028 143.107 296.728 149.007 308.928 149.007C329.128 149.007 345.528 132.607 345.528 112.407C345.528 92.207 329.228 75.807 309.028 75.807Z" fill="#1CB399"/>
<path d="M309.028 150.107C297.128 150.107 285.928 144.407 278.828 134.907L268.028 133.807L272.928 123.407C271.828 119.907 271.328 116.207 271.328 112.407C271.328 91.607 288.228 74.707 309.028 74.707C329.828 74.707 346.728 91.607 346.728 112.407C346.728 133.207 329.828 150.107 309.028 150.107ZM271.428 131.907L280.028 132.907L280.328 133.307C287.028 142.507 297.728 148.007 309.028 148.007C328.628 148.007 344.528 132.107 344.528 112.507C344.528 92.907 328.628 77.007 309.028 77.007C289.428 77.007 273.528 92.907 273.528 112.507C273.528 116.107 274.128 119.707 275.128 123.207L275.228 123.607L271.428 131.907Z" fill="white"/>
<path d="M266.528 16.907C254.628 0.307043 231.528 -3.49295 214.928 8.40705C198.328 20.307 194.528 43.407 206.428 60.007C208.728 63.207 211.328 65.807 214.328 68.107L216.228 78.407L224.728 73.607C235.528 77.207 247.928 75.707 257.928 68.607C274.628 56.507 278.428 33.407 266.528 16.907Z" fill="#FB3A58"/>
<path d="M215.428 80.007L213.328 68.607C210.328 66.307 207.728 63.607 205.528 60.607C193.328 43.507 197.228 19.707 214.228 7.50701C231.328 -4.69299 255.128 -0.792986 267.328 16.207C279.528 33.307 275.628 57.107 258.628 69.307C248.928 76.307 236.328 78.307 224.928 74.607L215.428 80.007ZM236.428 2.60701C229.228 2.60701 221.928 4.80701 215.628 9.30701C199.628 20.807 195.928 43.207 207.428 59.307C209.528 62.307 212.128 64.907 215.128 67.107L215.528 67.407L217.228 76.507L224.828 72.207L225.328 72.407C236.228 76.007 248.228 74.207 257.528 67.507C273.528 56.007 277.228 33.607 265.728 17.507C258.628 7.80701 247.628 2.60701 236.428 2.60701Z" fill="white"/>
</svg>
