<svg width="538" height="116" viewBox="0 0 538 116" fill="none" xmlns="http://www.w3.org/2000/svg">
<path d="M20.8915 29.144C20.8915 28.472 20.6035 27.896 20.0275 27.416C19.4835 26.936 18.8275 26.696 18.0595 26.696C16.5235 26.696 15.2595 27.576 14.2675 29.336C13.2755 31.064 12.7795 33.032 12.7795 35.24C12.7795 36.936 13.0995 38.472 13.7395 39.848C14.3795 41.192 15.3075 42.264 16.5235 43.064C17.7395 43.864 19.1475 44.264 20.7475 44.264C21.9315 44.264 23.0675 44.04 24.1555 43.592C25.2435 43.112 26.1235 42.6 26.7955 42.056C27.4675 41.48 28.1555 40.968 28.8595 40.52C29.5955 40.04 30.2355 39.8 30.7795 39.8C31.4835 39.8 32.0915 40.088 32.6035 40.664C33.1155 41.208 33.3715 41.784 33.3715 42.392C33.3715 43.064 33.1635 43.848 32.7475 44.744C32.3635 45.64 31.7395 46.6 30.8755 47.624C30.0115 48.616 29.0035 49.544 27.8515 50.408C26.6995 51.24 25.2595 51.944 23.5315 52.52C21.8355 53.064 20.0435 53.336 18.1555 53.336C15.6595 53.336 13.3395 52.968 11.1955 52.232C9.0835 51.464 7.2435 50.392 5.6755 49.016C4.1075 47.608 2.8755 45.848 1.9795 43.736C1.0835 41.624 0.6355 39.256 0.6355 36.632C0.6355 31.448 2.1875 27.352 5.2915 24.344C8.3955 21.336 12.4595 19.832 17.4835 19.832C20.0435 19.832 22.4115 20.264 24.5875 21.128C26.7635 21.992 28.4915 23.192 29.7715 24.728C31.0515 26.264 31.6915 27.944 31.6915 29.768C31.6915 31.88 30.9875 33.8 29.5795 35.528C28.1715 37.224 26.3475 38.072 24.1075 38.072C22.8275 38.072 21.6755 37.72 20.6515 37.016C19.6275 36.312 19.1155 35.304 19.1155 33.992C19.1155 33.384 19.4035 32.536 19.9795 31.448C20.5875 30.36 20.8915 29.592 20.8915 29.144ZM55.0773 46.28C55.9093 46.28 56.6453 46.008 57.2853 45.464C57.9573 44.888 58.4853 44.152 58.8693 43.256C59.2533 42.328 59.5413 41.32 59.7333 40.232C59.9573 39.112 60.0693 37.96 60.0693 36.776C60.0693 35.144 59.8933 33.608 59.5413 32.168C59.1893 30.696 58.6133 29.448 57.8133 28.424C57.0453 27.4 56.1333 26.888 55.0773 26.888C54.0533 26.888 53.1573 27.4 52.3893 28.424C51.6213 29.448 51.0453 30.696 50.6613 32.168C50.2773 33.64 50.0853 35.176 50.0853 36.776C50.0853 38.376 50.2613 39.88 50.6133 41.288C50.9973 42.696 51.5733 43.88 52.3413 44.84C53.1413 45.8 54.0533 46.28 55.0773 46.28ZM55.0773 53.288C52.7413 53.288 50.5493 52.92 48.5013 52.184C46.4533 51.448 44.6613 50.392 43.1253 49.016C41.6213 47.64 40.4373 45.896 39.5733 43.784C38.7093 41.672 38.2773 39.336 38.2773 36.776C38.2773 31.592 39.8293 27.48 42.9333 24.44C46.0693 21.368 50.1173 19.832 55.0773 19.832C60.0373 19.832 64.0853 21.368 67.2213 24.44C70.3573 27.48 71.9253 31.592 71.9253 36.776C71.9253 40.2 71.1573 43.176 69.6213 45.704C68.1173 48.232 66.1013 50.136 63.5733 51.416C61.0453 52.664 58.2133 53.288 55.0773 53.288ZM62.2292 9.512C63.9573 11.24 64.8213 12.648 64.8213 13.736C64.8213 14.344 64.6293 14.92 64.2453 15.464C63.8933 16.008 63.4453 16.44 62.9012 16.76C62.3573 17.048 61.7813 17.192 61.1733 17.192C60.3733 17.192 59.4613 16.68 58.4373 15.656C58.0533 15.272 57.6213 14.776 57.1413 14.168C56.6613 13.56 56.2933 13.144 56.0373 12.92C55.7813 12.696 55.5253 12.584 55.2693 12.584C55.0133 12.584 54.7413 12.728 54.4533 13.016C54.1653 13.272 53.8133 13.688 53.3973 14.264C52.9813 14.808 52.6293 15.224 52.3413 15.512C51.3173 16.568 50.3413 17.096 49.4133 17.096C48.7733 17.096 48.1653 16.952 47.5893 16.664C47.0453 16.344 46.5973 15.928 46.2453 15.416C45.9253 14.904 45.7653 14.344 45.7653 13.736C45.7653 13.512 45.7813 13.304 45.8133 13.112C45.8773 12.888 45.9573 12.68 46.0533 12.488C46.1493 12.296 46.2293 12.12 46.2933 11.96C46.3893 11.8 46.5173 11.624 46.6773 11.432C46.8373 11.208 46.9653 11.048 47.0613 10.952C47.1573 10.824 47.3013 10.664 47.4933 10.472C47.6853 10.248 47.8133 10.088 47.8773 9.992C50.2133 7.272 52.6613 5.912 55.2213 5.912C56.0533 5.912 56.8213 6.024 57.5253 6.248C58.2293 6.44 58.8853 6.76 59.4933 7.208C60.1013 7.624 60.5653 7.976 60.8853 8.264C61.2373 8.552 61.6853 8.968 62.2292 9.512ZM108.294 48.44C108.294 49.848 107.878 50.968 107.046 51.8C106.214 52.6 104.998 53 103.398 53C102.982 53 102.566 52.952 102.15 52.856C101.734 52.76 101.286 52.584 100.806 52.328C100.358 52.072 99.9583 51.832 99.6063 51.608C99.2543 51.384 98.8063 51.048 98.2623 50.6C97.7503 50.12 97.3343 49.752 97.0143 49.496C96.7263 49.208 96.2623 48.76 95.6223 48.152C94.9823 47.544 94.5183 47.096 94.2303 46.808L85.4463 38.504V48.92C85.4463 50.488 85.1423 51.56 84.5343 52.136C83.9583 52.712 83.0303 53 81.7503 53C80.3423 53 79.3023 52.68 78.6303 52.04C77.9583 51.4 77.6223 50.328 77.6223 48.824V25.64C77.6223 23.816 78.0863 22.44 79.0143 21.512C79.9423 20.584 81.2703 20.12 82.9983 20.12C84.1823 20.12 85.1263 20.312 85.8303 20.696C86.5663 21.048 87.4303 21.704 88.4223 22.664L100.566 34.76V24.296C100.566 22.92 100.902 21.896 101.574 21.224C102.278 20.52 103.222 20.168 104.406 20.168C105.782 20.168 106.774 20.488 107.382 21.128C107.99 21.768 108.294 22.808 108.294 24.248V48.44ZM132.524 28.184C132.524 27.192 131.868 26.696 130.556 26.696C129.212 26.696 128.06 27.448 127.1 28.952C126.14 30.456 125.66 32.968 125.66 36.488C125.66 39.752 126.204 42.136 127.292 43.64C128.412 45.112 129.724 45.848 131.228 45.848C131.708 45.848 132.14 45.752 132.524 45.56C132.94 45.368 133.276 45.08 133.532 44.696C133.788 44.312 133.916 43.848 133.916 43.304C133.148 43.304 132.476 43.16 131.9 42.872C131.356 42.584 130.956 42.232 130.7 41.816C130.444 41.368 130.316 40.888 130.316 40.376C130.316 39.224 130.62 38.36 131.228 37.784C131.836 37.208 132.876 36.92 134.348 36.92H140.156C142.012 36.92 143.452 37.32 144.476 38.12C145.5 38.92 146.012 40.328 146.012 42.344C146.012 45.288 144.604 47.864 141.788 50.072C138.972 52.248 135.628 53.336 131.756 53.336C128.204 53.336 125.036 52.696 122.252 51.416C119.5 50.136 117.308 48.232 115.676 45.704C114.076 43.144 113.276 40.12 113.276 36.632C113.276 31.448 114.844 27.352 117.98 24.344C121.116 21.336 125.276 19.832 130.46 19.832C132.508 19.832 134.348 19.992 135.98 20.312C137.612 20.6 138.956 21 140.012 21.512C141.1 22.024 141.996 22.648 142.7 23.384C143.436 24.088 143.948 24.84 144.236 25.64C144.556 26.44 144.716 27.272 144.716 28.136C144.716 28.744 144.62 29.336 144.428 29.912C144.236 30.456 143.884 31.016 143.372 31.592C142.892 32.136 142.14 32.584 141.116 32.936C140.092 33.288 138.86 33.464 137.42 33.464C135.308 33.464 133.964 33.16 133.388 32.552C132.812 31.912 132.524 30.456 132.524 28.184ZM195.201 48.44C195.201 49.848 194.785 50.968 193.953 51.8C193.121 52.6 191.905 53 190.305 53C189.889 53 189.473 52.952 189.057 52.856C188.641 52.76 188.193 52.584 187.713 52.328C187.265 52.072 186.865 51.832 186.513 51.608C186.161 51.384 185.713 51.048 185.169 50.6C184.657 50.12 184.241 49.752 183.921 49.496C183.633 49.208 183.169 48.76 182.529 48.152C181.889 47.544 181.425 47.096 181.137 46.808L172.353 38.504V48.92C172.353 50.488 172.049 51.56 171.441 52.136C170.865 52.712 169.937 53 168.657 53C167.249 53 166.209 52.68 165.537 52.04C164.865 51.4 164.529 50.328 164.529 48.824V25.64C164.529 23.816 164.993 22.44 165.921 21.512C166.849 20.584 168.177 20.12 169.905 20.12C171.089 20.12 172.033 20.312 172.737 20.696C173.473 21.048 174.337 21.704 175.329 22.664L187.473 34.76V24.296C187.473 22.92 187.809 21.896 188.481 21.224C189.185 20.52 190.128 20.168 191.312 20.168C192.689 20.168 193.681 20.488 194.289 21.128C194.897 21.768 195.201 22.808 195.201 24.248V48.44ZM219.43 28.184C219.43 27.192 218.774 26.696 217.462 26.696C216.118 26.696 214.966 27.448 214.006 28.952C213.046 30.456 212.566 32.968 212.566 36.488C212.566 39.752 213.11 42.136 214.198 43.64C215.318 45.112 216.63 45.848 218.134 45.848C218.614 45.848 219.046 45.752 219.43 45.56C219.846 45.368 220.182 45.08 220.438 44.696C220.694 44.312 220.822 43.848 220.822 43.304C220.054 43.304 219.382 43.16 218.806 42.872C218.262 42.584 217.862 42.232 217.606 41.816C217.35 41.368 217.222 40.888 217.222 40.376C217.222 39.224 217.526 38.36 218.134 37.784C218.742 37.208 219.782 36.92 221.254 36.92H227.062C228.918 36.92 230.358 37.32 231.382 38.12C232.406 38.92 232.918 40.328 232.918 42.344C232.918 45.288 231.51 47.864 228.694 50.072C225.878 52.248 222.534 53.336 218.662 53.336C215.11 53.336 211.942 52.696 209.158 51.416C206.406 50.136 204.214 48.232 202.582 45.704C200.982 43.144 200.182 40.12 200.182 36.632C200.182 31.448 201.75 27.352 204.886 24.344C208.022 21.336 212.182 19.832 217.366 19.832C219.414 19.832 221.254 19.992 222.886 20.312C224.518 20.6 225.862 21 226.918 21.512C228.006 22.024 228.902 22.648 229.606 23.384C230.342 24.088 230.854 24.84 231.142 25.64C231.462 26.44 231.622 27.272 231.622 28.136C231.622 28.744 231.526 29.336 231.334 29.912C231.142 30.456 230.79 31.016 230.278 31.592C229.798 32.136 229.046 32.584 228.022 32.936C226.998 33.288 225.766 33.464 224.326 33.464C222.214 33.464 220.87 33.16 220.294 32.552C219.718 31.912 219.43 30.456 219.43 28.184ZM269.985 45.8C269.985 48.392 269.521 50.248 268.593 51.368C267.665 52.456 266.257 53 264.369 53C262.513 53 261.153 52.504 260.289 51.512C259.425 50.488 258.993 48.696 258.993 46.136L258.945 40.712H249.153V45.8C249.153 48.424 248.705 50.28 247.809 51.368C246.913 52.456 245.489 53 243.537 53C241.681 53 240.321 52.504 239.457 51.512C238.593 50.488 238.161 48.696 238.161 46.136L238.017 25.88C238.017 23.896 238.513 22.44 239.505 21.512C240.529 20.584 241.873 20.12 243.537 20.12C245.457 20.12 246.865 20.472 247.761 21.176C248.689 21.88 249.153 23.304 249.153 25.448V33.512H258.897V25.88C258.897 24.536 259.137 23.432 259.617 22.568C260.129 21.672 260.769 21.048 261.537 20.696C262.337 20.312 263.281 20.12 264.369 20.12C266.225 20.12 267.617 20.472 268.545 21.176C269.505 21.88 269.985 23.304 269.985 25.448V45.8ZM295.342 33.512C297.038 33.512 298.222 33.784 298.894 34.328C299.598 34.872 299.95 35.8 299.95 37.112C299.95 37.848 299.758 38.44 299.374 38.888C299.022 39.304 298.478 39.624 297.742 39.848C297.006 40.04 296.062 40.136 294.91 40.136H287.134V45.224L297.55 45.272C299.342 45.272 300.622 45.544 301.39 46.088C302.19 46.6 302.59 47.528 302.59 48.872C302.59 50.408 302.126 51.48 301.198 52.088C300.302 52.696 298.926 53 297.07 53H281.518C279.63 53 278.238 52.504 277.342 51.512C276.478 50.488 276.046 48.696 276.046 46.136V25.88C276.046 22.04 277.87 20.12 281.518 20.12H297.07C298.286 20.12 299.278 20.232 300.046 20.456C300.814 20.68 301.422 21.096 301.87 21.704C302.35 22.28 302.59 23.08 302.59 24.104C302.59 25.512 302.19 26.504 301.39 27.08C300.622 27.624 299.342 27.896 297.55 27.896H287.086V33.512H295.342ZM296.158 9.512C297.854 11.24 298.702 12.648 298.702 13.736C298.702 14.664 298.318 15.48 297.55 16.184C296.814 16.856 295.998 17.192 295.102 17.192C294.27 17.192 293.358 16.68 292.366 15.656C291.982 15.272 291.534 14.776 291.022 14.168C290.542 13.56 290.174 13.144 289.918 12.92C289.694 12.696 289.454 12.584 289.198 12.584C288.91 12.584 288.622 12.728 288.334 13.016C288.078 13.272 287.742 13.688 287.326 14.264C286.91 14.808 286.558 15.224 286.27 15.512C285.246 16.568 284.27 17.096 283.342 17.096C282.67 17.096 282.046 16.952 281.47 16.664C280.926 16.344 280.494 15.928 280.174 15.416C279.854 14.904 279.694 14.344 279.694 13.736C279.694 13.512 279.71 13.304 279.742 13.112C279.774 12.888 279.838 12.68 279.934 12.488C280.03 12.296 280.11 12.12 280.174 11.96C280.27 11.8 280.398 11.624 280.558 11.432C280.718 11.208 280.846 11.048 280.942 10.952C281.038 10.824 281.182 10.664 281.374 10.472C281.566 10.248 281.71 10.088 281.806 9.992C284.142 7.272 286.59 5.912 289.15 5.912C289.95 5.912 290.702 6.024 291.406 6.248C292.11 6.44 292.766 6.76 293.374 7.208C294.014 7.624 294.494 7.976 294.814 8.264C295.166 8.552 295.614 8.968 296.158 9.512ZM284.542 58.712C284.542 57.624 284.99 56.744 285.886 56.072C286.814 55.4 288.11 55.064 289.774 55.064C293.262 55.064 295.006 56.28 295.006 58.712C295.006 60.056 294.558 61 293.662 61.544C292.766 62.088 291.47 62.36 289.774 62.36C288.27 62.36 287.022 62.072 286.03 61.496C285.038 60.92 284.542 59.992 284.542 58.712ZM332.274 46.472C333.106 46.472 333.826 46.392 334.434 46.232C335.074 46.04 335.666 45.72 336.21 45.272C336.786 44.792 337.25 44.168 337.602 43.4C337.954 42.632 338.226 41.656 338.418 40.472C338.642 39.256 338.754 37.832 338.754 36.2C338.754 34.376 338.594 32.84 338.274 31.592C337.954 30.312 337.49 29.352 336.882 28.712C336.274 28.04 335.602 27.576 334.866 27.32C334.162 27.032 333.298 26.872 332.274 26.84V46.472ZM333.714 20.168C338.706 20.168 342.706 21.608 345.714 24.488C348.754 27.368 350.274 31.336 350.274 36.392C350.274 38.024 350.114 39.608 349.794 41.144C349.506 42.68 349.01 44.184 348.306 45.656C347.602 47.096 346.722 48.36 345.666 49.448C344.61 50.504 343.266 51.368 341.634 52.04C340.002 52.68 338.162 53 336.114 53H326.658C324.706 53 323.298 52.504 322.434 51.512C321.602 50.52 321.186 48.728 321.186 46.136V25.88C321.186 22.072 323.01 20.168 326.658 20.168H333.714ZM369.653 27.944C368.277 27.944 367.253 28.344 366.581 29.144C365.941 29.944 365.621 31.368 365.621 33.416V39.08H373.589V33.32C373.589 31.336 373.253 29.944 372.581 29.144C371.941 28.344 370.965 27.944 369.653 27.944ZM373.589 45.704H365.621V48.248C365.621 49.88 365.189 51.08 364.325 51.848C363.461 52.616 361.973 53 359.861 53C358.965 53 358.229 52.872 357.653 52.616C357.077 52.36 356.565 51.928 356.117 51.32C355.701 50.712 355.381 49.832 355.157 48.68C354.965 47.496 354.805 46.088 354.677 44.456C354.581 42.792 354.533 40.696 354.533 38.168C354.533 36.28 354.709 34.52 355.061 32.888C355.413 31.256 355.877 29.832 356.453 28.616C357.029 27.4 357.717 26.312 358.517 25.352C359.349 24.36 360.213 23.544 361.109 22.904C362.005 22.264 362.949 21.736 363.941 21.32C364.965 20.872 365.957 20.568 366.917 20.408C367.877 20.216 368.821 20.12 369.749 20.12C371.093 20.12 372.421 20.312 373.733 20.696C375.045 21.048 376.373 21.672 377.717 22.568C379.061 23.464 380.229 24.584 381.221 25.928C382.245 27.24 383.077 28.952 383.717 31.064C384.357 33.176 384.677 35.544 384.677 38.168C384.677 40.28 384.645 42.072 384.581 43.544C384.517 45.016 384.405 46.328 384.245 47.48C384.085 48.632 383.877 49.544 383.621 50.216C383.397 50.888 383.077 51.448 382.661 51.896C382.245 52.312 381.765 52.6 381.221 52.76C380.709 52.92 380.085 53 379.349 53C377.941 53 376.805 52.824 375.941 52.472C375.077 52.088 374.469 51.56 374.117 50.888C373.765 50.216 373.589 49.336 373.589 48.248V45.704ZM375.557 12.104C376.965 13.512 377.669 14.648 377.669 15.512C377.669 16.28 377.365 16.952 376.757 17.528C376.149 18.072 375.477 18.344 374.741 18.344C374.069 18.344 373.333 17.928 372.533 17.096C372.213 16.776 371.845 16.376 371.429 15.896C371.045 15.384 370.741 15.048 370.517 14.888C370.325 14.696 370.133 14.6 369.941 14.6C369.781 14.6 369.605 14.68 369.413 14.84C369.221 15 369.045 15.192 368.885 15.416C368.725 15.608 368.517 15.864 368.261 16.184C368.005 16.504 367.781 16.76 367.589 16.952C366.725 17.816 365.925 18.248 365.189 18.248C364.389 18.248 363.685 17.992 363.077 17.48C362.501 16.936 362.213 16.28 362.213 15.512C362.213 15.32 362.245 15.128 362.309 14.936C362.373 14.712 362.437 14.536 362.501 14.408C362.565 14.248 362.661 14.072 362.789 13.88C362.949 13.656 363.061 13.496 363.125 13.4C363.221 13.304 363.365 13.144 363.557 12.92C363.781 12.696 363.909 12.552 363.941 12.488C365.829 10.28 367.813 9.176 369.893 9.176C370.757 9.176 371.573 9.368 372.341 9.752C373.141 10.104 373.733 10.44 374.117 10.76C374.501 11.08 374.981 11.528 375.557 12.104ZM367.733 6.632C367.733 7.272 367.461 7.816 366.917 8.264C366.405 8.68 365.781 8.888 365.045 8.888C363.989 8.888 363.269 8.632 362.885 8.12C362.533 7.608 362.357 6.84 362.357 5.816C362.357 4.728 362.677 3.768 363.317 2.936C363.957 2.104 364.837 1.688 365.957 1.688C366.917 1.688 367.925 1.88 368.981 2.264C370.037 2.648 370.837 3.032 371.381 3.416L372.245 3.992C372.245 3.352 372.501 2.808 373.013 2.36C373.557 1.912 374.197 1.688 374.933 1.688C375.957 1.688 376.645 1.944 376.997 2.456C377.381 2.968 377.573 3.72 377.573 4.712C377.573 5.832 377.253 6.808 376.613 7.64C376.005 8.472 375.141 8.888 374.021 8.888C373.093 8.888 372.213 8.712 371.381 8.36C370.549 7.976 369.829 7.592 369.221 7.208C368.613 6.824 368.117 6.632 367.733 6.632ZM420.529 48.44C420.529 49.848 420.113 50.968 419.281 51.8C418.449 52.6 417.233 53 415.633 53C415.217 53 414.801 52.952 414.385 52.856C413.969 52.76 413.521 52.584 413.041 52.328C412.593 52.072 412.193 51.832 411.841 51.608C411.489 51.384 411.041 51.048 410.497 50.6C409.985 50.12 409.569 49.752 409.249 49.496C408.961 49.208 408.497 48.76 407.857 48.152C407.217 47.544 406.753 47.096 406.465 46.808L397.681 38.504V48.92C397.681 50.488 397.377 51.56 396.769 52.136C396.193 52.712 395.265 53 393.985 53C392.577 53 391.537 52.68 390.865 52.04C390.193 51.4 389.857 50.328 389.857 48.824V25.64C389.857 23.816 390.321 22.44 391.249 21.512C392.177 20.584 393.505 20.12 395.233 20.12C396.417 20.12 397.361 20.312 398.065 20.696C398.801 21.048 399.665 21.704 400.657 22.664L412.801 34.76V24.296C412.801 22.92 413.137 21.896 413.809 21.224C414.513 20.52 415.457 20.168 416.641 20.168C418.017 20.168 419.009 20.488 419.617 21.128C420.225 21.768 420.529 22.808 420.529 24.248V48.44ZM452.543 20.168C457.535 20.168 461.535 21.608 464.543 24.488C467.583 27.368 469.103 31.336 469.103 36.392C469.103 38.024 468.943 39.608 468.623 41.144C468.335 42.68 467.839 44.184 467.135 45.656C466.431 47.096 465.551 48.36 464.495 49.448C463.439 50.504 462.095 51.368 460.463 52.04C458.831 52.68 456.991 53 454.943 53H445.487C443.535 53 442.127 52.504 441.263 51.512C440.431 50.52 440.015 48.728 440.015 46.136V40.664C437.455 40.632 436.175 39.512 436.175 37.304C436.175 35 437.455 33.8 440.015 33.704V25.88C440.015 22.072 441.839 20.168 445.487 20.168H452.543ZM451.103 46.472C451.935 46.472 452.655 46.392 453.263 46.232C453.903 46.04 454.495 45.72 455.039 45.272C455.615 44.792 456.079 44.168 456.431 43.4C456.783 42.632 457.055 41.656 457.247 40.472C457.471 39.256 457.583 37.832 457.583 36.2C457.583 34.376 457.423 32.84 457.103 31.592C456.783 30.312 456.319 29.352 455.711 28.712C455.103 28.04 454.431 27.576 453.695 27.32C452.991 27.032 452.127 26.872 451.103 26.84V33.704C452.479 33.8 453.439 34.136 453.983 34.712C454.559 35.288 454.847 36.216 454.847 37.496C454.847 38.168 454.703 38.728 454.415 39.176C454.159 39.624 453.759 39.96 453.215 40.184C452.671 40.408 451.967 40.552 451.103 40.616V46.472ZM482.914 12.104C481.538 13.512 480.85 14.648 480.85 15.512C480.85 16.024 480.994 16.504 481.282 16.952C481.57 17.4 481.938 17.752 482.386 18.008C482.834 18.232 483.298 18.344 483.778 18.344C484.45 18.344 485.186 17.928 485.986 17.096C486.306 16.776 486.658 16.376 487.042 15.896C487.458 15.384 487.762 15.048 487.954 14.888C488.146 14.696 488.354 14.6 488.578 14.6C488.77 14.6 488.978 14.712 489.202 14.936C489.458 15.16 489.746 15.496 490.066 15.944C490.418 16.392 490.706 16.728 490.93 16.952C491.762 17.816 492.562 18.248 493.33 18.248C493.842 18.248 494.322 18.136 494.77 17.912C495.25 17.656 495.618 17.32 495.874 16.904C496.13 16.488 496.258 16.024 496.258 15.512C496.258 15.32 496.226 15.128 496.162 14.936C496.13 14.712 496.082 14.536 496.018 14.408C495.954 14.248 495.842 14.072 495.682 13.88C495.522 13.656 495.41 13.496 495.346 13.4C495.282 13.304 495.138 13.144 494.914 12.92C494.722 12.696 494.61 12.552 494.578 12.488C492.658 10.28 490.658 9.176 488.578 9.176C487.746 9.176 486.93 9.368 486.13 9.752C485.33 10.104 484.738 10.44 484.354 10.76C484.002 11.08 483.522 11.528 482.914 12.104ZM488.434 27.944C487.058 27.944 486.034 28.344 485.362 29.144C484.722 29.944 484.402 31.368 484.402 33.416V39.08H492.37V33.32C492.37 31.336 492.034 29.944 491.362 29.144C490.722 28.344 489.746 27.944 488.434 27.944ZM492.37 45.704H484.402V48.248C484.402 49.88 483.97 51.08 483.106 51.848C482.242 52.616 480.754 53 478.642 53C477.746 53 477.01 52.872 476.434 52.616C475.858 52.36 475.346 51.928 474.898 51.32C474.482 50.712 474.162 49.832 473.938 48.68C473.746 47.496 473.586 46.088 473.458 44.456C473.362 42.792 473.314 40.696 473.314 38.168C473.314 36.28 473.49 34.52 473.842 32.888C474.194 31.256 474.658 29.832 475.234 28.616C475.81 27.4 476.498 26.312 477.298 25.352C478.13 24.36 478.994 23.544 479.89 22.904C480.786 22.264 481.73 21.736 482.722 21.32C483.746 20.872 484.738 20.568 485.698 20.408C486.658 20.216 487.602 20.12 488.53 20.12C489.874 20.12 491.202 20.312 492.514 20.696C493.826 21.048 495.154 21.672 496.498 22.568C497.842 23.464 499.01 24.584 500.002 25.928C501.026 27.24 501.858 28.952 502.498 31.064C503.138 33.176 503.458 35.544 503.458 38.168C503.458 40.28 503.426 42.072 503.362 43.544C503.298 45.016 503.186 46.328 503.026 47.48C502.866 48.632 502.658 49.544 502.402 50.216C502.178 50.888 501.858 51.448 501.442 51.896C501.026 52.312 500.546 52.6 500.002 52.76C499.49 52.92 498.866 53 498.13 53C496.722 53 495.586 52.824 494.722 52.472C493.858 52.088 493.25 51.56 492.898 50.888C492.546 50.216 492.37 49.336 492.37 48.248V45.704ZM479.026 1.016L483.49 3.8C484.034 4.184 484.402 4.44 484.594 4.568C484.786 4.696 485.01 4.968 485.266 5.384C485.522 5.768 485.65 6.2 485.65 6.68C485.65 7.128 485.538 7.528 485.314 7.88C485.122 8.2 484.818 8.472 484.402 8.696C484.018 8.888 483.57 8.984 483.058 8.984C482.514 8.984 481.922 8.888 481.282 8.696L476.578 7.112C474.978 6.504 474.178 5.544 474.178 4.232C474.178 3.368 474.45 2.536 474.994 1.736C475.57 0.935997 476.306 0.535997 477.202 0.535997C477.874 0.535997 478.482 0.695997 479.026 1.016ZM537.774 25.88V40.184C537.774 44.856 536.638 48.216 534.366 50.264C532.126 52.28 528.334 53.288 522.99 53.288C517.902 53.288 514.158 52.2 511.758 50.024C509.39 47.848 508.206 44.568 508.206 40.184V25.88C508.206 24.184 508.702 22.808 509.694 21.752C510.718 20.664 511.998 20.12 513.534 20.12C515.422 20.12 516.846 20.472 517.806 21.176C518.798 21.88 519.294 23.304 519.294 25.448V41.096C519.326 42.12 519.486 42.936 519.774 43.544C520.094 44.152 520.51 44.584 521.022 44.84C521.534 45.064 522.19 45.176 522.99 45.176C523.79 45.176 524.446 45.08 524.958 44.888C525.47 44.696 525.838 44.392 526.062 43.976C526.318 43.56 526.478 43.144 526.542 42.728C526.638 42.312 526.686 41.768 526.686 41.096V25.4C526.686 24.312 526.814 23.4 527.07 22.664C527.358 21.928 527.774 21.384 528.318 21.032C528.894 20.68 529.47 20.44 530.046 20.312C530.654 20.184 531.374 20.12 532.206 20.12C534.062 20.12 535.454 20.568 536.382 21.464C537.31 22.36 537.774 23.832 537.774 25.88ZM46.2481 98.608L40.3441 92.32C39.7361 92.608 39.2081 93.008 38.7601 93.52C38.3441 94.032 38.1361 94.576 38.1361 95.152C38.1361 95.952 38.3441 96.656 38.7601 97.264C39.2081 97.872 39.7841 98.336 40.4881 98.656C41.2241 98.944 42.0241 99.088 42.8881 99.088C44.1041 99.088 45.2241 98.928 46.2481 98.608ZM31.0321 80.656C31.0321 79.024 31.5761 77.632 32.6641 76.48C33.7841 75.296 35.2081 74.448 36.9361 73.936C38.6961 73.424 40.6961 73.168 42.9361 73.168C44.7281 73.168 46.3761 73.344 47.8801 73.696C49.3841 74.016 50.6641 74.496 51.7201 75.136C52.7761 75.776 53.5921 76.576 54.1681 77.536C54.7761 78.464 55.0801 79.504 55.0801 80.656C55.0801 83.632 53.7521 86.048 51.0961 87.904C52.7281 89.92 54.4401 91.952 56.2321 94C56.8081 92.816 57.4161 91.536 58.0561 90.16C58.3441 89.488 58.7121 89.056 59.1601 88.864C59.6401 88.64 60.3121 88.528 61.1761 88.528C62.0721 88.528 62.7761 88.752 63.2881 89.2C63.8321 89.648 64.1041 90.288 64.1041 91.12C64.1041 92.208 63.8321 93.552 63.2881 95.152C62.7761 96.752 62.1841 98.128 61.5121 99.28C61.7681 99.76 62.2481 100.272 62.9521 100.816C63.6881 101.328 64.3281 101.808 64.8721 102.256C65.4161 102.672 65.6881 103.104 65.6881 103.552C65.6881 104.192 65.4321 104.816 64.9201 105.424C64.4081 106.032 63.5281 106.336 62.2801 106.336C61.1281 106.336 60.1521 106.208 59.3521 105.952C58.5521 105.696 57.7681 105.328 57.0001 104.848C56.2641 104.336 55.8161 104.048 55.6561 103.984C51.1441 105.552 46.7441 106.336 42.4561 106.336C40.1841 106.336 38.1521 106.112 36.3601 105.664C34.5681 105.184 33.1121 104.592 31.9921 103.888C30.9041 103.184 29.9761 102.368 29.2081 101.44C28.4721 100.48 27.9601 99.552 27.6721 98.656C27.3841 97.728 27.2401 96.816 27.2401 95.92C27.2401 93.776 27.8481 91.92 29.0641 90.352C30.3121 88.752 31.8801 87.568 33.7681 86.8C31.9441 85.104 31.0321 83.056 31.0321 80.656ZM45.0961 80.608C45.0961 80 45.0161 79.472 44.8561 79.024C44.7281 78.544 44.5041 78.176 44.1841 77.92C43.8641 77.632 43.4801 77.488 43.0321 77.488C42.3601 77.488 41.8321 77.792 41.4481 78.4C41.0961 78.976 40.9201 79.728 40.9201 80.656C40.9201 81.616 41.0961 82.464 41.4481 83.2C41.8321 83.904 42.3601 84.256 43.0321 84.256C43.7041 84.256 44.2161 83.904 44.5681 83.2C44.9201 82.464 45.0961 81.6 45.0961 80.608ZM95.6603 73.168C100.652 73.168 104.652 74.608 107.66 77.488C110.7 80.368 112.22 84.336 112.22 89.392C112.22 91.024 112.06 92.608 111.74 94.144C111.452 95.68 110.956 97.184 110.252 98.656C109.548 100.096 108.668 101.36 107.612 102.448C106.556 103.504 105.212 104.368 103.58 105.04C101.948 105.68 100.108 106 98.0603 106H88.6043C86.6523 106 85.2443 105.504 84.3803 104.512C83.5483 103.52 83.1323 101.728 83.1323 99.136V93.664C80.5723 93.632 79.2923 92.512 79.2923 90.304C79.2923 88 80.5723 86.8 83.1323 86.704V78.88C83.1323 75.072 84.9563 73.168 88.6043 73.168H95.6603ZM94.2203 99.472C95.0523 99.472 95.7723 99.392 96.3803 99.232C97.0203 99.04 97.6123 98.72 98.1563 98.272C98.7323 97.792 99.1963 97.168 99.5483 96.4C99.9003 95.632 100.172 94.656 100.364 93.472C100.588 92.256 100.7 90.832 100.7 89.2C100.7 87.376 100.54 85.84 100.22 84.592C99.9003 83.312 99.4363 82.352 98.8283 81.712C98.2203 81.04 97.5483 80.576 96.8123 80.32C96.1083 80.032 95.2443 79.872 94.2203 79.84V86.704C95.5963 86.8 96.5563 87.136 97.1003 87.712C97.6763 88.288 97.9643 89.216 97.9643 90.496C97.9643 91.168 97.8203 91.728 97.5323 92.176C97.2763 92.624 96.8763 92.96 96.3323 93.184C95.7883 93.408 95.0843 93.552 94.2203 93.616V99.472ZM143.407 54.064C143.983 53.744 144.607 53.584 145.279 53.584C146.175 53.584 146.895 53.984 147.439 54.784C148.015 55.584 148.303 56.416 148.303 57.28C148.303 58.56 147.503 59.52 145.903 60.16L141.199 61.744C140.559 61.936 139.967 62.032 139.423 62.032C138.655 62.032 138.031 61.808 137.551 61.36C137.071 60.912 136.831 60.368 136.831 59.728C136.831 59.248 136.959 58.816 137.215 58.432C137.471 58.016 137.695 57.744 137.887 57.616C138.079 57.456 138.447 57.2 138.991 56.848L143.407 54.064ZM139.519 65.152C140.927 66.56 141.631 67.696 141.631 68.56C141.631 69.328 141.327 70 140.719 70.576C140.111 71.12 139.439 71.392 138.703 71.392C138.031 71.392 137.295 70.976 136.495 70.144C136.175 69.824 135.807 69.424 135.391 68.944C135.007 68.432 134.703 68.096 134.479 67.936C134.287 67.744 134.095 67.648 133.903 67.648C133.743 67.648 133.567 67.728 133.375 67.888C133.183 68.048 133.007 68.24 132.847 68.464C132.687 68.656 132.479 68.912 132.223 69.232C131.967 69.552 131.743 69.808 131.551 70C130.687 70.864 129.887 71.296 129.151 71.296C128.351 71.296 127.647 71.04 127.039 70.528C126.463 69.984 126.175 69.328 126.175 68.56C126.175 68.368 126.207 68.176 126.271 67.984C126.335 67.76 126.399 67.584 126.463 67.456C126.527 67.296 126.623 67.12 126.751 66.928C126.911 66.704 127.023 66.544 127.087 66.448C127.183 66.352 127.327 66.192 127.519 65.968C127.743 65.744 127.871 65.6 127.903 65.536C129.791 63.328 131.775 62.224 133.855 62.224C134.719 62.224 135.535 62.416 136.303 62.8C137.103 63.152 137.695 63.488 138.079 63.808C138.463 64.128 138.943 64.576 139.519 65.152ZM133.663 99.28C134.495 99.28 135.231 99.008 135.871 98.464C136.543 97.888 137.071 97.152 137.455 96.256C137.839 95.328 138.127 94.32 138.319 93.232C138.543 92.112 138.655 90.96 138.655 89.776C138.655 88.144 138.479 86.608 138.127 85.168C137.775 83.696 137.199 82.448 136.399 81.424C135.631 80.4 134.719 79.888 133.663 79.888C132.639 79.888 131.743 80.4 130.975 81.424C130.207 82.448 129.631 83.696 129.247 85.168C128.863 86.64 128.671 88.176 128.671 89.776C128.671 91.376 128.847 92.88 129.199 94.288C129.583 95.696 130.159 96.88 130.927 97.84C131.727 98.8 132.639 99.28 133.663 99.28ZM133.663 106.288C131.327 106.288 129.135 105.92 127.087 105.184C125.039 104.448 123.247 103.392 121.711 102.016C120.207 100.64 119.023 98.896 118.159 96.784C117.295 94.672 116.863 92.336 116.863 89.776C116.863 84.592 118.415 80.48 121.519 77.44C124.655 74.368 128.703 72.832 133.663 72.832C138.623 72.832 142.671 74.368 145.807 77.44C148.943 80.48 150.511 84.592 150.511 89.776C150.511 93.2 149.743 96.176 148.207 98.704C146.703 101.232 144.687 103.136 142.159 104.416C139.631 105.664 136.799 106.288 133.663 106.288ZM167.392 98.8C167.392 101.296 166.928 103.12 166 104.272C165.072 105.424 163.664 106 161.776 106C159.92 106 158.544 105.504 157.648 104.512C156.784 103.52 156.352 101.744 156.352 99.184V78.88C156.352 75.04 158.16 73.12 161.776 73.12C163.632 73.12 165.024 73.472 165.952 74.176C166.912 74.88 167.392 76.304 167.392 78.448V98.8ZM207.03 98.8C207.03 100.624 206.806 102.08 206.358 103.168C205.91 104.224 205.286 104.96 204.486 105.376C203.718 105.792 202.694 106 201.414 106C199.526 106 198.15 105.504 197.286 104.512C196.454 103.488 196.022 101.696 195.99 99.136L195.894 81.424H191.814C189.798 81.424 188.278 81.104 187.254 80.464C186.262 79.824 185.766 78.688 185.766 77.056C185.766 76.064 185.958 75.28 186.342 74.704C186.758 74.128 187.366 73.728 188.166 73.504C188.966 73.248 190.038 73.12 191.382 73.12H211.926C213.718 73.12 215.014 73.44 215.814 74.08C216.614 74.72 217.014 75.824 217.014 77.392C217.014 78.448 216.774 79.28 216.294 79.888C215.846 80.464 215.238 80.864 214.47 81.088C213.702 81.312 212.71 81.424 211.494 81.424H207.03V98.8ZM235.989 80.944C234.613 80.944 233.589 81.344 232.917 82.144C232.277 82.944 231.957 84.368 231.957 86.416V92.08H239.925V86.32C239.925 84.336 239.589 82.944 238.917 82.144C238.277 81.344 237.301 80.944 235.989 80.944ZM239.925 98.704H231.957V101.248C231.957 102.88 231.525 104.08 230.661 104.848C229.797 105.616 228.309 106 226.197 106C225.301 106 224.565 105.872 223.989 105.616C223.413 105.36 222.901 104.928 222.453 104.32C222.037 103.712 221.717 102.832 221.493 101.68C221.301 100.496 221.141 99.088 221.013 97.456C220.917 95.792 220.869 93.696 220.869 91.168C220.869 89.28 221.045 87.52 221.397 85.888C221.749 84.256 222.213 82.832 222.789 81.616C223.365 80.4 224.053 79.312 224.853 78.352C225.685 77.36 226.549 76.544 227.445 75.904C228.341 75.264 229.285 74.736 230.277 74.32C231.301 73.872 232.293 73.568 233.253 73.408C234.213 73.216 235.157 73.12 236.085 73.12C237.429 73.12 238.757 73.312 240.069 73.696C241.381 74.048 242.709 74.672 244.053 75.568C245.397 76.464 246.565 77.584 247.557 78.928C248.581 80.24 249.413 81.952 250.053 84.064C250.693 86.176 251.013 88.544 251.013 91.168C251.013 93.28 250.981 95.072 250.917 96.544C250.853 98.016 250.741 99.328 250.581 100.48C250.421 101.632 250.213 102.544 249.957 103.216C249.733 103.888 249.413 104.448 248.997 104.896C248.581 105.312 248.101 105.6 247.557 105.76C247.045 105.92 246.421 106 245.685 106C244.277 106 243.141 105.824 242.277 105.472C241.413 105.088 240.805 104.56 240.453 103.888C240.101 103.216 239.925 102.336 239.925 101.248V98.704ZM239.733 59.104C240.469 58.656 241.301 58.432 242.229 58.432C243.477 58.432 244.485 58.976 245.253 60.064C246.021 61.152 246.405 62.304 246.405 63.52C246.405 65.312 245.301 66.624 243.093 67.456L236.661 69.616C235.765 69.904 234.949 70.048 234.213 70.048C233.157 70.048 232.293 69.744 231.621 69.136C230.981 68.528 230.661 67.776 230.661 66.88C230.661 66.272 230.805 65.712 231.093 65.2C231.381 64.688 231.669 64.32 231.957 64.096C232.277 63.84 232.741 63.52 233.349 63.136C233.477 63.04 233.573 62.976 233.637 62.944L239.733 59.104ZM275.681 82.144C275.681 81.472 275.393 80.896 274.817 80.416C274.273 79.936 273.617 79.696 272.849 79.696C271.313 79.696 270.049 80.576 269.057 82.336C268.065 84.064 267.569 86.032 267.569 88.24C267.569 89.936 267.889 91.472 268.529 92.848C269.169 94.192 270.097 95.264 271.313 96.064C272.529 96.864 273.937 97.264 275.537 97.264C276.721 97.264 277.857 97.04 278.945 96.592C280.033 96.112 280.913 95.6 281.585 95.056C282.257 94.48 282.945 93.968 283.649 93.52C284.385 93.04 285.025 92.8 285.569 92.8C286.273 92.8 286.881 93.088 287.393 93.664C287.905 94.208 288.161 94.784 288.161 95.392C288.161 96.064 287.953 96.848 287.537 97.744C287.153 98.64 286.529 99.6 285.665 100.624C284.801 101.616 283.793 102.544 282.641 103.408C281.489 104.24 280.049 104.944 278.321 105.52C276.625 106.064 274.833 106.336 272.945 106.336C270.449 106.336 268.129 105.968 265.985 105.232C263.873 104.464 262.033 103.392 260.465 102.016C258.897 100.608 257.665 98.848 256.769 96.736C255.873 94.624 255.425 92.256 255.425 89.632C255.425 84.448 256.977 80.352 260.081 77.344C263.185 74.336 267.249 72.832 272.273 72.832C274.833 72.832 277.201 73.264 279.377 74.128C281.553 74.992 283.281 76.192 284.561 77.728C285.841 79.264 286.481 80.944 286.481 82.768C286.481 84.88 285.777 86.8 284.369 88.528C282.961 90.224 281.137 91.072 278.897 91.072C277.617 91.072 276.465 90.72 275.441 90.016C274.417 89.312 273.905 88.304 273.905 86.992C273.905 86.384 274.193 85.536 274.769 84.448C275.377 83.36 275.681 82.592 275.681 82.144ZM327.124 98.8C327.124 100.624 326.9 102.08 326.452 103.168C326.004 104.224 325.38 104.96 324.58 105.376C323.812 105.792 322.788 106 321.508 106C319.62 106 318.244 105.504 317.38 104.512C316.548 103.488 316.116 101.696 316.084 99.136L315.988 81.424H311.908C309.892 81.424 308.372 81.104 307.348 80.464C306.356 79.824 305.86 78.688 305.86 77.056C305.86 76.064 306.052 75.28 306.436 74.704C306.852 74.128 307.46 73.728 308.26 73.504C309.06 73.248 310.132 73.12 311.476 73.12H332.02C333.812 73.12 335.108 73.44 335.908 74.08C336.708 74.72 337.108 75.824 337.108 77.392C337.108 78.448 336.868 79.28 336.388 79.888C335.94 80.464 335.332 80.864 334.564 81.088C333.796 81.312 332.804 81.424 331.588 81.424H327.124V98.8ZM353.298 98.8C353.298 101.296 352.834 103.12 351.906 104.272C350.978 105.424 349.57 106 347.682 106C345.826 106 344.45 105.504 343.554 104.512C342.69 103.52 342.258 101.744 342.258 99.184V78.88C342.258 75.04 344.066 73.12 347.682 73.12C349.538 73.12 350.93 73.472 351.858 74.176C352.818 74.88 353.298 76.304 353.298 78.448V98.8ZM390.271 101.44C390.271 102.848 389.855 103.968 389.023 104.8C388.191 105.6 386.975 106 385.375 106C384.959 106 384.543 105.952 384.127 105.856C383.711 105.76 383.263 105.584 382.783 105.328C382.335 105.072 381.935 104.832 381.583 104.608C381.231 104.384 380.783 104.048 380.239 103.6C379.727 103.12 379.311 102.752 378.991 102.496C378.703 102.208 378.239 101.76 377.599 101.152C376.959 100.544 376.495 100.096 376.207 99.808L367.423 91.504V101.92C367.423 103.488 367.119 104.56 366.511 105.136C365.935 105.712 365.007 106 363.727 106C362.319 106 361.279 105.68 360.607 105.04C359.935 104.4 359.599 103.328 359.599 101.824V78.64C359.599 76.816 360.063 75.44 360.991 74.512C361.919 73.584 363.247 73.12 364.975 73.12C366.159 73.12 367.103 73.312 367.807 73.696C368.543 74.048 369.407 74.704 370.399 75.664L382.543 87.76V77.296C382.543 75.92 382.879 74.896 383.551 74.224C384.255 73.52 385.199 73.168 386.383 73.168C387.759 73.168 388.751 73.488 389.359 74.128C389.967 74.768 390.271 75.808 390.271 77.248V101.44ZM429.149 82.144C429.149 81.472 428.861 80.896 428.285 80.416C427.741 79.936 427.085 79.696 426.317 79.696C424.781 79.696 423.517 80.576 422.525 82.336C421.533 84.064 421.037 86.032 421.037 88.24C421.037 89.936 421.357 91.472 421.997 92.848C422.637 94.192 423.565 95.264 424.781 96.064C425.997 96.864 427.405 97.264 429.005 97.264C430.189 97.264 431.325 97.04 432.413 96.592C433.501 96.112 434.381 95.6 435.053 95.056C435.725 94.48 436.413 93.968 437.117 93.52C437.853 93.04 438.493 92.8 439.037 92.8C439.741 92.8 440.349 93.088 440.861 93.664C441.373 94.208 441.629 94.784 441.629 95.392C441.629 96.064 441.421 96.848 441.005 97.744C440.621 98.64 439.997 99.6 439.133 100.624C438.269 101.616 437.261 102.544 436.109 103.408C434.957 104.24 433.517 104.944 431.789 105.52C430.093 106.064 428.301 106.336 426.413 106.336C423.917 106.336 421.597 105.968 419.453 105.232C417.341 104.464 415.501 103.392 413.933 102.016C412.365 100.608 411.133 98.848 410.237 96.736C409.341 94.624 408.893 92.256 408.893 89.632C408.893 84.448 410.445 80.352 413.549 77.344C416.653 74.336 420.717 72.832 425.741 72.832C428.301 72.832 430.669 73.264 432.845 74.128C435.021 74.992 436.749 76.192 438.029 77.728C439.309 79.264 439.949 80.944 439.949 82.768C439.949 84.88 439.245 86.8 437.837 88.528C436.429 90.224 434.605 91.072 432.365 91.072C431.085 91.072 429.933 90.72 428.909 90.016C427.885 89.312 427.373 88.304 427.373 86.992C427.373 86.384 427.661 85.536 428.237 84.448C428.845 83.36 429.149 82.592 429.149 82.144ZM455.847 111.712C455.847 110.624 456.295 109.744 457.191 109.072C458.119 108.4 459.415 108.064 461.079 108.064C464.567 108.064 466.311 109.28 466.311 111.712C466.311 113.056 465.863 114 464.967 114.544C464.071 115.088 462.775 115.36 461.079 115.36C459.575 115.36 458.327 115.072 457.335 114.496C456.343 113.92 455.847 112.992 455.847 111.712ZM461.223 80.944C459.847 80.944 458.823 81.344 458.151 82.144C457.511 82.944 457.191 84.368 457.191 86.416V92.08H465.159V86.32C465.159 84.336 464.823 82.944 464.151 82.144C463.511 81.344 462.535 80.944 461.223 80.944ZM465.159 98.704H457.191V101.248C457.191 102.88 456.759 104.08 455.895 104.848C455.031 105.616 453.543 106 451.431 106C450.535 106 449.799 105.872 449.223 105.616C448.647 105.36 448.135 104.928 447.687 104.32C447.271 103.712 446.951 102.832 446.727 101.68C446.535 100.496 446.375 99.088 446.247 97.456C446.151 95.792 446.103 93.696 446.103 91.168C446.103 89.28 446.279 87.52 446.631 85.888C446.983 84.256 447.447 82.832 448.023 81.616C448.599 80.4 449.287 79.312 450.087 78.352C450.919 77.36 451.783 76.544 452.679 75.904C453.575 75.264 454.519 74.736 455.511 74.32C456.535 73.872 457.527 73.568 458.487 73.408C459.447 73.216 460.391 73.12 461.319 73.12C462.663 73.12 463.991 73.312 465.303 73.696C466.615 74.048 467.943 74.672 469.287 75.568C470.631 76.464 471.799 77.584 472.791 78.928C473.815 80.24 474.647 81.952 475.287 84.064C475.927 86.176 476.247 88.544 476.247 91.168C476.247 93.28 476.215 95.072 476.151 96.544C476.087 98.016 475.975 99.328 475.815 100.48C475.655 101.632 475.447 102.544 475.191 103.216C474.967 103.888 474.647 104.448 474.231 104.896C473.815 105.312 473.335 105.6 472.791 105.76C472.279 105.92 471.655 106 470.919 106C469.511 106 468.375 105.824 467.511 105.472C466.647 105.088 466.039 104.56 465.687 103.888C465.335 103.216 465.159 102.336 465.159 101.248V98.704ZM468.327 62.512C470.023 64.24 470.871 65.648 470.871 66.736C470.871 67.664 470.487 68.48 469.719 69.184C468.983 69.856 468.167 70.192 467.271 70.192C466.439 70.192 465.527 69.68 464.535 68.656C464.151 68.272 463.703 67.776 463.191 67.168C462.711 66.56 462.343 66.144 462.087 65.92C461.863 65.696 461.623 65.584 461.367 65.584C461.111 65.584 460.839 65.728 460.551 66.016C460.263 66.272 459.911 66.688 459.495 67.264C459.079 67.808 458.727 68.224 458.439 68.512C457.415 69.568 456.439 70.096 455.511 70.096C454.839 70.096 454.215 69.952 453.639 69.664C453.095 69.344 452.663 68.928 452.343 68.416C452.023 67.904 451.863 67.344 451.863 66.736C451.863 66.512 451.879 66.304 451.911 66.112C451.943 65.888 452.007 65.68 452.103 65.488C452.199 65.296 452.295 65.12 452.391 64.96C452.487 64.8 452.615 64.624 452.775 64.432C452.935 64.208 453.047 64.048 453.111 63.952C453.207 63.824 453.351 63.664 453.543 63.472C453.735 63.248 453.879 63.088 453.975 62.992C456.311 60.272 458.759 58.912 461.319 58.912C462.119 58.912 462.871 59.024 463.575 59.248C464.279 59.44 464.935 59.76 465.543 60.208C466.183 60.624 466.663 60.976 466.983 61.264C467.335 61.552 467.783 61.968 468.327 62.512ZM500.771 98.8C500.771 101.392 500.307 103.248 499.379 104.368C498.451 105.456 497.027 106 495.107 106C493.251 106 491.891 105.504 491.027 104.512C490.163 103.488 489.715 101.696 489.683 99.136L489.635 91.36L482.243 82.72C480.899 81.184 480.227 79.856 480.227 78.736C480.227 76.976 480.899 75.584 482.243 74.56C483.523 73.6 484.659 73.12 485.651 73.12C487.027 73.12 488.259 73.744 489.347 74.992L495.203 81.808L500.099 76.096C501.731 74.144 503.475 73.168 505.331 73.168C506.707 73.168 507.779 73.552 508.547 74.32C509.859 75.632 510.515 76.896 510.515 78.112C510.515 78.784 510.291 79.504 509.843 80.272C509.395 81.008 508.675 81.968 507.683 83.152L500.771 91.6V98.8Z" fill="#EC495B"/>
</svg>
